<svg xmlns="http://www.w3.org/2000/svg" xmlns:xlink="http://www.w3.org/1999/xlink" viewBox="0 0 71.74 44.45"><defs><style>.cls-1{fill:url(#linear-gradient);}.cls-2{fill:url(#linear-gradient-2);}.cls-3{fill:url(#linear-gradient-3);}.cls-4{fill:url(#linear-gradient-4);}.cls-5{fill:#ffe6f7;}.cls-6{fill:url(#linear-gradient-5);}.cls-7{fill:url(#linear-gradient-6);}</style><linearGradient id="linear-gradient" x1="304.16" y1="236.25" x2="319.65" y2="236.25" gradientTransform="matrix(-0.54, 0.84, -0.84, -0.54, 390.24, -110.49)" gradientUnits="userSpaceOnUse"><stop offset="0" stop-color="#d9c04a"/><stop offset="1" stop-color="#d98436"/></linearGradient><linearGradient id="linear-gradient-2" x1="302.27" y1="236.25" x2="317.76" y2="236.25" gradientTransform="matrix(-0.54, 0.84, -0.84, -0.54, 390.24, -110.49)" gradientUnits="userSpaceOnUse"><stop offset="0" stop-color="#d9c04a"/><stop offset="1" stop-color="#c67722"/></linearGradient><linearGradient id="linear-gradient-3" x1="0" y1="24.39" x2="6.41" y2="24.39" gradientTransform="matrix(1, 0, 0, 1, 0, 0)" xlink:href="#linear-gradient"/><linearGradient id="linear-gradient-4" x1="17.89" y1="41.25" x2="24.3" y2="41.25" gradientTransform="matrix(1, 0, 0, 1, 0, 0)" xlink:href="#linear-gradient"/><linearGradient id="linear-gradient-5" x1="50.84" y1="21.45" x2="61.55" y2="30.63" gradientUnits="userSpaceOnUse"><stop offset="0" stop-color="#ff73a7"/><stop offset="1" stop-color="#a91945"/></linearGradient><linearGradient id="linear-gradient-6" x1="31.74" y1="34.65" x2="37.44" y2="39.54" xlink:href="#linear-gradient-5"/></defs><g id="Ebene_2" data-name="Ebene 2"><g id="_ŽÓť_2" data-name="—ŽÓť_2"><g id="Plan3"><path class="cls-1" d="M18.74,30.9a7.74,7.74,0,1,1,10.7-2.33A7.74,7.74,0,0,1,18.74,30.9Z"/><path class="cls-2" d="M16.76,19.75c-.12.16-.25.29-.36.45a7.75,7.75,0,0,0,13,8.37A12.82,12.82,0,0,1,16.76,19.75Z"/><path class="cls-3" d="M6.41,24.39A3.21,3.21,0,1,1,3.2,21.18,3.21,3.21,0,0,1,6.41,24.39Z"/><path class="cls-4" d="M24.3,41.25A3.21,3.21,0,1,1,21.1,38,3.2,3.2,0,0,1,24.3,41.25Z"/><path class="cls-5" d="M63.16,1.21a5.73,5.73,0,0,0,1,2.78,5,5,0,0,0,2.58.79,5.62,5.62,0,0,0-2.58.79c-.88.7-1,2.79-1,2.79a5.37,5.37,0,0,0-.89-2.79c-.61-.64-2.68-.79-2.68-.79s2.06-.16,2.68-.81A5.2,5.2,0,0,0,63.16,1.21Z"/><path class="cls-5" d="M40.6,10.82a4.62,4.62,0,0,0,.81,2.25,4.12,4.12,0,0,0,2.09.64,4.53,4.53,0,0,0-2.09.64c-.71.56-.81,2.25-.81,2.25a4.38,4.38,0,0,0-.72-2.25c-.49-.52-2.17-.64-2.17-.64a4.69,4.69,0,0,0,2.17-.65A4.28,4.28,0,0,0,40.6,10.82Z"/><path class="cls-5" d="M9,10.82a4.57,4.57,0,0,0,.8,2.25,4.12,4.12,0,0,0,2.09.64,4.53,4.53,0,0,0-2.09.64C9.1,14.91,9,16.6,9,16.6a4.33,4.33,0,0,0-.73-2.25c-.49-.52-2.17-.64-2.17-.64a4.69,4.69,0,0,0,2.17-.65A4.23,4.23,0,0,0,9,10.82Z"/><path class="cls-5" d="M25.88,0s.26,2.65,1.34,3.72c.92.93,3.44,1.06,3.44,1.06a7.55,7.55,0,0,0-3.45,1.06c-1.17.93-1.33,3.73-1.33,3.73s-.13-2.6-1.2-3.73C23.86,5,21.1,4.78,21.1,4.78s2.76-.21,3.58-1.08C25.76,2.56,25.88,0,25.88,0Z"/><path class="cls-5" d="M69.31,28.75A3.9,3.9,0,0,0,70,30.63a3.46,3.46,0,0,0,1.75.54,3.79,3.79,0,0,0-1.75.54c-.6.47-.68,1.88-.68,1.88a3.6,3.6,0,0,0-.6-1.88c-.42-.44-1.82-.54-1.82-.54a3.91,3.91,0,0,0,1.82-.55A3.58,3.58,0,0,0,69.31,28.75Z"/><path class="cls-5" d="M42.29,28.13a2,2,0,0,0,.35,1,1.73,1.73,0,0,0,.91.28,1.9,1.9,0,0,0-.91.28c-.31.24-.35,1-.35,1a1.84,1.84,0,0,0-.31-1,2,2,0,0,0-.94-.28,2.1,2.1,0,0,0,.94-.28A1.89,1.89,0,0,0,42.29,28.13Z"/><path class="cls-6" d="M62,25.94a6,6,0,1,1-6-6A6,6,0,0,1,62,25.94Z"/><path class="cls-7" d="M37.7,37a3.17,3.17,0,1,1-3.17-3.16A3.17,3.17,0,0,1,37.7,37Z"/></g></g></g></svg>