<svg xmlns="http://www.w3.org/2000/svg" xmlns:xlink="http://www.w3.org/1999/xlink" viewBox="0 0 116.57 116.54"><defs><style>.cls-1,.cls-2{opacity:0.29;}.cls-1{fill:url(#linear-gradient);}.cls-2{fill:url(#linear-gradient-2);}.cls-3{fill:url(#linear-gradient-3);}.cls-4{fill:url(#linear-gradient-4);}.cls-5{fill:url(#linear-gradient-5);}.cls-6{fill:url(#linear-gradient-6);}.cls-7{fill:url(#linear-gradient-7);}.cls-8{fill:url(#linear-gradient-8);}.cls-9{fill:url(#linear-gradient-9);}.cls-10{fill:url(#linear-gradient-10);}.cls-11{fill:url(#linear-gradient-11);}.cls-12{fill:url(#linear-gradient-12);}.cls-13{fill:url(#linear-gradient-13);}.cls-14{fill:url(#linear-gradient-14);}.cls-15{fill:url(#linear-gradient-15);}</style><linearGradient id="linear-gradient" x1="-1.17" y1="-1.84" x2="121.57" y2="122.27" gradientUnits="userSpaceOnUse"><stop offset="0" stop-color="#d9c04a"/><stop offset="1" stop-color="#d98436"/></linearGradient><linearGradient id="linear-gradient-2" x1="6.51" y1="5.92" x2="113.4" y2="114.01" xlink:href="#linear-gradient"/><linearGradient id="linear-gradient-3" x1="110.15" y1="-14.78" x2="41.48" y2="68.95" gradientTransform="matrix(0.99, -0.15, 0.15, 0.99, -22.09, 44.93)" xlink:href="#linear-gradient"/><linearGradient id="linear-gradient-4" x1="87.32" y1="-17.19" x2="28.1" y2="55" gradientTransform="matrix(0.99, -0.15, 0.15, 0.99, -22.09, 44.93)" gradientUnits="userSpaceOnUse"><stop offset="0" stop-color="#d9ca60"/><stop offset="1" stop-color="#d9a54c"/></linearGradient><linearGradient id="linear-gradient-5" x1="117.06" y1="-0.86" x2="84.69" y2="38.6" gradientTransform="matrix(0.99, -0.15, 0.15, 0.99, -22.09, 44.93)" gradientUnits="userSpaceOnUse"><stop offset="0" stop-color="#d9ca60"/><stop offset="1" stop-color="#d9b84c"/></linearGradient><linearGradient id="linear-gradient-6" x1="97.68" y1="26.34" x2="58.41" y2="74.21" xlink:href="#linear-gradient-4"/><linearGradient id="linear-gradient-7" x1="73.9" y1="-12.69" x2="19.1" y2="54.13" gradientTransform="matrix(0.99, -0.15, 0.15, 0.99, -22.09, 44.93)" gradientUnits="userSpaceOnUse"><stop offset="0" stop-color="#ecdd83"/><stop offset="1" stop-color="#d9ac4c"/></linearGradient><linearGradient id="linear-gradient-8" x1="88.45" y1="34.87" x2="57.04" y2="73.17" xlink:href="#linear-gradient-7"/><linearGradient id="linear-gradient-9" x1="115.76" y1="-6.73" x2="74.38" y2="43.73" xlink:href="#linear-gradient-7"/><linearGradient id="linear-gradient-10" x1="110.16" y1="-14.78" x2="41.48" y2="68.95" gradientTransform="matrix(0.99, -0.15, 0.15, 0.99, -22.09, 44.93)" gradientUnits="userSpaceOnUse"><stop offset="0" stop-color="#d9c04a"/><stop offset="1" stop-color="#c66445"/></linearGradient><linearGradient id="linear-gradient-11" x1="87.31" y1="-17.19" x2="28.11" y2="55" gradientTransform="matrix(0.99, -0.15, 0.15, 0.99, -22.09, 44.93)" gradientUnits="userSpaceOnUse"><stop offset="0" stop-color="#d9ca60"/><stop offset="1" stop-color="#d9774f"/></linearGradient><linearGradient id="linear-gradient-12" x1="98.12" y1="26.7" x2="58.85" y2="74.58" xlink:href="#linear-gradient-11"/><linearGradient id="linear-gradient-13" x1="73.9" y1="-12.69" x2="19.1" y2="54.13" gradientTransform="matrix(0.99, -0.15, 0.15, 0.99, -22.09, 44.93)" gradientUnits="userSpaceOnUse"><stop offset="0" stop-color="#d9ca60"/><stop offset="1" stop-color="#d9986d"/></linearGradient><linearGradient id="linear-gradient-14" x1="88.46" y1="34.87" x2="57.04" y2="73.17" xlink:href="#linear-gradient-13"/><linearGradient id="linear-gradient-15" x1="146.12" y1="0.82" x2="104.74" y2="51.28" xlink:href="#linear-gradient-4"/></defs><g id="Ebene_2" data-name="Ebene 2"><g id="_ŽÓť_2" data-name="—ŽÓť_2"><g id="Sun"><path class="cls-1" d="M116.57,58.26A58.28,58.28,0,0,1,14.66,96.91a52.28,52.28,0,0,1-4-5.07c-.76-1.06-1.47-2.11-2.14-3.21a58.84,58.84,0,0,1-5.56-12A57.67,57.67,0,0,1,.17,62.57C.05,61.15,0,59.71,0,58.26A58.26,58.26,0,0,1,58.28,0c.57,0,1.11,0,1.65.05A57.08,57.08,0,0,1,78.16,3.48,58.3,58.3,0,0,1,116.57,58.26Z"/><path class="cls-2" d="M109.05,58.26A50.76,50.76,0,0,1,20.29,91.92a46.05,46.05,0,0,1-3.5-4.41c-.66-.92-1.28-1.84-1.86-2.8a50.76,50.76,0,0,1-4.84-10.46A50,50,0,0,1,7.67,62c-.1-1.24-.15-2.5-.15-3.76A50.74,50.74,0,0,1,58.28,7.52c.5,0,1,0,1.43,0a49.78,49.78,0,0,1,15.89,3A50.78,50.78,0,0,1,109.05,58.26Z"/><path class="cls-3" d="M102.53,51.72l0,.2A44.27,44.27,0,0,1,103,60.1c0,1.28-.16,2.55-.31,3.81a46.08,46.08,0,0,1-5.06,15.66s0,0,0,0a46.5,46.5,0,0,1-5.69,8.15,44.45,44.45,0,0,1-27.07,14.79,43.13,43.13,0,0,1-7,.48c-.56,0-1.11,0-1.66,0a44.88,44.88,0,0,1-10.34-1.71,46.12,46.12,0,0,1-16.83-9.1c-.27-.25-.56-.49-.81-.74a39.65,39.65,0,0,1-3.05-3A44.23,44.23,0,0,1,22,84.49a41.11,41.11,0,0,1-4.3-7.35c-.13-.22-.21-.46-.32-.67a41,41,0,0,1-2.3-6.56,42.7,42.7,0,0,1-1.06-5,38.06,38.06,0,0,1-.44-5,44.18,44.18,0,0,1,3.29-18.59A45.07,45.07,0,0,1,28.94,24.49a44.66,44.66,0,0,1,44.81-8.17,40.92,40.92,0,0,1,4.74,2.07l.41.21a44.67,44.67,0,0,1,23.63,33.12Z"/><path class="cls-4" d="M55.58,18.17A11.81,11.81,0,0,0,45.19,28.85c-.89,7.42,4.73,9.46,3.32,18.36C47,57.05,36.24,58.3,32.38,63.52S38.13,76,36.72,83.67c-.91,5-4.93,7.39-7.66,8.5-.27-.25-.56-.49-.81-.74a39.65,39.65,0,0,1-3.05-3A44.23,44.23,0,0,1,22,84.49a41.11,41.11,0,0,1-4.3-7.35c.15-5.47.42-11.65.95-15.34C19.75,54,34.31,35.24,34.31,35.24s0-2.18,2.34-6a35.43,35.43,0,0,1,4-5.43A17.4,17.4,0,0,1,55.58,18.17Z"/><path class="cls-5" d="M68.79,34.62S82,33.34,84.7,41.24c4,11.64-20.32,11.32-20.32,11.32s15.49,10.38,23.38,9.21S102.06,50.11,97,41,82.38,27.1,77.59,28.15,68.79,34.62,68.79,34.62Z"/><path class="cls-6" d="M100.09,74.12a43.16,43.16,0,0,1-2.48,5.45s0,0,0,0a46.5,46.5,0,0,1-5.69,8.15c-2.39-.29-7.1-.81-13.1-1.41l-6.1-.59a15,15,0,0,0-2.83,0c-8.88.6-12,8.6-13.17,14.22-.24,1.15-.39,2.2-.48,3a44.88,44.88,0,0,1-10.34-1.71L45,84.05c-.53-4.3-.9-6-.9-6s-.21-.33-.53-.93c-1-1.83-3-6.13-2.73-10.49.41-7.08,7.35-10.13,8-10.36-.32.33-3.18,3.25-1.81,8.67.57,2.27,2.87,3.9,5.77,5.07,6.31,2.55,15.39,2.89,15.39,2.89s3.7,1.46,8.21,2.78a48.38,48.38,0,0,0,10.77,2.19C94.09,78.13,98,76,100.09,74.12Z"/><path class="cls-7" d="M28.48,60.92c-7.09,5.09-7.06,9.92-4.06,12.72s6.94,5.15,6.29,11.41a13.49,13.49,0,0,1-2.46,6.38,39.65,39.65,0,0,1-3.05-3A44.23,44.23,0,0,1,22,84.49a41.11,41.11,0,0,1-4.3-7.35c-.13-.22-.21-.46-.32-.67a41,41,0,0,1-2.3-6.56,42.7,42.7,0,0,1-1.06-5,38.06,38.06,0,0,1-.44-5,44.18,44.18,0,0,1,3.29-18.59A45.07,45.07,0,0,1,28.94,24.49a31.15,31.15,0,0,1,7.71,4.77,17.32,17.32,0,0,1,5.78,9.16C45,49.6,35.57,55.83,28.48,60.92Z"/><path class="cls-8" d="M78.81,86.33a12.67,12.67,0,0,1-1.18,3.31c-3.59,7-12.85,7.19-12.85,7.19s7.56-3.62,5.1-11.12c-.06-.2-.13-.39-.21-.59C68.22,81.4,63.9,81.84,62,82.79c-3,1.47-5.51,5.31-6,10.06a18.8,18.8,0,0,0,.71,7.08A21.15,21.15,0,0,0,57.89,103c-.56,0-1.11,0-1.66,0a44.88,44.88,0,0,1-10.34-1.71,43.7,43.7,0,0,1-9.46-4c.06-5,1.2-13.31,7.18-20.21.26-.31.54-.6.83-.91A27.5,27.5,0,0,1,52.8,70c7.66-3.61,14.9-2,18.77.72a19.16,19.16,0,0,1,4.83,5A13.94,13.94,0,0,1,78.81,86.33Z"/><path class="cls-9" d="M102.53,51.72l0,.2A44.27,44.27,0,0,1,103,60.1c0,1.28-.16,2.55-.31,3.81a25.25,25.25,0,0,1-3.88,3c-5.17,3.14-13.92,4.33-20-1S68.19,57,61.51,57.36c-6.17.29-10.6,7.2-10.6,7.2s-.17-6.46,2.88-10.09,9-6.56,17.55-2.64a5.16,5.16,0,0,0,.49.21c9.64,4.19,20.77,1.27,23-5.12s-4-13.9-13.35-15.11c-3.52-.45-6.75.86-9.58,2.75-4.74,3.13-8.29,7.86-9.94,8.6-2.65,1.17-9.58-4.75-10.81-9.17A11.57,11.57,0,0,1,54.72,22.3c3.41-2.8,13.57,1.4,18.93.49a6.13,6.13,0,0,0,4.84-4.4l.41.21a44.67,44.67,0,0,1,23.63,33.12Z"/><path class="cls-10" d="M68,77.7A39.1,39.1,0,0,1,29.26,39a38,38,0,0,1,4.68-18.24A44.66,44.66,0,0,0,16.88,41.31,44.18,44.18,0,0,0,13.59,59.9a38.06,38.06,0,0,0,.44,5,42.7,42.7,0,0,0,1.06,5,41,41,0,0,0,2.3,6.56c.11.21.19.45.32.67A41.11,41.11,0,0,0,22,84.49,44.23,44.23,0,0,0,25.2,88.4a39.65,39.65,0,0,0,3.05,3c.25.25.54.49.81.74a46.12,46.12,0,0,0,16.83,9.1A44.88,44.88,0,0,0,56.23,103c.55,0,1.1,0,1.66,0a43.13,43.13,0,0,0,7-.48A44.45,44.45,0,0,0,91.91,87.74a46.5,46.5,0,0,0,5.69-8.15s0,0,0,0a46.08,46.08,0,0,0,5.06-15.66c.15-1.26.27-2.53.31-3.81a40,40,0,0,0-.08-4.64A39.06,39.06,0,0,1,68,77.7Z"/><path class="cls-11" d="M32.38,63.52a13.48,13.48,0,0,1,3.52-3.09,38.45,38.45,0,0,1-6.49-18.5C25.07,48.1,19.33,57,18.66,61.8c-.53,3.69-.8,9.87-.95,15.34A41.11,41.11,0,0,0,22,84.49,44.23,44.23,0,0,0,25.2,88.4a39.65,39.65,0,0,0,3.05,3c.25.25.54.49.81.74,2.73-1.11,6.75-3.54,7.66-8.5C38.13,76,28.51,68.73,32.38,63.52Z"/><path class="cls-12" d="M87.17,77.83a43,43,0,0,1-8.78-1.62A37.7,37.7,0,0,1,68,77.7,38.59,38.59,0,0,1,40.9,66.43a1,1,0,0,1,0,.16c-.26,4.36,1.74,8.66,2.73,10.49.32.6.53.93.53.93s.37,1.74.9,6l.85,17.22A44.88,44.88,0,0,0,56.23,103c.09-.85.24-1.9.48-3C57.84,94.31,61,86.31,69.88,85.71a15,15,0,0,1,2.83,0l6.1.59c6,.6,10.71,1.12,13.1,1.41a46.5,46.5,0,0,0,5.69-8.15s0,0,0,0a43.16,43.16,0,0,0,2.48-5.45C98,76,94.09,78.13,87.17,77.83Z"/><path class="cls-13" d="M24.42,73.64c-3-2.8-3-7.63,4.06-12.72,1.71-1.23,3.56-2.53,5.35-4a38,38,0,0,1-4.57-18,37.51,37.51,0,0,1,2.4-13.12c-1-.53-1.91-1-2.72-1.36A45.07,45.07,0,0,0,16.88,41.31,44.18,44.18,0,0,0,13.59,59.9a38.06,38.06,0,0,0,.44,5,42.7,42.7,0,0,0,1.06,5,41,41,0,0,0,2.3,6.56c.11.21.19.45.32.67A41.11,41.11,0,0,0,22,84.49,44.23,44.23,0,0,0,25.2,88.4a39.65,39.65,0,0,0,3.05,3,13.49,13.49,0,0,0,2.46-6.38C31.36,78.79,27.43,76.45,24.42,73.64Z"/><path class="cls-14" d="M68,77.7a38.14,38.14,0,0,1-19.29-5.3,30.23,30.23,0,0,0-4.27,3.77c-.29.31-.57.6-.83.91-6,6.9-7.12,15.17-7.18,20.21a43.7,43.7,0,0,0,9.46,4A44.88,44.88,0,0,0,56.23,103c.55,0,1.1,0,1.66,0a21.15,21.15,0,0,1-1.18-3.08A18.8,18.8,0,0,1,56,92.85c.45-4.75,3-8.59,6-10.06,1.94-1,6.26-1.39,7.71,2.33.08.2.15.39.21.59,2.46,7.5-5.1,11.12-5.1,11.12s9.26-.21,12.85-7.19a12.67,12.67,0,0,0,1.18-3.31A13.63,13.63,0,0,0,77,76.58,37.69,37.69,0,0,1,68,77.7Z"/><path class="cls-15" d="M91.77,69.33a19.1,19.1,0,0,0,7-2.47,25.25,25.25,0,0,0,3.88-3c.15-1.26.27-2.53.31-3.81a40,40,0,0,0-.08-4.64A39.46,39.46,0,0,1,91.77,69.33Z"/></g></g></g></svg>