<svg xmlns="http://www.w3.org/2000/svg" xmlns:xlink="http://www.w3.org/1999/xlink" viewBox="0 0 58.2 58.19"><defs><style>.cls-1{opacity:0.2;fill:url(#linear-gradient);}.cls-2{fill:url(#linear-gradient-2);}.cls-3,.cls-4,.cls-5{opacity:0.68;}.cls-3{fill:url(#linear-gradient-3);}.cls-4{fill:url(#linear-gradient-4);}.cls-5{fill:url(#linear-gradient-5);}.cls-6,.cls-7{fill:#fff;}.cls-6{opacity:0.15;}.cls-7{opacity:0.18;}.cls-8{fill:#7f134d;opacity:0.37;}</style><linearGradient id="linear-gradient" x1="-0.58" y1="-0.92" x2="60.69" y2="61.04" gradientUnits="userSpaceOnUse"><stop offset="0" stop-color="#ff73a7"/><stop offset="1" stop-color="#e01e2b"/></linearGradient><linearGradient id="linear-gradient-2" x1="2.55" y1="2.52" x2="56.62" y2="57.2" gradientUnits="userSpaceOnUse"><stop offset="0" stop-color="#ff73a7"/><stop offset="1" stop-color="#e01e43"/></linearGradient><linearGradient id="linear-gradient-3" x1="16.82" y1="55.33" x2="47.24" y2="15.1" gradientUnits="userSpaceOnUse"><stop offset="0" stop-color="#a23157"/><stop offset="1" stop-color="#bd174d"/></linearGradient><linearGradient id="linear-gradient-4" x1="37.18" y1="-10.5" x2="1.08" y2="38.37" gradientUnits="userSpaceOnUse"><stop offset="0" stop-color="#ff367e"/><stop offset="1" stop-color="#b21a59"/></linearGradient><linearGradient id="linear-gradient-5" x1="46.05" y1="-2.69" x2="9.61" y2="47.25" gradientUnits="userSpaceOnUse"><stop offset="0" stop-color="#dd3663"/><stop offset="1" stop-color="#b21a59"/></linearGradient></defs><g id="Ebene_2" data-name="Ebene 2"><g id="_ŽÓť_2" data-name="—ŽÓť_2"><g id="Plan4"><path class="cls-1" d="M58.2,29.09A29.1,29.1,0,0,1,7.32,48.38a25.64,25.64,0,0,1-2-2.53c-.38-.52-.73-1.05-1.06-1.6a29,29,0,0,1-2.78-6,28.38,28.38,0,0,1-1.38-7C0,30.53,0,29.81,0,29.09A29.09,29.09,0,0,1,29.1,0c.28,0,.55,0,.82,0A28.59,28.59,0,0,1,39,1.74,29.1,29.1,0,0,1,58.2,29.09Z"/><path class="cls-2" d="M54.42,29A25.68,25.68,0,0,1,9.52,46,23.39,23.39,0,0,1,7.75,43.8l-.61-.89-.33-.53c-.21-.34-.41-.7-.61-1.06a24.93,24.93,0,0,1-1.84-4.23A25.35,25.35,0,0,1,3.14,30.9c-.06-.62-.08-1.26-.08-1.9A25.66,25.66,0,0,1,28.26,3.34h.48c.25,0,.49,0,.73,0A25,25,0,0,1,36.09,4.4c.47.14.95.29,1.41.47A25.67,25.67,0,0,1,54.42,29Z"/><path class="cls-3" d="M22.6,53.94A25.67,25.67,0,0,1,9.52,46a25.45,25.45,0,0,0,10.16,1.5A25.82,25.82,0,0,0,44.09,20.39C44,19.66,44,19,43.87,18.24A26.84,26.84,0,0,1,22.6,53.94Z"/><path class="cls-4" d="M18.14,27.21a29.32,29.32,0,0,1-11.25,9.2,7.86,7.86,0,0,1-2.53.68A25.35,25.35,0,0,1,3.14,30.9a.87.87,0,0,0,.32.11c4.51.65,14.17-7.22,16.61-16.2a3.61,3.61,0,0,0-.72-3.66,3,3,0,0,0-2.07-.82c-3.82.14-6.47,4.51-7.43,7.66a5.84,5.84,0,0,0-.31,2.51A2.41,2.41,0,0,0,11,22.44a1.64,1.64,0,0,0,1.58-.34,3.19,3.19,0,0,1-3.5,1.15,2.16,2.16,0,0,1-.88-.55A2.69,2.69,0,0,1,7.61,21c-.16-2.83,1.42-5.45,3.15-7.69a13.79,13.79,0,0,1,6.45-4.67,5,5,0,0,1,4.13.14,4.18,4.18,0,0,1,1.89,2.83C23.47,12.77,23.85,18.79,18.14,27.21Z"/><path class="cls-5" d="M38.94,14A29.82,29.82,0,0,1,9.12,43.83c-.46,0-.92,0-1.37,0-.34-.47-.65-.93-.94-1.42A28.64,28.64,0,0,0,31.53,14,28.42,28.42,0,0,0,29.47,3.35a25.2,25.2,0,0,1,8,1.52A29.44,29.44,0,0,1,38.94,14Z"/><path class="cls-6" d="M10.66,24.53c-6.26-1.11-4.9,8.14-4,11.57a18.84,18.84,0,0,0,5.65,9.34,9.09,9.09,0,0,0,3.44,2.05A4.52,4.52,0,0,0,19.61,47c1.76-1.26,2-3.78,1.78-5.93A23.55,23.55,0,0,0,14.94,27.2,8.21,8.21,0,0,0,10.66,24.53Z"/><path class="cls-7" d="M17.7,27c.69,1.27,1.86,2.46,3.3,2.46a3.38,3.38,0,0,0,2.64-1.57,7.75,7.75,0,0,0,1.05-3,13.94,13.94,0,0,0-1-8.79c-.79-1.52-2.46-3.43-4.33-2.69a5.47,5.47,0,0,0-2.82,4.09C16.15,20.7,16.15,24.12,17.7,27Z"/><path class="cls-8" d="M38.7,7.54c4.47,1.6,9.42,7.32,11,9.85A23,23,0,0,1,51.79,37,24.28,24.28,0,0,1,29.93,53.31a27.73,27.73,0,0,1-6.75-.37c-1.79-.32-5.12-.82-6.33-2.26a16,16,0,0,0,11.77-2.12,6,6,0,0,0,2.27-2.24,5.29,5.29,0,0,0-.47-4.84,32.07,32.07,0,0,0-3.1-4,7.66,7.66,0,0,1-2-4.56,2.8,2.8,0,0,1,.18-1.07,2.74,2.74,0,0,1,.91-1.14,5.33,5.33,0,0,1,3.69-.95,11.66,11.66,0,0,1,3.72,1.07c2.89,1.26,5.58,3,8.52,4.08,1.29.49,2.82.85,4,.1A3.6,3.6,0,0,0,47.72,32c0-4.34-3.74-8.47-7.19-10.62C38.38,20,36.07,18.89,34,17.44c-1.22-.84-5.52-3.86-4.13-5.72a1.82,1.82,0,0,1,1.17-.6c2.51-.51,5,.74,7.41,1.58.69.24,1.64.36,2-.28a1.48,1.48,0,0,0,.12-.69A8.3,8.3,0,0,0,38.7,7.54Z"/><path class="cls-8" d="M42.79,28.89c.43-1.28-1.2-3.61-2.31-4.62s-3.9-3.1-5.49-2.56c-2.6.89-.83,3.95.43,5.12s3.6,2.91,5.52,2.94C42.05,29.78,42.6,29.43,42.79,28.89Z"/></g></g></g></svg>