<svg xmlns="http://www.w3.org/2000/svg" xmlns:xlink="http://www.w3.org/1999/xlink" viewBox="0 0 89.3 89.03"><defs><style>.cls-1{opacity:0.21;fill:url(#linear-gradient);}.cls-2{fill:url(#linear-gradient-2);}.cls-3{fill:#fff;opacity:0.81;}.cls-4{fill:url(#linear-gradient-3);}.cls-5{fill:url(#linear-gradient-4);}.cls-6{fill:url(#linear-gradient-5);}.cls-7{fill:url(#linear-gradient-6);}.cls-8{fill:url(#linear-gradient-7);}.cls-9{fill:url(#linear-gradient-8);}.cls-10{fill:url(#linear-gradient-9);}.cls-11{fill:url(#linear-gradient-10);}.cls-12{fill:url(#linear-gradient-11);}.cls-13{fill:url(#linear-gradient-12);}.cls-14{fill:url(#linear-gradient-13);}.cls-15{fill:url(#linear-gradient-14);}.cls-16{opacity:0.52;fill:url(#linear-gradient-15);}.cls-17{fill:url(#linear-gradient-16);}.cls-18{fill:url(#linear-gradient-17);}.cls-19{fill:url(#linear-gradient-18);}.cls-20{fill:url(#linear-gradient-19);}.cls-21{fill:url(#linear-gradient-20);}.cls-22{fill:url(#linear-gradient-21);}.cls-23{fill:url(#linear-gradient-22);}.cls-24{fill:url(#linear-gradient-23);}.cls-25{fill:url(#linear-gradient-24);}.cls-26{fill:url(#linear-gradient-25);}.cls-27{fill:url(#linear-gradient-26);}.cls-28{fill:url(#linear-gradient-27);}.cls-29{fill:url(#linear-gradient-28);}.cls-30{fill:url(#linear-gradient-29);}.cls-31{fill:url(#linear-gradient-30);}.cls-32{fill:url(#linear-gradient-31);}.cls-33{fill:url(#linear-gradient-32);}.cls-34{fill:url(#linear-gradient-33);}.cls-35{fill:url(#linear-gradient-34);}.cls-36{fill:url(#linear-gradient-35);}.cls-37{fill:url(#linear-gradient-36);}.cls-38{fill:url(#linear-gradient-37);}.cls-39{fill:url(#linear-gradient-38);}.cls-40{fill:url(#linear-gradient-39);}.cls-41{fill:url(#linear-gradient-40);}.cls-42{fill:url(#linear-gradient-41);}.cls-43{fill:url(#linear-gradient-42);}.cls-44{fill:url(#linear-gradient-43);}.cls-45,.cls-46,.cls-47{opacity:0.7;}.cls-45{fill:url(#linear-gradient-44);}.cls-46{fill:url(#linear-gradient-45);}.cls-47{fill:url(#linear-gradient-46);}.cls-48{fill:url(#linear-gradient-47);}.cls-49{fill:url(#linear-gradient-48);}.cls-50{fill:url(#linear-gradient-49);}.cls-51{fill:url(#linear-gradient-50);}.cls-52{fill:url(#linear-gradient-51);}.cls-53{fill:url(#linear-gradient-52);}.cls-54{fill:url(#linear-gradient-53);}.cls-55{fill:url(#linear-gradient-54);}.cls-56{fill:#ffe6f7;}</style><linearGradient id="linear-gradient" x1="-40.86" y1="13.5" x2="26.81" y2="13.5" gradientTransform="translate(57.65 47.18) rotate(93.86)" gradientUnits="userSpaceOnUse"><stop offset="0" stop-color="#edf1e2"/><stop offset="1" stop-color="#6a3983"/></linearGradient><linearGradient id="linear-gradient-2" x1="21.08" y1="15.43" x2="65.4" y2="60.25" gradientUnits="userSpaceOnUse"><stop offset="0" stop-color="#fff"/><stop offset="1" stop-color="#562d83"/></linearGradient><linearGradient id="linear-gradient-3" x1="-184.19" y1="-8.73" x2="-196.25" y2="19.65" gradientTransform="translate(135.61 173.37) rotate(55.91)" xlink:href="#linear-gradient"/><linearGradient id="linear-gradient-4" x1="-127.4" y1="-58.7" x2="-139.46" y2="-30.33" gradientTransform="matrix(0.75, 0.67, -0.58, 0.64, 99.09, 141.04)" xlink:href="#linear-gradient"/><linearGradient id="linear-gradient-5" x1="202.47" y1="222.67" x2="169.45" y2="202.03" gradientTransform="matrix(0.53, -0.6, 0.75, 0.67, -224.91, 24.93)" gradientUnits="userSpaceOnUse"><stop offset="0" stop-color="#3b2757"/><stop offset="1" stop-color="#7c5890"/></linearGradient><linearGradient id="linear-gradient-6" x1="50.82" y1="69.72" x2="17.81" y2="49.08" gradientTransform="matrix(1, 0, 0, 1, 0, 0)" xlink:href="#linear-gradient-5"/><linearGradient id="linear-gradient-7" x1="-67.56" y1="37.43" x2="-100.58" y2="16.79" gradientTransform="matrix(0.85, 0.53, -0.53, 0.85, 116.82, 84.41)" xlink:href="#linear-gradient-5"/><linearGradient id="linear-gradient-8" x1="53.15" y1="66" x2="20.14" y2="45.36" gradientTransform="matrix(1, 0, 0, 1, 0, 0)" xlink:href="#linear-gradient-5"/><linearGradient id="linear-gradient-9" x1="23.06" y1="25.94" x2="19.65" y2="54.2" gradientUnits="userSpaceOnUse"><stop offset="0" stop-color="#fff"/><stop offset="1" stop-color="#6a3983"/></linearGradient><linearGradient id="linear-gradient-10" x1="3.52" y1="45.86" x2="-29.5" y2="25.22" gradientTransform="translate(54.97 28.38) rotate(13.67)" xlink:href="#linear-gradient-5"/><linearGradient id="linear-gradient-11" x1="-8.02" y1="450.81" x2="4.59" y2="436.89" gradientTransform="matrix(-0.63, -0.97, 0.84, -0.55, -317.79, 301.09)" gradientUnits="userSpaceOnUse"><stop offset="0" stop-color="#3b2757"/><stop offset="1" stop-color="#6a3983"/></linearGradient><linearGradient id="linear-gradient-12" x1="-4.65" y1="453.86" x2="7.96" y2="439.94" xlink:href="#linear-gradient-11"/><linearGradient id="linear-gradient-13" x1="-10.04" y1="448.98" x2="2.57" y2="435.06" xlink:href="#linear-gradient-11"/><linearGradient id="linear-gradient-14" x1="-7.35" y1="451.41" x2="5.25" y2="437.5" xlink:href="#linear-gradient-11"/><linearGradient id="linear-gradient-15" x1="34.8" y1="27.85" x2="66.86" y2="17.13" gradientUnits="userSpaceOnUse"><stop offset="0" stop-color="#ac90a2"/><stop offset="1" stop-color="#562e88"/></linearGradient><linearGradient id="linear-gradient-16" x1="-35.72" y1="37.85" x2="-22.79" y2="46.47" gradientTransform="matrix(0.98, 0.19, -0.19, 0.98, 45.34, 25.54)" xlink:href="#linear-gradient-9"/><linearGradient id="linear-gradient-17" x1="53.24" y1="3.38" x2="86.02" y2="25.23" gradientTransform="translate(67.19 -55.19) rotate(80.75)" xlink:href="#linear-gradient-9"/><linearGradient id="linear-gradient-18" x1="56.36" y1="0.77" x2="82.21" y2="30.51" gradientUnits="userSpaceOnUse"><stop offset="0" stop-color="#fff"/><stop offset="0.9" stop-color="#542670"/></linearGradient><linearGradient id="linear-gradient-19" x1="3.29" y1="-4.36" x2="208.57" y2="135.55" gradientTransform="translate(19.93 7.3) rotate(5.03)" xlink:href="#linear-gradient-5"/><linearGradient id="linear-gradient-20" x1="25.7" y1="12.8" x2="152.19" y2="99" gradientTransform="translate(19.93 7.3) rotate(5.03)" xlink:href="#linear-gradient-5"/><linearGradient id="linear-gradient-21" x1="22.68" y1="19.58" x2="123.71" y2="88.43" gradientTransform="translate(19.93 7.3) rotate(5.03)" xlink:href="#linear-gradient-5"/><linearGradient id="linear-gradient-22" x1="26.44" y1="15.29" x2="114.95" y2="75.61" gradientTransform="translate(19.93 7.3) rotate(5.03)" xlink:href="#linear-gradient-5"/><linearGradient id="linear-gradient-23" x1="31.16" y1="23.31" x2="122.1" y2="85.29" gradientTransform="translate(19.93 7.3) rotate(5.03)" xlink:href="#linear-gradient-5"/><linearGradient id="linear-gradient-24" x1="37.69" y1="11.28" x2="107.77" y2="59.04" gradientTransform="translate(19.93 7.3) rotate(5.03)" xlink:href="#linear-gradient-5"/><linearGradient id="linear-gradient-25" x1="1.1" y1="-10.64" x2="192.02" y2="119.48" xlink:href="#linear-gradient-9"/><linearGradient id="linear-gradient-26" x1="29.85" y1="25.88" x2="52.22" y2="22.89" gradientTransform="matrix(1, 0, 0, 1, 0, 0)" xlink:href="#linear-gradient"/><linearGradient id="linear-gradient-27" x1="15.55" y1="26.11" x2="51.42" y2="9" gradientTransform="matrix(1, 0, 0, 1, 0, 0)" xlink:href="#linear-gradient"/><linearGradient id="linear-gradient-28" x1="14.34" y1="4.83" x2="130.09" y2="83.71" xlink:href="#linear-gradient-9"/><linearGradient id="linear-gradient-29" x1="17.05" y1="16.21" x2="132.67" y2="95.01" xlink:href="#linear-gradient-9"/><linearGradient id="linear-gradient-30" x1="39.99" y1="33.58" x2="62.26" y2="51.96" xlink:href="#linear-gradient-9"/><linearGradient id="linear-gradient-31" x1="55.22" y1="39.58" x2="42.02" y2="31.47" gradientTransform="matrix(1, 0, 0, 1, 0, 0)" xlink:href="#linear-gradient-5"/><linearGradient id="linear-gradient-32" x1="32.2" y1="43.02" x2="54.48" y2="61.4" xlink:href="#linear-gradient-9"/><linearGradient id="linear-gradient-33" x1="47.92" y1="36.31" x2="90.85" y2="65.57" xlink:href="#linear-gradient-9"/><linearGradient id="linear-gradient-34" x1="9.66" y1="13.35" x2="207.35" y2="148.08" xlink:href="#linear-gradient-9"/><linearGradient id="linear-gradient-35" x1="17.7" y1="17.2" x2="131" y2="94.41" xlink:href="#linear-gradient-9"/><linearGradient id="linear-gradient-36" x1="-22.88" y1="336.22" x2="90.41" y2="413.42" gradientTransform="translate(-332.34 197.74) rotate(-106.83)" xlink:href="#linear-gradient"/><linearGradient id="linear-gradient-37" x1="-246.41" y1="427.17" x2="-138.66" y2="500.6" gradientTransform="matrix(-0.61, -0.13, 0.2, -0.98, -193.86, 435.11)" xlink:href="#linear-gradient-9"/><linearGradient id="linear-gradient-38" x1="-252.74" y1="644.99" x2="-144.99" y2="718.43" gradientTransform="matrix(-0.61, -0.13, 0.1, -0.49, -169.31, 320.62)" xlink:href="#linear-gradient-9"/><linearGradient id="linear-gradient-39" x1="23.65" y1="-3.18" x2="187.6" y2="108.55" xlink:href="#linear-gradient-9"/><linearGradient id="linear-gradient-40" x1="53.06" y1="43.1" x2="39.85" y2="34.99" gradientTransform="matrix(1, 0, 0, 1, 0, 0)" xlink:href="#linear-gradient-5"/><linearGradient id="linear-gradient-41" x1="-343.07" y1="599.31" x2="-235.32" y2="672.74" gradientTransform="matrix(-0.62, 0.01, 0, -0.5, -147.21, 337.33)" xlink:href="#linear-gradient-9"/><linearGradient id="linear-gradient-42" x1="35.25" y1="39.32" x2="57.53" y2="57.7" xlink:href="#linear-gradient-9"/><linearGradient id="linear-gradient-43" x1="19.06" y1="26.47" x2="30.29" y2="48.74" gradientTransform="matrix(1, 0, 0, 1, 0, 0)" xlink:href="#linear-gradient"/><linearGradient id="linear-gradient-44" x1="41.8" y1="57.71" x2="67.63" y2="44.92" xlink:href="#linear-gradient-9"/><linearGradient id="linear-gradient-45" x1="33.08" y1="68.49" x2="47.32" y2="61.43" xlink:href="#linear-gradient-9"/><linearGradient id="linear-gradient-46" x1="79.74" y1="382.64" x2="97.38" y2="373.9" gradientTransform="matrix(-0.11, -0.9, 0.94, -0.22, -285.18, 197.8)" xlink:href="#linear-gradient-9"/><linearGradient id="linear-gradient-47" x1="108.79" y1="177.14" x2="217.21" y2="251.03" gradientTransform="matrix(0.69, -0.72, 0.72, 0.69, -197.83, 8.32)" xlink:href="#linear-gradient-9"/><linearGradient id="linear-gradient-48" x1="28.39" y1="50.95" x2="117.29" y2="111.54" gradientTransform="translate(-38.53 -11.75) rotate(-9.22)" xlink:href="#linear-gradient-9"/><linearGradient id="linear-gradient-49" x1="76.32" y1="30.06" x2="82.82" y2="34.39" xlink:href="#linear-gradient-9"/><linearGradient id="linear-gradient-50" x1="81.95" y1="37.19" x2="83.98" y2="38.55" xlink:href="#linear-gradient-9"/><linearGradient id="linear-gradient-51" x1="82.99" y1="33.74" x2="84.24" y2="34.57" xlink:href="#linear-gradient-9"/><linearGradient id="linear-gradient-52" x1="76.82" y1="36.24" x2="78.06" y2="37.06" xlink:href="#linear-gradient-9"/><linearGradient id="linear-gradient-53" x1="75.05" y1="23.13" x2="76.29" y2="23.95" xlink:href="#linear-gradient-9"/><linearGradient id="linear-gradient-54" x1="-131.37" y1="-15.27" x2="-17.65" y2="14.65" gradientTransform="matrix(0.7, 0.54, -0.61, 0.79, 99.28, 85.05)" xlink:href="#linear-gradient-2"/></defs><g id="Ebene_2" data-name="Ebene 2"><g id="_ŽÓť_2" data-name="—ŽÓť_2"><g id="Plan2"><circle class="cls-1" cx="44.65" cy="39.27" r="33.84" transform="translate(-2.36 75.67) rotate(-79.08)"/><path class="cls-2" d="M74.06,39.27A29.41,29.41,0,1,1,44.64,9.85a29.11,29.11,0,0,1,6.84.8A29.43,29.43,0,0,1,74.06,39.27Z"/><path class="cls-3" d="M23.93,32.13c-.58,1-1.39,1.54-1.81,1.28s-.28-1.23.3-2.19,1.39-1.54,1.8-1.29S24.51,31.17,23.93,32.13Z"/><path class="cls-4" d="M27.69,19.11c-.93.63-1.91.81-2.18.41s.26-1.24,1.19-1.87,1.9-.82,2.18-.41S28.62,18.48,27.69,19.11Z"/><path class="cls-5" d="M28.05,22.88c-.42.46-.95.67-1.18.46s-.09-.76.33-1.22.94-.68,1.18-.47S28.46,22.41,28.05,22.88Z"/><path class="cls-6" d="M27.28,55.18c1.83,1.64,2.68,3.67,1.91,4.54s-2.89.24-4.72-1.4-2.69-3.67-1.91-4.53S25.45,53.55,27.28,55.18Z"/><path class="cls-7" d="M39,60.75c0,.68-1.14,1.23-2.55,1.23s-2.55-.55-2.55-1.23,1.14-1.24,2.55-1.24S39,60.06,39,60.75Z"/><path class="cls-8" d="M32.35,63.56c-.25.42-1.1.36-1.88-.12s-1.2-1.22-.94-1.64,1.1-.36,1.88.13S32.61,63.14,32.35,63.56Z"/><path class="cls-9" d="M39.41,56.5c0,.51-.66.92-1.47.92s-1.47-.41-1.47-.92.66-.93,1.47-.93S39.41,56,39.41,56.5Z"/><path class="cls-10" d="M24.47,25.77c-1,1.65-2.39,2.64-3.1,2.2s-.48-2.11.51-3.76S24.26,21.58,25,22h0C25.68,22.49,25.44,24.15,24.47,25.77Z"/><path class="cls-11" d="M33.87,58.39c-.12.48-1,.67-2,.44s-1.65-.81-1.53-1.29,1-.67,1.95-.44S34,57.91,33.87,58.39Z"/><path class="cls-12" d="M59.86,59.62c2.13-1.4,4.21-2,4.64-1.33s-.94,2.33-3.07,3.73-4.22,2-4.65,1.33S57.72,61,59.86,59.62Z"/><path class="cls-13" d="M60.44,55.17c1.35-.88,2.65-1.3,2.89-.93s-.65,1.39-2,2.28-2.64,1.3-2.89.93S59.09,56.06,60.44,55.17Z"/><path class="cls-14" d="M53.62,61.57c.88-.57,1.81-.7,2.08-.29s-.22,1.21-1.1,1.79-1.8.7-2.07.29S52.75,62.14,53.62,61.57Z"/><path class="cls-15" d="M53.39,57.44c1-.62,2-.76,2.27-.31s-.24,1.33-1.19,2-2,.76-2.27.31S52.43,58.07,53.39,57.44Z"/><path class="cls-16" d="M71.31,26.85A14.28,14.28,0,0,1,63.69,29C56.16,29,50,23.33,50,16.33a12,12,0,0,1,1.44-5.68A29.43,29.43,0,0,1,71.31,26.85Z"/><path class="cls-17" d="M11.94,61a4.7,4.7,0,1,1-3.71-5.52A4.71,4.71,0,0,1,11.94,61Z"/><circle class="cls-18" cx="66.05" cy="11.91" r="11.91" transform="translate(43.67 75.19) rotate(-80.75)"/><path class="cls-19" d="M69,.39c5.82,5.2,3.7,17.51-6.37,17.51a9,9,0,0,1-8.48-5.1A11.91,11.91,0,1,0,69,.39Z"/><path class="cls-3" d="M59.85,7.78c-1,1.78-2.44,2.83-3.33,2.36s-.85-2.3.1-4.08,2.43-2.83,3.32-2.36S60.79,6,59.85,7.78Z"/><path class="cls-3" d="M63.09,4.51c-.4.41-.94.55-1.2.3s-.14-.8.26-1.21.94-.55,1.2-.3S63.49,4.09,63.09,4.51Z"/><path class="cls-3" d="M59.15,12.86c0,1-.48,1.81-1,1.79s-.88-.85-.84-1.85S57.8,11,58.3,11,59.18,11.86,59.15,12.86Z"/><path class="cls-20" d="M69,39.21c-.24,2.71-1.16,4.85-2.07,4.77s-1.45-2.35-1.21-5.06,1.17-4.85,2.07-4.77S69.22,36.49,69,39.21Z"/><path class="cls-21" d="M72.45,44.46c-.14,1.65-.74,2.94-1.34,2.89s-1-1.43-.81-3.08.74-2.93,1.34-2.88S72.6,42.82,72.45,44.46Z"/><path class="cls-22" d="M61.4,46.34c-.11,1.27.22,2.35.74,2.39s1-.95,1.15-2.23-.22-2.34-.74-2.39S61.51,45.06,61.4,46.34Z"/><path class="cls-23" d="M64.7,40.37c-.09,1.07-.58,1.91-1.08,1.87s-.82-1-.73-2,.58-1.92,1.08-1.87S64.8,39.29,64.7,40.37Z"/><path class="cls-24" d="M69.24,49.2c-.09,1.11-.59,2-1.11,1.92s-.85-1-.75-2.08.59-2,1.11-1.92S69.34,48.09,69.24,49.2Z"/><path class="cls-25" d="M72.27,34.14c-.06.77-.5,1.36-1,1.32s-.79-.7-.72-1.47.5-1.36,1-1.32S72.34,33.37,72.27,34.14Z"/><ellipse class="cls-26" cx="44.55" cy="18.97" rx="3.35" ry="1.39"/><path class="cls-27" d="M50.79,23.45c0,.74-1.25,1.33-2.79,1.33s-2.78-.59-2.78-1.33,1.25-1.33,2.78-1.33S50.79,22.71,50.79,23.45Z"/><path class="cls-28" d="M40.4,15.28c.17.78-1.45,1.8-3.62,2.27s-4.07.22-4.24-.57,1.45-1.8,3.62-2.27S40.23,14.49,40.4,15.28Z"/><path class="cls-29" d="M42.75,22.78c0,.37-.93.67-2.07.67s-2.06-.3-2.06-.67.93-.66,2.06-.66S42.75,22.42,42.75,22.78Z"/><path class="cls-30" d="M45.3,34.15c0,.68-.87,1.23-1.94,1.23s-1.93-.55-1.93-1.23.87-1.24,1.93-1.24S45.3,33.46,45.3,34.15Z"/><path class="cls-31" d="M52.12,42.1c0,.48-.81.87-1.8.87s-1.8-.39-1.8-.87.8-.86,1.8-.86S52.12,41.62,52.12,42.1Z"/><ellipse class="cls-32" cx="48.52" cy="35.47" rx="1.34" ry="0.64"/><path class="cls-33" d="M43.36,51.12c0,.36-.6.65-1.34.65s-1.34-.29-1.34-.65.6-.64,1.34-.64S43.36,50.77,43.36,51.12Z"/><path class="cls-34" d="M58.24,43.3c-.39.64-.94,1-1.24.82l-.06,0c-.23-.25-.16-.86.2-1.44s.93-1,1.24-.81S58.61,42.67,58.24,43.3Z"/><ellipse class="cls-35" cx="36.47" cy="31.63" rx="3.4" ry="1.75"/><path class="cls-36" d="M35,27.67c0,.55-.87,1-2,1s-1.95-.45-1.95-1,.87-1,1.95-1S35,27.11,35,27.67Z"/><path class="cls-37" d="M21.71,37.2c.53-.16,1.21.54,1.52,1.57s.14,2-.39,2.16-1.22-.55-1.53-1.58S21.18,37.36,21.71,37.2Z"/><path class="cls-38" d="M35.51,36.52a1.17,1.17,0,1,1,.93,1.17A1.06,1.06,0,0,1,35.51,36.52Z"/><path class="cls-39" d="M41.48,30.16c.05-.26.6-.36,1.22-.23s1.08.45,1,.7-.6.37-1.23.24S41.42,30.42,41.48,30.16Z"/><path class="cls-40" d="M48.72,12v.13c-.16.6-1.38,1-2.86,1s-2.8-.6-2.8-1.23v0c0-.65,1.31-1.15,2.87-1.1S48.72,11.38,48.72,12Z"/><path class="cls-41" d="M44.15,38.34c0-.26.51-.48,1.14-.48s1.16.2,1.16.46-.51.49-1.15.49S44.15,38.61,44.15,38.34Z"/><path class="cls-42" d="M53,30.93c0-.26.51-.48,1.15-.49s1.15.21,1.15.47-.51.48-1.14.49S53,31.2,53,30.93Z"/><path class="cls-43" d="M47.9,48.09c0,.54-.9,1-2,1s-2-.44-2-1,.9-1,2-1S47.9,47.55,47.9,48.09Z"/><path class="cls-44" d="M29.89,44c1.27,1.57,1.68,3.35.9,4s-2.43-.13-3.7-1.7-1.68-3.35-.91-4S28.61,42.46,29.89,44Z"/><path class="cls-45" d="M54.19,49.57c1.75-1,3.57-1.17,4.07-.31s-.49,2.39-2.23,3.42S52.46,53.84,52,53,52.45,50.6,54.19,49.57Z"/><path class="cls-46" d="M42.61,64.92h0c0,.68-1,1.19-2.24,1.15s-2.14-.61-2.14-1.27v0c0-.68,1-1.2,2.22-1.16S42.61,64.24,42.61,64.92Z"/><path class="cls-47" d="M61.41,34.27c-.79-.91-1-2-.49-2.46s1.57-.06,2.36.86,1,2,.49,2.47S62.2,35.19,61.41,34.27Z"/><path class="cls-48" d="M35.32,45.56c.93.89,1.31,2,.85,2.47s-1.57.14-2.49-.75-1.31-2-.85-2.47S34.4,44.68,35.32,45.56Z"/><path class="cls-49" d="M20.92,44.19c.16,1-.2,1.81-.8,1.91s-1.21-.6-1.36-1.56.2-1.8.8-1.9S20.77,43.24,20.92,44.19Z"/><path class="cls-50" d="M81.22,31.75a2.36,2.36,0,1,1-2.36-2.36A2.36,2.36,0,0,1,81.22,31.75Z"/><path class="cls-51" d="M83.48,37.72a.74.74,0,1,1-.74-.74A.74.74,0,0,1,83.48,37.72Z"/><path class="cls-52" d="M83.93,34.07a.45.45,0,1,1-.45-.45A.45.45,0,0,1,83.93,34.07Z"/><path class="cls-53" d="M77.76,36.56a.46.46,0,1,1-.45-.45A.45.45,0,0,1,77.76,36.56Z"/><path class="cls-54" d="M76,23.45a.45.45,0,1,1-.45-.45A.45.45,0,0,1,76,23.45Z"/><path class="cls-55" d="M78.63,61.69C76,59.18,73.41,56.87,70.1,54l-.36.6c3.28,2.84,5.77,5.09,8.41,7.58C89.5,72.94,88.69,74.74,88.56,74.91s-.39.18-.61.18c-4.62,0-24.67-12.69-46.62-29.53C15.45,25.72-.83,9.61.73,7.56a.87.87,0,0,1,.61-.17c2.83,0,10.63,4.22,21.87,11.73l.5-.51C12.21,10.92,4.33,6.69,1.34,6.69a1.38,1.38,0,0,0-1.15.45c-2.43,3.17,19.17,22.44,40.72,39C63.33,63.3,83.12,75.78,88,75.78a1.38,1.38,0,0,0,1.16-.45C90.2,73.9,86.68,69.31,78.63,61.69Z"/><path class="cls-56" d="M48,84.52a3.7,3.7,0,0,0,.63,1.76,3.3,3.3,0,0,0,1.63.5,3.48,3.48,0,0,0-1.63.5C48.08,87.71,48,89,48,89a3.39,3.39,0,0,0-.56-1.75c-.39-.41-1.69-.5-1.69-.5a3.61,3.61,0,0,0,1.69-.51A3.31,3.31,0,0,0,48,84.52Z"/></g></g></g></svg>