<svg xmlns="http://www.w3.org/2000/svg" xmlns:xlink="http://www.w3.org/1999/xlink" viewBox="0 0 50.71 50.7"><defs><style>.cls-1{opacity:0.23;fill:url(#linear-gradient);}.cls-2{fill:url(#linear-gradient-2);}.cls-3{fill:url(#linear-gradient-3);}.cls-4{fill:url(#linear-gradient-4);}.cls-5{fill:url(#linear-gradient-5);}.cls-6{fill:url(#linear-gradient-6);}.cls-7{fill:url(#linear-gradient-7);}.cls-8{fill:url(#linear-gradient-8);}.cls-9{fill:url(#linear-gradient-9);}.cls-10{fill:url(#linear-gradient-10);}.cls-11{fill:url(#linear-gradient-11);}.cls-12{fill:url(#linear-gradient-12);}.cls-13{fill:url(#linear-gradient-13);}.cls-14{fill:url(#linear-gradient-14);}.cls-15{fill:url(#linear-gradient-15);}.cls-16{fill:url(#linear-gradient-16);}.cls-17{fill:url(#linear-gradient-17);}.cls-18{fill:url(#linear-gradient-18);}.cls-19{fill:url(#linear-gradient-19);}.cls-20{fill:url(#linear-gradient-20);}.cls-21{fill:url(#linear-gradient-21);}.cls-22{fill:url(#linear-gradient-22);}.cls-23{fill:url(#linear-gradient-23);}.cls-24{fill:url(#linear-gradient-24);}.cls-25{fill:url(#linear-gradient-25);}.cls-26{fill:url(#linear-gradient-26);}.cls-27{fill:url(#linear-gradient-27);}.cls-28{fill:url(#linear-gradient-28);}.cls-29{fill:url(#linear-gradient-29);}.cls-30{fill:url(#linear-gradient-30);}.cls-31{fill:url(#linear-gradient-31);}.cls-32{fill:#fff;opacity:0.13;}</style><linearGradient id="linear-gradient" x1="-0.51" y1="-0.8" x2="52.88" y2="53.18" gradientUnits="userSpaceOnUse"><stop offset="0" stop-color="#ff73d3"/><stop offset="1" stop-color="#8b2881"/></linearGradient><linearGradient id="linear-gradient-2" x1="74.17" y1="-26.49" x2="39.85" y2="15.35" gradientTransform="translate(-30.73 41.42) rotate(-9.16)" xlink:href="#linear-gradient"/><linearGradient id="linear-gradient-3" x1="65.14" y1="-40.63" x2="33.84" y2="3.61" gradientTransform="translate(-30.73 41.42) rotate(-9.16)" gradientUnits="userSpaceOnUse"><stop offset="0" stop-color="#ba458e"/><stop offset="1" stop-color="#721d66"/></linearGradient><linearGradient id="linear-gradient-4" x1="65.98" y1="-40.03" x2="34.68" y2="4.21" xlink:href="#linear-gradient-3"/><linearGradient id="linear-gradient-5" x1="66.61" y1="-39.58" x2="35.32" y2="4.66" xlink:href="#linear-gradient-3"/><linearGradient id="linear-gradient-6" x1="67.26" y1="-39.13" x2="35.96" y2="5.12" xlink:href="#linear-gradient-3"/><linearGradient id="linear-gradient-7" x1="68.83" y1="-38.02" x2="37.53" y2="6.23" xlink:href="#linear-gradient-3"/><linearGradient id="linear-gradient-8" x1="69.33" y1="-37.66" x2="38.03" y2="6.58" xlink:href="#linear-gradient-3"/><linearGradient id="linear-gradient-9" x1="70.06" y1="-37.15" x2="38.76" y2="7.1" xlink:href="#linear-gradient-3"/><linearGradient id="linear-gradient-10" x1="71.73" y1="-35.97" x2="40.43" y2="8.28" xlink:href="#linear-gradient-3"/><linearGradient id="linear-gradient-11" x1="82.67" y1="-28.22" x2="51.38" y2="16.02" xlink:href="#linear-gradient-3"/><linearGradient id="linear-gradient-12" x1="76.47" y1="-32.61" x2="45.17" y2="11.63" xlink:href="#linear-gradient-3"/><linearGradient id="linear-gradient-13" x1="72.86" y1="-35.16" x2="41.56" y2="9.08" xlink:href="#linear-gradient-3"/><linearGradient id="linear-gradient-14" x1="79.4" y1="-30.54" x2="48.1" y2="13.7" xlink:href="#linear-gradient-3"/><linearGradient id="linear-gradient-15" x1="86.54" y1="-25.49" x2="55.24" y2="18.75" xlink:href="#linear-gradient-3"/><linearGradient id="linear-gradient-16" x1="80.62" y1="-29.68" x2="49.32" y2="14.57" xlink:href="#linear-gradient-3"/><linearGradient id="linear-gradient-17" x1="77.57" y1="-25.98" x2="38.98" y2="11.95" gradientTransform="translate(-30.73 41.42) rotate(-9.16)" gradientUnits="userSpaceOnUse"><stop offset="0" stop-color="#ff6bc4"/><stop offset="1" stop-color="#7c2869"/></linearGradient><linearGradient id="linear-gradient-18" x1="76.54" y1="-53.78" x2="26.1" y2="-4.88" gradientTransform="translate(-30.73 41.42) rotate(-9.16)" gradientUnits="userSpaceOnUse"><stop offset="0" stop-color="#ba458e"/><stop offset="1" stop-color="#651d5d"/></linearGradient><linearGradient id="linear-gradient-19" x1="76.58" y1="-53.75" x2="26.13" y2="-4.84" xlink:href="#linear-gradient-18"/><linearGradient id="linear-gradient-20" x1="76.71" y1="-53.61" x2="26.26" y2="-4.71" xlink:href="#linear-gradient-18"/><linearGradient id="linear-gradient-21" x1="76.95" y1="-53.36" x2="26.51" y2="-4.46" xlink:href="#linear-gradient-18"/><linearGradient id="linear-gradient-22" x1="77.64" y1="-52.65" x2="27.2" y2="-3.74" xlink:href="#linear-gradient-18"/><linearGradient id="linear-gradient-23" x1="78.18" y1="-52.09" x2="27.74" y2="-3.18" xlink:href="#linear-gradient-18"/><linearGradient id="linear-gradient-24" x1="78.85" y1="-51.41" x2="28.4" y2="-2.5" xlink:href="#linear-gradient-18"/><linearGradient id="linear-gradient-25" x1="80.41" y1="-49.8" x2="29.97" y2="-0.89" xlink:href="#linear-gradient-18"/><linearGradient id="linear-gradient-26" x1="97.59" y1="-32.07" x2="47.15" y2="16.84" xlink:href="#linear-gradient-18"/><linearGradient id="linear-gradient-27" x1="86.55" y1="-43.46" x2="36.11" y2="5.45" gradientTransform="translate(-30.73 41.42) rotate(-9.16)" gradientUnits="userSpaceOnUse"><stop offset="0" stop-color="#ba458e"/><stop offset="0.96" stop-color="#651d5d"/></linearGradient><linearGradient id="linear-gradient-28" x1="81.65" y1="-48.51" x2="31.21" y2="0.39" xlink:href="#linear-gradient-18"/><linearGradient id="linear-gradient-29" x1="90.53" y1="-39.35" x2="40.09" y2="9.55" xlink:href="#linear-gradient-18"/><linearGradient id="linear-gradient-30" x1="101.14" y1="-28.41" x2="50.7" y2="20.5" xlink:href="#linear-gradient-18"/><linearGradient id="linear-gradient-31" x1="92.56" y1="-37.26" x2="42.11" y2="11.64" xlink:href="#linear-gradient-18"/></defs><g id="Ebene_2" data-name="Ebene 2"><g id="_ŽÓť_2" data-name="—ŽÓť_2"><g id="Plan1"><path class="cls-1" d="M50.71,25.34A25.36,25.36,0,0,1,6.38,42.16,22.93,22.93,0,0,1,4.63,40C4.3,39.49,4,39,3.7,38.55a25.56,25.56,0,0,1-2.42-5.22A25.17,25.17,0,0,1,.07,27.22C0,26.6,0,26,0,25.34A25.34,25.34,0,0,1,25.35,0c.25,0,.48,0,.72,0A25.07,25.07,0,0,1,34,1.51,25.37,25.37,0,0,1,50.71,25.34Z"/><path class="cls-2" d="M47.38,21.85l.06.37c0,.16,0,.31.06.47,0,.32.08.65.11,1s.06.59.07.89a17.22,17.22,0,0,1,0,1.76s0,0,0,0a21.79,21.79,0,0,1-1.32,6.93,20.81,20.81,0,0,1-1.23,2.78h0s0,0,0,0c-.22.41-.44.81-.69,1.21A22.27,22.27,0,0,1,28.91,47.74a22,22,0,0,1-9.6-.54h0c-.45-.13-.84-.26-1.29-.42a22.4,22.4,0,0,1-2.16-.9,22.11,22.11,0,0,1-5.84-4c-.33-.31-.65-.63-1-1l-.21-.24c-.2-.21-.39-.42-.58-.64s-.56-.69-.82-1c0,0-.06-.08-.07-.11-.17-.21-.32-.42-.47-.64A19.92,19.92,0,0,1,5.05,35a20.49,20.49,0,0,1-.86-2.15c-.07-.23-.15-.44-.21-.67s-.09-.3-.13-.44a22.52,22.52,0,0,1-.56-2.52A20.46,20.46,0,0,1,3,26.76c0-.19,0-.38,0-.56s0-.47,0-.69a6.52,6.52,0,0,1,0-.76,19.67,19.67,0,0,1,.3-3c.09-.52.2-1,.34-1.55,0-.14.07-.3.12-.44.13-.51.29-1,.47-1.51a4.19,4.19,0,0,1,.16-.46,3.84,3.84,0,0,1,.14-.36c.1-.27.21-.53.33-.79A21.15,21.15,0,0,1,6.27,14c.17-.29.35-.57.53-.84l.3-.43q.41-.57.84-1.11l.35-.43c.22-.26.45-.51.68-.77s.27-.29.41-.42c.43-.45.89-.87,1.36-1.28h0a22.36,22.36,0,0,1,17.8-5.21A20.91,20.91,0,0,1,30.93,4l.55.15c.45.13.91.27,1.35.43h0l.5.19c.44.17.89.35,1.32.56l.45.21.29.14.63.34A21.25,21.25,0,0,1,38.6,7.68l.53.39.37.31c.28.23.56.46.81.7a2.15,2.15,0,0,1,.35.32c.26.23.5.47.74.72.4.41.79.84,1.16,1.29.24.29.48.59.7.9s.39.51.56.77l.38.57a21.9,21.9,0,0,1,2.42,5.15c.09.27.17.54.25.81A22.82,22.82,0,0,1,47.38,21.85Z"/><path class="cls-3" d="M28.55,3.55c-.66.94-2.84,3.35-8.73,4.86a20.72,20.72,0,0,1-9.07.35,22.36,22.36,0,0,1,17.8-5.21Z"/><path class="cls-4" d="M31.48,4.19a28.43,28.43,0,0,1-9.9,5,31.52,31.52,0,0,1-4,.92A38.18,38.18,0,0,1,9,10.46c.14-.15.27-.29.41-.42A36.09,36.09,0,0,0,21.44,8.72,29.08,29.08,0,0,0,30.93,4Z"/><path class="cls-5" d="M33.35,4.81C32.13,5.85,29,8,22.48,10.27a26.19,26.19,0,0,1-4.28,1,45.86,45.86,0,0,1-10.26.35l.35-.43c3,.2,9,.33,14-1.39,6.13-2.09,9.21-4.16,10.53-5.22Z"/><path class="cls-6" d="M35.12,5.58c-1.2,1.13-4.27,3.31-11.62,5.64A44.44,44.44,0,0,1,17,12.78,40.86,40.86,0,0,1,6.8,13.2l.3-.43a43.1,43.1,0,0,0,16.26-2c7-2.22,10.08-4.32,11.31-5.42Z"/><path class="cls-7" d="M38.6,7.68A48.61,48.61,0,0,1,25,14.05,52.78,52.78,0,0,1,4.9,16.67,21.15,21.15,0,0,1,6.27,14a45.1,45.1,0,0,0,16-1.81c7.29-2,11.54-4.48,13.79-6.17A21.25,21.25,0,0,1,38.6,7.68Z"/><path class="cls-8" d="M39.5,8.38c-2.39,1.83-6.82,4.49-14.38,6.88a59.23,59.23,0,0,1-8.48,2A86.38,86.38,0,0,1,4.27,18.28a4.19,4.19,0,0,1,.16-.46,76.09,76.09,0,0,0,20.55-3c7.37-2.33,11.76-5,14.15-6.76Z"/><path class="cls-9" d="M40.66,9.4a48.92,48.92,0,0,1-14.72,7.16,84.66,84.66,0,0,1-11.4,2.64,79.65,79.65,0,0,1-10.86,1c0-.14.07-.3.12-.44a84.32,84.32,0,0,0,22-3.67,48.23,48.23,0,0,0,14.5-7A2.15,2.15,0,0,1,40.66,9.4Z"/><path class="cls-10" d="M43.26,12.31c-2.86,2.23-8.1,5.41-17.17,8.35A75.64,75.64,0,0,1,3,24.75a19.67,19.67,0,0,1,.3-3,78,78,0,0,0,23.11-4.5c8-2.78,12.51-5.34,15-7.16.4.41.79.84,1.16,1.29C42.8,11.7,43,12,43.26,12.31Z"/><path class="cls-11" d="M47.69,26.35a21.79,21.79,0,0,1-1.32,6.93,44.15,44.15,0,0,1-11.79,7.26,83.82,83.82,0,0,1-18.77,5.34,22.11,22.11,0,0,1-5.84-4,78.37,78.37,0,0,0,24.3-6.83A46.47,46.47,0,0,0,47.69,26.35Z"/><path class="cls-12" d="M46.62,18.8c-.1.15-.22.31-.33.48a3.94,3.94,0,0,1-2.39,1.84,2.94,2.94,0,0,0,1-3.12,1.85,1.85,0,0,0-1.86-1.29,2.7,2.7,0,0,0-2.35,1.4,2.4,2.4,0,0,0,.66,2.59,3.52,3.52,0,0,0,.87.75,10.34,10.34,0,0,1-5,.75,14.71,14.71,0,0,0-2.46.1,5.57,5.57,0,0,0-2,.73,3.76,3.76,0,0,0-2.34.64,9.38,9.38,0,0,0-3.08,4,7.44,7.44,0,0,1-2.45,3.26,5,5,0,0,1-2.92.52,4.35,4.35,0,0,0,.94-1,2.73,2.73,0,0,0,.2-2.5,2.64,2.64,0,0,0-3.49-1.24c-1.22.42-2.26,1.5-1.9,2.77a3.71,3.71,0,0,0,2.33,2.23.8.8,0,0,0,.2.07,11.82,11.82,0,0,1-3.64.94,7,7,0,0,1-3.7-.58,6.6,6.6,0,0,0-3.62-.56l-.56.1a3.71,3.71,0,0,0-1.91-.51,4,4,0,0,0-2.88,1c.06.23.14.44.21.67a3.5,3.5,0,0,1,2.66-1.05A3.18,3.18,0,0,1,7.91,32,2.51,2.51,0,0,0,6.5,34.39a1.66,1.66,0,0,0,1.63,1.69h.09a2.21,2.21,0,0,0,1.66-2.36,2.45,2.45,0,0,0-.5-1.51h0a6,6,0,0,1,3.3.51,7.25,7.25,0,0,0,4,.62A11.26,11.26,0,0,0,21.21,32a6,6,0,0,0,4.05-.51c1.26-.71,2-2.08,2.7-3.52a9,9,0,0,1,2.85-3.76,3.71,3.71,0,0,1,1.12-.48,2.38,2.38,0,0,0-.31.4,3.28,3.28,0,0,0-.39,2.67,2.1,2.1,0,0,0,2.38,1.64,2.23,2.23,0,0,0,2-2.14,3.57,3.57,0,0,0-1.74-3l-.16-.07A5.91,5.91,0,0,1,34.93,23a13.37,13.37,0,0,1,2.34-.08c1.87,0,4,.06,5.79-1.1a2.28,2.28,0,0,0,.64,0,4.43,4.43,0,0,0,3.15-2.17l0,0C46.79,19.34,46.71,19.07,46.62,18.8ZM9.22,33.73c0,.88-.51,1.67-1.11,1.68s-.91-.52-.94-1.07a1.93,1.93,0,0,1,1.46-2A1.87,1.87,0,0,1,9.22,33.73Zm11.12-2.67a3.07,3.07,0,0,1-1.93-1.8c-.26-.86.54-1.64,1.46-2a2.9,2.9,0,0,1,.71-.15,1.75,1.75,0,0,1,2,1,2,2,0,0,1-.15,1.9,4.09,4.09,0,0,1-1.28,1.23A4.22,4.22,0,0,1,20.34,31.06ZM35,26.33a1.56,1.56,0,0,1-1.46,1.48,1.43,1.43,0,0,1-1.66-1.15,2.64,2.64,0,0,1,.3-2.15,3,3,0,0,1,.8-.8,2.72,2.72,0,0,1,.62.23A2.83,2.83,0,0,1,35,26.33ZM42.94,21h0a2.49,2.49,0,0,1-1-.77c-.6-.72-.8-1.38-.57-1.9a2,2,0,0,1,1.67-1h.13a1.18,1.18,0,0,1,1.18.84C44.57,18.92,44.34,20,42.94,21Z"/><path class="cls-13" d="M44.2,13.65a68.77,68.77,0,0,1-15.75,8.08,68.34,68.34,0,0,1-13.33,3.54A72.63,72.63,0,0,1,3,26.2c0-.24,0-.47,0-.69A70.28,70.28,0,0,0,28.2,21.09a68.11,68.11,0,0,0,15.62-8Z"/><path class="cls-14" d="M47.38,21.85l.06.37c0,.16,0,.31.06.47A63.43,63.43,0,0,1,32,32.1,82.64,82.64,0,0,1,11.4,38.35c-1.59.26-3,.42-4.06.53-.17-.21-.32-.42-.47-.64a78.67,78.67,0,0,0,24.81-6.76A61.66,61.66,0,0,0,47.38,21.85Z"/><path class="cls-15" d="M45.13,36.07s0,0,0,0c-.22.41-.44.81-.69,1.21-2,1.2-4.32,2.44-7,3.69A84.17,84.17,0,0,1,19.31,47.2h0c-.45-.13-.84-.26-1.29-.42a82.72,82.72,0,0,0,19.21-6.41A81,81,0,0,0,45.13,36.07Z"/><path class="cls-16" d="M47.61,23.66c0,.3.06.59.07.89A67.55,67.55,0,0,1,32.5,34.09a70.87,70.87,0,0,1-19.18,6c-1.72.27-3.24.45-4.51.56-.2-.21-.39-.42-.58-.64a68.6,68.6,0,0,0,24-6.57A65.05,65.05,0,0,0,47.61,23.66Z"/><path class="cls-17" d="M31.19,35.31A19.7,19.7,0,0,1,11.67,15.78a19.13,19.13,0,0,1,2.52-9.46,21.58,21.58,0,0,0-3.44,2.44h0c-.47.41-.93.83-1.36,1.28-.14.13-.27.27-.41.42s-.46.51-.68.77l-.35.43q-.43.54-.84,1.11l-.3.43c-.18.27-.36.55-.53.84A21.15,21.15,0,0,0,4.9,16.67c-.12.26-.23.52-.33.79a3.84,3.84,0,0,0-.14.36,4.19,4.19,0,0,0-.16.46c-.18.5-.34,1-.47,1.51,0,.14-.08.3-.12.44-.14.51-.25,1-.34,1.55a19.67,19.67,0,0,0-.3,3,6.52,6.52,0,0,0,0,.76c0,.22,0,.45,0,.69s0,.37,0,.56a20.46,20.46,0,0,0,.25,2.47,22.52,22.52,0,0,0,.56,2.52c0,.14.09.29.13.44s.14.44.21.67A20.49,20.49,0,0,0,5.05,35a19.92,19.92,0,0,0,1.82,3.23c.15.22.3.43.47.64,0,0,0,.07.07.11.26.36.54.71.82,1s.38.43.58.64l.21.24c.3.33.62.65,1,1a22.11,22.11,0,0,0,5.84,4,22.4,22.4,0,0,0,2.16.9c.45.16.84.29,1.29.42h0a22,22,0,0,0,9.6.54A22.27,22.27,0,0,0,44.44,37.29c.25-.4.47-.8.69-1.21,0,0,0,0,0,0h0a20.81,20.81,0,0,0,1.23-2.78,21.79,21.79,0,0,0,1.32-6.93s0,0,0,0a1.92,1.92,0,0,0,0-.24A19.63,19.63,0,0,1,31.19,35.31Z"/><path class="cls-18" d="M14.19,6.32a21.58,21.58,0,0,0-3.44,2.44A18.65,18.65,0,0,0,12.92,9,19.23,19.23,0,0,1,14.19,6.32Z"/><path class="cls-19" d="M12.54,10.08c-1.24,0-2.33,0-3.16,0-.14.13-.27.27-.41.42.85.06,2,.11,3.45.08C12.47,10.39,12.49,10.23,12.54,10.08Z"/><path class="cls-20" d="M12.21,11.34c-1.55,0-2.91,0-3.92-.11l-.35.43c1,.08,2.47.15,4.15.14C12.13,11.64,12.18,11.49,12.21,11.34Z"/><path class="cls-21" d="M11.92,12.84a37.87,37.87,0,0,1-4.82-.07l-.3.43a38.3,38.3,0,0,0,5.05.1C11.87,13.15,11.9,13,11.92,12.84Z"/><path class="cls-22" d="M11.67,15.78c0-.57,0-1.14.08-1.7a35.25,35.25,0,0,1-5.48,0A21.15,21.15,0,0,0,4.9,16.67a43.29,43.29,0,0,0,6.81,0C11.7,16.38,11.67,16.08,11.67,15.78Z"/><path class="cls-23" d="M11.75,17.4c-3,.3-5.6.4-7.32.42a4.19,4.19,0,0,0-.16.46c1.73,0,4.4-.12,7.51-.43Z"/><path class="cls-24" d="M12,19.12a78.61,78.61,0,0,1-8.18.67c0,.14-.08.3-.12.44a77.23,77.23,0,0,0,8.37-.67C12,19.42,12,19.27,12,19.12Z"/><path class="cls-25" d="M12.38,20.88a64.55,64.55,0,0,1-9,.9,19.67,19.67,0,0,0-.3,3,62.93,62.93,0,0,0,10.41-.95A19.58,19.58,0,0,1,12.38,20.88Z"/><path class="cls-26" d="M34.32,35l0,0A78.37,78.37,0,0,1,10,41.88a22.11,22.11,0,0,0,5.84,4,83.82,83.82,0,0,0,18.77-5.34,44.15,44.15,0,0,0,11.79-7.26,21.79,21.79,0,0,0,1.32-6.93l-.41.38A19.78,19.78,0,0,1,34.32,35Z"/><path class="cls-27" d="M20.16,31.8a11.71,11.71,0,0,1-3.51.89,7,7,0,0,1-3.7-.58,6.6,6.6,0,0,0-3.62-.56l-.56.1a3.71,3.71,0,0,0-1.91-.51,4,4,0,0,0-2.88,1c.06.23.14.44.21.67a3.5,3.5,0,0,1,2.66-1.05A3.18,3.18,0,0,1,7.91,32,2.51,2.51,0,0,0,6.5,34.39a1.66,1.66,0,0,0,1.63,1.69h.09a2.21,2.21,0,0,0,1.66-2.36,2.45,2.45,0,0,0-.5-1.51h0a6,6,0,0,1,3.3.51,7.25,7.25,0,0,0,4,.62,11.56,11.56,0,0,0,4.09-1.12C20.58,32.08,20.37,32,20.16,31.8Zm-12,3.61c-.57,0-.91-.52-.94-1.07a1.93,1.93,0,0,1,1.46-2,1.87,1.87,0,0,1,.59,1.35C9.22,34.61,8.71,35.4,8.11,35.41Z"/><path class="cls-28" d="M13.92,24.76A71.94,71.94,0,0,1,3,25.51c0,.22,0,.45,0,.69a71.46,71.46,0,0,0,11.25-.81C14.15,25.18,14,25,13.92,24.76Z"/><path class="cls-29" d="M24.85,34.2a75.79,75.79,0,0,1-18,4c.15.22.3.43.47.64,1.11-.11,2.47-.27,4.06-.53a80.87,80.87,0,0,0,14.52-3.8C25.56,34.44,25.2,34.33,24.85,34.2Z"/><path class="cls-30" d="M45.13,36.07s0,0,0,0c-.22.41-.44.81-.69,1.21-2,1.2-4.32,2.44-7,3.69A84.17,84.17,0,0,1,19.31,47.2h0c-.45-.13-.84-.26-1.29-.42a82.72,82.72,0,0,0,19.21-6.41A81,81,0,0,0,45.13,36.07Z"/><path class="cls-31" d="M28.53,35.1A67.43,67.43,0,0,1,8.23,40c.19.22.38.43.58.64,1.27-.11,2.79-.29,4.51-.56A71,71,0,0,0,30,35.25C29.47,35.21,29,35.17,28.53,35.1Z"/><path class="cls-32" d="M19.82,5.91c-2.57,2.28-1.06,8,6.4,11.22C33.51,20.24,40.06,19,40.61,15.2c.41-2.83-1.91-6-7.46-8.78S22.16,3.84,19.82,5.91Z"/></g></g></g></svg>