<svg xmlns="http://www.w3.org/2000/svg" xmlns:xlink="http://www.w3.org/1999/xlink" viewBox="0 0 608.11 1746.31"><defs><style>.cls-1,.cls-13,.cls-14,.cls-15,.cls-2,.cls-3,.cls-4,.cls-7,.cls-8,.cls-9{fill-rule:evenodd;}.cls-1{fill:url(#GradientFill_1);}.cls-2{fill:url(#GradientFill_2);}.cls-3,.cls-6{fill:#6f6fff;}.cls-4{fill:#5151ff;}.cls-5{fill:#8282ff;}.cls-7{fill:#5b5bff;}.cls-8{fill:#aeaeff;}.cls-9{fill:#cbcbff;}.cls-10{fill:#bcbcff;}.cls-11{fill:#003398;}.cls-12{fill:#9898ff;}.cls-13{fill:url(#GradientFill_3);}.cls-14{fill:#fff;}.cls-15{fill:#f2f2ff;}</style><linearGradient id="GradientFill_1" x1="293.8" y1="1634.65" x2="311.84" y2="1290.36" gradientUnits="userSpaceOnUse"><stop offset="0" stop-color="#fcee2d"/><stop offset="0.56" stop-color="#faa222"/><stop offset="1" stop-color="#f26522"/></linearGradient><radialGradient id="GradientFill_2" cx="303.94" cy="1311.39" r="163.26" gradientUnits="userSpaceOnUse"><stop offset="0" stop-color="#ed1c24"/><stop offset="1" stop-color="#f4752d"/></radialGradient><linearGradient id="GradientFill_3" x1="264.46" y1="493.65" x2="374.78" y2="390.78" gradientUnits="userSpaceOnUse"><stop offset="0" stop-color="#cacce7"/><stop offset="1" stop-color="#dee7f5"/></linearGradient></defs><g id="Ebene_2" data-name="Ebene 2"><g id="Layer_1" data-name="Layer 1"><path class="cls-1" d="M230.93,1285.31c-8.31,37.77-19.56,104.19-18.49,165s14.47,116,36.16,173c17.09,44.94,39.33,91,55.34,123,16-32,38.24-78,55.33-123,21.69-57,35.08-112.22,36.15-173s-10.17-127.22-18.48-165-13.65-46.87-17.14-61.33-5.09-34.29-22.23-40.45c-8-2.87-19.4-2.77-33.63,4.51-14.24-7.28-25.64-7.38-33.64-4.51-17.14,6.16-18.75,26-22.23,40.45S239.23,1247.55,230.93,1285.31Z"/><path class="cls-2" d="M261.32,1312.8c-2.82,21-7.9,54.76-7.9,87a259.78,259.78,0,0,0,17.94,96.42c9.1,23.61,22.1,48.5,32.58,67.39,10.47-18.89,23.47-43.78,32.57-67.39a259.78,259.78,0,0,0,17.94-96.42c0-32.26-5.08-66-7.9-87s-3.34-29.34-4.15-33.1-1.87-3-10.18-1.48c-6.21,1.1-16.49,2.58-28.28,5.56-11.8-3-22.08-4.46-28.29-5.56-8.31-1.47-9.38-2.28-10.18,1.48S264.13,1291.77,261.32,1312.8Z"/><path class="cls-3" d="M434.2,844,597.08,967.8h0a28,28,0,0,1,11,22.3v170.68A35.17,35.17,0,0,1,573,1196H434.2V844Zm-260.29,0L11,967.8h0A28,28,0,0,0,0,990.1v170.68A35.17,35.17,0,0,0,35.17,1196H173.91Z"/><path class="cls-4" d="M434.2,844l52.14,39.64c-5,93.86-13.28,187.2-22.68,280.76L460.49,1196H434.2V844ZM150,1196l-3.17-31.59c-9.46-94.15-17.76-188.07-22.78-282.52L173.91,844v352Z"/><rect class="cls-5" x="205.08" y="1192.94" width="200.38" height="89.64"/><rect class="cls-6" x="205.08" y="1192.94" width="200.38" height="56.01"/><path class="cls-7" d="M190.43,1278.78H420.1a12.89,12.89,0,0,1,0,25.78H190.43a12.89,12.89,0,0,1,0-25.78Z"/><path class="cls-8" d="M305.26,0A753.74,753.74,0,0,0,197.08,216.75c-42.57,135.93-59,317.16-58.2,497.23s18.75,359,27.73,448.4l5.43,54.06a24.13,24.13,0,0,0,24,21.32H414.52a24.13,24.13,0,0,0,24-21.32l5.42-54.06c9-89.45,27-268.34,27.74-448.4S456,352.68,413.45,216.75A753.48,753.48,0,0,0,305.26,0Z"/><path class="cls-9" d="M305.26,0A753.74,753.74,0,0,0,197.08,216.75c-42.57,135.93-59,317.16-58.2,497.23s18.75,359,27.73,448.4l5.43,54.06a24.13,24.13,0,0,0,24,21.32H395c.54-4.06,1-9.84,1.59-17.68a32.88,32.88,0,0,0,.49-3.64l3.75-54.06,1.17-17v-.22l0-.22,0-.35v-.28l0-.21v-.2l0-.2,0-.6v-.38l.3-4.38v-1.11l0-.44v-.2l0-.2v-1.21C409.26,1039.65,419.5,877.3,420,714c.54-180.07-10.78-361.3-40.13-497.23C360,124.8,331.88,53.59,305.26,0Z"/><path class="cls-3" d="M305.26,1192.94h0c-10.56,0-19.12-5-19.12-11.25V855.21c0-6.22,8.56-11.25,19.12-11.25h0c10.57,0,19.13,5,19.13,11.25h0v326.48h0C324.39,1187.9,315.83,1192.94,305.26,1192.94Z"/><circle class="cls-10" cx="320.62" cy="464.81" r="100.33" transform="translate(-234.76 362.85) rotate(-45)"/><circle class="cls-11" cx="311.77" cy="458.26" r="96.32" transform="translate(-81.04 67.23) rotate(-10.9)"/><circle class="cls-12" cx="311.77" cy="458.26" r="75.84"/><path class="cls-13" d="M311.76,382.43a76,76,0,0,1,22.08,3.26,75.85,75.85,0,0,1-57.15,139.82,75.84,75.84,0,0,1,35.07-143.08Z"/><path class="cls-14" d="M271,442.9a18.32,18.32,0,1,0-18.32-18.32A18.36,18.36,0,0,0,271,442.9Z"/><path class="cls-3" d="M305.26,0A753.74,753.74,0,0,0,197.08,216.75q-8.42,26.9-15.49,56c.12,4.27,55.44,7.74,123.68,7.74s123.49-3.46,123.67-7.74c-4.72-19.39-9.88-38.11-15.49-56A753.48,753.48,0,0,0,305.26,0Z"/><path class="cls-7" d="M197.08,216.75c-.66,2.09-1.3,4.2-2,6.31.65-2.11,1.29-4.22,2-6.31Zm-2,6.49q-.95,3.1-1.86,6.22.92-3.12,1.86-6.22Zm-2,6.61q-.85,2.9-1.69,5.82.84-2.92,1.69-5.82Zm-2,6.85c-.49,1.74-1,3.48-1.48,5.24.49-1.76,1-3.5,1.48-5.24Zm-2,7c-.41,1.48-.81,3-1.22,4.46.41-1.49.81-3,1.22-4.46Zm-1.94,7.13c-.31,1.17-.62,2.35-.94,3.53.32-1.18.63-2.36.94-3.53Zm-1.94,7.38c-.21.8-.42,1.59-.62,2.39.2-.8.41-1.59.62-2.39Zm206.21,20.09c23-1.4,37.39-3.36,37.48-5.54-4.72-19.39-9.88-38.11-15.49-56A753.48,753.48,0,0,0,305.26,0c26.62,53.59,54.74,124.8,74.6,216.75C384.1,236.38,388,257,391.46,278.33Z"/><path class="cls-15" d="M187.9,1236.37a24.15,24.15,0,0,0,8.11,1.39h26.28l-7.06-49.85c-12.59-89-37.78-267-45.85-446.91C164,622,166.21,502.1,179,394.78c-17.14,106.72-24.15,226.39-23.64,345.55.78,180.06,18.75,359,27.74,448.4Z"/><path class="cls-14" d="M293.72,29.51C264.65,74,234,133.06,212.26,209.36q-1.86,6.55-3.63,13.27c1.42.44,3,.87,4.66,1.25a104,104,0,0,0,12.26,1.87q.93-5.16,1.93-10.24c15.27-77.84,41-139.28,66.24-186Zm-87,200.27q-3.24,12.76-6.18,26.08c0,1.48,7.33,2.84,19.54,3.93Q222,246.14,224.27,233c-2.3-.23-4.65-.53-6.94-.9C213.5,231.47,209.85,230.61,206.77,229.78Z"/><path class="cls-14" d="M598.31,1098c1.81-15.81,6.15-101.61,1.09-114.08-5.42-13.39-30.35-28-41.54-36-10.15-7.28-18.82-13.5-29.63-19.91h0c12.28,11.77,25.6,22.05,38.86,32.72,10.68,8.6,26.43,17.1,27.4,31.7C596.78,1026.94,594.34,1063.4,598.31,1098Z"/><path class="cls-14" d="M9.8,1098C8,1082.22,3.65,996.42,8.71,984c5.42-13.39,30.35-28,41.54-36,10.15-7.28,18.82-13.5,29.63-19.91h0C67.62,939.8,54.29,950.08,41,960.75c-10.68,8.6-26.43,17.1-27.4,31.7C11.33,1026.94,13.77,1063.4,9.8,1098Z"/></g></g></svg>