<svg xmlns="http://www.w3.org/2000/svg" viewBox="0 0 266.84 126.1"><defs><style>.cls-1{isolation:isolate;}.cls-2{opacity:0.69;}.cls-3{opacity:0.37;}.cls-4{opacity:0.47;}.cls-5{mix-blend-mode:multiply;}.cls-6{fill:#fff;}.cls-7{fill:#14a594;}.cls-8{fill:#281455;}.cls-9{fill:#d7d7cd;}.cls-10{fill:#ffc520;}.cls-11{fill:#48cded;}.cls-12{fill:#ff5e9f;}.cls-13{fill:#fd2f17;}.cls-14{fill:#2b72d8;}.cls-15{fill:#ff841f;}.cls-16{fill:#21542b;}.cls-17{fill:#c1c1b8;}.cls-18{fill:#4faa5b;}.cls-19{fill:#ef1707;}</style></defs><g class="cls-1"><g id="Layer_1" data-name="Layer 1"><g id="New_Symbol_4-5" data-name="New Symbol 4"><rect class="cls-6" x="-96.51" y="-41.75" width="363.35" height="167.85"/><polygon class="cls-7" points="77.47 39.6 84.59 61.01 77.47 61.01 77.47 39.6"/><polygon class="cls-8" points="77.47 61.01 70.36 61.01 77.47 39.6 77.47 61.01"/><rect class="cls-9" x="49.51" y="98.17" width="15.35" height="4.45"/><path class="cls-10" d="M266.84,126a42.84,42.84,0,0,0-85.66,0Z"/><path class="cls-9" d="M49.51,98.17A35.69,35.69,0,0,0,14.7,126H84.32A35.69,35.69,0,0,0,49.51,98.17Z"/><rect class="cls-11" x="83.66" y="14.38" width="27.93" height="41.78"/><polygon class="cls-12" points="111.59 14.38 111.59 56.16 83.66 56.16 111.59 14.38"/><rect class="cls-7" x="181.39" y="21.85" width="27.87" height="34.43"/><rect class="cls-11" x="167.45" y="21.82" width="27.87" height="34.55"/><rect class="cls-6" x="139.52" y="21.82" width="27.93" height="34.46"/><polygon class="cls-13" points="125.65 14.38 153.49 14.38 167.45 21.82 135.34 21.82 125.65 14.38"/><rect class="cls-9" x="111.59" y="21.82" width="27.93" height="48.42"/><path class="cls-14" d="M111.59,42.72c-30.86,0-55.86,24.8-55.86,55.35v.1h55.86Z"/><path class="cls-7" d="M111.59,52.16C86,52.19,65.27,72.77,65.27,98.07v.1h46.32Z"/><path class="cls-10" d="M111.59,61.6A36.7,36.7,0,0,0,74.8,98.07s0,.07,0,.1h36.78Z"/><path class="cls-15" d="M111.59,71a27.21,27.21,0,0,0-27.25,27v.1h27.25Z"/><path class="cls-13" d="M111.59,80.47a17.71,17.71,0,0,0-17.71,17.6v.1h17.71Z"/><path class="cls-6" d="M111.59,89.91a8.22,8.22,0,0,0-8.18,8.16s0,.07,0,.1h8.17Z"/><rect class="cls-12" x="167.45" y="42.31" width="13.97" height="27.93"/><rect class="cls-14" x="181.42" y="56.28" width="27.93" height="27.93"/><rect class="cls-14" x="83.66" y="98.17" width="27.93" height="27.93"/><rect class="cls-13" x="83.66" y="121.19" width="27.93" height="4.92"/><rect class="cls-7" x="111.59" y="98.17" width="27.93" height="27.93"/><rect class="cls-13" x="139.52" y="98.17" width="27.93" height="27.93"/><rect class="cls-9" x="139.52" y="98.17" width="3.53" height="27.93"/><rect class="cls-9" x="145.62" y="98.17" width="3.53" height="27.93"/><rect class="cls-9" x="151.72" y="98.17" width="3.53" height="27.93"/><rect class="cls-14" x="157.82" y="98.17" width="3.53" height="27.93"/><rect class="cls-14" x="163.92" y="98.17" width="3.53" height="27.93"/><rect class="cls-8" x="145.62" y="92.07" width="3.53" height="15.73" transform="translate(247.32 -47.45) rotate(90)"/><rect class="cls-8" x="145.62" y="98.17" width="3.53" height="15.73" transform="translate(253.42 -41.35) rotate(90)"/><rect class="cls-8" x="145.62" y="104.27" width="3.53" height="15.73" transform="translate(259.52 -35.25) rotate(90)"/><rect class="cls-8" x="145.62" y="110.37" width="3.53" height="15.73" transform="translate(265.62 -29.15) rotate(90)"/><rect class="cls-8" x="145.62" y="116.47" width="3.53" height="15.73" transform="translate(271.72 -23.05) rotate(90)"/><rect class="cls-13" x="195.38" y="98.17" width="27.93" height="27.93"/><rect class="cls-12" x="167.45" y="98.17" width="13.97" height="27.93"/><rect class="cls-10" x="111.59" y="84.21" width="27.93" height="13.97"/><rect class="cls-8" x="111.59" y="70.24" width="13.97" height="13.97"/><rect class="cls-16" x="125.56" y="70.24" width="13.97" height="13.97"/><rect class="cls-15" x="139.52" y="70.24" width="13.97" height="13.97"/><rect class="cls-8" x="153.49" y="70.24" width="13.97" height="13.97"/><rect class="cls-16" x="167.45" y="70.24" width="13.97" height="13.97"/><rect class="cls-9" x="139.52" y="84.21" width="13.97" height="13.97"/><rect class="cls-12" x="153.49" y="84.21" width="13.97" height="13.97"/><rect class="cls-7" x="167.45" y="84.21" width="13.97" height="13.97"/><rect class="cls-12" x="115.65" y="103.09" width="6.02" height="6.02" transform="translate(109.78 -52.83) rotate(45)"/><rect class="cls-6" x="129.18" y="103.09" width="6.02" height="6.02" transform="translate(113.74 -62.39) rotate(45)"/><rect class="cls-10" x="115.65" y="115.53" width="6.02" height="6.02" transform="translate(118.58 -49.18) rotate(45)"/><rect class="cls-17" x="129.18" y="115.53" width="6.02" height="6.02" transform="translate(122.54 -58.75) rotate(45)"/><path class="cls-10" d="M209.35,84.21a27.88,27.88,0,0,0-27.69-27.93h-.24V84.21Z"/><path class="cls-14" d="M167.45,42.31a14,14,0,0,0,13.85,14h.12v-14Z"/><rect class="cls-9" x="181.42" y="84.21" width="27.93" height="13.97"/><rect class="cls-8" x="181.42" y="84.21" width="27.93" height="3.29"/><rect class="cls-8" x="181.42" y="89.41" width="27.93" height="3.43"/><rect class="cls-8" x="181.42" y="94.75" width="27.93" height="3.43"/><rect class="cls-14" x="181.42" y="98.17" width="13.97" height="27.93"/><rect class="cls-12" x="209.35" y="56.28" width="13.97" height="41.89"/><polygon class="cls-8" points="209.35 98.17 209.35 56.28 223.31 56.28 209.35 98.17"/><polygon class="cls-13" points="223.31 56.32 209.35 42.35 195.32 56.28 223.31 56.32"/><polygon class="cls-10" points="216.25 56.32 209.27 49.33 202.26 56.3 216.25 56.32"/><polygon class="cls-11" points="195.38 21.82 181.42 7.85 167.45 21.82 195.38 21.82"/><polygon class="cls-8" points="181.42 42.31 174.48 28.34 167.45 42.31 181.42 42.31"/><polygon class="cls-8" points="139.52 21.82 125.65 14.38 111.59 21.82 139.52 21.82"/><rect class="cls-9" x="171.43" y="74.22" width="6.02" height="6.02" transform="translate(105.7 -100.73) rotate(45)"/><path class="cls-10" d="M167.45,42.24a14,14,0,0,0-27.93,0v.07h27.93Z"/><path class="cls-12" d="M160.74,42.44c0-7.67-3.25-13.9-7.25-13.9s-7.25,6.23-7.25,13.9v.07h14.5Z"/><rect class="cls-17" x="139.52" y="42.31" width="27.93" height="13.97"/><rect class="cls-6" x="146.24" y="42.51" width="14.5" height="13.97"/><rect class="cls-12" x="128.84" y="73.52" width="7.41" height="7.41"/><rect class="cls-10" x="163.75" y="108.43" width="7.41" height="7.41" transform="translate(128.34 -85.56) rotate(45)"/><path class="cls-7" d="M118.66,80.93h0a3.7,3.7,0,0,1-3.7-3.71h0a3.7,3.7,0,0,1,3.7-3.7h0a3.7,3.7,0,0,1,3.7,3.7h0A3.7,3.7,0,0,1,118.66,80.93Z"/><path class="cls-13" d="M146.5,94.89h0a3.7,3.7,0,0,1-3.7-3.7h0a3.71,3.71,0,0,1,3.7-3.71h0a3.71,3.71,0,0,1,3.71,3.71h0A3.7,3.7,0,0,1,146.5,94.89Z"/><rect class="cls-10" x="92.01" y="98.39" width="11.24" height="22.79"/><rect class="cls-14" x="83.66" y="98.17" width="27.93" height="8.73"/><polygon class="cls-8" points="181.42 7.85 195.38 7.85 209.32 21.82 195.38 21.82 181.42 7.85"/><rect class="cls-15" x="55.73" y="98.17" width="27.93" height="27.93"/><polygon class="cls-17" points="55.73 98.17 69.44 71 83.66 98.17 55.73 98.17"/><polygon class="cls-12" points="61.22 98.17 69.44 71 77.47 98.17 61.22 98.17"/><polygon class="cls-11" points="61.22 98.17 69.35 88.82 77.47 98.17 61.22 98.17"/><rect class="cls-8" x="60.73" y="101.9" width="5.57" height="5.68"/><rect class="cls-6" x="60.73" y="107.41" width="5.57" height="1.78"/><rect class="cls-14" x="72.96" y="101.9" width="5.57" height="5.68"/><rect class="cls-13" x="72.96" y="107.41" width="5.57" height="1.78"/><rect class="cls-14" x="60.73" y="115.12" width="5.57" height="5.68"/><rect class="cls-9" x="60.73" y="120.62" width="5.57" height="1.78"/><rect class="cls-9" x="72.96" y="115.12" width="5.57" height="5.68"/><rect class="cls-10" x="72.96" y="120.62" width="5.57" height="1.78"/><polygon class="cls-14" points="83.66 14.38 97.63 0 111.59 14.38 83.66 14.38"/><polygon class="cls-15" points="195.38 72.74 209.35 126.08 195.38 126.08 195.38 72.74"/><polygon class="cls-18" points="195.38 126.08 181.42 126.08 195.38 72.74 195.38 126.08"/><polygon class="cls-16" points="236.96 56.16 250.93 98.17 236.96 98.17 236.96 56.16"/><polygon class="cls-7" points="236.96 98.17 223 98.17 236.96 56.16 236.96 98.17"/><polygon class="cls-16" points="223 98.2 232.26 126.08 223 126.08 223 98.2"/><polygon class="cls-7" points="223 126.08 213.73 126.08 223 98.2 223 126.08"/><polygon class="cls-16" points="241.56 98.2 250.83 126.08 241.56 126.08 241.56 98.2"/><polygon class="cls-7" points="241.56 126.08 232.29 126.08 241.56 98.2 241.56 126.08"/><polygon class="cls-16" points="48.88 104.67 56 126.08 48.88 126.08 48.88 104.67"/><polygon class="cls-7" points="48.88 126.08 41.77 126.08 48.88 104.67 48.88 126.08"/><polygon class="cls-16" points="118.66 42.37 125.64 70.24 118.66 70.24 118.66 42.37"/><polygon class="cls-7" points="118.66 70.24 111.68 70.24 118.66 42.37 118.66 70.24"/><polygon class="cls-16" points="20.85 84.63 27.8 126.1 20.85 126.1 20.85 84.63"/><polygon class="cls-7" points="20.85 126.1 13.9 126.1 20.85 84.63 20.85 126.1"/><polygon class="cls-16" points="3.48 105.36 6.95 126.1 3.48 126.1 3.48 105.36"/><polygon class="cls-7" points="3.48 126.1 0 126.1 3.48 105.36 3.48 126.1"/><rect class="cls-6" x="87.95" y="18.61" width="5.39" height="12.62"/><rect class="cls-16" x="34.33" y="117.96" width="1.22" height="8.12"/><polygon class="cls-7" points="27.8 119.33 34.73 119.33 34.73 112.4 27.8 119.33"/><polygon class="cls-16" points="34.78 112.35 34.73 112.4 34.73 119.33 41.77 119.33 34.78 112.35"/><polygon class="cls-16" points="34.78 105.36 34.73 105.42 34.73 112.35 41.77 112.35 34.78 105.36"/><polygon class="cls-7" points="27.8 112.35 34.73 112.35 34.73 105.42 27.8 112.35"/><polygon class="cls-7" points="27.8 105.36 34.73 105.36 34.73 98.43 27.8 105.36"/><polygon class="cls-16" points="34.78 98.38 34.73 98.43 34.73 105.36 41.77 105.36 34.78 98.38"/><polygon class="cls-7" points="27.8 98.38 34.73 98.38 34.73 91.45 27.8 98.38"/><polygon class="cls-16" points="34.78 91.4 34.73 91.45 34.73 98.38 41.77 98.38 34.78 91.4"/><rect class="cls-16" x="256.7" y="117.96" width="1.22" height="8.12"/><polygon class="cls-7" points="250.18 119.33 257.11 119.33 257.11 112.4 250.18 119.33"/><polygon class="cls-16" points="257.16 112.35 257.11 112.4 257.11 119.33 264.14 119.33 257.16 112.35"/><polygon class="cls-16" points="257.16 105.36 257.11 105.42 257.11 112.35 264.14 112.35 257.16 105.36"/><polygon class="cls-7" points="250.18 112.35 257.11 112.35 257.11 105.42 250.18 112.35"/><polygon class="cls-7" points="250.18 105.36 257.11 105.36 257.11 98.43 250.18 105.36"/><polygon class="cls-16" points="257.16 98.38 257.11 98.43 257.11 105.36 264.14 105.36 257.16 98.38"/><polygon class="cls-7" points="46.81 98.17 51.24 98.17 51.24 92.17 46.81 98.17"/><polygon class="cls-16" points="51.27 92.12 51.24 92.17 51.24 98.17 55.73 98.17 51.27 92.12"/><polygon class="cls-16" points="51.27 86.08 51.24 86.12 51.24 92.12 55.73 92.12 51.27 86.08"/><polygon class="cls-7" points="46.81 92.12 51.24 92.12 51.24 86.12 46.81 92.12"/><polygon class="cls-7" points="46.81 86.08 51.24 86.08 51.24 80.07 46.81 86.08"/><polygon class="cls-16" points="51.27 80.03 51.24 80.07 51.24 86.08 55.73 86.08 51.27 80.03"/><polygon class="cls-7" points="127.04 56.5 131.61 56.5 131.61 50.3 127.04 56.5"/><polygon class="cls-16" points="131.64 50.26 131.61 50.3 131.61 56.5 136.24 56.5 131.64 50.26"/><polygon class="cls-16" points="131.64 44.01 131.61 44.06 131.61 50.26 136.24 50.26 131.64 44.01"/><polygon class="cls-7" points="127.04 50.26 131.61 50.26 131.61 44.06 127.04 50.26"/><polygon class="cls-7" points="127.04 44.01 131.61 44.01 131.61 37.81 127.04 44.01"/><polygon class="cls-16" points="131.64 37.77 131.61 37.81 131.61 44.01 136.24 44.01 131.64 37.77"/><polygon class="cls-19" points="125.56 70.24 125.56 56.28 167.45 56.28 181.42 70.24 125.56 70.24"/><polygon class="cls-10" points="111.59 70.24 125.56 56.28 139.52 70.24 111.59 70.24"/><polygon class="cls-10" points="240.82 23.32 246.67 14.57 237.91 20.41 240.82 23.32"/><polygon class="cls-10" points="237.89 20.39 238.59 9.88 233.92 19.32 237.89 20.39"/><polygon class="cls-10" points="233.9 19.31 229.25 9.86 229.92 20.38 233.9 19.31"/><polygon class="cls-10" points="229.9 20.38 221.15 14.52 226.99 23.29 229.9 20.38"/><polygon class="cls-10" points="226.97 23.3 216.46 22.61 225.9 27.28 226.97 23.3"/><polygon class="cls-10" points="225.89 27.3 216.44 31.95 226.96 31.28 225.89 27.3"/><polygon class="cls-10" points="226.96 31.3 221.1 40.05 229.87 34.21 226.96 31.3"/><polygon class="cls-10" points="229.88 34.23 229.19 44.74 233.86 35.3 229.88 34.23"/><polygon class="cls-10" points="233.88 35.3 238.53 44.75 237.86 34.24 233.88 35.3"/><polygon class="cls-10" points="237.88 34.24 246.63 40.09 240.79 31.32 237.88 34.24"/><polygon class="cls-10" points="240.81 31.31 251.32 32.01 241.88 27.34 240.81 31.31"/><polygon class="cls-10" points="241.88 27.32 251.33 22.67 240.82 23.34 241.88 27.32"/><path class="cls-19" d="M240.11,21.09A8.8,8.8,0,0,0,227.72,21l6.22,6.22Z"/><path class="cls-12" d="M227.72,21l-.05.06a8.79,8.79,0,0,0,0,12.44l6.27-6.28Z"/><path class="cls-13" d="M240.11,21.09l-6.17,6.16,6.22,6.23A8.79,8.79,0,0,0,240.11,21.09Z"/><path class="cls-15" d="M233.94,27.25l-6.27,6.28a8.79,8.79,0,0,0,12.44,0l0-.05Z"/></g></g></g></svg>