<svg id="Layer_5" data-name="Layer 5" xmlns="http://www.w3.org/2000/svg" xmlns:xlink="http://www.w3.org/1999/xlink" viewBox="0 0 845.4 534.64"><defs><style>.cls-1{fill:none;}.cls-2{clip-path:url(#clip-path);}.cls-3{fill:#b3f4ff;}.cls-4{fill:#232c33;}.cls-5{fill:#ffcbb0;}.cls-6{fill:#f8a386;}.cls-7{fill:#3d1d14;}.cls-8{fill:#ef9014;}.cls-9{fill:#e07a00;}.cls-10{fill:#fff;}.cls-11{fill:#262525;}.cls-12{fill:#bf1f1f;}.cls-13{fill:#8c0000;}.cls-14{fill:#d22;}.cls-15{fill:#66382d;}.cls-16{fill:#00af85;}.cls-17{fill:#774332;}.cls-18{fill:#00efb0;}.cls-19{fill:#009b72;}.cls-20{fill:#8e2e14;}.cls-21{fill:#77200c;}.cls-22{fill:#681a07;}.cls-23{fill:#d32424;}.cls-24{fill:#ba4125;}.cls-25{fill:#141313;}.cls-26{fill:#c11b1b;}.cls-27{fill:#ed8e74;}.cls-28{fill:#df4040;}.cls-29{fill:#d62e2e;}.cls-30{fill:#ba2424;}.cls-31{fill:#ef2e2e;}.cls-32{fill:#e02424;}.cls-33{fill:#3f3f3f;}.cls-34{fill:#cca500;}.cls-35{fill:#1c1c1c;}.cls-36{fill:#332724;}.cls-37{fill:#2d994f;}.cls-38{fill:#1d853c;}.cls-39{fill:#443632;}.cls-40{fill:#775b55;}.cls-41{fill:#5ac46e;}.cls-42{fill:#d8a460;}.cls-43{fill:#edbf00;}.cls-44{fill:#edc07a;}.cls-45{fill:#ffd9a6;}.cls-46{fill:#4c271b;}.cls-47{fill:#5e3628;}.cls-48{fill:#3f6186;}.cls-49{fill:#37406c;}</style><clipPath id="clip-path" transform="translate(19.57)"><rect class="cls-1" width="810" height="450"/></clipPath></defs><g class="cls-2"><rect class="cls-3" x="19.57" width="810" height="450"/><path class="cls-4" d="M515.33,275s2.15,17.48,12.82,55.1c15.1,53.23,1,155.18,1,155.18l-59-3.6-56.1-132.66,10.53-78.63Z" transform="translate(19.57)"/><path class="cls-5" d="M329.2,77.44a5.68,5.68,0,0,1-.79-3.69c.26-2.16,1.41-5.54,1.09-8.36s1.38-15.45.89-16.24-4,.46-4.87,2.7-1.26,9.08-1.26,9.08-4.44-7.43-6.43-11.56-4.78-12.46-6.57-12.82-2.62-.18-2.83,1.56,4.21,14.14,4.21,14.14-7.33-8.37-8.75-10.59-2.25-5-4.41-5.31a3.06,3.06,0,0,0-3.35,3.48c.23,1.71,10.76,16.27,10.76,16.27s-8.56-7.7-9.53-8.94c-1.14-1.46-2.29-3.5-3.75-2.95a3,3,0,0,0-2.06,3.7c.52,1.75,7.78,9.46,9.28,11s1.89,2,1.89,2-7.66-5.7-9.5-5.63-4,1.27-1.71,3.75,9.32,7.74,11.75,10,7.92,9,11.07,11.4a75.34,75.34,0,0,0,7.11,4.75Z" transform="translate(19.57)"/><path class="cls-6" d="M322.68,63a15.62,15.62,0,0,0-5.93,4.19,27.8,27.8,0,0,0-3.63,6.3s-.38-5.33,2.54-8.2A9.08,9.08,0,0,1,322.68,63Z" transform="translate(19.57)"/><path class="cls-5" d="M625.92,95.24a5.67,5.67,0,0,0,1.66-3.39c.27-2.17,0-5.72,1-8.39s2.38-15.32,3.05-16,3.78,1.42,4.08,3.8-1,9.12-1,9.12,6.1-6.15,9-9.67,7.64-10.94,9.46-10.87,2.58.47,2.37,2.2-7.49,12.72-7.49,12.72,9.13-6.36,11-8.18,3.38-4.28,5.56-4.09a3.07,3.07,0,0,1,2.42,4.18c-.64,1.61-14.37,13.2-14.37,13.2s10.17-5.4,11.41-6.37c1.46-1.15,3.06-2.85,4.34-2a3,3,0,0,1,1.11,4.09c-.92,1.57-9.83,7.3-11.65,8.4s-2.31,1.47-2.31,1.47,8.81-3.68,10.58-3.17,3.54,2.19.75,4S656,91.67,653.13,93.29s-9.84,6.79-13.48,8.39a76.39,76.39,0,0,1-8,2.9Z" transform="translate(19.57)"/><path class="cls-6" d="M635.73,82.81a15.6,15.6,0,0,1,4.75,5.49,28.12,28.12,0,0,1,2,7s1.65-5.08-.49-8.57A9.05,9.05,0,0,0,635.73,82.81Z" transform="translate(19.57)"/><path class="cls-7" d="M505.74,110.67l-7.47,15.5-45.74-23.92a37.22,37.22,0,0,1-9.55-3.9,9.54,9.54,0,0,1-3.73-3.74c-2.33-5,2.92-6,2.92-6s-8-4-7.29-7.48,7.53-2.89,7.53-2.89S438.29,76,440.86,73c2.15-2.56,11.36.06,14.32,1l.9.28c-.11-.08-.85-.6-1.74-1.32v0c-1.7-1.38-4-3.53-3.62-4.89.55-2.13,2.09-4.57,12.36-.39,13.36,5.45,16.89,11.59,17.32,12.44l.06.1a25,25,0,0,1,.55-4.83c.41-1.84,1.12-3.72,2.37-4.64,2.89-2.14,11.2,3.13,16.79,15a64.39,64.39,0,0,1,5.44,21.5A30.61,30.61,0,0,1,505.74,110.67Z" transform="translate(19.57)"/><path class="cls-8" d="M633,107a94.49,94.49,0,0,1-11.69,11.11c-45.58,36.82-96.95,56.08-103.81,74.64-3.19,8.6-4.19,29.72-3.27,45.52.4,7,3.49,41.86,3.49,41.86s-30.51,4.7-56.4,4.13a88.33,88.33,0,0,1-18.91-2.54,77.54,77.54,0,0,1-13.62-4.55c0-.11-17.21-89.46-19.69-94.76-14.38-30.71-55.24-50.86-84.51-87l-.06-.06a58.82,58.82,0,0,1-5.5-7.66,12.58,12.58,0,0,1,1.21-5.8c.17-.36.36-.74.58-1.12a14.51,14.51,0,0,1,2-2.73A12.37,12.37,0,0,1,325,76.2a8.65,8.65,0,0,1,6.65-1.52s7.72,8,36.2,26.88,80.49,52.07,98.19,52.91,51.1-9.58,94.93-28.19S625.57,94,625.57,94a26.2,26.2,0,0,1,5.48,5.5,9.88,9.88,0,0,1,1.49,3.1A12,12,0,0,1,633,107Z" transform="translate(19.57)"/><path class="cls-9" d="M466.16,183.52c11.1,1.41,25.88-3.41,30.7-13.42s2.55-18.31,2.55-18.31l-52.92-3.54S436.34,179.72,466.16,183.52Z" transform="translate(19.57)"/><path class="cls-5" d="M472,89.38c-9-1.09-23.4,4.32-26.14,13.52s-2.43,16.26-3.61,21.1-5.65,14.57-5.9,20.69c-.33,8.1.26,29.05,23.39,32.91s35.3-8.14,37.61-13.87a23.26,23.26,0,0,0,1.94-9.88s2.28,1.75,6.36-5.23,7.65-15.78,4.59-18.35a6.37,6.37,0,0,0-6.3-1.21s-1-14.49-3.07-22.81S490.33,91.63,472,89.38Z" transform="translate(19.57)"/><path class="cls-10" d="M478.66,110.29c5.28-.78,5.52,11,.41,11.46C475.07,122.07,473.54,111.05,478.66,110.29Z" transform="translate(19.57)"/><path class="cls-10" d="M452.6,112c5.21-.77,5.44,10.9.41,11.31C449.05,123.6,447.54,112.72,452.6,112Z" transform="translate(19.57)"/><path class="cls-7" d="M494.16,93.85c-3.77,2.3,6.3,21.59,6.3,21.59s-6.52,22.22-2.8,23,9-9.9,9-9.9,4.66-9.4,3.17-14-4.15-5.64-4.15-5.64S500.18,90.19,494.16,93.85Z" transform="translate(19.57)"/><path class="cls-11" d="M478.94,113.31c3.5.27,2.89,8.13,0,8.17S476,113.07,478.94,113.31Z" transform="translate(19.57)"/><path class="cls-11" d="M453.64,114.46c2.8-.34,2.49,8.42-.32,8.84S450.09,114.9,453.64,114.46Z" transform="translate(19.57)"/><path class="cls-6" d="M466.11,111.09s0,4.84-1.83,5.35-5-1.34-6.37.54-1.25,10.25,4.28,9.32S466.11,111.09,466.11,111.09Z" transform="translate(19.57)"/><path class="cls-11" d="M476.44,103.23c.44,1.59,3.72-1.6,5.45-.22s2.7,4.29,4.09,3.73.14-4.68-2.69-6.78S475.73,100.65,476.44,103.23Z" transform="translate(19.57)"/><path class="cls-11" d="M460.05,100.09c-1,1.46-2.7-1.94-4.86-1s-3.76,4.38-4.94,3.21,1.34-6.15,5.2-6.55S461.31,98.19,460.05,100.09Z" transform="translate(19.57)"/><path class="cls-12" d="M484.16,146a15.64,15.64,0,0,1-3,3,20.72,20.72,0,0,1-6.42,3.22,18.89,18.89,0,0,1-10.09.51c-8.82-2.05-13.57-10.43-12.23-12.19a14.09,14.09,0,0,1,3.78-1.66h0c8.78-3.09,29.69-8.72,30.58-7.31a5.89,5.89,0,0,1,.6,2.17c.05.38.1.8.12,1.26A16.67,16.67,0,0,1,484.16,146Z" transform="translate(19.57)"/><path class="cls-13" d="M484.16,146a15.64,15.64,0,0,1-3,3l-3.25-1.09a10.85,10.85,0,0,1-3.08-3.2,4.68,4.68,0,0,1,.35-5.63c3.21-4.12,9.54-6,12.34-4.09A16.67,16.67,0,0,1,484.16,146Z" transform="translate(19.57)"/><path class="cls-10" d="M487.37,133.68c-5.64,2.13-24.93,9.39-26.92,9.27-1.57-.1-3.31-2.54-4.28-4.12h0c8.78-3.09,29.69-8.72,30.58-7.31A5.89,5.89,0,0,1,487.37,133.68Z" transform="translate(19.57)"/><path class="cls-9" d="M442.4,281.67a77.54,77.54,0,0,1-13.62-4.55c0-.11-17.2-89.45-19.69-94.76-14.09-30.09-46.93-44.68-84.51-87l-.06-.06a58.82,58.82,0,0,1-5.5-7.66,12.58,12.58,0,0,1,1.21-5.8c.17-.36.36-.74.58-1.12C336.42,95,364.45,118,392,139c21.77,16.64,35.06,29.76,42.87,38.66,6.73,13.58,9.38,31.19,9.83,52.69C445.19,253.37,444.1,269.89,442.4,281.67Z" transform="translate(19.57)"/><path class="cls-9" d="M633,107a92.71,92.71,0,0,1-11.69,11.11c-45.62,36.89-96.94,56-103.81,74.64-1.63,4.39-2.66,28.48-2.91,55.27-4.08-17.63-11.74-50.24-9.54-60.29q.66-3,1.44-5.4a40.27,40.27,0,0,1,5-5.75c14.95-14.3,86.62-48.93,100.56-57.48a111.69,111.69,0,0,0,20.53-16.5A12,12,0,0,1,633,107Z" transform="translate(19.57)"/><path class="cls-5" d="M465.7,109.06s1.52,6.13-.37,7.8-4.58.25-5.73,1.87-1.21,5.12,1,6.2a8.63,8.63,0,0,0,5.86.06c.1-.21,3-2.2,3.12-3.36s1.36-5.7,1.11-6.09S465.7,109.06,465.7,109.06Z" transform="translate(19.57)"/><path class="cls-14" d="M484.16,146a15.64,15.64,0,0,1-3,3,20.72,20.72,0,0,1-6.42,3.22,18.89,18.89,0,0,1-10.09.51c.24-2.91,2.32-5.82,8.47-7.61.59-.17,1.16-.3,1.71-.41A13.59,13.59,0,0,1,484.16,146Z" transform="translate(19.57)"/><path class="cls-5" d="M468.62,163.08A20.17,20.17,0,0,0,479,161a17,17,0,0,0,6.7-6.29,10.84,10.84,0,0,1-5.15,8.32C475.55,166,468.62,163.08,468.62,163.08Z" transform="translate(19.57)"/><path class="cls-6" d="M508.88,136.66s.61-2.71-.72-3.89-3.24,1-5,3.78a14.82,14.82,0,0,0-2,5.17s1-1.17,2.09.81-.92,5.25-.92,5.25,3.78-2.42,3.55-6.05c-.17-2.51-1.89-2.4-1.89-2.4s1-3.68,2.57-4.1S508.88,136.66,508.88,136.66Z" transform="translate(19.57)"/><path class="cls-15" d="M445.46,80.21c-.36-.07-5.52-1.11-7.83,1.52s8.05,8.44,8.05,8.44-3.49-.33-5,2.12c-1.2,1.95,1.25,4.92,2.32,6.06a9.54,9.54,0,0,1-3.73-3.74c-2.33-5,2.92-6,2.92-6s-8-4-7.29-7.48,7.53-2.89,7.53-2.89S438.29,76,440.86,73c2.15-2.56,11.36.06,14.32,1a21.15,21.15,0,0,0,3.06,2.63s-12.57-4-15.81-2S445.1,80,445.46,80.21Z" transform="translate(19.57)"/><path class="cls-15" d="M480.39,80.06c.14.56.29,1,.31,1-.58-.43-19.93-14.47-25.32-12.36-2.43,1-2.13,2.62-1.05,4.18-1.7-1.38-4-3.53-3.62-4.89.55-2.13,2.09-4.57,12.36-.39C476.43,73.07,480,79.21,480.39,80.06Z" transform="translate(19.57)"/><path class="cls-15" d="M505.6,107.14c-.38-1.18-1-3.27-2.05-6.92-2.18-7.7-10.8-26.86-18.28-26.6-2.24.08-3.55.77-4.27,1.71.41-1.84,1.12-3.72,2.37-4.64,2.89-2.14,11.2,3.13,16.79,15A64.39,64.39,0,0,1,505.6,107.14Z" transform="translate(19.57)"/><path class="cls-5" d="M792.93,235.5c-1.21,4.36-16.13,22.27-35.18,30.66-12.86,5.66-20.16,8.47-23.55,9.71-1.63.6-2.36.82-2.36.82l-24.11-52.26s2-4.71,13.23-7.8,20-1.75,22.47-2.54a12.93,12.93,0,0,0,4.17-2.3,109.63,109.63,0,0,0-6.75-19.49c-4.52-9.68-14.6-23.06-14.6-23.06a16.45,16.45,0,0,1-5.55,5.18c-3.33,1.67-5.58,1.14-5.58,1.14s-26.37.55-24-4.95,29.08-18.54,35.82-18.93,33.22,17.33,48,41.75C784.78,209.7,790,221,792.08,228.08,793.11,231.6,793.33,234.05,792.93,235.5Z" transform="translate(19.57)"/><path class="cls-4" d="M697,487.38s18.22-30.73,17.64-52.73S699,392.4,699,392.4l-11.58,67.15Z" transform="translate(19.57)"/><path class="cls-4" d="M702.23,388.74l-4.66,145.9-124-15s5.14-111.5,6.78-111.94S702.23,388.74,702.23,388.74Z" transform="translate(19.57)"/><path class="cls-6" d="M718.06,182c2.24-.47,4-1.57,4-4.89s-2.47-5.8-3.08-5.73-5.18.79-6,1.75-.52,3.7,0,4.34S718.06,182,718.06,182Z" transform="translate(19.57)"/><path class="cls-5" d="M597.36,268.92s14.24,12,37.78,11.42,30.06-19.56,30.06-19.56-4.51-1.34-7.1-7.43c-1.17-2.77-2-8.17-2.57-13.24-.67-6.12-1-11.74-1-11.74l-16.5-12.05-22.51-16.43s-.14,2.75-.49,7.13c-.38,4.6-1,11-2,17.9-.65,4.5-1.44,9.21-2.43,13.77A82.17,82.17,0,0,1,597.36,268.92Z" transform="translate(19.57)"/><path class="cls-6" d="M613.08,224.92a29.71,29.71,0,0,0,15.16,14.72,34,34,0,0,0,27.29.47c-.67-6.12-1-11.74-1-11.74l-16.5-12.05c-10.46-5.68-21.31-11.55-21.43-11.86s-.72.94-1.57,2.56C614.69,211.62,614.07,218,613.08,224.92Z" transform="translate(19.57)"/><path class="cls-16" d="M733.13,277.64s-1.73,1.92-4.27,5c-4.8,5.92-13.57,15.77-16.77,25.94A198,198,0,0,0,707,328.38a182,182,0,0,0-3.68,32.47c-.7,31.84,7.59,51.62,7.59,51.62s-34.7,19.92-80.36,21.58l-2.19.07-2.14.05-1.62,0c-40.28.38-46.13-11.5-46.13-11.5l-18-94.7-.44-1.36-11-34.74c5.69-14.18,11.21-18.68,24.66-24.51a125.41,125.41,0,0,1,22.59-7c3.73-.79,6.13-1.15,6.13-1.15s6.91,19,31.12,18.61,31.54-18,31.54-18,0-.28,0-.77c-.06-2,.1-7.55,3.27-12.18a15.21,15.21,0,0,1,5.5-4.87c10-5.23,14.61-4.76,14.61-4.76s6.75-8.26,12.78-11.32l3.18-1.58c3.81-1.84,5.53-2.53,5.53-2.53a171,171,0,0,1,16.54,29.83C734,269.22,733.13,277.64,733.13,277.64Z" transform="translate(19.57)"/><path class="cls-5" d="M634.59,134.24c15.82-.6,28.12,6.82,30.2,20.53s-.26,17.09,3.84,30.81,9.49,41.6-11.51,49.52-35.39-.58-40.76-15.29-5.62-22.9-5.62-22.9-2.83,4.08-7.26-.08-7.76-16.44-3.8-19.65,6.57-.28,6.57-.28-.77-22.58,5.42-31.12C616.36,139.3,624,134.64,634.59,134.24Z" transform="translate(19.57)"/><path class="cls-10" d="M630.51,163.29c-5.94-.12-4.55,13,1.14,12.71C636.12,175.8,636.27,163.41,630.51,163.29Z" transform="translate(19.57)"/><path class="cls-10" d="M654.1,162.2c-5.94-.13-4.56,13,1.14,12.7C659.71,174.7,659.86,162.32,654.1,162.2Z" transform="translate(19.57)"/><path class="cls-11" d="M630,167.3c-3.75.75-2.78,9,.55,8.8S632.61,166.77,630,167.3Z" transform="translate(19.57)"/><path class="cls-11" d="M653.33,165.88c-3.83.78-2.84,9.23.57,9S656,165.35,653.33,165.88Z" transform="translate(19.57)"/><path class="cls-6" d="M644.41,168.3s.59,9.23,3.6,10.12,5.94.43,6.59,2.13c1.28,3.38,1.27,7.31-2.4,8.76-4.29,1.68-6.82.56-8.3-5.79S644.41,168.3,644.41,168.3Z" transform="translate(19.57)"/><path class="cls-6" d="M652.41,197s-3,.87-9.76-1.39a33.86,33.86,0,0,1-10.72-5.77,16.94,16.94,0,0,0,9.39,8.14C648.34,200.57,652.41,197,652.41,197Z" transform="translate(19.57)"/><path class="cls-17" d="M631.42,147.75c.21,1.48,0,1.88-1.06,2.35s-2.56,0-4.2,1.61S624.55,156,623,155.4s-1-3.16,1.38-5.86S631.17,146,631.42,147.75Z" transform="translate(19.57)"/><path class="cls-17" d="M652.77,147.47c-1.26.58-.77,2.74.32,2.94s2.29.12,3.47,1.66,2,3.9,2.74,3.05.18-3.64-1.57-5.68S654.47,146.69,652.77,147.47Z" transform="translate(19.57)"/><path class="cls-5" d="M704.15,185.28a1.09,1.09,0,0,1-.16.35c-.7,1.13-3.41,2.05-5.89,2.17a7.4,7.4,0,0,1-3-.35c-2.86-1.09-6-12.76-5.64-15.06s4.76-3.74,4.76-3.74,6.51,2.5,6.89,2.83S704.56,183.48,704.15,185.28Z" transform="translate(19.57)"/><path class="cls-6" d="M704,185.63c-.7,1.13-3.41,2.05-5.89,2.17a39.13,39.13,0,0,1-1.71-4.11,18.66,18.66,0,0,1-.45-10.91S701.85,182.14,704,185.63Z" transform="translate(19.57)"/><path class="cls-5" d="M714.14,186.78c0,.05-.08.16-.28.33a27.19,27.19,0,0,1-5,2.88c-2,.89-4,1.49-5.19,1-2.75-1.17-7.05-13.33-7.15-16.56s3.89-6,3.89-6,8.84,2.15,9.41,2.58S714,186.47,714.14,186.78Z" transform="translate(19.57)"/><path class="cls-6" d="M713.86,187.11a27.19,27.19,0,0,1-5,2.88c-1.48-3-4.19-12.81-3.85-14.44C705,175.55,711.47,184.63,713.86,187.11Z" transform="translate(19.57)"/><path class="cls-5" d="M705.34,172.24c-.81,1.77,4.48,17.61,8.4,17.85s11.92-5.53,12.25-7.53-2.22-6.68-2.74-8a2.26,2.26,0,0,0-4.25.24c-1,2.67.7,6.7.7,6.7a15.62,15.62,0,0,0-2.86-4.31L715.4,176s1.78-2.72-2.14-4.67S705.34,172.24,705.34,172.24Z" transform="translate(19.57)"/><path class="cls-6" d="M600.57,184.84s1.56-5.6,4.84-3.08,3.61,7.53,3.61,7.53-1.69-4.43-3.11-2.93,2.08,7.33,2.08,7.33-4.33-1.44-4.4-5.67,1.56-4,1.56-4a3,3,0,0,0-2.11-1.58C601.29,181.92,600.57,184.84,600.57,184.84Z" transform="translate(19.57)"/><path class="cls-5" d="M644.38,166.68s-.62,9.32,1,11.73,5.45,1.57,6.77,3.4,1.6,6.05-1.76,7.17-7.07-.15-7.09-.56-4.48-7.07-4.36-8.29-.4-6.32.24-7.37S644.38,166.68,644.38,166.68Z" transform="translate(19.57)"/><path class="cls-6" d="M792.93,235.5c-1.21,4.36-16.13,22.27-35.18,30.66-12.86,5.66-20.16,8.47-23.55,9.71-1.88-6.39-3.46-12.08-3.46-12.08s10,4.23,31.78-8.76C779.39,245,788.74,233,792.08,228.08,793.11,231.6,793.33,234.05,792.93,235.5Z" transform="translate(19.57)"/><path class="cls-6" d="M745.67,226.48a46.81,46.81,0,0,1-7.92,10c-5.57,5.56-16.43,11-16.48,11.3s3.94,8.75,3.94,8.75,11.66-10.3,15.71-17.55C745.2,231.3,745.67,226.48,745.67,226.48Z" transform="translate(19.57)"/><path class="cls-18" d="M637.07,283.71c-28.41,3.26-38.67-17.28-40.79-23.32,3.73-.79,6.13-1.15,6.13-1.15s6.92,19,31.12,18.61,31.54-18,31.54-18,0-.28,0-.77c.1.22.15.35.15.35S670.1,279.93,637.07,283.71Z" transform="translate(19.57)"/><path class="cls-19" d="M710.91,412.47s-34.7,19.92-80.36,21.58l-2.19.07-2.14.05-1.62,0h-2.28c-39.39,0-53.74-10.59-53.74-10.59L560.48,328l-.44-1.36c9,11.1,16.12,19.95,51.5,24.34,48.49,6,81-13.74,95.46-22.59a182,182,0,0,0-3.68,32.47C702.62,392.69,710.91,412.47,710.91,412.47Z" transform="translate(19.57)"/><path class="cls-18" d="M733.13,277.64s-1.73,1.92-4.27,5a126.79,126.79,0,0,0-8-30.58,119.07,119.07,0,0,0-16.46-27.77c3.8-1.85,5.53-2.53,5.53-2.53a170.23,170.23,0,0,1,16.54,29.83C734,269.23,733.13,277.64,733.13,277.64Z" transform="translate(19.57)"/><path class="cls-5" d="M322.24,146.55a9,9,0,0,1-3.24,4.58,4.89,4.89,0,0,1-1.7.78l-2.67-22.56a8.1,8.1,0,0,1,2.17-3.72,3.32,3.32,0,0,1,2.76-.79C323.23,125.4,323.93,141.76,322.24,146.55Z" transform="translate(19.57)"/><path class="cls-5" d="M322.24,146.55a9,9,0,0,1-3.24,4.58l-.14-.13a20.15,20.15,0,0,0,3.15-7.73c.72-4.38-.2-15.17-2.13-16.49s-3.56,1-3.56,1l.48-2.17a3.32,3.32,0,0,1,2.76-.79C323.23,125.4,323.93,141.76,322.24,146.55Z" transform="translate(19.57)"/><path class="cls-6" d="M317,134c.34-1.64.84-3.08,1.54-3.2,1.7-.28,2.47,3.53,2.47,3.53s-.07-5.29-2-5.71c-2.43-.52-3.67,7-3.67,7l1.06,3.31s.09-1.4.32-3a4.75,4.75,0,0,1,1.79,2.4,8.38,8.38,0,0,1,.36,4.8,7.47,7.47,0,0,0,1-5.15A6.19,6.19,0,0,0,317,134Z" transform="translate(19.57)"/><path class="cls-20" d="M279.06,88.93a44.32,44.32,0,0,1-.25,4.75l-21.15,13.39s-10.71,2.68-14.52-6.48c-2.94-7.1-1.41-11.49,2.11-15.19a32.13,32.13,0,0,1,3.53-3.14,30.08,30.08,0,0,0,3.56-3.44c4.34-4.71,8.85-10.4,17.74-8.4,5.87,1.31,8,7.58,8.68,13.27A43.5,43.5,0,0,1,279.06,88.93Z" transform="translate(19.57)"/><path class="cls-21" d="M279.06,88.93a44.32,44.32,0,0,1-.25,4.75l-21.15,13.39s-10.71,2.68-14.52-6.48c-2.94-7.1-1.41-11.49,2.11-15.19-.47,4-.27,10,4.66,11.24,7.61,2,8.18-6.2,18.61-7.33A59.61,59.61,0,0,1,279.06,88.93Z" transform="translate(19.57)"/><path class="cls-5" d="M330.56,214.94s-7.75,19.31-26.65,19.88-29.18-16.22-29.18-16.22A35.21,35.21,0,0,0,286,204.5c1.32-3.11,1.57-7.17,1.34-11.17a70,70,0,0,0-1.78-11.68c-.45-2-.83-3.23-.83-3.23l20.31-.71a25.76,25.76,0,0,0-.1,2.68,42.55,42.55,0,0,0,2.94,15.28c.23.59.5,1.19.77,1.79.19.42.4.84.62,1.26,4.63,9,17.18,14.57,20.48,15.9Z" transform="translate(19.57)"/><path class="cls-6" d="M307.88,195.67a35.42,35.42,0,0,1-6.86,1,26.06,26.06,0,0,1-13.68-3.35,70,70,0,0,0-1.78-11.68c5-.33,14.22-.94,19.38-1.26A42.51,42.51,0,0,0,307.88,195.67Z" transform="translate(19.57)"/><path class="cls-5" d="M309.41,184.92c-3.6,3.13-7.44,5.29-10.71,5.77-9.74,1.4-26.65-6.49-32.3-21.72s-7.46-37.36-7.46-37.36-2.82-16.64,10-24.4,39.34-2.53,39.34-2.53c2.16,2.16,3.7,5.33,4.85,9,2,6.45,2.8,14.54,3.61,21.71,1.27,11.27,3.74,16.24,4.94,25.51C322.71,168.89,316.53,178.76,309.41,184.92Z" transform="translate(19.57)"/><path class="cls-12" d="M257.66,107.07s-3.38-7.36,4.66-13.39S278.92,92,278.92,92Z" transform="translate(19.57)"/><path class="cls-10" d="M282.73,134c4.58-1.08,6.55,10,1.79,11.31S277.33,135.24,282.73,134Z" transform="translate(19.57)"/><path class="cls-10" d="M304.83,131.11c4.58-1.08,6.55,10,1.8,11.32S299.43,132.38,304.83,131.11Z" transform="translate(19.57)"/><path class="cls-20" d="M316,129.35s-5.36-20.59-8-22.7-5.08,1-13.68,3.38-19.59-1.69-25.09,4.66-.29,21.43-.71,27.21-7.56,5.71-11.07,4.65c-2.81-.84-1.16,1.76-4.12-4.86a32.17,32.17,0,0,1-2-8.32c-.85-6.62-.62-15.6,2.88-23.74h0a31,31,0,0,1,11.21-13.68c15.22-10.31,36.57-5,46.34,3.86a16.58,16.58,0,0,1,4.7,6.57,30.66,30.66,0,0,1,1,3.4A34.83,34.83,0,0,1,316,129.35Z" transform="translate(19.57)"/><path class="cls-12" d="M304.48,171.61a11.28,11.28,0,0,1-4.39,1.87c-4.71.93-9.44-2-12.6-5.14a18.34,18.34,0,0,1-3.38-4.32c-.4-.78-.54-1.37-.35-1.63.77-1.08,5.7.31,14.63-.46a52.37,52.37,0,0,0,8.92-1.48c1.92-.47,2.7-.7,2.94-.06C310.62,161.38,309.41,168.1,304.48,171.61Z" transform="translate(19.57)"/><path class="cls-11" d="M283.08,136.44c3-.2,3.81,8.46.56,8.88S278.85,136.72,283.08,136.44Z" transform="translate(19.57)"/><path class="cls-11" d="M304.44,133.48c3.21-.56,4.51,8.6,1.13,9S301.2,134,304.44,133.48Z" transform="translate(19.57)"/><path class="cls-6" d="M296.69,141c.16.41.83,6.3,4.44,7.48s5,.95,5.46,3.6-2.13,6.36-5.48,4.88S296.69,141,296.69,141Z" transform="translate(19.57)"/><path class="cls-5" d="M329.75,214.62l-1.17,2.15s-3.65-.16-11.42-7.29a32.14,32.14,0,0,1-8.51-12c.19.42.4.84.62,1.26C313.9,207.75,326.45,213.29,329.75,214.62Z" transform="translate(19.57)"/><path class="cls-22" d="M283.33,122.58a2,2,0,0,1-1,2.82c-.71.14-3.1-1.69-4.94,0s-1.83,6.07-3.1,5.64-1.69-5.07,1.27-8S282.34,121.17,283.33,122.58Z" transform="translate(19.57)"/><path class="cls-22" d="M298.13,117.23a1.88,1.88,0,0,0,2.26,2.53c1.27-.56,1.12-1.83,3.66-1s2.82,3.8,4.23,2.82-.28-3.95-3.52-5.64S298.84,115.53,298.13,117.23Z" transform="translate(19.57)"/><path class="cls-10" d="M307,163.47c-.62,1.39-2.47,2.62-9.24,2.62A51.26,51.26,0,0,1,284.11,164c-.4-.78-.54-1.37-.35-1.63.77-1.08,5.7.31,14.63-.46a52.37,52.37,0,0,0,8.92-1.48A8,8,0,0,1,307,163.47Z" transform="translate(19.57)"/><path class="cls-14" d="M304.48,171.61a11.28,11.28,0,0,1-4.39,1.87c-4.71.93-9.44-2-12.6-5.14a19.35,19.35,0,0,1,8.74-.86A15.3,15.3,0,0,1,304.48,171.61Z" transform="translate(19.57)"/><path class="cls-23" d="M363.71,261.19c-.2,13.17-1,27.61-1.87,40.59-1.53,22.09-3.42,39.92-3.42,39.92s-117.67-42.45-117.82-43-.52-47.79.57-55.4c1.13-7.9,6.22-15.8,13.82-19.46,8.46-4.09,21.15-6.63,21.15-6.63s11.56,19,29.46,15.23a29.75,29.75,0,0,0,22.28-19.74s17.76-1,30.17,6.06C362.81,221.45,364,239.62,363.71,261.19Z" transform="translate(19.57)"/><path class="cls-5" d="M225.27,265.76s-15.93-2.44-30.44-6c-8.78-2.17-17.05-4.78-21-7.53-8.87-6.26-30.49-47.43-38.55-62l-.22-.38c-1.16-2.08-2-3.57-2.48-4.26l0-.07v0c-3.4-4.88-23-33.08-23.07-34.77s-.65-3.77,1-3.67,11.11,12.05,12.11,11.14-7.22-14.4-7.38-16.93-1.55-4.78.11-5.3a3.55,3.55,0,0,1,3,.45s-1-5.87,1.1-6.42,6.28,9.37,9.74,14,4.87,6.91,4.87,6.91-4-19.89-1.51-21.52,1.86-.75,4.77,8.83,6.44,18.89,6.44,18.89,7.13-11.66,10.36-10.8-2.3,7.56-3.27,12.49,0,7.41-.33,12.1-2.62,9.33-2.09,11.07c0,0,21.87,46.42,43.62,53.31a80.5,80.5,0,0,0,31,3.07Z" transform="translate(19.57)"/><path class="cls-5" d="M309.41,184.92l-.87.56s10.1-11.86,10.83-21.23-2.49-15.38-4-23.14-4.83-29-4.83-29l2.55,1.59c2,6.45,2.8,14.54,3.61,21.71,1.27,11.27,3.74,16.24,4.94,25.51C322.71,168.89,316.53,178.76,309.41,184.92Z" transform="translate(19.57)"/><path class="cls-6" d="M196.13,255.65c-.09.3-.64,2.15-1.3,4.07-8.78-2.17-17.05-4.78-21-7.53-8.87-6.26-30.49-47.43-38.55-62,8,13.68,31.34,52.58,39.15,57.86C184,254.48,196.3,255,196.13,255.65Z" transform="translate(19.57)"/><path class="cls-23" d="M191.7,234.94a107.1,107.1,0,0,1,.75,12.46,42.38,42.38,0,0,1-2.23,12.21l24.95,6.13,8.28-10.25-6.35-17.42Z" transform="translate(19.57)"/><path class="cls-5" d="M296.63,140.42s.32,5.55,2.28,7.82,4.65,1.75,5.81,3.34.22,3.71-1.27,4.54c-2.16,1.22-4.6-.68-4.6-.68l-3.38-5C295.36,150.31,296.63,140.42,296.63,140.42Z" transform="translate(19.57)"/><path class="cls-6" d="M291.43,173.84a13.34,13.34,0,0,0,8.25,1.9,11.81,11.81,0,0,0,6.84-3s-2.61,4.72-6.77,5.07A9.24,9.24,0,0,1,291.43,173.84Z" transform="translate(19.57)"/><path class="cls-21" d="M316,129.35s-5.36-20.59-8-22.7-5.08,1-13.68,3.38-19.59-1.69-25.09,4.66-.29,21.43-.71,27.21-7.56,5.71-11.07,4.65c-2.81-.84-1.16,1.76-4.12-4.86a32.17,32.17,0,0,1-2-8.32c2.27,1.07,6.55,2.52,8.67-.35,3-4,1.27-17.13,8-22s16.18-.52,23.37-2.64,8.88-6.34,15.65-6.14,5.81,5.72,9.41,7.19a6.28,6.28,0,0,0,1,.34A34.83,34.83,0,0,1,316,129.35Z" transform="translate(19.57)"/><path class="cls-5" d="M262,147.4c-1.84-2.68-4.94-8.88-8.6-5.5s-1.56,18.33,4.65,21.85,8.46.85,8.46.85Z" transform="translate(19.57)"/><path class="cls-6" d="M254.63,151.84s-2.18-6.2,1.13-6.56,6,8,6,8a1.63,1.63,0,0,0-2.53.92c-.92,2,1.62,5.71,1.62,5.71s-3.88-3.6-3.67-6.7,2.33-1.83,2.33-1.83-1.13-3.95-3.32-4.23S254.63,151.84,254.63,151.84Z" transform="translate(19.57)"/><path class="cls-24" d="M278.76,83.69c-1.69-3.53-5.35-9.83-10.24-10.74-5.25-1-12.9,3.66-16.18,5.87,4.34-4.72,8.85-10.4,17.74-8.4C276,71.73,278.08,78,278.76,83.69Z" transform="translate(19.57)"/><path class="cls-24" d="M311.76,99.8a42.54,42.54,0,0,0-31.25-6.69c-16.42,2.92-23.83,12.47-26.3,16.51a31,31,0,0,1,11.21-13.68C280.64,85.63,302,91,311.76,99.8Z" transform="translate(19.57)"/><path class="cls-6" d="M133,175.34a21.31,21.31,0,0,1,4.51-9.59,41.64,41.64,0,0,1,5.58-5.85A10.28,10.28,0,0,0,135.3,164C132,168.2,133,175.34,133,175.34Z" transform="translate(19.57)"/><path class="cls-11" d="M286.2,135.87s-1.1-3.84-4.39-3-4.29,7.19-4.29,7.19l2.14.55s-.2-5.6,2.69-6.31A3.67,3.67,0,0,1,286.2,135.87Z" transform="translate(19.57)"/><path class="cls-11" d="M302.07,133.67s.71-3.31,3.18-3.45c3.68-.22,5.93,5.43,5.93,5.43l-1.75,1.26s-1.87-5.32-4-5.43S302.07,133.67,302.07,133.67Z" transform="translate(19.57)"/><path class="cls-25" d="M263.92,357.55l85.95-.55s19.35,17.61,23.4,63.85,1.35,62.75,1.35,62.75l-135-8.26s1.35-36.88,4.5-61.65S263.92,357.55,263.92,357.55Z" transform="translate(19.57)"/><path class="cls-26" d="M363.71,261.19c-.2,13.17-1,27.61-1.87,40.59-9.16-2.5-28.94-7-45.27-4.33-22.05,3.6-48.15,2.7-48.15,1.35s-5.85-30.15-5.85-30.15,32.4-2.7,52.65-.45,27,3.15,36.45-.9C356.49,265.24,360.72,262.82,363.71,261.19Z" transform="translate(19.57)"/><path class="cls-5" d="M587.45,303.11s10.13,7.67,15.61,14.52a34,34,0,0,1,6.71,13.84s-23.56-8.09-23.83-8.5-9.18-10-8.77-10.68S587.45,303.11,587.45,303.11Z" transform="translate(19.57)"/><path class="cls-27" d="M499.37,189.73c-2.27-1.31-6.12,6.38-3.32,7.22S500.69,190.48,499.37,189.73Z" transform="translate(19.57)"/><path class="cls-27" d="M479.53,184.44c-2.59-.39-3.37,8.18-.46,7.93S481,184.67,479.53,184.44Z" transform="translate(19.57)"/><path class="cls-11" d="M503.21,444.59l-4.94,21.26,103.63,1.64s-.18-5.26-4.07-12.63c-4.07-7.7-6.83-10-8.44-11l-.55-.33Z" transform="translate(19.57)"/><path class="cls-25" d="M522.11,179.5s-12.73,3.19-13.6,23.88,5.79,55.71,3.18,71-5.2,21.27-5.2,21.27,23,9.84,23.87,9.55,10.56-11.28,11.72-13,12.73-48.76,12.73-48.76-4.19-53.39-5.35-54.12S522.11,179.5,522.11,179.5Z" transform="translate(19.57)"/><path class="cls-5" d="M599.81,322.32a204.65,204.65,0,0,1-7.81,20c-1.37,3.11-3.43,7.31-5.73,11.88-.73,1.4-1.47,2.86-2.22,4.31-2.14,4.14-4.37,8.37-6.41,12.21-4.23,7.94-7.63,14.15-7.63,14.15l-71.48-59.62s-58.17,9.26-59.62,7.23c-1-1.45-3.43-6.19-3.5-14a46.56,46.56,0,0,1,1.18-10.59c2.79-12.41,24.62-45.19,30-53.2.79-1.14,1.22-1.79,1.22-1.79l18.82-1.74s-18.23,36.85-22.12,49.6c-.74,2.4-1,3.95-.46,4.23s1.54.06,3-.45c1-.34,2.19-.81,3.53-1.41,10.43-4.54,29.77-15.43,35.68-15.21a25.06,25.06,0,0,1,8.32,2.38c6.59,2.83,13.5,6.93,16.29,5.14,1.52-1,2.31-3.7,2.7-6.71a62.58,62.58,0,0,0,.19-10.94l18.34-7.4,10.31-4.17s-2.6,28.36,1.45,33.56c3.64,4.69,29.77,19.21,35,22.08Z" transform="translate(19.57)"/><path class="cls-6" d="M627.3,366.8c-10.18,1.78-24.75,4.3-25.34,4.3s-24.74-2.55-36.45-9.19c-7.73-4.38-4.27-16.54-4.27-16.54s34.54,9.45,42.52-.11c5.83-7,5-15,4.14-19.8.87,1.79,3.55,7.4,7,14.78,1.77,3.76,3.75,8,5.8,12.35s4.16,9,6.21,13.42C627.06,366.27,627.17,366.54,627.3,366.8Z" transform="translate(19.57)"/><path class="cls-6" d="M560,267.55l-5.42,22.14s-4.34,1.19-12.58.43a42.22,42.22,0,0,1-8.34-1.43,63.7,63.7,0,0,0,.19-10.94l18.34-7.4Z" transform="translate(19.57)"/><path class="cls-28" d="M593.16,445s-17.94,11.86-49.49,12.44S502,446.18,502,446.18s2-5.5,2.31-19.39S503.73,412,497.37,397c-2.08-4.91-5.57-10.2-9.26-15.57-6.77-9.83-14-19.9-14.47-28.13-1-16.2,43.41-63.37,43.41-63.37l7.23,3.47s-13.89,21.7,4.93,30.38,39.93-18.23,39.93-18.23l9.84,2.32S559.3,348.36,561.9,363.7c2.55,15,13,11.86,13.45,11.73-.2.47-7.9,18.58-4.77,34.57a36.75,36.75,0,0,0,2.69,8C579.56,431.83,593.16,445,593.16,445Z" transform="translate(19.57)"/><path class="cls-29" d="M593.16,445s-17.94,11.86-49.49,12.44S502,446.18,502,446.18s2-5.5,2.31-19.39S503.73,412,497.37,397c-2.08-4.91-5.57-10.2-9.26-15.57,5.49-2.79,14.69-5,28.65-1.21,25.75,6.94,27.2,22.57,40.8,32.12,7,4.93,12.2,5.77,15.71,5.7C579.56,431.83,593.16,445,593.16,445Z" transform="translate(19.57)"/><path class="cls-30" d="M538.27,441.33a7.29,7.29,0,0,0,3.29.62s-.28,1.16,2.53.95,5.82-2.6,9.11-3,4.59.27,5.14-.34,3.9-3.63,3.83-3.91-3-3.21-4.24-3.21-7.61,1.37-8.7,1.64S538.27,441.33,538.27,441.33Z" transform="translate(19.57)"/><path class="cls-30" d="M538.8,432.07c1.23,1.51,5.72-2.32,9.05-2.24s6.43.21,6.87-.15,4.12-3.54,3.76-4.12-6.51-2.68-6.51-2.68-4.92,1.74-5.79,2.1S537.86,430.91,538.8,432.07Z" transform="translate(19.57)"/><path class="cls-30" d="M583.82,439.55s-2.13,4.18-5.55,5.48-14.39-1.92-18.84,0-7.46,3.77-7.67,2.74,2.4-6.37,6.92-8.91S583.82,439.55,583.82,439.55Z" transform="translate(19.57)"/><path class="cls-5" d="M493.18,213.79c-1.74,11.58.43,25-1.74,30s-6.95,10.13-6.95,10.13l-18.37,1.45s2.1-5.46,1.33-8.67l0-.16c-.84-3.05-4.05-6.37-4.58-10.7,0-.2,0-.39,0-.59-.3-4.63.57-7.38,3.91-11a18,18,0,0,1,7.95-4.77s-1.59-14.33-.87-21.41,1.74-11.72,3.91-11.87c4.84-.32,2.6,11.57,3.33,19.68s2.17,11,2.17,11,3.33-12.44,7.38-18.8,6.95-7.38,8.1-6.66S494.91,202.22,493.18,213.79Z" transform="translate(19.57)"/><path class="cls-5" d="M628.48,416.59c-3.37,2.93-11.92,7.84-20.23,12.37-9.44,5.14-18.57,9.82-19.5,10.63-1.73,1.52-3.69,4.55-8.47,5.86s-13.67-5.44-18.88-4.13-6.29,6.95-8.24,7.16-.43-2.81.86-6.07,7-6.3,7-6.3a14.34,14.34,0,0,0-7,1.09c-3,1.52-6.51,5.64-8.9,5.64s-1.3-1.73-1.3-1.73-3.69,2.38-5,.65,2.82-5.21,5.63-8.25S556,426.13,556,426.13a20,20,0,0,0-9.34,2.39c-5,2.6-6.94,5.21-8.24,4.77s1.3-3.47,4.34-7.81,9.76-6.3,13.24-5.86,15.66,4.85,16,5a24.56,24.56,0,0,1-2.38-7.38c-.43-3.69.65-4.13,2.39-4.34s1.3,1.95,2.17,5.42,5.65,8.69,7.16,10,30.61-23,30.17-29.3a3.18,3.18,0,0,0-.12-.67c-1.57-6-17.62-27.23-27.14-39.06l-2.12-2.62c-1-1.16-1.8-2.18-2.52-3s-1.13-1.32-1.53-1.75a19.29,19.29,0,0,1-.56-3A26.42,26.42,0,0,1,584,328a16.2,16.2,0,0,1,15.17-5.41,25.11,25.11,0,0,1,8.71,3l.28.58v0c.86,1.8,3.55,7.41,7,14.79l5.8,12.35c2,4.38,4.15,8.95,6.21,13.42l.36.79c6.86,14.93,12.92,28.61,13.11,30.75C641.06,403.34,635.63,410.29,628.48,416.59Z" transform="translate(19.57)"/><path class="cls-5" d="M561.18,267.77c-4,6.45-17.63,12.05-28.65,12.42a29.09,29.09,0,0,1-5.2-.27,25.67,25.67,0,0,1-3.74-.82,19.17,19.17,0,0,1-10.73-7.34c-2.39-3.29-4-7.57-4.92-12.82-2.76-15.2,0-20.69,3.9-33.86s2.31-15.48,6.08-29.08a27.15,27.15,0,0,1,1.32-3.77c4.39-10,12.93-10.88,20.23-11.13,12.6-.44,36.62,13.59,38.21,32S565.81,260.24,561.18,267.77Z" transform="translate(19.57)"/><path class="cls-6" d="M521.79,187.46s17.47-5.86,27.45,4.88,11,18.24,10.2,25-1.3,13.68-1.41,17-3.9,30.82-3.9,30.82,16.27-39.39,16.17-40.58-.87-21.82-1.31-22.69-5.31-13.78-6.07-14.32-12.27-8.79-13.35-9.33-18.88-1.41-19.43-1.2-4.23,3.37-4.56,3.37S521.79,187.46,521.79,187.46Z" transform="translate(19.57)"/><path class="cls-11" d="M541.65,227.69s3.61-1.59,6.51-.29a8.8,8.8,0,0,1,4.77,4.77l5.07-1.44a11.76,11.76,0,0,0-7.09-5.79C545.7,223.35,541.65,227.69,541.65,227.69Z" transform="translate(19.57)"/><path class="cls-11" d="M548.59,209c-.3,1.91,1.3,2.75,2.46,3s5.5-1.3,9.55,1.3a25.21,25.21,0,0,1,6.66,6.66s0-4.49-4.92-8.83S549,206.27,548.59,209Z" transform="translate(19.57)"/><path class="cls-6" d="M535.13,218.72s-2.31,9.11-6.36,12.44-7.67,3.76-8.25,7.23,6.51,5.94,6.51,5.94-5.35-3.48-4-6.08,6.41-3.16,8.39-6.95A39.88,39.88,0,0,0,535.13,218.72Z" transform="translate(19.57)"/><path class="cls-12" d="M546.42,254.74a3.8,3.8,0,0,1-.92,2c-2.46,3.56-9.55,9.9-17.46,8.53-10-1.74-12-16-10.7-17.08.79-.69,1.57-.23,4.5.83a86.45,86.45,0,0,0,9.1,2.65C540.61,254,546.13,253,546.42,254.74Z" transform="translate(19.57)"/><path class="cls-31" d="M537.66,263.45s-2.33,2.1-4.88,7.54-4.55,8-8.43,7.32a6.52,6.52,0,0,1-4.83-4.17A12.34,12.34,0,0,1,519,267c1.22-6.1,5.88-7.65,8.1-7.43a9.43,9.43,0,0,1,4.33,2s.55-.55,3.1.12c2.39.62,3,1.63,3.1,1.75Z" transform="translate(19.57)"/><path class="cls-10" d="M546.42,254.74a3.8,3.8,0,0,1-.92,2,37.08,37.08,0,0,1-12.54.86c-7.66-.87-9-3-10.13-4.63a8.58,8.58,0,0,1-1-3.95,86.45,86.45,0,0,0,9.1,2.65C540.61,254,546.13,253,546.42,254.74Z" transform="translate(19.57)"/><path class="cls-11" d="M600.86,315.29c-.21-.35-3.91-6.14-13.6-5.55a28.16,28.16,0,0,0-6.73,1.25,55.7,55.7,0,0,0-19.79,10.77c-5.69,4.79-8.49,9-8.57,8.75-.29-.87-7.34-33.95.18-61.44s15.41-54.28,5.79-71.76c-12.73-23.16-37.62-9-37.62-9a19.56,19.56,0,0,1-1.4-6.67c-.18-5.22,1.84-12.22,12.4-15.9,18.23-6.37,28.07,1.73,28.07,1.73s23.73-2.31,33,22.87c7.72,21-2.25,50.8-3.45,71.55a44.64,44.64,0,0,0,.55,11.21C593.67,292.5,600.65,314.6,600.86,315.29Z" transform="translate(19.57)"/><path class="cls-6" d="M487.92,238s-2.05,1-6.07,3.15-2.82,4.34-2.82,4.34-1.73-1.3-6.3-1a9.19,9.19,0,0,0-5.28,2.12l0-.16c-.84-3.05-4.05-6.37-4.58-10.7a11.8,11.8,0,0,1,.77-2.43c.33-.23,6.85-8.58,7.71-8.91s4.13,1.53,6.3,1.2a7.69,7.69,0,0,0,3.91-2.27,12.22,12.22,0,0,0,2.71,4.22,12.78,12.78,0,0,0,3.25,2.72Z" transform="translate(19.57)"/><path class="cls-5" d="M474,239.24a5.32,5.32,0,0,1-1.92,3.35c-1.59,1.59-6.8,1.74-9.7-1.3a12.33,12.33,0,0,1-1.14-1.43c-2.33-3.41-4-8.92-2.47-11.31a6.61,6.61,0,0,1,4.91-2.89l.31,0c2.54.4,5.86,4.31,7.9,7.58a16.5,16.5,0,0,1,1.78,3.54A6.69,6.69,0,0,1,474,239.24Z" transform="translate(19.57)"/><path class="cls-5" d="M478.13,239.26a8.06,8.06,0,0,1-4.16,0,11.23,11.23,0,0,1-6-3.89A15.85,15.85,0,0,1,466.4,233a17.71,17.71,0,0,1-2.44-7.35c-.27-3.28.69-5.84,2.16-7,1.88-1.45,7.08-.73,8.53.72s2.6,7.09,1.88,7.95-1.88-.72-2.31.3c-.19.44.21,1.49.73,2.55.69,1.4,1.58,2.8,1.58,2.8a2.74,2.74,0,0,1,2.24-.85,3.82,3.82,0,0,1,1.67.56C482.9,234.2,480.59,238.53,478.13,239.26Z" transform="translate(19.57)"/><path class="cls-25" d="M587.26,309.74a28.16,28.16,0,0,0-6.73,1.25,55.7,55.7,0,0,0-19.79,10.77,128.21,128.21,0,0,1-1.08-35.32c2-16.5,8.25-29.09,12.16-54.48,3.78-24.67-1.22-37.46-1.51-38.17a66.53,66.53,0,0,1,5.63,36.43c-2.19,17.74-5.72,29.52-6.08,46.44C569.43,297,583.29,305.78,587.26,309.74Z" transform="translate(19.57)"/><path class="cls-25" d="M568.56,175.74c.43.65,11.07,13.46,13.24,36.46s-3.69,50.36-3.69,50.36,9.33-26.26,7.81-51.22S568.56,175.74,568.56,175.74Z" transform="translate(19.57)"/><path class="cls-6" d="M467.12,304.5l-.14.16c-2.6,3.19-3.76,8.69-3.76,8.69s-.29-7.82,1.16-12.59l.17,0c-.73,2.41-1,3.95-.46,4.23S465.62,305,467.12,304.5Z" transform="translate(19.57)"/><path class="cls-32" d="M537.66,263.45s-2.33,2.1-4.88,7.54-4.55,8-8.43,7.32a6.52,6.52,0,0,1-4.83-4.17,5.23,5.23,0,0,0,5.11,1.68c3.88-.95,7.2-9.55,9.25-11a8.43,8.43,0,0,1,3.77-1.41Z" transform="translate(19.57)"/><path class="cls-32" d="M530.45,262.06a12.91,12.91,0,0,0-4.77,4.16,18,18,0,0,0-1.94,5.82,13.11,13.11,0,0,1,.72-6.43C525.73,262.73,530.45,262.06,530.45,262.06Z" transform="translate(19.57)"/><path class="cls-6" d="M479.37,236.39a20.49,20.49,0,0,1-1.24,2.87,8.06,8.06,0,0,1-4.16,0,5.32,5.32,0,0,1-1.92,3.35c-1.59,1.59-6.8,1.74-9.7-1.3a12.33,12.33,0,0,1-1.14-1.43,6.77,6.77,0,0,0,4.8-1,4.42,4.42,0,0,0,1.85-4.86s1.44.72,4-.73a.91.91,0,0,0,.17-.09,7.93,7.93,0,0,0,2.92-2.94,5.49,5.49,0,0,0,.44-1s3.29,2.18,3.36,2.73a.82.82,0,0,1,0,.18C478.93,233,479.56,235.64,479.37,236.39Z" transform="translate(19.57)"/><path class="cls-5" d="M490.42,234.49c0-2.66-1.44-6.8-5.35-6.37s-8.54,4.63-12,5.21-6.22.29-5.64,2.89,6.65,6.52,11.86,4.49,4.92.58,8-.15S490.42,236.8,490.42,234.49Z" transform="translate(19.57)"/><path class="cls-27" d="M466.56,235.1c-.24,2.59,8.35,2.87,7.94,0S466.69,233.59,466.56,235.1Z" transform="translate(19.57)"/><path class="cls-33" d="M589.13,261.91a112.2,112.2,0,0,1-.18-21.47c1.65-20.75,5.35-36.58-4.11-54s-21.57-15.82-21.57-15.82l1.85,2a53.58,53.58,0,0,1,3.89,5.13c-.44-.33-15.22-11.28-30.4-10.27-11.54.78-17.32,9.72-19.49,14.17-.18-5.22,1.84-12.22,12.4-15.9,18.23-6.37,28.07,1.73,28.07,1.73s23.73-2.31,33,22.87C600.3,211.34,590.33,241.16,589.13,261.91Z" transform="translate(19.57)"/><path class="cls-5" d="M512.24,234.34c-2.19,8.77-4,15.07-2.6,24.66a56.69,56.69,0,0,0,3.22,12.76c-2.39-3.29-4-7.57-4.92-12.82-2.76-15.2,0-20.69,3.9-33.86s2.31-15.48,6.08-29.08a27.15,27.15,0,0,1,1.32-3.77c-.87,5.35-2.14,14.85-2.62,19.51A161,161,0,0,1,512.24,234.34Z" transform="translate(19.57)"/><path class="cls-11" d="M515.61,210.34a14.16,14.16,0,0,1,8.69-4.26c5.43-.5,5.9.71,6.93.52s3.14-2.47,2.35-3.27-5-2.65-10.7-.58A12.26,12.26,0,0,0,515.61,210.34Z" transform="translate(19.57)"/><path class="cls-11" d="M515,220.19l2.45,2.63s.77-1.92,4.55-1.67a8.93,8.93,0,0,1,5.94,2.89,8.17,8.17,0,0,0-4-5.74C518.82,215.8,515,220.19,515,220.19Z" transform="translate(19.57)"/><path class="cls-6" d="M541.49,228.42a4.57,4.57,0,0,1,3.08,1.44,3.69,3.69,0,0,1,1.23,2.56Z" transform="translate(19.57)"/><path class="cls-6" d="M527,224.62a5.27,5.27,0,0,0-3-.72,3.55,3.55,0,0,0-2.26,1.85Z" transform="translate(19.57)"/><path class="cls-27" d="M553.68,444.82c1.42.54-.82,3.36-1.65,3.15S552.58,444.41,553.68,444.82Z" transform="translate(19.57)"/><path class="cls-27" d="M546.21,439.21c1.23,1.16-2.87,3.56-3.42,3S544.77,437.84,546.21,439.21Z" transform="translate(19.57)"/><path class="cls-27" d="M541.69,437.49c2.32,1.26-2.12,5.14-3.42,3.77S540.05,436.6,541.69,437.49Z" transform="translate(19.57)"/><path class="cls-27" d="M540.12,429.07c1.54,1.73-1.72,4.31-2.88,3.42S539,427.77,540.12,429.07Z" transform="translate(19.57)"/><path class="cls-27" d="M571.38,410.2c-1.1-.17.21,5.41,1.65,5.68S572.69,410.4,571.38,410.2Z" transform="translate(19.57)"/><path class="cls-5" d="M514.65,290.26a26.62,26.62,0,0,0-6.93,0c-5.34.69-7.53,2.88-20.13,7.81a103.48,103.48,0,0,1-16.94,5c10.43-4.54,29.77-15.43,35.68-15.21A25.06,25.06,0,0,1,514.65,290.26Z" transform="translate(19.57)"/><path class="cls-5" d="M466.63,254.65a38.34,38.34,0,0,1-3.43,9C458.82,272,448,288.59,441,302.84a61.93,61.93,0,0,0-5.6,15.6,46.56,46.56,0,0,1,1.18-10.59C439.38,295.44,461.21,262.66,466.63,254.65Z" transform="translate(19.57)"/><path class="cls-6" d="M627.3,366.8c-10.18,1.78-24.75,4.3-25.34,4.3a154.72,154.72,0,0,1-26.89-5.25l-.2-17.6c10.59,1.71,24.24,2.58,28.89-3,5.83-7,5-15,4.14-19.8.87,1.79,3.55,7.4,7,14.78,1.77,3.76,3.75,8,5.8,12.35s4.16,9,6.21,13.42C627.06,366.27,627.17,366.54,627.3,366.8Z" transform="translate(19.57)"/><path class="cls-34" d="M125.92,278.32l10.24,18.52,18.53,19.31,39-16.15-.79-35.08-25.22,7.89S137.35,276.35,125.92,278.32Z" transform="translate(19.57)"/><path class="cls-5" d="M193.48,212.29c.08.34-5.18,7.12-13,4.46-3.77-1.29-7.42-5.92-9.68-10.87-2.43-5.32-3.25-11-.88-13.28a6.26,6.26,0,0,1,8.8-.48l.28.13,3.68,1.82S193.41,211.94,193.48,212.29Z" transform="translate(19.57)"/><path class="cls-5" d="M179.76,194.6a7.31,7.31,0,0,0-7.6.53c-2.69,1.82-2.06,7.35-1.36,10.75-2.43-5.32-3.25-11-.88-13.28a6.26,6.26,0,0,1,8.8-.48l.28.13C179.43,193.53,179.76,194.6,179.76,194.6Z" transform="translate(19.57)"/><path class="cls-11" d="M201,427.38s.22,11.48-1.89,16.16S191,454,191,454l121.1,3.28-4.83-39.69Z" transform="translate(19.57)"/><path class="cls-35" d="M200.94,428.86,198.85,442s8.72,8.47,30.93,10.45c48,4.28,74.35-7.62,74.35-7.62l-2.72-15.72s-56.23,16.26-77.14,11.08A66.87,66.87,0,0,1,200.94,428.86Z" transform="translate(19.57)"/><polygon class="cls-11" points="243.13 437.19 240.53 457.95 246.94 459.26 249.46 439.27 243.13 437.19"/><path class="cls-6" d="M188.21,208.16l-1-3.78s-8.28-8.32-11.81-6.64-.84,7.43-.84,7.43.22-4.58,2.08-5.18c.69-.23,2.53,1,4.56,2.64-1.47.68-3.52,2.36-1.15,6.11,3.41,5.38,9.44,1,9.44,1Z" transform="translate(19.57)"/><path class="cls-36" d="M238,142.32s6.55,8.83,7.71,16.57a42.55,42.55,0,0,1-1.07,15.61L233,144.76Z" transform="translate(19.57)"/><path class="cls-5" d="M253,187.24s-20.53,17.31-36.71,20.53-32.95-8.89-33.51-9.25-11.69-26.12-7.09-37.94c1.13-2.9,4.15-6.11,8.3-9.16,12.74-9.41,36.11-17.46,47.68-11.14,2.23,1.22,3.77,5,5.69,10.57,1.54,4.46,3.33,10.07,5.91,16.44C249,181.62,253,187.24,253,187.24Z" transform="translate(19.57)"/><path class="cls-11" d="M191.88,176.82c1.27,1.54,2.22,1.71,3.21.76s-.08-5.24,1.79-7.61,2.74-2,3.31-3.27-1.38-4.32-3.18-4.2-3.89,3.07-4.89,7.16S191.07,175.84,191.88,176.82Z" transform="translate(19.57)"/><path class="cls-11" d="M215.61,183.61s-3.75-4.55-8.81-1.75c-4.23,2.34-2.53,7.54-2.53,7.54a8.87,8.87,0,0,1,11.34-5.79Z" transform="translate(19.57)"/><path class="cls-11" d="M229.6,177.7s.36-5.16,4.64-6.44a4.61,4.61,0,0,1,5.78,2.83,7.53,7.53,0,0,0-5.38-.09A15.27,15.27,0,0,0,229.6,177.7Z" transform="translate(19.57)"/><path class="cls-37" d="M312.52,430.87a8.19,8.19,0,0,1-3.48,4.29,27.59,27.59,0,0,1-5.92,3c-6.36,2.44-15.38,4.23-25.34,5.36l-1.74.18c-1.28.13-2.56.23-3.84.33l-1.76.15h0l-2.79.19h-.13l-.33,0c-9.91.58-19.12.5-24.7-.18-.26,0-.5-.06-.69-.09l-.37-.05c-1.34-.2-2.73-.47-4.16-.79-1.88-.44-3.84-1-5.8-1.57a167.81,167.81,0,0,1-20.27-7.89c-3.94-1.81-6.58-3.19-6.88-3.4a17.05,17.05,0,0,1-1.49-1.17,25,25,0,0,1-2.75-2.79,32.83,32.83,0,0,1-5.32-9,41.4,41.4,0,0,1-2.59-9.49c-.2-.67-.39-1.35-.55-2.06-2.83-11.47-1.91-25.64-3.34-40.05-.16-1.58-.34-3.16-.57-4.75q-.41-3-1-6c-.15-.71-.3-1.4-.46-2.1-.06-.29-.14-.58-.22-.87-3-11.71-10.64-24.21-18.62-34.83-1.25-1.66-2.51-3.28-3.75-4.84-3.25-4.07-6.44-7.76-9.26-10.87l-.18-.21c-5.55-6.13-9.65-10.06-10-10.36h0a45.79,45.79,0,0,1,12.22-16.84c6.21-5.2,13.5-8,21.56-9.73l1.25-.27,2.17-.45.45-.09q1.58-.33,3-.6l.41-.08,1.76-.32c1.62-.3,3.13-.56,4.52-.77l.51-.09,2.49-.38c4.65-.68,7.36-.91,7.36-.91l1.15-.25,4.51-1,34.81-7.62.22,0,2-.44s1.56-.38,4.12-.9l.71-.14,1.21-.23c8.11-1.49,22.62-3.38,32.61-.17.63.19,1.24.42,1.84.66a4.48,4.48,0,0,1,.58.29c.18.1.35.21.53.33,1.86,1.28,3.49,3.78,4.93,7.11a48.71,48.71,0,0,1,1.89,5.17c5.59,17.76,7.62,48.5,8.26,61.34.19,3.7.25,5.92.25,5.92s1.88,7.65,4.19,18.89c3.39,16.45,7.7,40.61,8.41,59.86C314.42,417.81,314,425.38,312.52,430.87Z" transform="translate(19.57)"/><path class="cls-38" d="M290,379.19S262.19,400,244.39,411c-3.89,2.41-29.31,11.44-44.33,15.43a32.83,32.83,0,0,1-5.32-9c3.32-3.11,6.41-5.91,6.14-6.81l13.25-13.08,32-31.52,5.79,1.75Z" transform="translate(19.57)"/><path class="cls-38" d="M231.64,369.82c-1.57.74-26.8,20.14-35.28,8.84s-1.73-53.37-1.2-55.71c.23-1,8.46,19.2,29,19.81,25.54.76,60.16-3.11,59.9-2.13C283.54,342.38,231.64,369.82,231.64,369.82Z" transform="translate(19.57)"/><path class="cls-5" d="M241.84,289.41c-17.92,5.74-38.78-29.06-38.78-29.06a136.93,136.93,0,0,0,.25-16.43c0-.64-.05-1.28-.11-1.91a74.17,74.17,0,0,0-4.13-18.23c-.12-.32-.19-.49-.19-.49l6.44,1.91h0l34.12,10.11a79.76,79.76,0,0,0,2.59,14.53c.13.4.25.79.37,1.17C244.75,258,259.76,283.66,241.84,289.41Z" transform="translate(19.57)"/><path class="cls-6" d="M242.05,249.84A82.34,82.34,0,0,1,226.22,253c-13,1.51-19.76-5.46-23-11a74.17,74.17,0,0,0-4.13-18.23l6.25,1.42h0l34.12,10.11A79.76,79.76,0,0,0,242.05,249.84Z" transform="translate(19.57)"/><path class="cls-37" d="M348.74,328.05c-.42.35-20.82,20.48-25.76,22s-31.25-2.39-32.21-2.82c-.53-.25-1.6-10.91-2.45-20.46-.7-7.82-1.26-14.89-1.26-14.89l-2.71-57.29-.21-4.4a13.32,13.32,0,0,1,2.45,1c8.77,4.74,14.43,20.13,21.86,34.3a97.59,97.59,0,0,0,7.71,12.64C328.86,315.32,349.15,327.7,348.74,328.05Z" transform="translate(19.57)"/><path class="cls-39" d="M253.89,236.22c-18.89,9.62-37.66,6.45-49.56-3.92s-21.76-34.76-21.76-34.76l3-4a10.39,10.39,0,0,0,3.19,3.37c2.6,2,7.16,4.3,14.9,5.68,15.11,2.7,26.24-2.16,31.3-5.82s9.16-7.53,10.9-10.5a30.61,30.61,0,0,0,2.74-7.36s8.14,10.88,12.37,14.77,9.86,7,10.38,9.88c0,.26.09.65.13,1.15C271.83,209.94,271.1,227.48,253.89,236.22Z" transform="translate(19.57)"/><path class="cls-12" d="M240.56,215.44a10.83,10.83,0,0,1-5,2.95c-6.05,1.72-11.64-.6-15.33-3.43A19.59,19.59,0,0,1,218,213c-1.72-1.79-2.57-3.47-2.19-4.17.54-1,16.37-7.2,23.59-9.15,1.95-.53,3.28-.74,3.49-.46C243.69,200.31,245.69,210.05,240.56,215.44Z" transform="translate(19.57)"/><path class="cls-10" d="M239.51,205.09c-.81,1.61-16.37,6.39-21.51,7.93-1.72-1.79-2.57-3.47-2.19-4.17.54-1,16.37-7.2,23.59-9.15C239.72,201,240.25,203.65,239.51,205.09Z" transform="translate(19.57)"/><path class="cls-5" d="M224.93,182s3.06,5.46,5.89,6.3,4.54-.46,7.18,1.26,1.13,7.71-2.43,8.85c-4.06,1.29-5.61.26-7.41-1.17C224.31,194.18,224.93,182,224.93,182Z" transform="translate(19.57)"/><path class="cls-14" d="M240.56,215.44a10.83,10.83,0,0,1-5,2.95c-6.05,1.72-11.64-.6-15.33-3.43a21.9,21.9,0,0,1,11.38-3.24C236.48,211.77,239.23,213.92,240.56,215.44Z" transform="translate(19.57)"/><path class="cls-36" d="M253.89,236.22c-18.89,9.62-37.66,6.45-49.56-3.92s-21.76-34.76-21.76-34.76l3-4a10.39,10.39,0,0,0,3.19,3.37c2.53,7.49,15.9,40.89,51.43,32.76,22.47-5.15,29.46-16.24,31.29-25C271.83,209.94,271.1,227.48,253.89,236.22Z" transform="translate(19.57)"/><path class="cls-6" d="M237.32,150.85A42.53,42.53,0,0,1,226,153.79c-11.22,1.61-16.79-2.67-28.53-2s-14.38,18.65-14.38,18.65a29.41,29.41,0,0,1,2.84,7.75,29.82,29.82,0,0,1,0,8.84s-8.37-9.34-8.88-10.29-2-10.51-1.88-11.4,6-10.65,6.81-11.62c.23-.26,1-1.13,1.95-2.29,12.74-9.41,36.11-17.46,47.68-11.14C233.86,141.5,235.4,145.27,237.32,150.85Z" transform="translate(19.57)"/><path class="cls-39" d="M244.93,137.38c-3.18,6.58-8.71,6.49-8.71,6.49s-2.27,3.37-12,4.52-20.88-5.32-30.5,1.37S179.68,170,179.68,170a42.79,42.79,0,0,1,6.41,12.6c2,6.92,1,13.86-1.65,15.39a1.83,1.83,0,0,1-1,.24c-1.47,0-3.41-1.53-5.51-4.37a53.42,53.42,0,0,1-6.14-11.62c-4.71-11.67-2.11-15.31-2.11-15.31s-6.32-16.62,8.17-34.82,29.6-10.59,40-13.17,14.64-9,16.88-10.48c1.38-.88,2.83-.84,4.43.53a8.76,8.76,0,0,1,1.18,1.23,20,20,0,0,1,2,3c2.95,5.22,1.88,13,1.88,13a2.21,2.21,0,0,1,2.86-.17C248.46,127.25,248.12,130.81,244.93,137.38Z" transform="translate(19.57)"/><path class="cls-36" d="M244.93,137.38c-3.18,6.58-8.71,6.49-8.71,6.49s-2.27,3.37-12,4.52-20.87-5.32-30.5,1.37S179.68,170,179.68,170a43,43,0,0,1,6.41,12.6c2,6.93,1,13.86-1.65,15.39a1.81,1.81,0,0,1-1,.24,29.15,29.15,0,0,0-.08-10.37c-1.43-8.37-7-17.43-7-17.43A39.45,39.45,0,0,1,191,144c14-11.36,17.4-.55,36.34-6.05,15.39-4.46,14-21.52,13-27.75a20.49,20.49,0,0,1,2,3c2.94,5.22,1.88,13,1.88,13a2.21,2.21,0,0,1,2.86-.17C248.47,127.25,248.12,130.81,244.93,137.38Z" transform="translate(19.57)"/><path class="cls-11" d="M223.62,154.65c-.93,1.29-1.08,3-.11,3.47s3.41-.45,6.41,1,3.28,2.11,4.43,1.78,1.69-1.19.94-2.72-4.1-4-6.17-4.64S224.53,153.39,223.62,154.65Z" transform="translate(19.57)"/><path class="cls-37" d="M214.88,275.86c4.8-3.27,6.31-3.42,10.07-2s17.92,14.16,19.79,13.44,4.32-21.42,4.32-21.42,4.75,2,5.23,4.7,4,20.88,1,23.44-17.18,8.95-19.05,8.17S222.57,293.67,222,292,214.88,275.86,214.88,275.86Z" transform="translate(19.57)"/><path class="cls-37" d="M263.28,357.51c-.06.61-43.79,39.31-58.42,45.35-1,.43-2,.8-3,1.14-12.7,4.36-19.57.57-26.45-5.95-3.13-3-5.74-10.45-8-19.16-3.14-11.88-5.69-26-8.2-34-4.33-13.9-19.95-46.1-14.79-54.11.65-1,3.74.08,8.12,2.36,3.54,1.84,7.94,4.46,12.55,7.37,14.28,9,30.68,20.84,30.68,20.84s5.72,30.48,8.4,30.6,70.87-7.43,71.32-7.39S263.17,357.05,263.28,357.51Z" transform="translate(19.57)"/><path class="cls-38" d="M185.31,370a100.25,100.25,0,0,1,8.21-10.65c5-5.13,9.17-6.52,9.17-6.52a11.6,11.6,0,0,0-9.85,2C185.59,360.14,185.31,370,185.31,370Z" transform="translate(19.57)"/><path class="cls-38" d="M181.26,360.84a18.94,18.94,0,0,1,8.11-7.29,29.2,29.2,0,0,1,9.87-2.18s-3.79-3.26-10.72-.6S181.26,360.84,181.26,360.84Z" transform="translate(19.57)"/><path class="cls-38" d="M192,263.76s-.43,6.69,5.92,17.64a31.59,31.59,0,0,0,16.82,14s.69-9.36,9-11.47,13.67.21,13.67.21-9.61-9.69-10.21-10.42-6.34-1.74-7.67-1.87-7,.22-8.47-.6S192,263.76,192,263.76Z" transform="translate(19.57)"/><path class="cls-38" d="M247.36,282.61s1-7.76,6.83-7.86,9.29,1.35,8.67.84-4.07-6.68-4.67-7.41-9.43-11.47-9.43-11.47Z" transform="translate(19.57)"/><path class="cls-38" d="M281,340.76s4.86-1.25,6.81-21.31c1.27-13.12-.18-47.49-.18-47.49s2.83,14.31,4.79,24.42,1.77,12.37,1.77,12.37,1.23-2.67,1.34-14.26c0-4.61-.06-10.25-.06-10.25a185.43,185.43,0,0,1,4,26.28c1.14,14.52,1.53,26,1.53,26Z" transform="translate(19.57)"/><path class="cls-6" d="M225.28,180.7s3.35,5.94,6.11,6.43,6.46-.72,7.89,3.12-1.24,6.95-2.92,8-5,.69-5,.69,3.87-.35,5.08-2.37,1.85-4.08.56-5.78-3-1.19-6.16-2.5S225.28,180.7,225.28,180.7Z" transform="translate(19.57)"/><path class="cls-40" d="M239.16,108.94l-1.69.11c-3.57.22-5.39,8.82-18.42,16.06s-31,0-40.9,12.74S172.42,169,172.42,169s-1.26,1.44-.81,7c.33,4.12,4.25,13.28,6.29,17.79a53.42,53.42,0,0,1-6.14-11.62c-4.71-11.67-2.11-15.31-2.11-15.31s-6.32-16.62,8.17-34.82,29.6-10.59,40-13.17,14.64-9,16.88-10.48C236.11,107.53,237.56,107.57,239.16,108.94Z" transform="translate(19.57)"/><path class="cls-6" d="M215.38,184.81a4.13,4.13,0,0,0-3.56,1.64,5.6,5.6,0,0,0-1.29,3Z" transform="translate(19.57)"/><path class="cls-6" d="M230.4,178.9s1.72-1.67,3.42-1.65a4.67,4.67,0,0,1,2.86,1.13Z" transform="translate(19.57)"/><path class="cls-11" d="M262.47,438.57c0,.83,1.74,16,1.74,16l6.94-1.54-3.49-14.64Z" transform="translate(19.57)"/><path class="cls-41" d="M194.57,261.38l-1.17,2.33s-31.53,6.08-40.7,26.09c-3.3,7.2-.38,11.21-.3,15.6a42.43,42.43,0,0,1-8.2-14.4c7.73-17.21,19.57-23.47,33.78-26.57C184.7,263,190.42,262,194.57,261.38Z" transform="translate(19.57)"/><path class="cls-41" d="M203.13,242.7a3.59,3.59,0,0,0-4.19,1.54c-1.89,2.51-4.36,12.6-6.15,15.56s-2.5,4.25-2.5,4.25A72.24,72.24,0,0,0,202.56,281c7.77,7.79,9.74,7.53,9.74,7.53s6.6-15.52,10.38-14.4,13.81,8.82,13.81,8.82l5.07,3.19s-12.61-14.33-16-15.92c-5.15-2.44-12.95-5.29-17.68-10.54S203.13,242.7,203.13,242.7Z" transform="translate(19.57)"/><path class="cls-41" d="M251.42,254.18s22.06-5.5,32.77.92,24.45,31.27,24.45,31.27-8.15-27.61-22.05-35.17-37.3-1.33-37.3-1.33Z" transform="translate(19.57)"/><path class="cls-41" d="M240.76,243.51s10.26,5.34,12.43,9.14,3.85,14.29,6,16.89,2.53,3.24,2.53,3.24l-1.37,1.81s-6.38-11.39-8.72-10.42S247,288.56,247,288.56l-2.27-1.27s.88-16.82-.22-24S240.76,243.51,240.76,243.51Z" transform="translate(19.57)"/><path class="cls-38" d="M312.52,430.87c-1.74,6.39-16.68,10.6-34.74,12.65l-1.74.18c-1.87.18-3.75.34-5.6.48h0a2.07,2.07,0,0,0-.46,0l-2.33.22h-.13c-12.25,1.06-24.34,1.11-31.11.29-.26,0-.49-.06-.69-.09-14.67-2-29-10.08-34.93-17.3.26.17,2.09,1.4,2.4,1.58,4.7,2.79,16.55,8.81,36.51,8.12,33.43-1.15,62.94-18.7,74.43-27.7C314.42,417.81,314,425.38,312.52,430.87Z" transform="translate(19.57)"/><path class="cls-5" d="M130.28,304.08c-16.68,13.83-46.38,7.53-58,3.46a63.12,63.12,0,0,1-18.51-10s28.28-9.76,30.11-14.85c.85-2.38-.43-9.53-2-16.46-1.83-7.88-4.08-15.48-4.08-15.48l14.69-2.23,9.32-1.43a24.64,24.64,0,0,0-.06,2.74c0,4.33.5,12.84,2.31,18.91a15.54,15.54,0,0,0,2.43,5.2c4.88,6.11,21.38,4.13,21.38,4.13S147,290.25,130.28,304.08Z" transform="translate(19.57)"/><path class="cls-6" d="M104.05,268.77a43,43,0,0,1-8.15.52,38.07,38.07,0,0,1-14-3c-1.83-7.88-4.08-15.48-4.08-15.48l14.69-2.23,9.26,1.31C101.78,254.19,102.24,262.7,104.05,268.77Z" transform="translate(19.57)"/><path class="cls-42" d="M106.14,162c8.41,6.24,13.36,21.43,19,40.69,4.33,14.8,20.62,30.38,20.62,30.38S131.5,249.36,115,252c-23.29,3.74-20.82-37.09-22.71-41.7S87.69,182.1,88.78,178,106.14,162,106.14,162Z" transform="translate(19.57)"/><path class="cls-5" d="M107.33,263.25c-28.08,2.19-42.29-17.11-46-44.11s9.83-45.77,22.5-49.25c8.62-2.36,15.53-.13,20.67,4a27.6,27.6,0,0,1,4.63,4.73,32.93,32.93,0,0,1,6.32,13.78c4.88,27.37,8.3,21.16,10.5,36C129,248.72,120.72,262.2,107.33,263.25Z" transform="translate(19.57)"/><path class="cls-6" d="M109.09,178.61c-3.91,3.43-17.15,16.16-24,34A102.69,102.69,0,0,0,79,253.44l-6.11-6.11-1.58-28.81L86.92,184.4,97,175.71l7.48-1.83A27.6,27.6,0,0,1,109.09,178.61Z" transform="translate(19.57)"/><path class="cls-43" d="M63.07,449.1c0,.22,0,.42,0,.64C62.88,450,62.86,449.78,63.07,449.1Z" transform="translate(19.57)"/><path class="cls-43" d="M169.12,454.2s-12.38-4.11-39.6,4.5c-40.36,12.76-65.31.95-66.41-9,2-2.09,20.19-38.73,16.69-51.59-10-36.74-37.13-91.7-31.25-97.77,5.33-5.5,14.3-9,19.92-10.85,3-1,5.1-1.44,5.1-1.44s11.76,24.08,36.91,16c25.68-8.24,7.22-25.82,7.22-25.82s2.7-.36,6-.63a50.68,50.68,0,0,1,9.89-.09c4.79.73,26.19,29.37,28.76,44.54.08.57.15,1.12.2,1.63,1.27,16.05-6.52,23.92-7.51,29.4-.25,1.36,0,4.75.58,9.08C157.33,375.47,169.12,454.2,169.12,454.2Z" transform="translate(19.57)"/><path class="cls-10" d="M89.68,207.87c5.16-1.71,8.57,10.88,3.23,12.83S83.6,209.89,89.68,207.87Z" transform="translate(19.57)"/><path class="cls-10" d="M111.25,202.46c5.1-1.51,8,10.91,2.74,12.64S105.25,204.23,111.25,202.46Z" transform="translate(19.57)"/><path class="cls-11" d="M90.74,211c3.1-.48,4.81,8.54,1.44,9.29S86.32,211.71,90.74,211Z" transform="translate(19.57)"/><path class="cls-11" d="M111.21,205.65c3.27-.76,5.15,8.6,1.68,9.23S107.9,206.42,111.21,205.65Z" transform="translate(19.57)"/><path class="cls-6" d="M119,229.52s-3.48,2.49-10.84,4.63c-6.27,1.83-15.92,2-15.92,2s9,9,17.21,7C117.4,241.12,119,229.52,119,229.52Z" transform="translate(19.57)"/><path class="cls-10" d="M93.48,236.55a31.59,31.59,0,0,0,15,.06c7.82-2,9.94-6.14,9.94-6.14a13.93,13.93,0,0,1-9.44,8.26C101.69,240.72,93.48,236.55,93.48,236.55Z" transform="translate(19.57)"/><path class="cls-6" d="M103.11,209.92s.28,5.13,3.51,7.6,6.27,1.33,7.51,5.32-4.66,5.89-4.66,5.89,4.75-2.37,3.33-5.32-3.9-1.23-7-5.22A12.29,12.29,0,0,1,103.11,209.92Z" transform="translate(19.57)"/><path class="cls-42" d="M104.43,197.72c-.22,1.53.64,1.8,1.54,1.41s1.29-2.83,4.52-3.22a5.61,5.61,0,0,1,4.76,1.29s-1.67-3.35-5-3.22S104.69,195.91,104.43,197.72Z" transform="translate(19.57)"/><path class="cls-42" d="M93.2,199.2c1.16,1,.67,1.8-.27,2.08s-2.81-1.35-5.53.42a5.66,5.66,0,0,0-2.84,4s-.86-3.64,1.8-5.69S91.85,198,93.2,199.2Z" transform="translate(19.57)"/><path class="cls-44" d="M92,266.24s-38.52,6.17-50.73-9c-5.46-6.8-7.93-19.94-7.6-34.5a123.55,123.55,0,0,1,2.67-22.94c2.26-10.62,5.92-20.66,10.9-28.27,15.46-23.6,36.61-20.07,43.4-19.26a30.48,30.48,0,0,1,16.42,7.29,21.91,21.91,0,0,1,5.27,6.82c3.53,7.32-5.42,8.4-22.78,32.54C80.5,211.55,77,223,76.14,232.34a44.25,44.25,0,0,0,2.27,19.26C81.66,260.28,92,266.24,92,266.24Z" transform="translate(19.57)"/><path class="cls-5" d="M118.36,414.14c-1.34.45-3.35-2.23-8.48-4.91a20.68,20.68,0,0,0-9.61-2.46s8.93,4.47,11.84,7.59,7.15,6.7,5.8,8.5-5.13-.67-5.13-.67,1.11,1.78-1.34,1.78-6-4.24-9.16-5.81A14.8,14.8,0,0,0,95.13,417s5.8,3.13,7.15,6.48,2.9,6.48.89,6.26-3.12-6-8.49-7.37a7.11,7.11,0,0,0-2.46-.13c-5.39.57-12.75,5.53-17,4.37-4.91-1.34-6.93-4.46-8.71-6-1-.82-10.35-5.63-20.06-10.93C37.92,405,29.11,400,25.65,397c-7.36-6.48-12.95-13.63-12.51-18.78a26.37,26.37,0,0,1,1.66-4.88c4.38-11,16.54-37.08,24.56-54.1,4.37-9.27,7.52-15.85,7.52-15.85a25.92,25.92,0,0,1,9-3.12,16.64,16.64,0,0,1,15.6,5.58,27.15,27.15,0,0,1,6.61,21.47,18.87,18.87,0,0,1-.58,3.1c-1.18,1.27-3.48,4-6.34,7.58-9.81,12.18-26.32,34-27.94,40.2a4.28,4.28,0,0,0-.12.7c-.45,6.47,29.49,31.49,31.05,30.15s6.48-6.7,7.37-10.27.45-5.81,2.24-5.58,2.9.67,2.46,4.46a25,25,0,0,1-2.46,7.59c.4-.13,13-4.69,16.53-5.13s10.49,1.56,13.62,6S119.71,413.69,118.36,414.14Z" transform="translate(19.57)"/><path class="cls-27" d="M102.4,426.82c-1.46.55.85,3.46,1.7,3.25S103.53,426.4,102.4,426.82Z" transform="translate(19.57)"/><path class="cls-27" d="M110.09,421c-1.26,1.2,3,3.67,3.52,3.1S111.57,419.63,110.09,421Z" transform="translate(19.57)"/><path class="cls-27" d="M114.74,419.28c-2.38,1.29,2.19,5.29,3.53,3.88S116.43,418.36,114.74,419.28Z" transform="translate(19.57)"/><path class="cls-27" d="M116.36,410.61c-1.59,1.78,1.76,4.44,3,3.52S117.56,409.27,116.36,410.61Z" transform="translate(19.57)"/><path class="cls-27" d="M84.18,391.19c1.13-.18-.21,5.57-1.69,5.85S82.84,391.4,84.18,391.19Z" transform="translate(19.57)"/><path class="cls-34" d="M60.13,294.66c-6.43,1.17-10.66,1.5-17.39,14.37s-15.91,34.73-15.91,34.73,7.38-4,17.6,2.89,15,19.65,15,19.65S77.92,339.75,79,331.55c.64-4.83,3.22-16.38-2.05-24.86S60.13,294.66,60.13,294.66Z" transform="translate(19.57)"/><path class="cls-42" d="M92,266.24s-38.52,6.17-50.73-9c-5.46-6.8-7.93-19.94-7.6-34.5a66.12,66.12,0,0,0,19.15,8.85,47.6,47.6,0,0,0,23.28.76,44.25,44.25,0,0,0,2.27,19.26C81.66,260.28,92,266.24,92,266.24Z" transform="translate(19.57)"/><path class="cls-34" d="M155.64,362.22c-4.67,5.58-16.42,6.5-28.37,7.83-18.19,2-31.4,6.73-40.64,9S57,356.36,61.27,351.45s49.33-1.81,71.26-9.31c16.92-5.78,25.94-12.95,29.84-20,.09.56.15,1.11.2,1.63,1.26,16.05-6.52,23.92-7.51,29.4C154.81,354.5,155.08,357.88,155.64,362.22Z" transform="translate(19.57)"/><path class="cls-45" d="M107.1,159.55c-4.36-1.56-21.76-6.63-43.32,2.76-15,6.54-23.24,24.23-27.4,37.48,2.26-10.62,5.92-20.66,10.9-28.27,15.46-23.6,36.61-20.07,43.4-19.26A30.48,30.48,0,0,1,107.1,159.55Z" transform="translate(19.57)"/><path class="cls-6" d="M92.22,422.28c-5.39.57-12.75,5.53-17,4.37-4.91-1.34-6.93-4.46-8.71-6-1-.82-10.35-5.63-20.06-10.93C37.92,405,29.11,400,25.65,397c-7.36-6.48-12.95-13.63-12.51-18.78a26.37,26.37,0,0,1,1.66-4.88c-.11,4.37,3.31,14.92,16.81,24,14,9.38,33.05,18.92,37.81,21.92s3.72,5.66,9,5.13S89.78,421.41,92.22,422.28Z" transform="translate(19.57)"/><path class="cls-11" d="M93.37,209.11s-1.69-3-4.86-2.13c-3.85,1-4.33,8.47-4.33,8.47l3,1s-1.43-6,1.48-7.76A3.54,3.54,0,0,1,93.37,209.11Z" transform="translate(19.57)"/><path class="cls-11" d="M108.44,205.33s.46-3.59,3.94-3.7,5.91,5.62,5.91,5.62l-1.62,1.27s-2-5.74-4.81-5.56A3.55,3.55,0,0,0,108.44,205.33Z" transform="translate(19.57)"/><path class="cls-34" d="M111.83,309.15C84,316.78,71,294.43,68.47,289.53c3-1,5.1-1.44,5.1-1.44s11.76,24.08,36.91,16c25.68-8.24,7.22-25.82,7.22-25.82s2.7-.36,6-.63C127.55,281.59,138.79,301.76,111.83,309.15Z" transform="translate(19.57)"/><path class="cls-5" d="M470.2,388.21c-4.47,13-.22,63.09-.22,63.09l-134.46,3.4s4.67-40.57-1.28-60.75c-.64-2.14-3.07-28.15-4-30l4.66-35.43c8.57,1.51,19.38-13.22,31.05-14.08,4.83-.34,10-.54,12.08-2.05a15.77,15.77,0,0,0,2.25-2,14.1,14.1,0,0,0,1.88-2.48,17.45,17.45,0,0,0,2.15-11A13.24,13.24,0,0,0,384,295l35.9-1.49s0,.51.11,1.37a35.62,35.62,0,0,0,3.92,12.86,6.73,6.73,0,0,0,.86,1.21,8.21,8.21,0,0,0,1.53,1.29c4,2.74,12.9,6.14,18.85,7.65,8.68,2.2-.29,8.39,10.8,7.95,1.33-.05,2.68,13.17,4.05,13.05l7.2,31C465.1,371.85,470.91,386.15,470.2,388.21Z" transform="translate(19.57)"/><path class="cls-5" d="M352.54,222c4.14-3.27,10.41,4.46,10.41,4.46l1.48,33.77s-6.79-.63-10-9.34S348.5,225.14,352.54,222Z" transform="translate(19.57)"/><path class="cls-6" d="M362.88,239.23s-3.69-11.61-7.79-11-1,8.78-1,8.78,0-6.94,2.55-4a18.29,18.29,0,0,1,2.36,5.28c-1.36.55-3.3,2-2.64,5.91a10.09,10.09,0,0,0,5.52,7.65l.14-2.13c.27,1.22.43,2,.43,2Z" transform="translate(19.57)"/><path class="cls-5" d="M440.48,224.08c.21-.64,5.31-10.62,10.84-7.65s.63,27.83-2.13,33.35-10.41,3.4-10.41,3.4Z" transform="translate(19.57)"/><path class="cls-6" d="M441.19,234.28s3.68-11.62,7.79-11.05,1,8.78,1,8.78,0-6.94-2.55-4a18.52,18.52,0,0,0-2.35,5.27c1.35.55,3.3,2,2.64,5.91a10.11,10.11,0,0,1-5.53,7.65l-.13-2.12c-.28,1.22-.43,2-.43,2Z" transform="translate(19.57)"/><path class="cls-46" d="M361.88,217.09s-6.16-.42-6.58-16.35S368,168.26,368,168.26l13.6,18Z" transform="translate(19.57)"/><path class="cls-6" d="M426.27,310.2a52.1,52.1,0,0,1-23.74,6.92c-10.41.41-18.82-3.36-22.28-6.75a14.1,14.1,0,0,0,1.88-2.48,17.45,17.45,0,0,0,2.15-11l.12-.55L420,294.84a35.62,35.62,0,0,0,3.92,12.86,6.73,6.73,0,0,0,.86,1.21A8.21,8.21,0,0,0,426.27,310.2Z" transform="translate(19.57)"/><path class="cls-5" d="M437.3,281.65c-7.86,13-19.55,21.45-33.78,22.09s-29.74-9.77-35.9-19.33S361,262.53,361.67,250s-1.05-18-1.49-34.08v-.12c-.42-16.15,14-32.29,14-32.29,3.83-4.46,15.94-12.32,40.79-3.83s25.07,14.24,26.55,24.64a126.32,126.32,0,0,1,1,15.83c.1,6.56.07,13.94.52,22.62C443.88,259.13,445.16,268.69,437.3,281.65Z" transform="translate(19.57)"/><path class="cls-11" d="M409.94,237.84a7.73,7.73,0,0,1,6-2.94,7.88,7.88,0,0,1,6.21,3.17s-.11-5.82-5.47-6.39S409.94,237.84,409.94,237.84Z" transform="translate(19.57)"/><path class="cls-11" d="M372.08,217.71c0,2,1,2.83,2.41,2.26s4.53-6.09,6.65-5.52,3.54,2.27,4.68,1.42,3.4-2.84,2.12-4.54a7.83,7.83,0,0,0-9.2-2C374.49,211.19,372.08,215.58,372.08,217.71Z" transform="translate(19.57)"/><path class="cls-11" d="M412.87,204.4c-2.21.36-3.26,3-3.12,4.81s3.26,6.23,8.36,6.23,7.64-1.27,7.36-3.11-5.1.7-7.79-2.13S415.42,204,412.87,204.4Z" transform="translate(19.57)"/><path class="cls-6" d="M398.14,232.72s-.43,13.59-3.68,18.27-6.09,4.39-6.23,8.35,9.77,6,9.77,6-7.51-2.41-6.8-6.09,5.81-4.53,7.08-12.89S398.14,232.72,398.14,232.72Z" transform="translate(19.57)"/><path class="cls-12" d="M422.2,265.87a41.41,41.41,0,0,1-6.12,12.79c-3.41,4.64-8.41,8.67-15.39,8.3a19.33,19.33,0,0,1-7.63-2c-10.23-5.06-14.33-17.82-14.33-17.82a41.77,41.77,0,0,0,7.29,2.38,46.66,46.66,0,0,0,12.55,1.29,82.11,82.11,0,0,0,18.23-3.25C420,266.67,422.05,265.92,422.2,265.87Z" transform="translate(19.57)"/><path class="cls-14" d="M416.08,278.66c-3.41,4.64-8.41,8.67-15.39,8.3a19.33,19.33,0,0,1-7.63-2,14.62,14.62,0,0,1,13.15-8.2C410.91,276.64,414,277.57,416.08,278.66Z" transform="translate(19.57)"/><path class="cls-10" d="M416.8,267.56c-.41,1.92-1.06,4.41-1.81,5.23-1.27,1.42-4.1,3.55-13.45,4.4s-12.47-2.13-13.74-3.55a11.72,11.72,0,0,1-1.78-4.12,46.66,46.66,0,0,0,12.55,1.29A82.11,82.11,0,0,0,416.8,267.56Z" transform="translate(19.57)"/><path class="cls-6" d="M442.51,220.15c-.19,1.85-.33,3.12-.33,3.23,0,.42-1.55-6.52-4.67-15.59s-6.37-12.46-6.37-12.46-6.1,4.81-26.2,6.38-30-12.32-30-12.32-3.25,2.4-7.65,8.92c-3.19,4.73-5.86,13.3-7.08,17.61v-.12c-.42-16.15,14-32.29,14-32.29,3.83-4.46,15.94-12.32,40.79-3.83s25.07,14.24,26.55,24.64A126.32,126.32,0,0,1,442.51,220.15Z" transform="translate(19.57)"/><path class="cls-47" d="M442.61,225.57s-1.7-7.87-3.19-16.14S432,191.22,432,191.22s-10,6.62-29.74,4.56-34.42-13.46-35.48-29.59a17,17,0,0,1,3.1-11.3l.11-.16c5-7,14.21-9.23,14.21-9.23a24.93,24.93,0,0,0,4.67,8.9c3.82,5,12.75,9.51,12.75,9.51s-.22-1,.64-5a12.23,12.23,0,0,1,4-6.41,47.4,47.4,0,0,0,8.27,6.82c5.74,3.93,14.88,7.87,14.88,7.87l-.64-2.9a46.88,46.88,0,0,1,18.48,25,33.37,33.37,0,0,1,1.19,5.43c.06.42.11.85.16,1.28C450.18,211.13,442.61,225.57,442.61,225.57Z" transform="translate(19.57)"/><path class="cls-6" d="M394.6,288.52s2.55,2,7.93,1.55S410,288,410,288a9.67,9.67,0,0,1-8.07,5.1C397.29,293.19,394.6,288.52,394.6,288.52Z" transform="translate(19.57)"/><path class="cls-46" d="M442.61,225.57s-1.7-7.86-3.19-16.14S432,191.22,432,191.22s-10,6.63-29.74,4.56-34.42-13.45-35.48-29.59A17,17,0,0,1,370,154.73c-.31,8,1.93,29.2,25,32.56,28.47,4.14,37.39-2.48,37.39-2.48s3,10.14,11,11c2,.2,3.73.28,5.17.29C450.18,211.14,442.61,225.57,442.61,225.57Z" transform="translate(19.57)"/><path class="cls-10" d="M383.13,225.46c6.56-.48,7.43,17.74.32,17.53S375.9,226,383.13,225.46Z" transform="translate(19.57)"/><path class="cls-11" d="M383.2,229.39c6-.64,4.67,12.89.28,12.75S378.1,229.93,383.2,229.39Z" transform="translate(19.57)"/><path class="cls-17" d="M448.47,194.79a67.8,67.8,0,0,0-5.86-10.73c-4.69-7.05-11.93-11-21.45-15.41a53.26,53.26,0,0,1-15.69-11.36,14.28,14.28,0,0,0-.94,4.57c-.14,2.74,1.88,6.92,1.88,6.92s-7-.39-15.55-5.88-10.33-12.4-10.33-12.4-2.41.78-5.5,1.83a28.75,28.75,0,0,0-5.16,2.56l.11-.16c5-7,14.21-9.23,14.21-9.23a24.93,24.93,0,0,0,4.67,8.9c3.82,5,12.75,9.51,12.75,9.51s-.22-1,.64-5a12.23,12.23,0,0,1,4-6.41,47.4,47.4,0,0,0,8.27,6.82c5.74,3.93,14.88,7.87,14.88,7.87l-.64-2.9a46.88,46.88,0,0,1,18.48,25A33.37,33.37,0,0,1,448.47,194.79Z" transform="translate(19.57)"/><path class="cls-6" d="M410.06,239a5.24,5.24,0,0,1,3.12-.3,3.17,3.17,0,0,1,2.11,2Z" transform="translate(19.57)"/><path class="cls-48" d="M479.34,454,365.82,456.2l-34.09.66s0-.43,0-1.22c0-5,.11-24.4-.23-42.45-.2-10.49-.54-20.51-1.12-26.95v0c-.37-12.41-1-39.51.21-51.63,1.37-13.85,7.8-17.89,17.85-21.06,5.22-.21,10.57-.19,15-.1,6.18.13,10.63.39,10.63.39s.8,23.06,31.64,22.79c31.23-.27,29.76-22.12,29.76-22.12s4.05.41,9.6,1c3.26.37,7,.81,10.8,1.3,6.84,3.64,10.87,10.85,13.75,24.29,2.2,10.27,4,29.24,5,41.2-.36,5.35.15,16.14.95,27.77C477,430.74,479.34,454,479.34,454Z" transform="translate(19.57)"/><path class="cls-49" d="M445.1,315.51c-.12,9.12-4,30.25-37.21,30.47-35.4.23-42.91-24.45-44.42-32.57,6.18.13,10.63.39,10.63.39s.8,23.06,31.64,22.79c31.23-.27,29.76-22.12,29.76-22.12S439.55,314.88,445.1,315.51Z" transform="translate(19.57)"/><path class="cls-49" d="M479.34,454,365.82,456.2c-15.12-.18-27.6-.37-34.08-.56,0-5,.11-24.41-.23-42.45,7.58,7.77,30,26.22,72.08,26.64,46.8.47,67.62-24.22,72-29.76C477,430.73,479.34,454,479.34,454Z" transform="translate(19.57)"/><path class="cls-5" d="M346.12,355.05S268.43,399.9,180.23,426.3s-198,28.8-198,28.8l-.68-53.81-1.12-89S98,371.1,173.62,361.5,343,315.9,343,315.9l2.36,29.34Z" transform="translate(19.57)"/><path class="cls-6" d="M346.12,355.05S268.43,399.9,180.23,426.3s-198,28.8-198,28.8l-.68-53.81C9,406,104.46,419.93,189.23,404.7c78.4-14.08,135.13-46.17,156.1-59.46Z" transform="translate(19.57)"/><path class="cls-48" d="M355.73,315.3s-.31,36.9,0,38.7-21.91,10.8-21.91,10.8l-22,9.25-10.1,4.25S302,369,296,353.7s-10.49-18.9-10.49-18.9,3.74-1.61,9.39-3.93c14.15-5.84,40.27-16.13,49.7-16.77C357.82,313.2,355.73,315.3,355.73,315.3Z" transform="translate(19.57)"/><path class="cls-49" d="M301.73,378.3S302,369,296,353.7s-10.49-18.9-10.49-18.9,3.74-1.61,9.39-3.93a69,69,0,0,1,11.9,20.43,91.21,91.21,0,0,1,5,22.75Z" transform="translate(19.57)"/><path class="cls-5" d="M458.75,357.45s77.7,44.85,165.9,71.25,198,28.8,198,28.8l.67-53.81,2.5-110.29s-76.47,67.21-194.4,64.8c-88.2-1.8-169.52-39.9-169.52-39.9l-2.36,29.34Z" transform="translate(19.57)"/><path class="cls-6" d="M458.75,357.45s77.54,45.39,165.9,71.25C742.5,463.2,823.5,466.5,823.5,466.5l-.18-62.81c-27.41,4.66-122.91,18.64-207.67,3.41C537.24,393,480.51,360.93,459.54,347.64Z" transform="translate(19.57)"/><path class="cls-48" d="M449.15,317.7s.3,36.9,0,38.7,21.9,10.8,21.9,10.8l22,9.25,10.11,4.25s-.3-9.3,5.7-24.6,10.5-18.9,10.5-18.9-3.75-1.61-9.4-3.93c-14.15-5.84-40.26-16.13-49.7-16.77C447.05,315.6,449.15,317.7,449.15,317.7Z" transform="translate(19.57)"/><path class="cls-49" d="M503.15,380.7s-.3-9.3,5.7-24.6,10.5-18.9,10.5-18.9-3.75-1.61-9.4-3.93a69,69,0,0,0-11.9,20.43,91.21,91.21,0,0,0-5,22.75Z" transform="translate(19.57)"/></g></svg>