<svg xmlns="http://www.w3.org/2000/svg" viewBox="0 0 960 720"><defs><style>.cls-1{fill:#b9e9f5;}.cls-2,.cls-8{fill:#fff;}.cls-3{fill:#ffcf00;}.cls-10,.cls-4,.cls-6,.cls-9{fill:#252527;}.cls-5{fill:#4d4d4d;}.cls-6{opacity:0.15;}.cls-7{fill:#d6d6d6;}.cls-10,.cls-8{opacity:0.2;}.cls-9{opacity:0.1;}.cls-11{fill:#666;}.cls-12{fill:gray;}</style></defs><g id="illustration"><rect class="cls-1" width="960" height="720"/><g id="bg"><path class="cls-2" d="M721.06,383.15H598.61c-14.4,0-26.08-14.77-26.08-31.18s11.68-31.17,26.08-31.17H804.69c14.41,0,26.09-13.73,26.09-30.14s-11.68-30.14-26.09-30.14H679.07c-14.41,0-26.09-12.69-26.09-29.1s11.68-29.1,26.09-29.1h58c14.4,0,26.08-12.69,26.08-29.1s-11.68-29.1-26.08-29.1H273.7c-14.4,0-26.08,12.69-26.08,29.1s11.68,29.1,26.08,29.1h26.09c14.41,0,26.09,12.69,26.09,29.1s-11.68,29.1-26.09,29.1H101.49c-14.41,0-26.09,13.73-26.09,30.14s11.68,30.14,26.09,30.14h49.28c14.4,0,26.08,14.76,26.08,31.17s-11.68,31.18-26.08,31.18h-29c-14.41,0-26.09,12.69-26.09,29.1s11.68,29.1,26.09,29.1H256.31c14.41,0,26.09,13.73,26.09,30.14s-11.68,30.14-26.09,30.14H236c-14.4,0-26.08,12.69-26.08,29.1s11.68,29.09,26.08,29.09H668.88c14.41,0,26.09-12.69,26.09-29.09s-11.68-29.1-26.09-29.1H645.7c-14.41,0-26.09-13.73-26.09-30.14s11.68-30.14,26.09-30.14h75.36c14.4,0,26.08-12.69,26.08-29.1S735.46,383.15,721.06,383.15Z"/><path class="cls-2" d="M856.2,383.15H812.64c-14.26,0-25.83,12.85-25.83,29.1s11.57,29.1,25.83,29.1H856.2c14.27,0,25.84-12.85,25.84-29.1S870.47,383.15,856.2,383.15Z"/><path class="cls-2" d="M152.91,501.63H98.47c-14.27,0-25.83,12.85-25.83,29.1s11.56,29.09,25.83,29.09h54.44c14.27,0,25.84-12.84,25.84-29.09S167.18,501.63,152.91,501.63Z"/><path class="cls-2" d="M189.91,202.32h12.38c14.27,0,25.84-12.85,25.84-29.1s-11.57-29.1-25.84-29.1H189.91c-14.27,0-25.83,12.85-25.83,29.1S175.64,202.32,189.91,202.32Z"/></g><g id="shapes2"><path class="cls-3" d="M149.89,263.12a11.38,11.38,0,1,1,11.38-11.38A11.39,11.39,0,0,1,149.89,263.12Zm0-18.76a7.38,7.38,0,1,0,7.38,7.38A7.39,7.39,0,0,0,149.89,244.36Z"/><path class="cls-3" d="M627.92,438.52a11.38,11.38,0,1,1,11.38-11.38A11.39,11.39,0,0,1,627.92,438.52Zm0-18.76a7.38,7.38,0,1,0,7.38,7.38A7.39,7.39,0,0,0,627.92,419.76Z"/><path class="cls-3" d="M645.89,159.12a11.38,11.38,0,1,1,11.38-11.38A11.39,11.39,0,0,1,645.89,159.12Zm0-18.76a7.38,7.38,0,1,0,7.38,7.38A7.39,7.39,0,0,0,645.89,140.36Z"/><path class="cls-3" d="M357.89,220.57a19.83,19.83,0,1,1,19.83-19.83A19.85,19.85,0,0,1,357.89,220.57Zm0-35.65a15.83,15.83,0,1,0,15.83,15.82A15.84,15.84,0,0,0,357.89,184.92Z"/><path class="cls-3" d="M276.53,378a11.39,11.39,0,1,1,11.38-11.38A11.4,11.4,0,0,1,276.53,378Zm0-18.77a7.39,7.39,0,1,0,7.38,7.39A7.4,7.4,0,0,0,276.53,359.27Z"/><path class="cls-3" d="M343.31,472.44l10.19-10.19a2,2,0,0,0-2.83-2.82l-10.19,10.18L330.3,459.43a2,2,0,0,0-2.83,2.82l10.19,10.19-10.19,10.18a2,2,0,0,0,1.42,3.41,2,2,0,0,0,1.41-.58l10.18-10.18,10.19,10.18a2,2,0,0,0,1.41.58,2,2,0,0,0,1.42-3.41Z"/><path class="cls-3" d="M831,402l4.95-4.95a2,2,0,1,0-2.82-2.83l-5,5-4.95-5a2,2,0,0,0-2.83,2.83l5,4.95-5,4.95a2,2,0,0,0,0,2.83,2,2,0,0,0,1.41.58,2,2,0,0,0,1.42-.58l4.95-4.95,5,4.95a2,2,0,1,0,2.82-2.83Z"/><path class="cls-3" d="M635,240l4.95-5a2,2,0,0,0-2.82-2.83l-5,4.95-4.95-4.95a2,2,0,0,0-2.83,2.83l5,5-5,4.95a2,2,0,0,0,0,2.83,2,2,0,0,0,1.41.58,2,2,0,0,0,1.42-.58l4.95-5,5,5a2,2,0,1,0,2.82-2.83Z"/></g><g id="shapes1"><path class="cls-4" d="M761.89,266.65a5.91,5.91,0,1,1,5.92-5.91A5.92,5.92,0,0,1,761.89,266.65Zm0-9.82a3.91,3.91,0,1,0,3.92,3.91A3.91,3.91,0,0,0,761.89,256.83Z"/><path class="cls-4" d="M862.89,368.65a5.91,5.91,0,1,1,5.92-5.91A5.92,5.92,0,0,1,862.89,368.65Zm0-9.82a3.91,3.91,0,1,0,3.92,3.91A3.91,3.91,0,0,0,862.89,358.83Z"/><path class="cls-4" d="M522.46,525.64a4.92,4.92,0,1,1,4.91-4.91A4.91,4.91,0,0,1,522.46,525.64Zm0-7.83a2.92,2.92,0,1,0,2.91,2.92A2.91,2.91,0,0,0,522.46,517.81Z"/><path class="cls-4" d="M300.89,169.65a4.91,4.91,0,1,1,4.92-4.91A4.91,4.91,0,0,1,300.89,169.65Zm0-7.82a2.91,2.91,0,1,0,2.92,2.91A2.91,2.91,0,0,0,300.89,161.83Z"/><path class="cls-4" d="M239.89,414.65a4.91,4.91,0,1,1,4.92-4.91A4.91,4.91,0,0,1,239.89,414.65Zm0-7.82a2.91,2.91,0,1,0,2.92,2.91A2.91,2.91,0,0,0,239.89,406.83Z"/><polygon class="cls-4" points="429.1 157.45 427.68 156.04 424.15 159.57 420.61 156.04 419.2 157.45 422.73 160.99 419.2 164.52 420.61 165.94 424.15 162.4 427.68 165.94 429.1 164.52 425.56 160.99 429.1 157.45"/><polygon class="cls-4" points="882.1 517.45 880.68 516.04 877.15 519.57 873.61 516.04 872.2 517.45 875.73 520.99 872.2 524.52 873.61 525.94 877.15 522.4 880.68 525.94 882.1 524.52 878.56 520.99 882.1 517.45"/><rect class="cls-4" x="668.15" y="178.99" width="12" height="2" transform="translate(70.18 529.41) rotate(-45)"/><rect class="cls-4" x="673.15" y="173.99" width="2" height="12" transform="translate(70.18 529.41) rotate(-45)"/><polygon class="cls-4" points="107.09 408.45 105.68 407.04 102.15 410.57 98.61 407.04 97.2 408.45 100.73 411.99 97.2 415.52 98.61 416.94 102.15 413.4 105.68 416.94 107.09 415.52 103.56 411.99 107.09 408.45"/><polygon class="cls-4" points="185.09 266.45 183.68 265.04 180.15 268.57 176.61 265.04 175.2 266.45 178.73 269.99 175.2 273.52 176.61 274.94 180.15 271.4 183.68 274.94 185.09 273.52 181.56 269.99 185.09 266.45"/><path class="cls-4" d="M362.89,392.65a5.91,5.91,0,1,1,5.92-5.91A5.92,5.92,0,0,1,362.89,392.65Zm0-9.82a3.91,3.91,0,1,0,3.92,3.91A3.91,3.91,0,0,0,362.89,382.83Z"/></g><path class="cls-5" d="M180.9,590.32c1.86-.82,1.93-4.76.15-8.81s-4.72-6.67-6.57-5.85-1.92,4.75-.15,8.8S179.05,591.13,180.9,590.32Z"/><path class="cls-4" d="M173.83,584.68c-1.93-4.39-1.74-8.58.43-9.53s5.37,1.75,7.3,6.14,1.73,8.58-.43,9.53S175.75,589.07,173.83,584.68Zm6.72-2.94c-1.77-4-4.5-6.17-5.85-5.58s-1.63,4.06.14,8.08,4.49,6.16,5.84,5.57S182.31,585.76,180.55,581.74Z"/><path class="cls-6" d="M269.85,544.05c-.06-.14-.12-.27-.19-.4s-.1-.28-.16-.42a36.16,36.16,0,0,0-67.7,4.29c-1,3.44-.42,10-4.76,11.88l-19.2,8.41a4.54,4.54,0,0,0-2.56,3.86c-.37,3.31,1,6,1.72,7.53s1.21,2.76,1.51,3.43l.35.81,1.86,4.25a12.55,12.55,0,0,0,4.17,5.91,4.08,4.08,0,0,0,4.37.28l19.2-8.42c4.34-1.9,9,3.4,12.16,5a35.94,35.94,0,0,0,49.23-46.42Z"/><path class="cls-2" d="M179.84,582.08a4.52,4.52,0,0,1,2.56-3.86l19.2-8.42c4.34-1.9,3.77-8.43,4.76-11.87a36.16,36.16,0,0,1,65.33-8.79,36.5,36.5,0,0,0-1.7-4.79l-.19-.4c-.06-.14-.11-.28-.17-.41a36.16,36.16,0,0,0-67.7,4.29c-1,3.44-.42,10-4.76,11.87L178,568.12a4.52,4.52,0,0,0-2.56,3.86c-.36,3.31,1,5.94,1.73,7.53l1.5,3.42.36.82c.36.83,1,2.27,1.78,4.06A11.68,11.68,0,0,1,179.84,582.08Z"/><path class="cls-7" d="M205.55,586.74l-11.42-26.07-16.29,7.14a4.54,4.54,0,0,0-2.56,3.86c-.37,3.31,1,6,1.72,7.53s1.21,2.76,1.51,3.43l.35.81,1.86,4.25a12.55,12.55,0,0,0,4.17,5.91,4.08,4.08,0,0,0,4.37.28Z"/><path class="cls-2" d="M187.42,563.61l-9.58,4.2a4.54,4.54,0,0,0-2.56,3.86c-.37,3.31,1,6,1.72,7.53s1.21,2.76,1.51,3.43l.35.81,1.86,4.25a12.55,12.55,0,0,0,4.17,5.91,4.21,4.21,0,0,0,1,.51A42.76,42.76,0,0,1,187.42,563.61Z"/><path class="cls-4" d="M241.52,587.18a.35.35,0,0,1,0-.12.55.55,0,0,1,.44-.64,29.12,29.12,0,0,0,11.15-4.64.55.55,0,1,1,.63.91,30.33,30.33,0,0,1-5,2.79,29.44,29.44,0,0,1-6.56,2A.55.55,0,0,1,241.52,587.18Z"/><path class="cls-4" d="M257.53,578.47a.56.56,0,0,1,.11-.6,28.8,28.8,0,0,0,5.45-31.39.55.55,0,0,1,.28-.73.56.56,0,0,1,.73.29,29.92,29.92,0,0,1-5.66,32.59.55.55,0,0,1-.78,0A.46.46,0,0,1,257.53,578.47Z"/><path class="cls-8" d="M269.91,572.7a35.71,35.71,0,0,0,1.65-23.86,36.19,36.19,0,0,0-64.69,6.77,42.91,42.91,0,0,1,63,17.09Z"/><path class="cls-4" d="M270.86,543.61a1.23,1.23,0,0,0-.12-.26l-.06-.14-.07-.16a2.77,2.77,0,0,0-.1-.26,37.26,37.26,0,0,0-69.77,4.43,25.42,25.42,0,0,0-.61,3.38c-.42,3.11-.9,6.63-3.53,7.79l-19.21,8.41a5.57,5.57,0,0,0-3.2,4.75,13.09,13.09,0,0,0,1.29,6.94l.29.67c.08.17.16.33.22.49l3.72,8.48c.07.15.14.32.21.49a12.7,12.7,0,0,0,4.32,5.87,5.14,5.14,0,0,0,5.46.4l19.21-8.42c2.56-1.12,5.51,1,8.12,2.94a23.4,23.4,0,0,0,3.1,2,37,37,0,0,0,50.73-47.84ZM203.18,582.7l-12.37-19.37,3.25-1.43ZM217.48,558c-.48-3-.3-6,2-7a2.18,2.18,0,0,1,3.11,1.06,3,3,0,0,1,0,2.44,4.87,4.87,0,0,1-2.67,2.42Zm-19.19,10.82,17.59-7.71a33.51,33.51,0,0,0,1.56,4.59,36.84,36.84,0,0,0,2.62,4.76l-17.66,7.74Zm5.8,17.38L201,587.51l-14.3-22.4,3-1.33ZM200,588l-3,1.33L182.67,566.9l3.05-1.34Zm-4.07,1.78-3.05,1.34-14.29-22.4,3.05-1.33Zm-4.07,1.79-3.05,1.34-.31.13-9.43-21.51Zm-6.33,1.18a10.69,10.69,0,0,1-3.59-5c-.07-.18-.15-.35-.22-.52L178,578.76c-.07-.16-.14-.33-.23-.51a12,12,0,0,1-1.4-6.45,4,4,0,0,1,.74-2l10.3,23.5A2.69,2.69,0,0,1,185.54,592.71Zm35.57-3.23a21.09,21.09,0,0,1-2.77-1.85c-2.94-2.14-6.59-4.81-10.32-3.18l-2.41,1-2.33-5.31,18.08-7.92c2.41,3.12,5.72,5.84,9.28,4.28a4.35,4.35,0,0,0,2.49-5.86,5.16,5.16,0,0,0-3.1-2.77,7,7,0,0,0-5.18.42l-2.75,1.2a34,34,0,0,1-2.64-4.75,36.71,36.71,0,0,1-1.52-4.61l2.79-1.23a7,7,0,0,0,3.82-3.56,5.29,5.29,0,0,0,0-4.2,4.39,4.39,0,0,0-6-2.2c-3.68,1.61-3.86,6-3.16,9.9l-18,7.88-2.33-5.31,2.41-1.05c3.77-1.65,4.36-6,4.84-9.52a22.22,22.22,0,0,1,.54-3.06,35.05,35.05,0,0,1,65.63-4.15l.07.18.1.24a2,2,0,0,0,.1.21,1.42,1.42,0,0,1,.08.18,34.84,34.84,0,0,1-47.73,45Zm2.32-18.12,2.3-1a5,5,0,0,1,3.59-.35,2.92,2.92,0,0,1,1.79,1.57,2.15,2.15,0,0,1-1.35,2.95C227.63,575.46,225.34,573.72,223.43,571.36Z"/><g id="shadow"><ellipse id="shadow-2" data-name="shadow" class="cls-9" cx="223.23" cy="595.72" rx="91.31" ry="6.81"/><ellipse id="shadow-3" data-name="shadow" class="cls-10" cx="223.23" cy="595.72" rx="44.25" ry="2.9"/></g><path class="cls-5" d="M637.29,590.32c-1.85-.82-1.92-4.76-.14-8.81s4.71-6.67,6.57-5.85,1.92,4.75.15,8.8S639.15,591.13,637.29,590.32Z"/><path class="cls-4" d="M637.07,590.82c-2.16-1-2.35-5.13-.43-9.53s5.13-7.09,7.3-6.14,2.36,5.14.43,9.53S639.24,591.77,637.07,590.82Zm.45-1c1.35.59,4.08-1.55,5.84-5.57s1.49-7.49.14-8.08-4.08,1.55-5.85,5.58S636.17,589.22,637.52,589.81Z"/><path class="cls-6" d="M548.34,544.05c.06-.14.13-.27.19-.4l.17-.42a36.16,36.16,0,0,1,67.7,4.29c1,3.44.42,10,4.76,11.88l19.2,8.41a4.54,4.54,0,0,1,2.56,3.86c.37,3.31-1,6-1.73,7.53s-1.2,2.76-1.5,3.43l-.35.81-1.86,4.25a12.55,12.55,0,0,1-4.17,5.91,4.08,4.08,0,0,1-4.37.28l-19.21-8.42c-4.34-1.9-9,3.4-12.15,5a35.95,35.95,0,0,1-49.24-46.42Z"/><path class="cls-2" d="M638.36,582.08a4.52,4.52,0,0,0-2.56-3.86l-19.2-8.42c-4.34-1.9-3.77-8.43-4.76-11.87a36.17,36.17,0,0,0-65.33-8.79,36.5,36.5,0,0,1,1.7-4.79l.19-.4c.06-.14.11-.28.17-.41a36.16,36.16,0,0,1,67.7,4.29c1,3.44.41,10,4.75,11.87l19.21,8.42a4.51,4.51,0,0,1,2.55,3.86c.37,3.31-1,5.94-1.72,7.53s-1.21,2.75-1.5,3.42l-.36.82c-.36.83-1,2.27-1.78,4.06A11.68,11.68,0,0,0,638.36,582.08Z"/><path class="cls-7" d="M612.65,586.74l11.42-26.07,16.29,7.14a4.54,4.54,0,0,1,2.56,3.86c.37,3.31-1,6-1.73,7.53s-1.2,2.76-1.5,3.43l-.35.81-1.86,4.25a12.55,12.55,0,0,1-4.17,5.91,4.08,4.08,0,0,1-4.37.28Z"/><path class="cls-2" d="M630.78,563.61l9.58,4.2a4.54,4.54,0,0,1,2.56,3.86c.37,3.31-1,6-1.73,7.53s-1.2,2.76-1.5,3.43l-.35.81-1.86,4.25a12.55,12.55,0,0,1-4.17,5.91,4.21,4.21,0,0,1-.95.51A42.81,42.81,0,0,0,630.78,563.61Z"/><path class="cls-4" d="M576.68,587.18a1,1,0,0,0,0-.12.55.55,0,0,0-.44-.64,28.88,28.88,0,0,1-6.32-1.95,29.3,29.3,0,0,1-4.84-2.69.54.54,0,0,0-.76.14.55.55,0,0,0,.14.77,30.33,30.33,0,0,0,5,2.79,29.44,29.44,0,0,0,6.56,2A.56.56,0,0,0,576.68,587.18Z"/><path class="cls-4" d="M560.67,578.47a.56.56,0,0,0-.11-.6,28.8,28.8,0,0,1-5.45-31.39.55.55,0,1,0-1-.44,29.91,29.91,0,0,0,5.66,32.59.55.55,0,0,0,.78,0A.46.46,0,0,0,560.67,578.47Z"/><path class="cls-8" d="M548.29,572.7a35.71,35.71,0,0,1-1.65-23.86,36.18,36.18,0,0,1,64.68,6.77,42.88,42.88,0,0,0-63,17.09Z"/><path class="cls-4" d="M566.48,592.39a37.12,37.12,0,0,0,31.59-.94,22.71,22.71,0,0,0,3.09-2c2.61-1.9,5.57-4.06,8.13-2.94l19.21,8.42a5.14,5.14,0,0,0,5.46-.4,12.7,12.7,0,0,0,4.32-5.87c.07-.17.14-.34.21-.49l3.72-8.48c.06-.16.14-.32.21-.49s.2-.43.3-.67a13.19,13.19,0,0,0,1.29-6.94,5.56,5.56,0,0,0-3.21-4.75l-19.2-8.41c-2.63-1.16-3.11-4.68-3.53-7.79a25.42,25.42,0,0,0-.61-3.38,37.26,37.26,0,0,0-69.77-4.43l-.11.26-.06.16-.07.14-.12.26A37.1,37.1,0,0,0,566.48,592.39Zm57.65-30.49,3.25,1.43L615,582.7Zm-25.78-5a4.89,4.89,0,0,1-2.68-2.42,3.09,3.09,0,0,1,0-2.44,2.17,2.17,0,0,1,3.11-1.06c2.27,1,2.44,4,2,7Zm17.45,21.24-17.66-7.74a34.82,34.82,0,0,0,2.61-4.76,32.83,32.83,0,0,0,1.57-4.59l17.59,7.71Zm12.61-14.39,3.05,1.33-14.3,22.4-3-1.34Zm4.07,1.78,3,1.34-14.3,22.39L618.18,588Zm4.07,1.79,3.05,1.33-14.29,22.4-3-1.34Zm2.57,4.14L629.69,593l-.31-.13-3-1.34Zm-8.34,21.78,10.3-23.5a4,4,0,0,1,.74,2,12,12,0,0,1-1.41,6.45c-.08.18-.15.35-.23.51l-3.71,8.48c-.08.17-.15.34-.22.52a10.76,10.76,0,0,1-3.59,5A2.69,2.69,0,0,1,630.78,593.27Zm-63.41-2.9a34.89,34.89,0,0,1-18-45.88l.09-.18.1-.21a1.44,1.44,0,0,0,.09-.24l.08-.18a35.05,35.05,0,0,1,65.63,4.15,22.22,22.22,0,0,1,.54,3.06c.48,3.51,1.07,7.87,4.84,9.52l2.4,1.05-2.32,5.31-18-7.88c.7-3.88.52-8.29-3.16-9.9a4.38,4.38,0,0,0-6,2.2,5.29,5.29,0,0,0,0,4.2,7,7,0,0,0,3.81,3.56l2.8,1.23a34.08,34.08,0,0,1-1.53,4.61,32.77,32.77,0,0,1-2.63,4.75l-2.75-1.2a7,7,0,0,0-5.18-.42,5.14,5.14,0,0,0-3.1,2.77,4.35,4.35,0,0,0,2.48,5.86c3.57,1.56,6.88-1.16,9.29-4.28l18.07,7.92-2.32,5.31-2.41-1c-3.73-1.63-7.38,1-10.32,3.18a21.12,21.12,0,0,1-2.78,1.85A34.87,34.87,0,0,1,567.37,590.37Zm21.07-15.84a2.15,2.15,0,0,1-1.35-2.95,2.93,2.93,0,0,1,1.78-1.57,5,5,0,0,1,3.6.35l2.3,1C592.86,573.72,590.57,575.46,588.44,574.53Z"/><g id="shadow-4" data-name="shadow"><ellipse id="shadow-5" data-name="shadow" class="cls-9" cx="594.97" cy="595.72" rx="91.31" ry="6.81"/><ellipse id="shadow-6" data-name="shadow" class="cls-10" cx="594.97" cy="595.72" rx="44.25" ry="2.9"/></g><g id="shadow-7" data-name="shadow"><ellipse id="shadow-8" data-name="shadow" class="cls-9" cx="711.46" cy="636.26" rx="111.3" ry="6.81"/><ellipse id="shadow-9" data-name="shadow" class="cls-10" cx="711.46" cy="636.26" rx="53.94" ry="2.9"/></g><path class="cls-5" d="M661.14,630.11c2.21-1,2.29-5.65.18-10.47s-5.6-7.93-7.81-7-2.28,5.65-.18,10.46S658.94,631.07,661.14,630.11Z"/><path class="cls-4" d="M652.73,623.4c-2.28-5.22-2.06-10.19.52-11.32s6.38,2.08,8.67,7.3,2.06,10.2-.51,11.33S655,628.63,652.73,623.4Zm8-3.49c-2.09-4.79-5.34-7.33-7-6.63s-1.93,4.82.16,9.6,5.34,7.33,7,6.63S662.81,624.69,660.72,619.91Z"/><path class="cls-6" d="M766.88,575.14c-.07-.16-.15-.31-.22-.48l-.2-.48A43,43,0,0,0,686,579.25c-1.18,4.09-.5,11.85-5.66,14.11l-22.82,10a5.36,5.36,0,0,0-3,4.58c-.44,3.94,1.21,7.07,2,8.95s1.44,3.28,1.78,4.08l.43,1,2.21,5c.82,1.88,1.76,4.68,5,7a4.84,4.84,0,0,0,5.19.33l22.83-10c5.16-2.26,10.64,4,14.45,6a42.72,42.72,0,0,0,58.53-55.16Z"/><path class="cls-2" d="M659.88,620.31a5.36,5.36,0,0,1,3-4.58l22.83-10c5.16-2.26,4.48-10,5.66-14.11a43,43,0,0,1,77.65-10.42,42.57,42.57,0,0,0-2-5.7c-.07-.16-.15-.31-.22-.47s-.13-.33-.2-.49a43,43,0,0,0-80.47,5.07c-1.18,4.09-.5,11.85-5.66,14.11l-22.83,10a5.41,5.41,0,0,0-3,4.59c-.44,3.93,1.22,7.06,2,8.94l1.78,4.08.43,1,2.11,4.83A14,14,0,0,1,659.88,620.31Z"/><path class="cls-7" d="M690.44,625.86l-13.57-31-19.36,8.48a5.36,5.36,0,0,0-3,4.58c-.44,3.94,1.21,7.07,2,8.95s1.44,3.28,1.78,4.08l.43,1,2.21,5c.82,1.88,1.76,4.68,5,7a4.84,4.84,0,0,0,5.19.33Z"/><path class="cls-2" d="M668.89,598.37l-11.38,5a5.36,5.36,0,0,0-3,4.58c-.44,3.94,1.21,7.07,2,8.95s1.44,3.28,1.78,4.08l.43,1,2.21,5c.82,1.88,1.76,4.68,5,7a5.19,5.19,0,0,0,1.12.61A50.93,50.93,0,0,1,668.89,598.37Z"/><path class="cls-4" d="M733.19,626.4s0-.09,0-.14a.65.65,0,0,1,.53-.76,34.7,34.7,0,0,0,7.51-2.32,34.32,34.32,0,0,0,5.75-3.2.66.66,0,0,1,.91.17.65.65,0,0,1-.17.91,35,35,0,0,1-6,3.32,36.09,36.09,0,0,1-7.8,2.41A.67.67,0,0,1,733.19,626.4Z"/><path class="cls-4" d="M752.23,616.06a.64.64,0,0,1,.12-.72A34.23,34.23,0,0,0,758.84,578a.64.64,0,0,1,.34-.86.65.65,0,0,1,.86.33,35.54,35.54,0,0,1-6.74,38.74.64.64,0,0,1-.92,0A.58.58,0,0,1,752.23,616.06Z"/><path class="cls-8" d="M766.94,609.19a42.49,42.49,0,0,0,2-28.36,43,43,0,0,0-76.89,8,51,51,0,0,1,74.92,20.32Z"/><path class="cls-4" d="M665.1,635.06a6.13,6.13,0,0,0,6.5.48l22.83-10c3-1.33,6.56,1.24,9.66,3.5a28.57,28.57,0,0,0,3.67,2.43,44,44,0,0,0,60.32-56.85,2.92,2.92,0,0,0-.14-.31l-.07-.16-.08-.19c0-.1-.08-.21-.13-.31a44.29,44.29,0,0,0-82.93,5.24,30.53,30.53,0,0,0-.72,4c-.51,3.7-1.08,7.89-4.2,9.26l-22.83,10a6.6,6.6,0,0,0-3.82,5.64,15.7,15.7,0,0,0,1.54,8.25l.35.79.26.58,4.42,10.08.25.59A15,15,0,0,0,665.1,635.06Zm5.08-1.77L659,607.73l15.19,23.82-3.62,1.59Zm37.51-26.8-21,9.19-4.89-11.15,20.92-9.16a41.19,41.19,0,0,0,1.85,5.45A42.65,42.65,0,0,0,707.69,606.49Zm6.74-.09a6,6,0,0,1,4.27-.42,3.53,3.53,0,0,1,2.12,1.87,2.56,2.56,0,0,1-1.6,3.51c-2.54,1.11-5.25-1-7.52-3.77Zm-26.81,14.66-14.69-23,3.86-1.69Zm1.08,4.13-3.63,1.59-17-26.63,3.63-1.59Zm-4.84,2.12-3.63,1.59-17-26.63,3.63-1.59Zm2.75-44.06a27.9,27.9,0,0,1,.64-3.64,41.67,41.67,0,0,1,78-4.91l.09.22c0,.09.07.17.11.28l.12.25a2.14,2.14,0,0,1,.1.22,41.4,41.4,0,0,1-56.74,53.45,25.61,25.61,0,0,1-3.31-2.19c-3.48-2.55-7.83-5.73-12.25-3.79l-2.87,1.25-2.76-6.31,21.49-9.41c2.86,3.71,6.79,7,11,5.09a5.17,5.17,0,0,0,3-7,6.12,6.12,0,0,0-3.68-3.3,8.34,8.34,0,0,0-6.16.5l-3.27,1.43a39,39,0,0,1-3.13-5.66,41.48,41.48,0,0,1-1.8-5.47l3.31-1.46a8.29,8.29,0,0,0,4.54-4.23,6.28,6.28,0,0,0,0-5,5.22,5.22,0,0,0-7.15-2.63c-4.38,1.92-4.59,7.16-3.77,11.77l-21.39,9.37L678,595.81l2.86-1.25C685.33,592.6,686,587.42,686.61,583.25Zm18,8.42c-.57-3.51-.36-7.09,2.34-8.28a2.59,2.59,0,0,1,3.7,1.28,3.68,3.68,0,0,1,0,2.89,5.83,5.83,0,0,1-3.19,2.88ZM662,602.8l17,26.63L675.39,631l-17-26.63Zm.36,24.26c-.09-.21-.18-.41-.26-.61l-4.42-10.08c-.08-.19-.17-.4-.27-.61a14.14,14.14,0,0,1-1.67-7.67,4.74,4.74,0,0,1,.89-2.4l12.23,27.93a3.14,3.14,0,0,1-2.23-.67A12.66,12.66,0,0,1,662.39,627.06Z"/><g id="shadow-10" data-name="shadow"><ellipse id="shadow-11" data-name="shadow" class="cls-9" cx="399.1" cy="636.26" rx="111.3" ry="6.81"/><ellipse id="shadow-12" data-name="shadow" class="cls-10" cx="399.1" cy="636.26" rx="53.94" ry="2.9"/></g><path class="cls-5" d="M449.42,630.11c-2.21-1-2.29-5.65-.18-10.47s5.6-7.93,7.81-7,2.28,5.65.18,10.46S451.62,631.07,449.42,630.11Z"/><path class="cls-4" d="M449.15,630.71c-2.57-1.13-2.8-6.11-.51-11.33s6.1-8.43,8.67-7.3,2.8,6.1.52,11.32S451.73,631.83,449.15,630.71Zm.53-1.2c1.61.7,4.85-1.85,6.95-6.63s1.76-8.9.16-9.6-4.86,1.84-7,6.63S448.08,628.8,449.68,629.51Z"/><path class="cls-6" d="M343.68,575.14c.07-.16.15-.31.22-.48l.2-.48a43,43,0,0,1,80.47,5.07c1.18,4.09.5,11.85,5.66,14.11l22.82,10a5.36,5.36,0,0,1,3,4.58c.44,3.94-1.21,7.07-2,8.95s-1.44,3.28-1.78,4.08l-.43,1-2.21,5c-.82,1.88-1.76,4.68-4.95,7a4.84,4.84,0,0,1-5.19.33l-22.83-10c-5.16-2.26-10.64,4-14.45,6a42.72,42.72,0,0,1-58.53-55.16Z"/><path class="cls-2" d="M450.68,620.31a5.36,5.36,0,0,0-3-4.58l-22.83-10c-5.16-2.26-4.48-10-5.66-14.11A43,43,0,0,0,341.5,581.2a42.57,42.57,0,0,1,2-5.7c.07-.16.15-.31.22-.47s.13-.33.2-.49a43,43,0,0,1,80.47,5.07c1.18,4.09.5,11.85,5.66,14.11l22.83,10a5.41,5.41,0,0,1,3,4.59c.43,3.93-1.22,7.06-2.05,8.94l-1.78,4.08-.43,1-2.11,4.83A14,14,0,0,0,450.68,620.31Z"/><path class="cls-7" d="M420.12,625.86l13.57-31,19.36,8.48a5.36,5.36,0,0,1,3,4.58c.44,3.94-1.21,7.07-2,8.95s-1.44,3.28-1.78,4.08l-.43,1-2.21,5c-.82,1.88-1.76,4.68-4.95,7a4.84,4.84,0,0,1-5.19.33Z"/><path class="cls-2" d="M441.67,598.37l11.38,5a5.36,5.36,0,0,1,3,4.58c.44,3.94-1.21,7.07-2,8.95s-1.44,3.28-1.78,4.08l-.43,1-2.21,5c-.82,1.88-1.76,4.68-4.95,7a5.19,5.19,0,0,1-1.12.61A50.93,50.93,0,0,0,441.67,598.37Z"/><path class="cls-4" d="M377.36,626.4a.58.58,0,0,0,.05-.14.65.65,0,0,0-.53-.76,34.7,34.7,0,0,1-7.51-2.32,34.32,34.32,0,0,1-5.75-3.2.66.66,0,0,0-.91.17.65.65,0,0,0,.17.91,35,35,0,0,0,6,3.32,36.09,36.09,0,0,0,7.8,2.41A.65.65,0,0,0,377.36,626.4Z"/><path class="cls-4" d="M358.33,616.06a.64.64,0,0,0-.12-.72A34.23,34.23,0,0,1,351.72,578a.64.64,0,0,0-.34-.86.65.65,0,0,0-.86.33,35.54,35.54,0,0,0,6.74,38.74.64.64,0,0,0,.92,0A.58.58,0,0,0,358.33,616.06Z"/><path class="cls-8" d="M343.62,609.19a42.49,42.49,0,0,1-2-28.36,43,43,0,0,1,76.89,8,51,51,0,0,0-74.92,20.32Z"/><path class="cls-4" d="M450.58,628.09l.25-.59,4.42-10.08.26-.58.35-.79a15.7,15.7,0,0,0,1.54-8.25,6.6,6.6,0,0,0-3.82-5.64l-22.83-10c-3.12-1.37-3.69-5.56-4.2-9.26a30.53,30.53,0,0,0-.72-4,44.29,44.29,0,0,0-82.93-5.24c0,.1-.09.21-.13.31l-.08.19-.07.16a2.92,2.92,0,0,0-.14.31,44,44,0,0,0,60.32,56.85,28.57,28.57,0,0,0,3.67-2.43c3.1-2.26,6.62-4.83,9.66-3.5l22.83,10a6.13,6.13,0,0,0,6.5-.48A15,15,0,0,0,450.58,628.09Zm-10.57,5-3.62-1.59,15.19-23.82-11.2,25.56Zm-34-32.32a41.19,41.19,0,0,0,1.85-5.45l20.92,9.16-4.89,11.15-21-9.19A42.65,42.65,0,0,0,406,600.82Zm-7.12,6.77c-2.27,2.81-5,4.88-7.52,3.77a2.56,2.56,0,0,1-1.6-3.51,3.53,3.53,0,0,1,2.12-1.87,6,6,0,0,1,4.27.42Zm34.91-11.25,3.86,1.69-14.69,23Zm5.07,2.22,3.63,1.59-17,26.63-3.63-1.59Zm4.84,2.12,3.63,1.59-17,26.63-3.63-1.59Zm-14-6.12,2.86,1.25-2.76,6.32-21.39-9.37c.82-4.61.61-9.85-3.77-11.77a5.22,5.22,0,0,0-7.15,2.63,6.28,6.28,0,0,0,0,5,8.29,8.29,0,0,0,4.54,4.23l3.31,1.46a41.48,41.48,0,0,1-1.8,5.47,39,39,0,0,1-3.13,5.66L397.18,604a8.34,8.34,0,0,0-6.16-.5,6.12,6.12,0,0,0-3.68,3.3,5.17,5.17,0,0,0,3,7c4.24,1.86,8.17-1.38,11-5.09l21.49,9.41-2.76,6.31-2.87-1.25c-4.42-1.94-8.76,1.24-12.25,3.79a25.61,25.61,0,0,1-3.31,2.19,41.4,41.4,0,0,1-56.74-53.45,2.14,2.14,0,0,1,.1-.22l.12-.25c0-.11.08-.19.11-.28l.09-.22a41.67,41.67,0,0,1,78,4.91,27.9,27.9,0,0,1,.64,3.64C424.52,587.42,425.23,592.6,429.7,594.56Zm-26.58-4.12a5.83,5.83,0,0,1-3.19-2.88,3.68,3.68,0,0,1,0-2.89,2.59,2.59,0,0,1,3.7-1.28c2.7,1.19,2.91,4.77,2.34,8.28Zm49,13.95-17,26.63-3.63-1.59,17-26.63ZM443.9,633a3.14,3.14,0,0,1-2.23.67l12.23-27.93a4.74,4.74,0,0,1,.89,2.4,14.14,14.14,0,0,1-1.67,7.67c-.1.21-.19.42-.27.61l-4.42,10.08c-.08.2-.17.4-.26.61A12.66,12.66,0,0,1,443.9,633Z"/><g id="light"><path class="cls-4" d="M586.31,420.17a1,1,0,0,1-.5-.13L548,398.21a1,1,0,0,1-.37-1.36,1,1,0,0,1,1.37-.37l37.8,21.83a1,1,0,0,1-.5,1.86Z"/><path class="cls-4" d="M548.51,316.87A1,1,0,0,1,548,315l37.8-21.82a1,1,0,0,1,1,1.73L549,316.74A1,1,0,0,1,548.51,316.87Z"/><path class="cls-4" d="M369.58,420.17a1,1,0,0,1-.5-1.86l39.06-22.56a1,1,0,1,1,1,1.74L370.08,420A1,1,0,0,1,369.58,420.17Z"/><path class="cls-4" d="M401.56,489.91a1,1,0,0,1-.87-1.5l6.55-11.34a1,1,0,0,1,1.73,1l-6.54,11.34A1,1,0,0,1,401.56,489.91Z"/><path class="cls-4" d="M415.38,466a1,1,0,0,1-.5-.13,1,1,0,0,1-.36-1.37l22.55-39.06a1,1,0,1,1,1.73,1l-22.55,39.06A1,1,0,0,1,415.38,466Z"/><path class="cls-4" d="M603.07,356.15H559.42a1,1,0,0,1,0-2h43.65a1,1,0,0,1,0,2Z"/><path class="cls-4" d="M338.27,356.15H331a1,1,0,0,1,0-2h7.28a1,1,0,0,1,0,2Z"/><path class="cls-4" d="M624.9,356.15h-7.28a1,1,0,0,1,0-2h7.28a1,1,0,0,1,0,2Z"/><path class="cls-4" d="M397.92,356.15h-45.1a1,1,0,0,1,0-2h45.1a1,1,0,0,1,0,2Z"/><path class="cls-4" d="M477.94,482.74a1,1,0,0,1-1-1V436.63a1,1,0,0,1,2,0v45.11A1,1,0,0,1,477.94,482.74Z"/><path class="cls-3" d="M540.51,467a2,2,0,0,1-1.73-1L517,428.17a2,2,0,0,1,3.47-2L542.24,464a2,2,0,0,1-.73,2.73A1.93,1.93,0,0,1,540.51,467Z"/><path class="cls-3" d="M554.33,490.91a2,2,0,0,1-1.73-1l-6.55-11.34a2,2,0,0,1,3.47-2l6.54,11.34a2,2,0,0,1-.73,2.73A1.93,1.93,0,0,1,554.33,490.91Z"/><path class="cls-3" d="M353.19,290.46a7.7,7.7,0,1,1,7.69-7.69A7.7,7.7,0,0,1,353.19,290.46Zm0-11.39a3.7,3.7,0,1,0,3.69,3.7A3.7,3.7,0,0,0,353.19,279.07Z"/><path class="cls-3" d="M408.64,318.6a2,2,0,0,1-1-.27l-39.06-22.55a2,2,0,0,1,2-3.47l39.06,22.56a2,2,0,0,1,.74,2.73A2,2,0,0,1,408.64,318.6Z"/></g><g id="line"><path class="cls-4" d="M704.71,61.65H164.59a3,3,0,0,1,0-6H704.71a3,3,0,0,1,0,6Z"/><path class="cls-4" d="M869,61.65H733a3,3,0,0,1,0-6H869a3,3,0,0,1,0,6Z"/><path class="cls-4" d="M141.93,61.65H92.83a3,3,0,0,1,0-6h49.1a3,3,0,0,1,0,6Z"/><path class="cls-4" d="M895.45,61.65H880.34a3,3,0,0,1,0-6h15.11a3,3,0,0,1,0,6Z"/><path class="cls-4" d="M70.17,61.65H57a3,3,0,0,1,0-6H70.17a3,3,0,0,1,0,6Z"/></g><path class="cls-3" d="M458.85,421.15l.81,0,.81,0a65.57,65.57,0,0,0,42.16-115.57c-5-4.15-16.26-7.95-16.26-16.54V251c0-2-.95-5-4.55-7-5.23-3-10.62-2.62-13.76-2.62h-16.8c-3.14,0-7.62-.4-12.85,2.62a7.38,7.38,0,0,0-3.65,7v38c0,8.59-12.17,12.39-17.16,16.54a65.18,65.18,0,0,0,41.25,115.57Z"/><rect class="cls-4" x="474.04" y="58.65" width="6" height="167.33" transform="matrix(1, 0, 0, 1, -0.28, 0.95)"/><ellipse class="cls-11" cx="477.79" cy="232.64" rx="14.51" ry="6.65"/><path class="cls-4" d="M477.79,241.29c-9.42,0-16.52-3.72-16.52-8.65s7.1-8.65,16.52-8.65,16.51,3.72,16.51,8.65S487.2,241.29,477.79,241.29Zm0-13.3c-7.64,0-12.52,2.75-12.52,4.65s4.88,4.65,12.52,4.65,12.51-2.75,12.51-4.65S485.42,228,477.79,228Z"/><path class="cls-3" d="M475.7,421.15l.81,0,.81,0a65.57,65.57,0,0,0,42.16-115.57c-5-4.15-16.26-7.95-16.26-16.54V251c0-2-1-5-4.55-7-5.23-3-10.62-2.62-13.76-2.62h-16.8c-3.14,0-7.62-.4-12.85,2.62a7.37,7.37,0,0,0-3.64,7v38c0,8.59-12.17,12.39-17.17,16.54A65.18,65.18,0,0,0,475.7,421.15Z"/><path class="cls-2" d="M479.78,244c3.6,2.08,4.55,5,4.55,7v38c0,8.59,11.26,12.39,16.26,16.54a65.59,65.59,0,0,1-33,114.91,64.87,64.87,0,0,0,9.19.66l.81,0,.81,0a65.57,65.57,0,0,0,42.16-115.57c-5-4.15-16.26-7.95-16.26-16.54V251c0-2-.95-5-4.55-7-5.23-3-10.62-2.62-13.76-2.62H469.57A21.12,21.12,0,0,1,479.78,244Z"/><path class="cls-2" d="M466,241.34l1.63,0c-.56,0-1.15,0-1.77,0Z"/><path class="cls-12" d="M448.79,283.81h59.4V247.12c0-2.29-1.09-5.66-5.24-8-6-3.44-12.22-3-15.83-3H467.78c-3.61,0-8.77-.45-14.79,3-4.15,2.36-4.2,6.19-4.2,8Z"/><path class="cls-11" d="M508.19,265.33v-19c0-2-1.09-5-5.24-7.06-6-3-12.24-2.62-15.86-2.62H467.73c-3.62,0-8.78-.4-14.81,2.62a8.75,8.75,0,0,0-1.78,1.2C473.65,242.46,493.71,251.64,508.19,265.33Z"/><path class="cls-4" d="M478.48,423.15h-1.61a67.18,67.18,0,0,1-42.54-119.1,43.13,43.13,0,0,1,5.64-3.66c5.07-2.94,10.81-6.28,10.81-11.35v-7.23h55.6V289c0,5.2,5.51,8.57,10.37,11.54a44.57,44.57,0,0,1,5.17,3.47,67.57,67.57,0,0,1-43.44,119.1Zm-.83-4h.83a63.57,63.57,0,0,0,40.88-112,42.44,42.44,0,0,0-4.7-3.13c-5.47-3.34-12.28-7.5-12.28-14.95v-3.23h-47.6V289c0,7.37-7.1,11.5-12.8,14.81a40.91,40.91,0,0,0-5.09,3.27,63.18,63.18,0,0,0,40,112h.78Z"/><path class="cls-4" d="M510.19,285.81h-63.4v-40a9.34,9.34,0,0,1,4.65-8.79c5.18-3,9.64-2.94,12.89-2.9h26.52c3.43,0,8.61-.1,13.79,2.9,5,2.9,5.55,7.11,5.55,8.79Zm-59.4-4h55.4v-36c0-1-.34-3.47-3.55-5.33-4.24-2.44-8.57-2.39-11.74-2.36H464.28c-2.95,0-6.61-.08-10.84,2.36-2.44,1.42-2.65,3.49-2.65,5.33Z"/><path class="cls-4" d="M433.68,366.54a2,2,0,0,1-2-1.62,48.28,48.28,0,0,1,.37-19.9,2,2,0,0,1,3.9.91,44.1,44.1,0,0,0-.34,18.23,2,2,0,0,1-1.58,2.34A1.72,1.72,0,0,1,433.68,366.54Z"/><path class="cls-4" d="M478.36,403.35a47.45,47.45,0,0,1-43.76-29,2,2,0,0,1,3.69-1.56,43.45,43.45,0,0,0,40.07,26.54,2,2,0,0,1,0,4Z"/><path class="cls-4" d="M497,341.3a9.59,9.59,0,0,1-6.95-3.11,12.67,12.67,0,0,1-3.14-8.93v-5.53a64.89,64.89,0,0,0-8.77-.83,60.83,60.83,0,0,0-9.81.91v5.45a12.81,12.81,0,0,1-3.08,8.92,9.37,9.37,0,0,1-6.86,3.12c-3.94,0-7.92-2.88-7.92-8.39,0-7.07,6.93-10.57,13.86-12.3v-36.8h4v36a65.46,65.46,0,0,1,9.82-.88,62.32,62.32,0,0,1,8.76.75V283.81h4v36.63c6.95,1.68,14.13,5.17,14.13,12.47A8,8,0,0,1,497,341.3Zm-6.09-16.73v4.69a8.92,8.92,0,0,0,2.07,6.21,5.57,5.57,0,0,0,4,1.83c1.87,0,4-1.15,4-4.39C501.07,328.41,496.19,325.93,490.94,324.57Zm-26.58.13c-5.31,1.46-9.86,4-9.86,8.21,0,3.24,2.11,4.39,3.92,4.39a5.36,5.36,0,0,0,3.91-1.82,9.06,9.06,0,0,0,2-6.22Z"/><rect class="cls-4" x="466.43" y="282.81" width="41.77" height="2"/><rect class="cls-4" x="465.25" y="276.74" width="42.98" height="2" transform="translate(-51.7 122.36) rotate(-13.61)"/><rect class="cls-4" x="465.25" y="266.63" width="42.98" height="2" transform="translate(-49.31 122.07) rotate(-13.61)"/><rect class="cls-4" x="465.25" y="256.52" width="42.98" height="2" transform="translate(-46.93 121.78) rotate(-13.61)"/><rect class="cls-4" x="465.25" y="246.41" width="42.98" height="2" transform="translate(-44.55 121.5) rotate(-13.61)"/></g></svg>