<svg xmlns="http://www.w3.org/2000/svg" viewBox="0 0 115 115"><defs><style>.cls-1{fill:#0088b7;}</style></defs><g id="Ebene_2" data-name="Ebene 2"><g id="Design"><path class="cls-1" d="M98.16,16.84A57.5,57.5,0,0,0,16.84,98.16,57.12,57.12,0,0,0,57.5,115c11.91,0,25.58-4.15,33.4-11.23a62.06,62.06,0,0,1-33.4,8.82A55.39,55.39,0,0,1,19.89,97.71h0l-.11-.11-.27-.25h0L19.16,97v0c-.26-.25-.52-.51-.77-.77l-.11-.1h0a55.07,55.07,0,1,1,94.3-38.64c0,11.09-4.91,25.48-12.11,31.45-12.74,11.1-42.48,5.41-36.92-22,.74-3.55,5.64-5.58,7.86-6,1.46-.25,3-.74,5,.91a20.89,20.89,0,0,1,2.84,2.8c1.49,2,2.08,5.62,3.66,7.53,1.94,2.35,6,10.25,6.28,13.46,0,.4,0,1,.62.81a.8.8,0,0,0,.58-1c-.33-1.43-2.84-8.38-3.4-9.73a22,22,0,0,0-1.81-3c1.65.38,3.41.71,5.12,1.2a11.08,11.08,0,0,1,2.51,1.19c.42.25.8.58,1.1,0a1.12,1.12,0,0,0-.25-1,7.48,7.48,0,0,0-4-1.75c-3.16-.66-5.29-3.06-7.34-6-.82-1.17-1.68-2.31-2.61-3.58a42.43,42.43,0,0,0,6,2.26,52.73,52.73,0,0,1,5.87,2c1.61.57,3.3.91,5,1.37a.9.9,0,0,1,.54.3,5.56,5.56,0,0,0,3.63,2.2c1.58.38,3.16.79,4.76,1.14.36.08,1,.05,1.11-.15.3-.54-.14-.88-.65-1-1.37-.34-2.75-.63-4.13-1a5.38,5.38,0,0,1-3.35-1.68c1-.34,2-.68,2.9-1,1.73-.58,3.72-1.39,5.24-.1a.83.83,0,0,0,1.08.07c.36-.49-.34-1-.52-1.13a2.56,2.56,0,0,0-1.09-.55,7,7,0,0,0-4.71.45c-2.17.85-4.34,1.4-6.64.67-1.56-.49-3.09-1.08-4.63-1.62,1.22-.8,2.31-1.49,3.37-2.23a1.78,1.78,0,0,1,1.53-.36A19.82,19.82,0,0,0,99,63a13.69,13.69,0,0,0,3.14-.64.71.71,0,0,0,.57-.72c-.22-.83-.46-.51-.84-.48a4.09,4.09,0,0,0-.54.12,11.44,11.44,0,0,1-6,.07,5.86,5.86,0,0,1,2.13-1.1c1.76-.27,3.56-.37,5.35-.5.82-.06,1.65.06,2.47,0,.25,0,.76-.3.68-.69s-.47-.54-.7-.53c-1.72,0-3.43.07-5.14.14-.86,0-1.72.17-2.59.22.93-.61,7.39-5.61,8.27-6.27.25-.19.53-.77.42-1a.81.81,0,0,0-1-.08c-.68.32-6.83,5.18-7.4,5.66-1.72,1.46-3.36,3-5.07,4.47-2,1.7-4.25,2.74-6.89,1.76a32.52,32.52,0,0,1-3.92-2c-1.53-.83-3-1.68-4.63-2.57a14.78,14.78,0,0,1,6-2.16c.7-.06,1.77,0,2.09.47a4.92,4.92,0,0,0,3.87,2.06,13.1,13.1,0,0,0,3.6-.51c.25-.06.94-.66.56-1-.2-.35-.52-.39-1-.15a3,3,0,0,1-.45.14c-1.78.54-4.25.33-5.28-1.23a7,7,0,0,0-1.38-1.2c1.75-.84,12.71-4.62,14.61-5.52.44-.21,1-.41.67-1s-.72-.38-1.12-.18C95.94,50.31,83,54.57,79,55.75c-2.36.7-4.42,2.15-7,2.42s-4.39-.4-5.75-2.4a5.51,5.51,0,0,1-.91-5.21,42.69,42.69,0,0,1,3.09-5.72A3.87,3.87,0,0,1,71.1,43a39.54,39.54,0,0,0,4-.84,7,7,0,0,1,3.71-.33c1.28.29,9.58,1.43,10.88,1.45h0c.78-1.22-6.88-2.33-7.48-2.38-1.28-.09-2.54-.24-4.11-.4,1.07-1.06,1.94-1.88,2.76-2.74,1.79-1.88,3.79-2.71,6.36-1.61,2.16.93,9.88,3.64,12,3.07a.59.59,0,0,0,.44-.7.58.58,0,0,0-.66-.44c-.71.12-5.15-1.34-5.86-1.41a25.3,25.3,0,0,1-8-2.49c1.77-.47,3.25-1,4.79-1.26,1.93-.32,3.89-.4,5.84-.61a2.24,2.24,0,0,1,1.65.43A10.77,10.77,0,0,0,99.75,34c.27.1,1,0,1.09-.39s-.17-.64-.79-.86-1.24-.57-1.9-.86a19.68,19.68,0,0,0,1.8-1.4c.17-.16.39-.63.15-.87-.25-.48-.77-.16-.94,0-1.83,1.64-4.11,1.75-6.34,1.74a18.2,18.2,0,0,0-7.72,1.63c-1.24.56-2.39,1.33-3.5,2,.31-2.33.61-4.7.94-7.06a6.42,6.42,0,0,1,3.18-5.1,14.07,14.07,0,0,0,1.64-1,23.37,23.37,0,0,0,2.53-2.13c.19-.19.39-.85,0-1.11s-.83.1-1,.33c-1.32,1.79-3.4,2.4-5.2,3.6a7.42,7.42,0,0,1,1.05-4.78c.81-1.46,1-1.65,1.86-3.06.28-.45.46-.89-.07-1.23s-.79.15-1,.52A15.72,15.72,0,0,0,84,16.39a12.47,12.47,0,0,0-1.57,4.68,21.22,21.22,0,0,1-.82,5.1,69.83,69.83,0,0,0-1.19,7.37,9.26,9.26,0,0,1-6.8,7.27c-1.09.26-2.35.52-3.26-.59a3.37,3.37,0,0,1,.44-4l3-2.59c1.27,1.22,3.31,1.07,4.84.19a.65.65,0,0,0,.33-.66c0-.35-.27-.7-.82-.46a3.55,3.55,0,0,1-.61.23c-.85.17-1.72.65-2.74-.25.85-.37,1.56-.67,2.26-1a9,9,0,0,0,1.64-.9.76.76,0,0,0,.13-1,.91.91,0,0,0-.89,0c-.67.26-1.41.69-2.07,1a13.79,13.79,0,0,0-3.24,2c-.45.35-.88.74-1.31,1.12A6.51,6.51,0,0,1,74,30.56c.25-.19.52-.71.42-.94-.2-.52-.7-.46-1.1-.15-.65.5-1.28,1-2,1.59.2-1.21.39-2.35.58-3.51,2,0,3.25-1.22,4.41-2.54a6.57,6.57,0,0,0,1.46-4.92c.58-.08,1.08-.14,1.58-.22a2.32,2.32,0,0,0,2-1.17,1,1,0,0,0-.16-1c-.2-.3-.68,0-.84.21-.56.86-1.51.78-2.43.77a5.36,5.36,0,0,1,1.22-3.2c.44-.66.95-1.27,1.33-2,.13-.24.27-.77-.1-1s-.69.11-.92.3a7.73,7.73,0,0,0-.83,1,7,7,0,0,0-1.87,3.73c-.38,1.54-.3,3.15-.57,4.71A5.07,5.07,0,0,1,72,26.13c.14-1.1.22-2.2.42-3.27.45-2.39.72-4.8,2.36-6.84a13.38,13.38,0,0,0,2.69-6.37c.15-.9-.14-1-.46-1-.48-.06-.63.38-.75.74s-.14.61-.22.91a11.32,11.32,0,0,1-2.18,4.54,13.84,13.84,0,0,1-.12-1.68,20.86,20.86,0,0,0-.29-2.74c0-.25-.3-.78-.76-.64a.69.69,0,0,0-.45.7c0,.6.09,1.2.11,1.8a20.18,20.18,0,0,1-.4,6.79,36.64,36.64,0,0,0-1,4.89c-.38,2.46-.58,4.95-1,7.41a22.47,22.47,0,0,1-1.13,3.39c-.51-1.16-.77-2.25-1.13-3.3-.09-.27-.55-.64-.76-.59-.48.1-.61.49-.4,1.06A13.08,13.08,0,0,1,67,33.75c.54,2.81.73,2.69-.87,3.72s-3.19.63-4.78.94c-.16,0-.53-.29-.58-.5-.29-1.28-.53-2.57-.73-3.87,0-.22.22-.5.39-.73a15.33,15.33,0,0,1,4.72-4.06,15.89,15.89,0,0,0,4.91-4.95c.3-.44.46-.86-.06-1.22s-.74.18-1,.5c-.12.15-.23.31-.34.46a13.8,13.8,0,0,1-4,3.85c.6-1.54.93-3.12,2.49-4.21A.81.81,0,0,0,67.4,23a.71.71,0,0,0-.6-.4,1.53,1.53,0,0,0-1,.41,7.55,7.55,0,0,0-1.92,3.2c-1,2.32-2.78,3.94-4.49,5.67-.38-1.06-.72-2-1.09-3a1.43,1.43,0,0,1,.43-1.73c.91-.95,1.6-2.1,2.42-3.13a4.3,4.3,0,0,1,1.09-1.08,7.4,7.4,0,0,0,3.29-3.67c.16-.41.43-.87-.18-1.12s-.8.15-1,.64a3.87,3.87,0,0,1-2,2.35,32.55,32.55,0,0,1,1.54-3.71,1.49,1.49,0,0,1,.91-.74c.53-.1.95-.3.7-.81a1.26,1.26,0,0,0-1.13-.47,2.41,2.41,0,0,0-1.33,1,35.54,35.54,0,0,0-1.84,3.71c-.62,1.4-1.07,2.88-1.72,4.27a3.68,3.68,0,0,1-1.92,2c-.53-1.15-1-2.24-1.52-3.32a2,2,0,0,1,.61-2.43c2.1-1.56,4.37-2.95,5.85-5.21.81-1.24,1.59-2.51,2.41-3.74a1.37,1.37,0,0,1,.65-.57c.53-.18.82-.58.55-1a1.29,1.29,0,0,0-1.16-.42,2.43,2.43,0,0,0-1.15.92,11.83,11.83,0,0,0-1.07,1.78A14.93,14.93,0,0,1,59,17c-.73-2.31-1.16-4.5.23-6.64.73-1.14,1.41-2.32,2.15-3.46.28-.44.66-.87,0-1.26s-.91,0-1.21.5C59.23,7.54,58.3,9,57.39,10.4c-1.24-.77-2.47-1.53-3.71-2.28-.4-.25-.8-.41-1.13.12s.11.76.49,1c1.08.67,2.16,1.32,3.21,2,.27.19.6.6.56.87-.26,2,.39,3.91,1,5.85l-3.11,2.33c-.22-1-.35-1.8-.61-2.6-.09-.28-.48-.46-.74-.68-.17.32-.52.66-.47.95.15.92.44,1.83.68,2.74.06.24.2.52.13.71-.39,1-.84,2-1.33,3.11-1.14-1-2.32-1.82-3.36-2.84-1.24-1.21-1.3-1.78-.46-3,1.91-2.68.62-8.5.47-11.53a.65.65,0,0,0-.71-.54c-.42.06-.49.39-.55.66a3,3,0,0,0,0,1c.19,1.29,1.31,5.34,1,7-.27.06-.41-.39-.61-.49-.39-.79-1.91-4.32-2.18-5.15-.16-.47-.15-1-.79-.92s-.66.74-.55,1.2c.29,1.22,1.86,5.12,3,5.82A.79.79,0,0,1,48,17.1L46.7,19.19c-.6,0-1.1-.09-1.6-.06a4,4,0,0,1-3.37-1.4c-.67-.77-4.28-4.86-5-5.6A.59.59,0,0,0,36,12a.62.62,0,0,0-.19.84c1.66,2.4,6.45,7.9,9.82,7.61a1.36,1.36,0,0,1,1.42.89,4.68,4.68,0,0,0,1,1.36c1.23,1,2.54,2,3.79,3,.22.18.49.47.49.71,0,1.7,0,3.41-.2,5.1a7.22,7.22,0,0,1-.75,2.33,1.2,1.2,0,0,1-1.89.54C47.63,33,45.78,31.53,44,30.06A2.11,2.11,0,0,1,43.4,29c-.28-1.23-.46-2.48-.73-3.7-.68-3-3.2-5.05-4.41-7.8a.64.64,0,0,0-.9-.16.68.68,0,0,0-.17.71,8,8,0,0,0,.7,1.44c.47.82,1,1.63,1.63,2.69-1.25-.31-10.08-4.26-11-4.59-.51-.18-1-.49-1.26.16s.32.93.79,1c1.31.31,10.49,4.31,11.81,4.57.23.05.57.05.66.2a9.67,9.67,0,0,1,1.38,4.6c-.87-.3-1.65-.54-2.41-.83a15.2,15.2,0,0,1-5.38-2.9c-.36-.36-.73-.75-1.2-.31s0,.88.31,1.16c1,.77,2,1.5,2.91,2.12-1.64.23-3.47.5-5.3.73-.55.07-1.06.09-1,.83s.71.54,1.12.48c1.21-.19,2.41-.46,3.62-.68a3.83,3.83,0,0,1,3.51.77c-1.7,1.13-3.38,2.22-5.58,1.88-.24,0-.76.06-.79.41a.93.93,0,0,0,.67.84,5.33,5.33,0,0,0,2.43-.13A48.69,48.69,0,0,0,39.6,30a1.31,1.31,0,0,1,1.94.26A26.28,26.28,0,0,0,48.69,36a1.51,1.51,0,0,1,.61,1,45.8,45.8,0,0,1,1,9.12,1.82,1.82,0,0,1-1.51,2c-1.09.3-2.19.55-3.3.77A3.84,3.84,0,0,1,44,49c-2.72-.6-5.06-2.07-7.48-3.37a9.66,9.66,0,0,1-4.22-4.79,18.16,18.16,0,0,0-2.84-5,2.22,2.22,0,0,1-.39-1.49c.12-1.73-4-9.71-4.9-11.13-.28-.44-.58-.83-1.13-.45s-.23.74,0,1.13c.8,1.22,4.79,9,4.65,10.52a3.69,3.69,0,0,0,.89,2.52c.81,1.19,1.53,2.43,2.3,3.64.08.15.13.35.06.44a1.39,1.39,0,0,1-.74-.1,7.65,7.65,0,0,1-1.73-1.06c-1.57-1.31-3.07-2.73-5.14-3.17-.71-.15-4.59-2.51-8.2-2.63a.58.58,0,0,0-.41.8.6.6,0,0,0,.66.33c1.08-.47,8,2.72,8.82,3.24,1.49.94,2.88,2,4.34,3,.81.55,1.66,1.06,2.69.56l2.07,2.66a2.94,2.94,0,0,1-.42.2c-2.3.49-4.6,1-6.91,1.45a9.53,9.53,0,0,1-8.51-2.13c-1.88-1.67-3.91-3.17-5.88-4.74-.37-.29-.82-.57-1.12,0a1.07,1.07,0,0,0,.24,1c1.09,1,2.24,1.93,3.3,2.84a15.15,15.15,0,0,0-2.37.22,13.12,13.12,0,0,0-2.53,1,.63.63,0,0,0-.34.75c.16.3.59.29.89.32s.39-.19.59-.28c1.94-.92,6.2-.71,7.88,1.28a6,6,0,0,0,5.3,2c1.63-.14,3.23-.52,4.85-.79l4-.64a5.57,5.57,0,0,1-6.55,3.54A17.05,17.05,0,0,0,19.67,50c-1.63.26-7.08-.66-8.42-2a.73.73,0,0,0-.86-.18c-.41.25-.1.92.09,1.07a31.45,31.45,0,0,0,6,2.19c1.65.25,3.34.15,5,.24,1.1.06,2.19.18,3.29.28.45.07.39,0,.9.14a10.25,10.25,0,0,1-2.32.62C21.74,52.19,9.84,56,8.43,56.9c-.4.26-1,.51-.55,1,.16.22.85.19,1.2.05.86-.36,12-4.47,13.15-4.25a10.46,10.46,0,0,0-.82,1c-.79,1.32-1.59,2.64-2.3,4a1.21,1.21,0,0,0,.19,1.13c.55.32.81-.19,1-.66A13,13,0,0,1,24.19,54l3.38,2.53c-1.86,1.13-3.25,2.66-5.44,2.52-.17,0-.74.21-.57.64a.88.88,0,0,0,.66.5,5.06,5.06,0,0,0,3.83-1c.74-.61,1.57-1.12,2.37-1.68l1.63,1.51a6.57,6.57,0,0,0,3.37,1.62c.28,0,.72.29.74.48a1.44,1.44,0,0,1-.33,1.09,8.79,8.79,0,0,1-7.29,2.21,10.85,10.85,0,0,0-5.76.34,1,1,0,0,1-.91-.13c-2.29-1.94-7.38-2.11-10.34-1.85a2.58,2.58,0,0,0-1.2.49.81.81,0,0,0-.2.78,1.13,1.13,0,0,0,.81.29c.27,0,.53-.21.81-.25,2.41-.35,6.94-.1,8.93,1.13a.37.37,0,0,1,.14.16c-1.52,1.33-7.55,5.14-9,6.49-.21.19-.5.71-.18,1.06s.8,0,1.06-.23c.72-.56,5.84-3.8,6.57-4.36a11.21,11.21,0,0,1,7.36-2.77c1.77.07,3.54,0,5.44,0-1.57,2.22-1.76,4.76-2.17,7.33a16.49,16.49,0,0,0-6.18-2.3,5.88,5.88,0,0,0-4.24,1c-.23.16-.5.68-.37.95s.79.31,1,.17c2.56-1.66,4.93-.61,7.57.42-3.13.43-6,.82-8.88,1.23a12.79,12.79,0,0,0-1.94.38c-.21.07-.53.4-.42.7a.92.92,0,0,0,.58.44,6,6,0,0,0,1.32-.12c1-.14,2.78-.54,3.74-.7,0,.1-.35.41-.62.52a21.11,21.11,0,0,1-5.56,3.81c-.53.14-1.11.23-.9.89.08.24.78.48,1.13.41,1.7-.34,5.7-3.73,6.88-5a3.73,3.73,0,0,1,2.48-1,4.39,4.39,0,0,1,.72-.07c1.17,0,2.35,0,3.76,0-.74,2.42-1.37,4.52-2,6.62-.15.48-.3,1,.3,1.22s.78-.34.91-.77c.58-2,1.26-4,1.65-6.09.2-1,.65-1.28,1.44-1.16,2.45.36,4.89.8,7.68,1.27A31.45,31.45,0,0,1,34.65,80c-3.31,3.16-7.37,5.17-11.5,7-2,.88-2.34,1.13-3.21,3.17a1.1,1.1,0,0,0,.18,1c.37.29.72.08.94-.41,1.16-2.61,2.32-2.46,4.78-3.25a38.77,38.77,0,0,1-2.71,4.21c-1,1.27-.53.68-1.56,1.91a.63.63,0,0,0,0,.85h0a.65.65,0,0,0,.94,0c1.11-1.31.69-.83,1.75-2.11-.12,2.1.21,1.66.1,3.75,0,.47-.1,1,.65,1s.65-.54.68-1c.11-1.77-.38-1,0-2.75a13.63,13.63,0,0,1,5.53-9c1.69-1.17,3.28-2.47,4.89-3.75,1.08-.86,2.12-1.78,3.32-2.8a5.39,5.39,0,0,1,.78,1.32c.45,1.94,1.57,8.27.66,10.11a32,32,0,0,0-2.93,9.23c-.19,1.21-.47,2.41-.64,3.63,0,.25.1.75.4.82s.6.14.91-1.07c.54-2.07.85-4.2,1.36-6.27.34-1.41.85-2.77,1.28-4.15.13-.3.57-1.24,1.9,2.49.72,2,.39,4.27.65,6.4a12.18,12.18,0,0,0,.75,3.38.8.8,0,0,0,1,.36c.34-.2.29-.77.16-1-1.13-2-.89-4.08-1-6.43,1.09.64,2,1.21,2.93,1.68.23.12.72.23.93-.14a.77.77,0,0,0-.24-.87,17.63,17.63,0,0,0-2.86-1.62,1.51,1.51,0,0,1-.92-1.11c-.39-1.11-.87-2.19-1.28-3.29a1.37,1.37,0,0,1-.14-.82c.49-1.35-.45-7-.61-8.46a11.55,11.55,0,0,1,.13-3.76c.71-3.13,3.38-4.76,5.41-6.87.18-.19.29,0,.35.23,13.33,31.52,42.18,33.23,55,19.33,0,0,11.62-11.13,11.57-33.39A57.29,57.29,0,0,0,98.16,16.84ZM43.37,71A31.92,31.92,0,0,1,39,74.08c-.8.4-2,.06-3-.11-1.48-.25-2.94-.68-4.42-.94a12.85,12.85,0,0,0-2.25,0c.12-3.36,1-6.46,3.85-8.68A10.12,10.12,0,0,1,39.9,61.9a6.94,6.94,0,0,1,2,.43,5.19,5.19,0,0,1,3.18,6.33A7,7,0,0,1,43.37,71Zm.35-14.9a5.38,5.38,0,0,1-3.8,3,15,15,0,0,1-6.49.1,7.16,7.16,0,0,1-2.82-1.45c-1.77-1.44-3.4-3-5.24-4.7a32.41,32.41,0,0,0,3.68-.94c1.94-.74,3.82-1.6,5.7-2.47a5.2,5.2,0,0,1,6,.69c.6.51,1.28.93,1.92,1.4A3.51,3.51,0,0,1,43.72,56.07ZM56.83,46.5a2.09,2.09,0,0,1-1.67.79,2.21,2.21,0,0,1-1.41-1.21,9.13,9.13,0,0,1-.59-2.75c-.2-2.14-.33-4.29-.44-6.44A2.8,2.8,0,0,1,53,35.62a9.4,9.4,0,0,0,.8-5.45,16.08,16.08,0,0,1,.74-7,22.31,22.31,0,0,1,2.6,7.46c.45,2.28,1,4.54,1.39,6.84A12.32,12.32,0,0,1,56.83,46.5Zm3.6,2.39c-.63-.11-1.28-.29-1.19-1.16a12.36,12.36,0,0,1,1.95-6.12,3.48,3.48,0,0,1,2-1.43c1.49-.41,2.94-1,4.65-1.57a9.9,9.9,0,0,1-.26,2.65,22.09,22.09,0,0,1-4.45,6.66A2.93,2.93,0,0,1,60.43,48.89Z"/></g></g></svg>