<?xml version="1.0" encoding="utf-8"?>
<!-- Generator: Adobe Illustrator 24.1.2, SVG Export Plug-In . SVG Version: 6.00 Build 0)  -->
<svg version="1.1" xmlns="http://www.w3.org/2000/svg" xmlns:xlink="http://www.w3.org/1999/xlink" x="0px" y="0px"
	 viewBox="0 0 1500 404" style="enable-background:new 0 0 1500 404;" xml:space="preserve">
<style type="text/css">
	.st0{opacity:0.11;fill:#B0CDE0;}
	.st1{fill:#422A22;}
	.st2{fill:#754B3C;}
	.st3{fill:#5E3D30;}
	.st4{fill:#ABCEF7;}
	.st5{fill:#F086CF;}
	.st6{fill:#662B32;}
	.st7{fill:#E03A50;}
	.st8{fill:#BD2639;}
	.st9{fill:#FABEA8;}
	.st10{fill:#D43F82;}
	.st11{fill:#B282FA;}
	.st12{fill:#35414A;}
	.st13{fill:#54364E;}
	.st14{fill:#732749;}
	.st15{fill:#F5D0B5;}
	.st16{fill:#992F41;}
	.st17{fill:#FCD69A;}
	.st18{fill:#B57A64;}
	.st19{fill:#E0BB7D;}
	.st20{fill:#2F393B;}
	.st21{fill:#FFD6B5;}
	.st22{fill:#2E454F;}
	.st23{fill:#A1714D;}
	.st24{fill:#8FC3D9;}
	.st25{fill:#825737;}
	.st26{fill:#B37F59;}
	.st27{fill:#9E6A44;}
	.st28{fill:#754C31;}
	.st29{fill:#F06E90;}
	.st30{fill:#53AFF5;}
	.st31{fill:#F0A990;}
	.st32{fill:#69BCFA;}
	.st33{fill:#61382B;}
	.st34{fill:#3C8CC9;}
	.st35{fill:#D2FBFF;}
	.st36{fill:#364D63;}
	.st37{fill:#2C4759;}
	.st38{fill:#F03E4D;}
	.st39{fill:#2A4359;}
	.st40{fill:#6DA1B8;}
	.st41{fill:#767A41;}
	.st42{fill:#76A0B3;}
	.st43{fill:#A16C59;}
	.st44{fill:#54572E;}
	.st45{fill:#C94465;}
	.st46{fill:#30626B;}
	.st47{fill:#EDA88E;}
	.st48{fill:#CAECFC;}
	.st49{fill:#E09377;}
	.st50{fill:#B3374C;}
	.st51{fill:#EBA063;}
	.st52{fill:#354769;}
	.st53{fill:#55AFB5;}
	.st54{fill:#2E646E;}
	.st55{fill:#98BFED;}
	.st56{fill:#BC8FFF;}
	.st57{fill:#7465A1;}
	.st58{fill:#EDB482;}
	.st59{fill:#8977BD;}
	.st60{fill:#C98E5A;}
	.st61{fill:#234C54;}
	.st62{fill:#FFD47F;}
	.st63{fill:#FFA1E2;}
	.st64{fill:#7583FF;}
	.st65{fill:#40959C;}
	.st66{fill:#5C3E33;}
	.st67{fill:#7A1F40;}
	.st68{fill:#416D87;}
	.st69{fill:#80314E;}
	.st70{fill:#963A5C;}
	.st71{fill:#98CCFF;}
	.st72{fill:#2A3440;}
	.st73{fill:#25475C;}
	.st74{fill:#455A69;}
	.st75{opacity:0.39;fill:#545B61;}
	.st76{fill:#2C3942;}
	.st77{fill:#F5C39A;}
	.st78{fill:#2F4A5C;}
	.st79{fill:#2E4A66;}
	.st80{fill:#DE7150;}
	.st81{fill:#F2B172;}
	.st82{fill:#E89E56;}
	.st83{fill:#FFD9BA;}
	.st84{fill:#1D2F3B;}
	.st85{fill:#93BEFF;}
	.st86{fill:#93FFF6;}
	.st87{fill:#855C39;}
	.st88{fill:#B2E8F0;}
</style>
<g id="_x2014_ŽÓť_x5F_3">
</g>
<g id="_x2014_ŽÓť_x5F_2">
	<ellipse class="st0" cx="745.7" cy="373.5" rx="706" ry="10.8"/>
	<path class="st1" d="M328,367.8c-0.1,0.8-0.1,2,0.1,3.4c0.6,3.4,2.3,4.5,1.8,6c-0.7,2-4.4,2.1-4.5,2.1c-1.9,0.1-4.4-0.7-5.5-2.6
		c-0.6-1-0.5-2.5-0.2-5.2c0.1-2,0.4-3.6,0.6-4.7C322.8,367,325.4,367.4,328,367.8z"/>
	<path class="st1" d="M360.7,365.2c0.1,1.2,0.2,2.4,0.3,3.7c0.9,0.7,2.3,1.7,4.2,2.7c5.1,2.6,9.7,2.6,9.7,3c0,0.3-2.9,0.6-6.7,0.3
		c-3.9-0.2-9.4-1-15.8-3.5c0-1.8,0-3.7,0-5.5C355.2,365.6,357.9,365.4,360.7,365.2z"/>
	<path class="st2" d="M365.7,248c0.6,5.4,1.1,10.9,1.5,16.5c2.7,37.3,0.4,71.7-4.5,102.5c-0.7,0.5-2.9,2-6,2c-2.5,0-4.2-1-5-1.5
		c-0.2-11.5-0.6-23.2-1-35c-0.7-19.9-1.8-39.4-3-58.5c-1.9,8.8-3.8,17.8-5.5,27c-4.4,23.3-7.9,45.9-10.5,67.5
		c-0.8,0.5-3.5,1.9-7,1.5c-1-0.1-3.9-0.6-6.5-3c0.6-7.2,1.9-20.8,2.5-28c2.7-30.3,5.4-60.7,8-91C341.1,248,353.4,248,365.7,248z"/>
	<path class="st3" d="M325,366.7c0,0,0.2-1.7,0.6-4.7c0.2-1.5,0.4-3.3,0.7-5.3c0.3-2.1,0.6-4.4,1-6.9c0.4-2.5,0.8-5.3,1.3-8.2
		c0.5-2.9,1-5.9,1.5-9.1c0.6-3.1,1.1-6.4,1.6-9.7c0.5-3.3,0.9-6.7,1.3-10.1c0.4-3.4,0.8-6.8,1.2-10.1c0.4-3.3,0.8-6.6,1.3-9.8
		c0.4-3.2,0.8-6.2,1.2-9.1c0.4-2.9,0.8-5.6,1.1-8.2c1.4-10.1,2.5-16.9,2.5-16.9l0.1,0c0,0-0.2,1.7-0.4,4.7c-0.3,3-0.7,7.2-1.3,12.3
		c-0.3,2.5-0.6,5.3-1,8.2c-0.4,2.9-0.8,6-1.2,9.1c-0.5,3.2-0.9,6.4-1.4,9.8c-0.5,3.3-1,6.7-1.6,10.1c-0.6,3.4-1.1,6.7-1.6,10.1
		c-0.5,3.3-0.9,6.6-1.3,9.8c-0.4,3.2-0.8,6.2-1.2,9.1c-0.4,2.9-0.9,5.6-1.3,8.2c-0.4,2.5-0.8,4.8-1.2,6.9c-0.4,2-0.7,3.8-0.9,5.3
		C325.4,365,325.1,366.7,325,366.7L325,366.7z"/>
	<path class="st3" d="M363.1,257.3c0,0,0.4,1.6,1,4.5c0.3,1.5,0.6,3.2,1,5.3c0.4,2,0.7,4.3,1,6.9c0.3,2.5,0.6,5.3,0.7,8.2
		c0.2,2.9,0.2,6,0.2,9.2c0,6.3-0.1,13.1-0.2,19.9c-0.1,3.4-0.2,6.8-0.4,10.1c-0.2,3.3-0.4,6.6-0.6,9.8c-0.2,3.2-0.6,6.2-0.9,9.1
		c-0.3,2.9-0.7,5.6-1,8.1c-0.7,5-1.4,9.2-1.9,12.1c-0.6,2.9-0.9,4.6-0.9,4.6l-0.1,0c0,0,0.2-1.7,0.6-4.6c0.4-2.9,0.9-7.1,1.4-12.2
		c0.3-2.5,0.6-5.2,0.9-8.1c0.3-2.9,0.6-5.9,0.9-9.1c0.6-6.3,1.1-13,1.5-19.8c0.1-1.7,0.2-3.4,0.3-5.1c0-1.7,0.1-3.4,0.1-5
		c0-3.3,0-6.6-0.2-9.8c-0.1-3.2-0.3-6.2-0.5-9.1c-0.2-2.9-0.4-5.6-0.7-8.1c-0.3-2.5-0.6-4.8-0.8-6.9c-0.3-2-0.5-3.8-0.7-5.3
		C363.3,259,363,257.3,363.1,257.3L363.1,257.3z"/>
	<path class="st4" d="M361.5,188.5c2.4-1.2,4.8-2.6,7.2-4c10.7-6.3,19.5-13.4,26.7-20.4c1.8-1.8,2.1-4.7,0.5-6.7
		c-1.7-2.3-3.7-4.7-6-7.1c-7.6-8-15.5-13.1-21.6-16.3c-0.5,0.1-1.9,0.4-2.9,1.7c-1.1,1.4-1.3,3.5-0.5,5.3c2.4,2.5,5,5.3,7.5,8.3
		c3,3.5,5.6,7,8,10.3c-3.2,1.8-6.5,3.5-10,5.2c-2.3,1.1-4.5,2.2-6.8,3.2c-1.8,0.2-4,0.5-6.2,1c-2.2,0.5-4.1,1.1-5.8,1.8
		c1.4,3.1,3.1,6.4,5,9.8C358.3,183.4,359.9,186.1,361.5,188.5z"/>
	<path class="st5" d="M218.2,212.8c-1.8-1.4-5.1-3.7-9.8-4.2c-8.5-1-15.8,4.4-19,8.8c-10.7,14.6,4.6,44.3,13.2,43.8
		C212.1,260.4,216.9,224.2,218.2,212.8z"/>
	<path class="st6" d="M246.4,302.2h2.7V287c0-1.5-1.2-2.7-2.7-2.7l0,0V302.2z"/>
	<rect x="228" y="284.4" class="st6" width="18.4" height="3.1"/>
	<rect x="205.5" y="299.4" class="st7" width="64.3" height="2.9"/>
	<path class="st7" d="M260.2,331.2h-45.6c-1.6,0-3-1.1-3.2-2.6l-3.7-26.4h59.5l-3.7,26.4C263.3,330,261.8,331.2,260.2,331.2z"/>
	<path class="st8" d="M259.5,327.4L259.5,327.4c-0.7,0-1.1-0.5-1-1.2l3.1-24h2.4l-3.1,24C260.8,326.9,260.2,327.4,259.5,327.4z"/>
	<path class="st8" d="M255.4,327.4L255.4,327.4c-0.7,0-1.1-0.5-1-1.2l3.1-24h2.4l-3.1,24C256.6,326.9,256,327.4,255.4,327.4z"/>
	<path class="st8" d="M251.3,327.4L251.3,327.4c-0.7,0-1.1-0.5-1-1.2l3.1-24h2.4l-3.1,24C252.5,326.9,251.9,327.4,251.3,327.4z"/>
	<path class="st8" d="M247.1,327.4L247.1,327.4c-0.7,0-1.1-0.5-1-1.2l3.1-24h2.4l-3.1,24C248.4,326.9,247.8,327.4,247.1,327.4z"/>
	<path class="st6" d="M229.7,304.1h-5.4c-1.3,0-2.4-1.1-2.4-2.4v-0.9h10.1v0.9C232.1,303,231,304.1,229.7,304.1z"/>
	<path class="st6" d="M228,302.2h-2.7V287c0-1.5,1.2-2.7,2.7-2.7l0,0V302.2z"/>
	<path class="st9" d="M231.5,278.6c0,0.6,0.1,1.3,0.1,1.9c-0.5,0.4-0.7,0.8-0.8,1.2c-0.2,0.5-0.1,0.8-0.2,1.4
		c-0.1,0.6-0.3,1-0.5,1.3c1,0,2,0,3,0c0.4,1,0.8,2,1.2,3c-0.7,0-1.4,0.1-2.2,0.1c0.5,0.6,1,1.2,1.3,1.6c0.5,0.6,0.7,0.8,1,0.8
		c0.7,0.1,1.3-0.6,1.4-0.8c0.5,0,2.1-0.1,2.9-1.2c0.8-1.2,0.4-2.7-0.2-4.5c-0.3-1.1-0.9-2.6-2.2-4.3c-0.2-0.5-0.4-1-0.6-1.5
		C234.4,277.9,232.9,278.2,231.5,278.6z"/>
	<path class="st10" d="M203.2,177.9c0.8-0.5,4.6-2.4,9.1-1.1c3.9,1.1,5.8,4.6,8.2,8.7c1.4,2.5,3.3,6.4,4.3,11.8
		c-1,1.8-3.9,6.8-10.1,9.5c-9.5,4.2-18.3-0.6-19.4-1.2c-0.6-2.3-1.2-5.3-1-8.8C194.9,186.7,201.1,180.1,203.2,177.9z"/>
	<path class="st11" d="M202.3,224c-1.8,2.1-4.2,4.6-7,7c-2.9,2.5-5.8,4.4-8.2,5.8c-0.6,0.1-2.6,0.2-4.5-1c-2.1-1.3-2.8-3.2-3-3.7
		c0.8-1.6,1.8-3.2,2.8-4.8c3.6-5.8,7.6-10.5,11.3-14.3c1.1-0.6,2.5-1.3,4.1-1.8c2.6-0.9,4.9-1.2,6.6-1.3
		C203.5,214.6,202.9,219.3,202.3,224z"/>
	<path class="st9" d="M507.1,252.5c0.1,0.9,0.3,2.4,0.5,4.2c0.7,5.2,1,6.4,0.5,8.2c-0.3,1-1,2.6-2.8,4.3c-1.4,1.6-2.9,2.3-3.4,1.9
		c-0.5-0.4-0.3-2.1,0.8-3.9c-0.2-1.9-0.4-3.9-0.7-5.8c-0.4,1-0.7,1.7-0.9,2.2c-0.6,1.5-0.9,2.2-1.3,2.2c-0.4,0-0.7-0.5-0.8-0.6
		c-0.5-0.9,0-2.1,0.2-2.4c0.5-1.1,0.9-3.5,0.6-8.8C502.2,253.6,504.6,253,507.1,252.5z"/>
	<path class="st12" d="M485.5,141.6c0.2-0.8,0.4-2.1,0-3.6c-1.3-5.1-8.3-7.2-8.9-6.3C476.2,132.2,477.5,134.3,485.5,141.6z"/>
	<path class="st9" d="M547.3,179.1c0.7,0.2,1.7,0.5,2.8,1.1c5.2,3.1,6,10.4,6.5,14.1c0.9,6.9,2.7,16,6.2,28.6
		c-0.2,0.3-1.2,2.2-3.6,2.8c-2.5,0.6-4.4-0.9-4.6-1.1c-2.9-5.5-7-14.5-9-24.2c-0.8-3.7-1-6.6-0.9-9.6
		C544.9,185.7,546.2,181.7,547.3,179.1z"/>
	<path class="st9" d="M554.1,222.4c0.7-3.8,1.4-7.7,2.2-11.8c1.8-8.3,3.8-16.1,6-23.4c0.8-1.7,1.8-2.7,2.5-3.2
		c0.8-0.7,0.7-0.3,3-1.9c0.9-0.6,1.3-0.9,1.5-0.8c0.3,0.2-0.1,1.2-0.5,1.9c-0.5,0.7-1.1,1.2-1.5,1.4c2.6,0,4.7-0.3,6.1-0.6
		c2-0.5,3.2-1,3.6-0.5c0.6,0.7-1,2.8-1.4,3.2c-1.7,2.2-3.8,3.2-4.2,3.4c-2,0.9-3.8,0.9-4.9,0.9c-0.2,5.3-0.6,11-1.2,17
		c-0.6,5.3-1.4,10.3-2.2,15c-1,2-3.1,3.1-5.1,2.8C556.2,225.5,554.7,224.2,554.1,222.4z"/>
	<path class="st13" d="M549.5,157.9c0.9,0.8,1.7,2,3.1,4.5c2.2,3.7,3.8,6.4,3.4,9.6c-0.4,2.7-2,4.5-3,5.5
		c-4.9,5.2-13.8,6.6-20.5,3.5c-1.5-0.7-3.9-1.8-5.5-4.5c-2.6-4.4-1-10.2,1.2-13.6C533.1,155.6,544.6,153.9,549.5,157.9z"/>
	<path class="st14" d="M631.1,363.5c0.1,0.6,0.2,1.3,0.5,2.2c0.8,2.8,2,3.7,1.5,4.5c-0.4,0.7-2,0.9-3,0.4c-1.3-0.5-1.8-1.9-2.4-3.4
		c-0.3-0.7-0.5-1.4-0.6-1.8c0-0.8,0.1-1.6,0.1-2.3C628.6,363.3,629.9,363.4,631.1,363.5z"/>
	<path class="st14" d="M653.4,362.8c0,1.2-0.1,2.3-0.1,3.5c1.2,0.6,3,1.3,5.4,1.8c0.7,0.1,4.2,0.7,4.4,0.1
		C663.2,367.7,661.6,366.4,653.4,362.8z"/>
	<path class="st9" d="M635.4,244.1c-3.3,9.3-6.7,21.7-7.9,36.6c-0.8,9.8-0.5,18.6,0.2,26c-1,5.2-1.9,10.9-2.4,17
		c-1.3,15.8,0.1,29.7,2.1,40.7c2.1,3.5,2.9,3.9,3.3,3.7c0.3-0.1,0.7-0.8,0.4-3.3c2.3-17.5,5.1-35.8,8.5-54.6
		c3.8-21.3,8.1-41.5,12.7-60.7c-0.9-1.2-2.9-3.6-6.5-5.1C641.1,242.5,636.7,243.7,635.4,244.1z"/>
	<path class="st9" d="M647.5,243.6c-2,10-3.6,22.8-3,37.4c0.3,9.7,1.5,18.4,3,25.9c-0.3,4.8-0.4,9.8-0.2,15.1
		c0.5,16.2,3.1,30.5,6.3,42.4c3.9,1.7,5.9,2.4,6.1,2.1c0.1-0.2-0.7-0.9-2.3-2.1c0.8-18.3,1.6-36.7,2.5-55.2
		c1-20.9,2.1-41.8,3.2-62.5c-0.7-1-2.1-2.6-4.2-3.6C653.6,240.5,648.2,243.3,647.5,243.6z"/>
	<path class="st15" d="M663.1,244.8c0.1,6.9,0.2,13.8,0.2,20.8c0.2,20.5,0.2,40.7,0,60.8c-2.7,1.3-5.9,2.5-9.5,3.2
		c-14.6,3.2-27.1-2-32.5-4.8c0.3-7.7,0.8-15.7,1.8-24c2.4-22.1,6.8-41.9,11.8-59C644.3,242.8,653.7,243.8,663.1,244.8z"/>
	<path class="st16" d="M657.9,179.5c0.9,0.1,2.3,0.5,3.7,1.3c3.8,2.4,4.7,7,5.2,8.8c1.4,6,4.6,15.4,9.3,28.2c-0.4,0.7-1,1.8-2.2,2.7
		c-2.6,2-5.6,1.8-6.3,1.7c-3-4.1-7.7-11.9-9.7-22.7C656.3,191.1,657,184.1,657.9,179.5z"/>
	<g>
		<path class="st17" d="M758.6,361.3c0.4,0.3,0.8,0.7,1.2,1c1.6,2.4,3.3,3.6,4.6,4.3c2.8,1.5,5.4,1.3,6.1,3c0.4,0.9,0,2-0.4,2.7
			c-1.2,0.1-2.7,0.1-4.2-0.1c-3.3-0.4-6-1.3-7.9-2.2c-0.9,0.1-2.5,0.1-4.3-0.6c-1.1-0.4-1.9-0.9-2.5-1.4c0.2-0.8,0.6-1.8,1.4-2.9
			c0.4-0.6,0.8-1.1,1.2-1.5c0-1.1,0-2.2,0-3.2C755.3,360.7,757,361,758.6,361.3z"/>
		<path class="st18" d="M762.2,315.4c0,3.2-0.1,6.5-0.2,9.8c-0.3,13.4-0.9,26.5-1.8,39.2c-0.3,0.2-1.3,0.8-2.7,0.7
			c-0.4,0-1.5-0.2-2.6-1.1c-2.2-5.5-4.4-12.5-5.8-20.7c-1.9-11.5-1.6-21.5-0.7-28.9C753.1,314.7,757.6,315,762.2,315.4z"/>
		<path class="st17" d="M764.2,367c0.4-0.8-1.4-1.7-1.6-4.1c-0.1-1.7,0.6-2.5,0.1-3.2c-0.6-0.8-2.4-0.7-3.6,0.1
			c-1.8,1.2-2.4,4.3-0.9,6.2C759.8,368.2,763.6,368,764.2,367z"/>
	</g>
	<path class="st17" d="M787.4,360c0.4,0.3,0.8,0.6,1.2,0.9c1.8,2.3,3.6,3.4,4.9,4c2.9,1.3,5.5,0.9,6.3,2.5c0.5,0.9,0.1,2-0.2,2.7
		c-1.2,0.2-2.7,0.2-4.2,0.2c-3.3-0.1-6.1-0.9-8.1-1.6c-0.9,0.1-2.5,0.3-4.4-0.3c-1.1-0.3-2-0.8-2.6-1.2c0.2-0.8,0.5-1.9,1.1-3
		c0.4-0.6,0.7-1.1,1.1-1.6c-0.1-1.1-0.1-2.2-0.2-3.2C784.1,359.7,785.7,359.9,787.4,360z"/>
	<path class="st18" d="M787.7,314c0.2,3.2,0.3,6.5,0.5,9.8c0.6,13.4,0.9,26.5,1,39.2c-0.3,0.2-1.2,0.9-2.6,0.9c-0.4,0-1.5,0-2.6-0.9
		c-2.6-5.4-5.3-12.1-7.2-20.2c-2.8-11.4-3.1-21.4-2.8-28.8C778.6,314,783.1,314,787.7,314z"/>
	<path class="st19" d="M773.1,171.7c2.3,0.6,5.5,1.7,8.7,3.8c1.2,0.8,2.2,1.7,3.1,2.5c1.5,7,3.3,12.3,4.6,15.8
		c4.5,11.9,9.6,18.8,6.6,23.2c-1,1.6-2.8,2.3-3.8,2.8c-5,1.6-8.3,1-10.4,0.2C771.9,215.8,767.7,196.4,773.1,171.7z"/>
	<path class="st20" d="M776.4,151c1.5-2.1,3.4-4.6,4-8.3c1.2-7.2-2.7-14.3-7.5-18.3c-7.5-6.2-20.5-7.5-28.8,0.3
		c-6.9,6.4-8.2,16.8-4.5,24.8c3.5,7.5,11.4,13.2,19.8,12.7C768.7,161.6,774.3,153.9,776.4,151z"/>
	<path class="st21" d="M862.9,168.7c-2.9,3.8-2.7,8.3-2.7,10.5c0.4,10.6,9,17,9.7,17.5c4.9,3.5,7.3,2.2,11,5.2c4.8,4,6.3,11,6,19
		c1.7-1.9,3.9-5,4.8-9.2c2.1-10-6-14.6-7.2-28c-0.9-10.5,3.6-14.3,0.3-18C880.7,160.9,868.2,161.7,862.9,168.7z"/>
	<path class="st14" d="M1100.8,363.5c0.1,0.6,0.2,1.3,0.5,2.2c0.8,2.8,2,3.7,1.5,4.5c-0.4,0.7-2,0.9-3,0.4c-1.3-0.5-1.8-1.9-2.4-3.4
		c-0.3-0.7-0.5-1.4-0.6-1.8c0-0.8,0.1-1.6,0.1-2.3C1098.2,363.3,1099.5,363.4,1100.8,363.5z"/>
	<path class="st14" d="M1123.1,362.8c0,1.2-0.1,2.3-0.1,3.5c1.2,0.6,3,1.3,5.4,1.8c0.7,0.1,4.2,0.7,4.4,0.1
		C1132.9,367.7,1131.3,366.4,1123.1,362.8z"/>
	<path class="st22" d="M962.3,365.6c0,0.6,0,1.5,0.2,2.5c0.5,2.1,1.5,2.7,1.7,4c0.1,0.9-0.3,2.3-2.7,4.2c-0.8,0-3.6-0.2-5.5-2.2
		c-0.4-0.5-1.2-1.3-1.3-2.4c-0.2-1.1,0.3-1.8,0.7-3.6c0.3-1.2,0.4-2.2,0.4-2.9C958,365.3,960.1,365.4,962.3,365.6z"/>
	<path class="st22" d="M1004.7,360.9c-0.1,1-0.3,2-0.4,3c2.5,0.8,5.1,1.8,7.9,3c2.5,1.1,4.9,2.2,7.1,3.3c-1.6,0.2-3.4,0.2-5.4,0.1
		c-3.9-0.2-7.1-0.9-9.6-1.7c-0.7,0.1-1.9,0.2-3.2-0.3c-0.6-0.2-1.2-0.5-1.6-0.8c-0.1-0.3-0.3-0.9-0.1-1.6c0.2-0.9,0.7-1.5,0.9-1.7
		c-0.2-1.1-0.4-2.1-0.6-3.2C1001.3,360.9,1003,360.9,1004.7,360.9z"/>
	<path class="st9" d="M1005.5,255.8c-0.3,0.2-0.8,0.5-1.1,1c-0.4,0.6-0.3,1.1-0.5,2.8c-0.1,1.3-0.2,1.9-0.5,2.6
		c-0.6,1.6-1.5,2.1-1.2,2.6c0.2,0.4,0.9,0.5,1.4,0.3c0.6-0.2,1-0.6,1.8-2.1c0.4-0.8,0.9-1.8,1.4-3
		C1006.4,258.6,1005.9,257.2,1005.5,255.8z"/>
	<path class="st6" d="M1019.9,279.9h2.7v-15.2c0-1.5-1.2-2.7-2.7-2.7l0,0V279.9z"/>
	<rect x="1001.5" y="262.1" class="st6" width="18.4" height="3.1"/>
	<path class="st9" d="M1010.1,252.8c0.2,0.8,0.3,1.6,0.5,2.3c0.3,0.4,0.7,0.9,1.1,1.7c0.6,1.1,0.9,2,1.4,3.8
		c0.6,1.9,0.6,2.4,0.6,2.8c0,0.7,0.1,2.1-0.8,2.6c-0.2,0.2-0.5,0.2-0.7,0.2c-0.4,0.3-0.9,0.6-1.3,0.8c-0.2,0.1-0.5,0.3-0.8,0.4
		c-0.4,0.1-0.8,0.1-1.1,0.1c-0.2,0.2-0.6,0.7-1.3,0.7c-1,0-1.6-0.9-1.8-1.3c-0.4-0.6-0.5-1.3-0.5-1.6c0.7-0.1,1.3-0.2,2-0.3
		c0.1-0.3,0.1-0.7,0-1.2c-0.1-0.8-0.4-1.3-0.6-1.6c-0.3-0.2-0.7-0.6-1.2-1.1c-0.5-0.5-1.4-1.7-1.5-3.3c0-0.4,0-1,0.2-1.7
		c-0.2-0.7-0.5-1.4-0.8-2.2C1005.7,253.4,1007.9,253.1,1010.1,252.8z"/>
	<rect x="979" y="277.1" class="st7" width="64.3" height="2.9"/>
	<path class="st7" d="M1033.6,308.9h-45.6c-1.6,0-3-1.1-3.2-2.6l-3.7-26.4h59.5l-3.7,26.4C1036.7,307.8,1035.2,308.9,1033.6,308.9z"
		/>
	<path class="st8" d="M1032.9,305.2L1032.9,305.2c-0.7,0-1.1-0.5-1-1.2l3.1-24h2.4l-3.1,24C1034.2,304.7,1033.6,305.2,1032.9,305.2z
		"/>
	<path class="st8" d="M1028.8,305.2L1028.8,305.2c-0.7,0-1.1-0.5-1-1.2l3.1-24h2.4l-3.1,24C1030.1,304.7,1029.5,305.2,1028.8,305.2z
		"/>
	<path class="st8" d="M1024.7,305.2L1024.7,305.2c-0.7,0-1.1-0.5-1-1.2l3.1-24h2.4l-3.1,24C1025.9,304.7,1025.3,305.2,1024.7,305.2z
		"/>
	<path class="st8" d="M1020.6,305.2L1020.6,305.2c-0.7,0-1.1-0.5-1-1.2l3.1-24h2.4l-3.1,24C1021.8,304.7,1021.2,305.2,1020.6,305.2z
		"/>
	<path class="st6" d="M1003.1,281.8h-5.4c-1.3,0-2.4-1.1-2.4-2.4v-0.9h10.1v0.9C1005.5,280.8,1004.4,281.8,1003.1,281.8z"/>
	<path class="st6" d="M1001.5,279.9h-2.7v-15.2c0-1.5,1.2-2.7,2.7-2.7l0,0V279.9z"/>
	<path class="st23" d="M986.6,171.6c2.2,0.5,4.9,1.4,7.8,3c1.5,0.8,2.8,1.7,3.9,2.5c0.4,1.5,0.7,3.1,1,4.8c0.4,2.4,0.6,4.5,0.6,6.5
		c0.5,5.4,1.5,13.6,3.7,23.7c1.4,6.4,2.5,9.2,3.8,15.5c1.9,9.1,3.2,17.8,4,25.7c-0.6,0.6-1.7,1.6-3.5,2.2c-2.7,0.8-4.9,0.1-5.7-0.2
		c-2.4-5.5-4.6-11.5-6.7-17.8C987.6,212.6,986,189.7,986.6,171.6z"/>
	<path class="st24" d="M999.1,250.8c0.3,6.9,0.7,16.3,1.4,27.3c0.4,6.4,1.1,16.1,2.6,34.7c1.4,17.1,3,33.9,4.7,50.6
		c-0.7,0.4-2,1.1-3.6,1.3c-2.5,0.4-4.5-0.4-5.4-0.8c-3.2-8.9-6.3-18.4-9-28.6c-6.2-22.9-9.4-44.1-11-62.5c-3,15.4-6,30.7-9,46.1
		c-2,15.7-4,31.4-6,47.1c-1.2,0.3-2.7,0.5-4.4,0.5c-2.2,0.1-4.1-0.2-5.6-0.5c-1.3-15.5-1.9-33.1-1-52.4c1.1-24.2,4.3-45.6,8-63.6
		C973.5,250.2,986.3,250.5,999.1,250.8z"/>
	<path class="st25" d="M999.2,249.2c0.2,2,0.5,4,0.8,6c-2.5,1.4-5.5,2.7-9,3.8c-13.9,4-26.2,0-31.8-2.2c0.1-2.2,0.2-4.3,0.2-6.5
		C972.7,249.9,986,249.6,999.2,249.2z"/>
	<path class="st26" d="M995.1,175.9c-2.3-1.8-5-3.4-8.4-4.6c-15.2-5.5-29.8,3.4-32.7,5.2c0.3,6.6,0.6,13.2,0.9,19.8
		c0.8,15.9,1.7,31.6,2.8,47.2c-0.3,2.4-0.5,4.8-0.8,7.3c4.4,1.7,12.6,4.4,23.3,4.1c9.9-0.3,17.6-3,21.8-4.9c-1-11.3-2-22.7-3-34.2
		C997.7,202.4,996.4,189.1,995.1,175.9z"/>
	<path class="st27" d="M987.3,172.6c-0.9,2.4-1.8,4.9-2.7,7.3c-1.7-0.5-3.4-1-5.1-1.6c-0.5,0.4-1,0.8-1.5,1.2
		c-0.6-0.3-1.3-0.6-1.9-0.9c-1.9,0.6-3.7,1.2-5.6,1.8c-2-2.5-4-5-6-7.5c0.7-0.7,5.3-5.2,12.4-4.9
		C982.6,168.4,986.3,171.6,987.3,172.6z"/>
	<path class="st28" d="M1128.7,169.3c3-0.6,5.6,0.7,6.3,2.7c0.5,1.3-0.1,2.6-0.3,3.2c2.1,0.5,2.7,1.5,2.8,1.8
		c0.9,1.9-0.9,5.4-5.2,7.8c-5.3,1.5-10.4-2.1-11-6.5C1120.9,174.4,1124,170.1,1128.7,169.3z"/>
	<path class="st9" d="M1127.1,179c1.3,0.4,3.3,1.1,5.1,2.7c3.9,3.2,5,7.6,5.7,10c1.4,4.9,3.7,11.7,8.3,21.2c3.9,2.2,6.8,4.2,8.8,5.7
		c3.1,2.2,4.8,3.8,9.7,7.8c3.3,2.7,6,4.9,7.8,6.3c-0.6,1.2-1.1,2.3-1.7,3.5c-5-1.6-10.9-4-17.3-7.5c-6.4-3.5-11.6-7.3-15.7-10.7
		c-3.1-7.1-6.2-14.1-9.3-21.2C1128.1,190.9,1127.6,184.9,1127.1,179z"/>
	<path class="st9" d="M1105.1,244.1c-3.3,9.3-6.7,21.7-7.9,36.6c-0.8,9.8-0.5,18.6,0.2,26c-1,5.2-1.9,10.9-2.4,17
		c-1.3,15.8,0.1,29.7,2.1,40.7c2.1,3.5,2.9,3.9,3.3,3.7c0.3-0.1,0.7-0.8,0.4-3.3c2.3-17.5,5.1-35.8,8.5-54.6
		c3.8-21.3,8.1-41.5,12.7-60.7c-0.9-1.2-2.9-3.6-6.4-5.1C1110.7,242.5,1106.3,243.7,1105.1,244.1z"/>
	<path class="st9" d="M1117.2,243.6c-2,10-3.6,22.8-3,37.4c0.3,9.7,1.5,18.4,3,25.9c-0.3,4.8-0.4,9.8-0.2,15.1
		c0.5,16.2,3.1,30.5,6.3,42.4c3.9,1.7,5.9,2.4,6.1,2.1c0.1-0.2-0.7-0.9-2.3-2.1c0.8-18.3,1.6-36.7,2.5-55.2
		c1-20.9,2.1-41.8,3.2-62.5c-0.7-1-2.1-2.6-4.2-3.6C1123.3,240.5,1117.9,243.3,1117.2,243.6z"/>
	<path class="st28" d="M1114.6,144.7c-0.1-0.2-2.3-4-6.2-4.2c-3.6-0.1-7.2,2.9-7.8,7.3c-0.5,0.1-3.5,0.6-5.2,3.2
		c-1.7,2.8-1.2,6.8,1.7,9.7c-0.5,0.4-2.4,2.2-2.7,5c-0.3,2.9,1.2,5.7,3.8,7.3c-0.1,0.1-0.9,1.8,0,3.5c0.7,1.2,2.1,1.9,3.5,1.8
		c-0.8,1.4-0.8,2.4-0.7,3c0.6,2.9,5.4,4.6,8.7,4.2c6.3-0.8,9.5-9.5,10.2-11.3C1124.7,161.2,1116.7,147.9,1114.6,144.7z"/>
	<path class="st29" d="M1130.7,181c-2-1.3-5-2.9-9-3.7c-8.2-1.6-14.7,1.5-17,2.7c1.3,9.2,2.3,19.6,2.5,31c0.2,9-0.2,17.4-0.8,25
		c-1.7,3.5-3.3,7.3-4.7,11.3c-6.7,19.2-6.7,37-5.3,50c4.9,2.2,14.5,5.5,26.7,4.7c8-0.6,14.4-2.8,18.7-4.7c-3.1-20.3-6.2-40.7-9.3-61
		c0.3-7.9,1.6-14.1,2.7-18.3c1.9-7.4,3.4-9.2,3-14c-0.2-3-0.9-4.1-4.3-14C1132.4,186.1,1131.4,183,1130.7,181z"/>
	<path class="st9" d="M1341.5,158.5c2.8,1.9,3.7,5.9,1.9,9.2c-2.5,5.3-6,11.6-11,18.3c-4.8,6.4-9.7,11.4-14,15.3
		c-4.8-0.7-10.4-1.9-16.5-3.9c-9.9-3.3-17.6-7.9-23.1-11.7c-0.1-0.1-1.5-1.6-1-3.6c0.5-2,2.4-2.6,2.5-2.6c3.1,0.9,6.4,1.7,9.8,2.5
		c8.6,2,16.8,3.2,24.2,3.9c5.7-8.1,11.4-16.2,17.1-24.4C1333.5,157.5,1338.3,156.4,1341.5,158.5z"/>
	<path class="st30" d="M1340.6,155.8c-1.2,0-3,0.1-4.8,0.8c-2.4,1-4,2.7-6.7,6.3c-1.9,2.6-4.2,6.1-6.5,10.5c2,1.7,3.6,2,4.7,2
		C1332.6,175.5,1338.3,167.8,1340.6,155.8z"/>
	<path class="st28" d="M1119.9,139.5c1.1-0.3,5.9-1.4,10.7,1.4c6.5,3.8,6.8,11.5,6.8,12.2c0.1,8.3-7,15.8-11,14.9
		C1123.1,167.2,1120.2,160.8,1119.9,139.5z"/>
	<path class="st31" d="M1126.1,167.1c-0.3,4.9-0.7,9.8-1,14.7c-1.1,0.2-2.9,0.4-5.1-0.1c-3.5-0.8-5.7-3.1-6.5-4
		c0.5-4.8,1-9.7,1.5-14.5C1118.7,164.4,1122.4,165.8,1126.1,167.1z"/>
	<path class="st9" d="M1130.9,143.1c0.5,0.2,3.5,1.8,4.9,5.2c1.2,2.9,0,4.2-0.5,11.1c-0.5,6.6,0.4,7.5-0.9,9.8
		c-1.8,3-5.5,4.7-8.7,4.8c-6.5,0.2-11.5-6.1-13.2-11.4c-0.2-0.6-2.9-9.9,3.3-16.1C1119.5,142.8,1125.8,140.6,1130.9,143.1z"/>
	<path class="st28" d="M1137.1,145.9c-1.4,1.3-3.2,2.7-5.4,4c-6.1,3.7-12.2,4.5-15.9,4.7c-0.1,1.6-0.5,3.7-1.3,5.9
		c-0.5,1.4-1.1,2.6-1.6,3.6c-5.3-5.8-6-14-2.2-19.6c4.7-6.8,13.6-6.1,14.1-6C1132.5,139.2,1136.6,145.1,1137.1,145.9z"/>
	<path class="st32" d="M1362.1,159.3c-0.4,7.3-0.9,14.8-1.5,22.3c-1,12.3-2.1,24.2-3.5,35.7c2.8,5.7,5.6,11.9,8.1,18.6
		c7.5,19.6,10.9,37.9,12.5,53.1c-7.9,3.8-23.6,10-43.7,8.3c-9.8-0.8-17.9-3.3-23.9-5.7c5.3-18.1,10-40,11.9-65
		c0.9-11.4,1.1-22.2,0.9-32.2c-1.6-2.1-4-5.8-3.8-10.4c0.2-3.8,2.1-6.4,5.5-11c5.8-7.9,9.7-13.1,11.9-16c2-1.1,5.3-2.5,9.5-2.7
		C1354.3,153.7,1360.3,157.9,1362.1,159.3z"/>
	<path class="st9" d="M1355.6,156.7c1.5,0.5,4.2,1.5,6.7,4c3.8,3.8,4.6,8.4,4.8,9.9c0.8,6.9,1.5,12.7,0.9,21.9
		c-0.3,4.7-0.8,10.8-1.6,17.9c-4.6,2.6-10.2,5.3-16.7,7.7c-10.7,3.8-20.3,5.4-27.8,6c-1.1-0.4-1.9-1.4-2-2.5
		c-0.2-1.5,0.7-2.6,0.9-2.7c11-5.9,22-11.9,33-17.8c0.1-9.5,0.1-18.9,0.2-28.4C1354.5,167.3,1355.1,162,1355.6,156.7z"/>
	<path class="st31" d="M983,159.7c-0.1,1.9-0.1,4,0,6.2c0.1,2.3,0.3,4.4,0.6,6.3c-1.9,2.1-3.8,4.2-5.8,6.3c-3.1-2.1-6.2-4.3-9.3-6.4
		c0.2-4.1,0.3-8.3,0.5-12.4C973.7,159.7,978.4,159.7,983,159.7z"/>
	<path class="st9" d="M992.9,152.7c0.2-0.1,1.5-0.4,2.3,0.2c1.1,1,0.2,3.2,0.1,3.6c-0.8,1.9-2.5,2.8-3.2,3.1
		C992.3,157.3,992.6,155,992.9,152.7z"/>
	<path class="st9" d="M969.2,149.3c-0.1-0.1-0.8-0.8-1.6-0.6c-0.9,0.2-1.2,1.3-1.3,1.6c-0.8,2.5,2.5,5.4,2.8,5.6
		C969.1,153.7,969.1,151.5,969.2,149.3z"/>
	<path class="st9" d="M982.2,133.8c-4.2-0.2-9.7,1.2-12.3,5.3c-1,1.6-1.1,4.9-1.2,11.3c-0.1,5.8-0.2,8.7,0.5,10.4
		c0.2,0.5,3.3,7.6,10.1,8.4c7,0.7,11.5-5.9,11.9-6.6c1.5-2.3,1.9-4.9,2.6-10.1c0.9-6,1.3-9,0.2-11.5
		C992,136.5,986.7,134.1,982.2,133.8z"/>
	<path class="st32" d="M1368.9,177c-1.5,0.9-3.4,1.9-5.8,2.6c-4,1.3-7.5,1.3-9.9,1.2c-0.3-2.6-0.6-5.5-0.6-8.7
		c0-6.1,0.8-11.5,1.7-15.8c4,0.1,6.4,1.6,7.4,2.3c3.5,2.5,4.6,6.4,5.8,10.9C1368.5,172.6,1368.8,175.3,1368.9,177z"/>
	<path class="st33" d="M1341.6,117c-2,0.2-3.9,0.4-6.1,1.5c-5.6,2.6-11.2,9.1-9.4,14.2c0.3,0.8,1.2,2.8,4.5,4.5
		c0.1,0.5,0.3,1.3,0.9,2.2c2.6,3.7,8.6,0.6,15.1,4.2c3.3,1.8,3.5,3.6,5.8,3.8c3.5,0.3,6.7-3.4,8.8-6.5c0.3-0.1,3.1-1.1,4.1-4.1
		c0.9-2.5-0.2-4.7-0.4-5.1c1.1-3.9,0.4-6.3-0.1-7.5C1360.7,115.1,1342.5,116.9,1341.6,117z"/>
	<path class="st34" d="M1323.1,124.5c0.6,1,2.4,3.6,5.8,5.2c4.1,1.9,7.8,1.1,8.9,0.8c1.1-1.6,2.2-3.1,3.3-4.7l-6.6-2h-6.2
		L1323.1,124.5z"/>
	<path class="st30" d="M1341.5,163.3l12,0.9l5-7.9c-1.1-1-3.2-2.8-6.4-3.6c-5.8-1.5-10.6,1.3-11.6,1.9l-7.8,8.3l5.7,0.5l4.7-3.5
		L1341.5,163.3z"/>
	<path class="st31" d="M1354.9,141.4c-0.5,4.7-1,9.4-1.4,14.1c-2.7,1.6-5.4,3.4-8.3,5.2c-3.1,2.1-6.1,4.1-8.8,6.2
		c2.1-3.5,4.1-7,6.2-10.5c-0.6-4-1.2-8-1.7-12C1345.6,143.4,1350.3,142.4,1354.9,141.4z"/>
	<path class="st9" d="M1339.4,118.9c-3,1.9-4.3,4.8-5,6.1c-0.5,1-1,2.5-1.3,8.9c-0.3,5.4-0.4,8.1,0.1,9.5c0.2,0.6,2.7,6.7,8.8,7.6
		c7.3,1.1,12.9-6.3,13.4-6.9c2.1-2.9,2.6-5.6,3.1-8.5c0.9-5.7,1.9-11.4-2.3-15.2C1352.1,116.5,1344.3,115.8,1339.4,118.9z"/>
	<path class="st33" d="M1342,121c0.3,0.8,0.7,1.7,1.2,2.6c3.2,5.7,8.9,8.3,11.9,9.3c-0.3,0.5-1.3,2.5-0.8,5.1
		c0.6,3.3,3.3,4.8,3.7,5.1c0.9-1.5,2.2-3.8,2.9-7c0.5-2.1,1.7-8.2-1.7-14c-2.7-4.5-8.5-8.7-15.1-8.1c-7.9,0.7-13.4,7.9-12.7,9.1
		c0.2,0.4,1.8,0,4.9-0.6C1338.6,122,1340.6,121.5,1342,121z"/>
	<path class="st32" d="M1357.1,128.3c-3.1,2.1-5.8,2.7-7.5,2.8c-6.1,0.4-9.2-3.7-17.3-5.7c-3.8-0.9-7-1-9.1-0.9
		c3.6-1.2,7.5-2.3,11.6-3.3c1.7-0.4,3.4-0.8,5.1-1.2c1.9-0.1,7.4-0.3,12.5,3.3C1354.7,125,1356.2,126.9,1357.1,128.3z"/>
	<path class="st32" d="M1354.6,126.5c3,1.2,6,2.3,9,3.5c-0.1,0.5-0.3,1-0.4,1.5c-3.2-0.6-6.4-1.3-9.7-1.9
		C1353.9,128.6,1354.3,127.6,1354.6,126.5z"/>
	<path class="st35" d="M1347.3,178.8c-3.7-0.5-7.3-1-11-1.5c-0.4,1.7-0.9,3.3-1.3,5c3.6,0.7,7.2,1.3,10.8,2
		C1346.3,182.5,1346.8,180.7,1347.3,178.8z"/>
	<path class="st36" d="M1342.7,176.8c-0.1,0.6-0.1,1.2-0.2,1.8c-0.8-0.1-1.5-0.2-2.2-0.3c0.3-0.6,0.5-1.2,0.8-1.8
		C1341.6,176.6,1342.1,176.7,1342.7,176.8z"/>
	<path class="st9" d="M1284.2,181.9c-1.2-3.1-2.6-4.2-3.8-4.6c-1-0.4-1.6-0.4-1.8-0.4c-1.5,0.1-2.5,1.3-2.7,1.6
		c-0.5,0.1-1.2,0.1-2.1,0.1c-2.7-0.1-3.8-1.1-5.2-0.5c-0.5,0.2-1.2,0.8-1.1,1.4c0,0.6,0.8,1.2,1.8,1.3c0,1.2,0.3,3.8,2.2,5.1
		c0.7,0.5,1.5,0.6,2.2,0.7c1.7,0.3,4.3,0.7,7.6,0.8C1282.4,185.5,1283.3,183.7,1284.2,181.9z"/>
	<path class="st9" d="M1326.1,217.7c-0.6-0.4-1.5-0.8-2.6-1c-1.5-0.3-2.4,0.1-3.9,0.4c-4.1,0.8-6.7-0.1-6.8,0.5
		c-0.1,0.5,1.4,1.3,1.5,1.4c1.3,0.6,2.5,0.4,2.8,0.3c-1.8,0.6-3.1,1.3-3.9,1.9c-1.3,0.9-2.5,1.7-3,3.2c-0.2,0.5-0.2,1-0.2,1.3
		c-0.6,0.3-0.8,1-0.5,1.5c0.2,0.4,0.7,0.7,1.2,0.6c0.4,0.2,0.9,0.5,1.7,0.7c1.3,0.3,2.4,0,2.8-0.2c1-0.3,1.9-0.6,2.9-0.9
		c-1.1,1-2.2,2.2-2,2.5c0.3,0.4,3-1.1,4.3-1.8c2.3-1.2,5.4-3.1,9-5.8C1328.3,220.8,1327.2,219.2,1326.1,217.7z"/>
	<path class="st37" d="M1280,188.8c0.8-1.2,0.3-2.8-0.8-6.1c-0.8-2.4-1.8-5.5-4.4-8.8c-1.5-1.8-3-3.1-4.1-4c-0.9,0-2.7,0.2-4.6,1.2
		c-1.8,0.9-2.8,2.2-3.4,2.9c0,0.4,0,1.5,0.8,2.6c0.8,1.1,1.8,1.6,2.2,1.7c1-0.3,1.9-0.6,2.9-0.9c2.2,1.6,3.1,3.3,3.4,4.5
		c0.8,2.9,1.1,6.7,1.1,6.7c0,0.5,0,0.9,0.4,1.3C1274.5,191.4,1278.6,190.9,1280,188.8z"/>
	<path class="st38" d="M1269.7,173.2c-1.8,1-3.6,2-5.4,2.9c0.2,0.3,0.4,0.6,0.6,0.9c1.8-1,3.7-2,5.5-2.9
		C1270.1,173.8,1269.9,173.5,1269.7,173.2z"/>
	<path class="st9" d="M1280.4,182.4c-0.4-0.1-1.2-0.2-1.9-0.8c-1.4-1.1-1.5-2.8-1.6-3.1c-0.8-0.8-1.2-1.5-1.4-2
		c-0.4-0.8-0.9-1.9-0.4-2.8c0.2-0.3,0.6-0.7,0.9-0.6c0.4,0.1,0.5,0.8,0.8,1.4c0.7,1.8,2.5,1.8,3.5,3.1
		C1280.7,178.5,1281.2,179.8,1280.4,182.4z"/>
	<path class="st9" d="M1268.6,178.2c1.5-0.4,2.6-0.2,3.1-0.1c0.4,0.1,1.1,0.3,1.1,0.8c0.1,0.4-0.3,0.8-0.8,1.1
		c0.1,0,0.9,0.4,1.1,1.2c0.1,0.5-0.1,0.9-0.1,1.1c0.1,0.2,0.3,0.6,0.2,1.1c-0.1,1-1.1,1.4-1.1,1.4
		C1270.9,182.6,1269.8,180.4,1268.6,178.2z"/>
	<path class="st9" d="M1107.8,178.8c-1.3,0.1-3.2,0.4-5.2,1.7c-5,3.1-5.6,9.2-5.6,10c-3.1,9.6-5.4,17.7-6.9,23.8
		c-3.1,11.9-3.6,16.4-3.8,18.5c-0.9,8.3-0.4,15.3,0.2,20.2c1.4,0.1,2.8,0.1,4.2,0.2c0.6-3,1.2-6.1,1.8-9.2c1.9-9.1,3.8-18,5.8-26.8
		c3-7.8,6.1-15.5,9.1-23.2c0.5-1.9,0.9-4.2,1-6.8C1108.5,183.8,1108.2,181,1107.8,178.8z"/>
	<path class="st20" d="M991.4,140.9c-0.8,0.8-1.7,1.4-2.5,1.8c-7.1,4.2-15.5,1.5-18.2,0.5c0,1,0,2.1-0.2,3.4c-0.3,1.6-0.7,3-1.2,4
		c-0.4-0.5-1-1.3-1.4-2.2c-2.2-4.6-0.8-10.4,1.7-13.5c4.1-5.1,13.9-6.2,22-0.3c1.2-0.2,1.9,0,2.5,0.3c3,1.7,2.7,9.1-0.3,18.3
		c0.3-1.6,0.5-4.4-0.3-7.7C992.9,143.6,992.1,142,991.4,140.9z"/>
	<path class="st6" d="M1101,275.5h2.7v-15.2c0-1.5-1.2-2.7-2.7-2.7l0,0V275.5z"/>
	<rect x="1082.6" y="257.7" class="st6" width="18.4" height="3.1"/>
	<path class="st9" d="M1090.8,251.4c0.8,1.5,1.4,2.8,1.8,3.8c1.2,2.9,1.2,3.9,1.1,4.4c-0.1,1.3-0.7,3-1.4,3c-0.3,0-0.6-0.3-0.8-0.6
		c-0.3,0.1-0.8,0.1-1.4,0.2c-1.1,0.1-1.8,0.1-2.5-0.2c-0.3-0.1-0.8-0.5-1.2-1.3c0.4-0.1,0.7-0.2,1.1-0.3c0.1-0.1,0.2-0.3,0.3-0.5
		c0.3-0.7,0.2-1.3,0.1-1.6c-0.4-0.4-0.9-1-1.3-1.9c-1.1-2.2-0.6-4.4-0.4-5.1C1087.8,251.3,1089.3,251.4,1090.8,251.4z"/>
	<rect x="1060.1" y="272.7" class="st7" width="64.3" height="2.9"/>
	<path class="st7" d="M1114.7,304.5h-45.6c-1.6,0-3-1.1-3.2-2.6l-3.7-26.4h59.5l-3.7,26.4C1117.8,303.4,1116.3,304.5,1114.7,304.5z"
		/>
	<path class="st8" d="M1114,300.8L1114,300.8c-0.7,0-1.1-0.5-1-1.2l3.1-24h2.4l-3.1,24C1115.3,300.2,1114.7,300.8,1114,300.8z"/>
	<path class="st8" d="M1109.9,300.8L1109.9,300.8c-0.7,0-1.1-0.5-1-1.2l3.1-24h2.4l-3.1,24C1111.2,300.2,1110.6,300.8,1109.9,300.8z
		"/>
	<path class="st8" d="M1105.8,300.8L1105.8,300.8c-0.7,0-1.1-0.5-1-1.2l3.1-24h2.4l-3.1,24C1107,300.2,1106.4,300.8,1105.8,300.8z"
		/>
	<path class="st8" d="M1101.7,300.8L1101.7,300.8c-0.7,0-1.1-0.5-1-1.2l3.1-24h2.4l-3.1,24C1102.9,300.2,1102.3,300.8,1101.7,300.8z
		"/>
	<path class="st6" d="M1084.2,277.4h-5.4c-1.3,0-2.4-1.1-2.4-2.4v-0.9h10.1v0.9C1086.6,276.3,1085.5,277.4,1084.2,277.4z"/>
	<path class="st6" d="M1082.6,275.5h-2.7v-15.2c0-1.5,1.2-2.7,2.7-2.7l0,0V275.5z"/>
	<path class="st6" d="M744.4,348.2h2.7v-15.2c0-1.5-1.2-2.7-2.7-2.7l0,0V348.2z"/>
	<rect x="726" y="330.4" class="st6" width="18.4" height="3.1"/>
	<rect x="703.5" y="345.4" class="st7" width="64.3" height="2.9"/>
	<path class="st7" d="M758.2,377.2h-45.6c-1.6,0-3-1.1-3.2-2.6l-3.7-26.4h59.5l-3.7,26.4C761.2,376.1,759.8,377.2,758.2,377.2z"/>
	<path class="st8" d="M757.5,373.5L757.5,373.5c-0.7,0-1.1-0.5-1-1.2l3.1-24h2.4l-3.1,24C758.7,373,758.1,373.5,757.5,373.5z"/>
	<path class="st8" d="M753.3,373.5L753.3,373.5c-0.7,0-1.1-0.5-1-1.2l3.1-24h2.4l-3.1,24C754.6,373,754,373.5,753.3,373.5z"/>
	<path class="st8" d="M749.2,373.5L749.2,373.5c-0.7,0-1.1-0.5-1-1.2l3.1-24h2.4l-3.1,24C750.5,373,749.9,373.5,749.2,373.5z"/>
	<path class="st8" d="M745.1,373.5L745.1,373.5c-0.7,0-1.1-0.5-1-1.2l3.1-24h2.4l-3.1,24C746.3,373,745.7,373.5,745.1,373.5z"/>
	<path class="st6" d="M727.6,350.1h-5.4c-1.3,0-2.4-1.1-2.4-2.4v-0.9H730v0.9C730,349,728.9,350.1,727.6,350.1z"/>
	<path class="st6" d="M726,348.2h-2.7v-15.2c0-1.5,1.2-2.7,2.7-2.7l0,0V348.2z"/>
	<path class="st27" d="M960,183c0.7,4.5,1.6,9.2,2.8,14.1c1.2,5.1,2.5,9.9,3.9,14.4c8-1.1,16-2.2,24-3.2c0.6,2.1,1.2,4.2,1.8,6.4
		c-1.7,2.1-3.8,4.3-6.1,6.4c-9.9,8.8-20.8,12.6-28.1,14.2c-0.5-2.9-1-5.8-1.5-8.6C957.7,212.1,958.8,197.5,960,183z"/>
	<path class="st26" d="M962.3,172.5c-1.5,0.2-3.6,0.7-5.9,1.8c-1.9,0.9-3.4,1.9-4.5,2.8c-1.1,2.9-2.4,7-3.2,12
		c-0.3,2.1-1.1,7.3-0.5,16c0.4,6.1,1.5,14.8,4.6,25.2c6.1-0.2,15.7-1.4,26.1-6.2c6.2-2.9,11-6.3,14.5-9.2c0.2-0.7,0.5-2.2,0-4
		c-0.4-1.6-1.3-2.7-1.8-3.2c-9.4,2.1-18.8,4.2-28.2,6.2c-1-5-1.9-10.8-2.2-17.2C960.7,187.3,961.4,179.1,962.3,172.5z"/>
	<path class="st9" d="M991.6,208.4c2-0.5,3.6-0.7,4.8-0.9c3.9-0.4,7-0.8,9,1c0.6,0.6,1.1,1.4,1.5,2c0.7,1.2,1.3,2.1,1,3
		c-0.2,0.6-0.7,1-1.1,1.2c-0.4,0.2-1.1,0.5-1.8,1c-1.3,1-1.5,1.6-2.4,1.9c-1.2,0.4-2.7-0.3-2.8-0.9c0-0.1,0.1-0.6,1.6-1.1
		c-0.6-0.6-1.2-1.2-1.8-1.8c-0.6,0.2-1.3,0.5-2,0.6c-2.7,0.6-4.9,0.2-6.4-0.2c-0.3-0.4-0.8-1.3-0.9-2.5
		C990.4,209.9,991.3,208.7,991.6,208.4z"/>
	<path class="st39" d="M992.6,208.2c-0.2-0.4-0.5-0.8-0.8-1.2c-0.7,0-1.5,0-2.4,0.2c-1.9,0.3-3.3,0.9-4.4,1.4c0,0.6,0.1,1.2,0.1,1.8
		c0.5,0.2,0.9,0.5,1.4,0.8c0,0.5,0.1,1.2,0.4,1.9c0.6,1.7,1.8,2.7,2.4,3.2c0.9-0.4,1.8-0.8,2.7-1.2c-0.1-0.2-0.2-0.5-0.2-0.8
		c-0.2-0.4-0.5-1-0.7-1.6c-0.4-1.1-0.5-2-0.5-2.8C991.2,209.4,991.9,208.8,992.6,208.2z"/>
	<path class="st40" d="M983.6,261.5c0,0,0,0.8,0,2.1c0,1.3,0.1,2.9,0.2,4.6c0,0.4,0,0.9-0.1,1.4c-0.1,0.5-0.3,0.9-0.5,1.3
		c-0.5,0.8-1.2,1.2-1.9,1.4c-0.6,0.3-1.2,0.4-1.5,0.4c-0.4,0-0.6,0.1-0.6,0.1s0.2-0.1,0.5-0.2c0.3-0.2,0.8-0.4,1.3-0.7
		c0.5-0.3,1-0.8,1.4-1.4c0.4-0.6,0.4-1.3,0.3-2.1c0-0.4,0-0.8,0-1.3c0-0.4,0-0.8,0-1.2c0-0.8,0.1-1.6,0.3-2.2
		C983.3,262.3,983.6,261.5,983.6,261.5z"/>
	<g>
		<polygon class="st40" points="958.6,267.6 957.6,264.9 965.1,259.7 965.6,260.5 958.8,265.3 959.6,267.2 		"/>
	</g>
	<path class="st40" d="M972.5,261.5c0,0-1.2,6.4-2.9,15.9c-0.4,2.4-0.9,5-1.3,7.7c-0.5,2.7-1,5.6-1.5,8.6c-1.1,6-1.9,12.4-2.6,18.8
		c-0.3,3.2-0.6,6.4-0.9,9.6c-0.3,3.2-0.6,6.3-0.8,9.3c-0.5,6-1,11.7-1.4,16.5c-0.8,9.7-1.3,16.1-1.3,16.1l-0.1,0c0,0,0-1.6,0.1-4.5
		c0.1-2.8,0.2-6.9,0.4-11.7c0.1-2.4,0.3-5.1,0.5-7.8c0.2-2.8,0.4-5.7,0.7-8.7c0.6-6,1.3-12.5,2.3-18.9c0.5-3.2,0.9-6.4,1.4-9.6
		c0.4-3.2,0.8-6.3,1.2-9.3c0.4-3,0.8-5.9,1.2-8.7c0.4-2.8,0.9-5.3,1.4-7.7c0.5-2.4,0.9-4.6,1.3-6.5c0.4-1.9,0.8-3.6,1.2-5
		C972,263.1,972.4,261.5,972.5,261.5L972.5,261.5z"/>
	<path class="st40" d="M994.8,259.2c0,0,0.2,1.6,0.6,4.4c0.2,1.4,0.4,3.1,0.7,5.1c0.3,2,0.5,4.2,0.7,6.6c0.3,2.4,0.5,5,0.7,7.8
		c0.2,2.8,0.4,5.7,0.5,8.7c0.1,3,0.3,6.1,0.5,9.3c0.2,3.2,0.5,6.4,0.7,9.6c0.6,6.4,1.1,12.9,1.8,18.9c0.3,3,0.7,5.9,1,8.7
		c0.3,2.8,0.6,5.4,0.9,7.8c1.2,9.6,2,16,2,16l-0.1,0c0,0-0.3-1.6-0.9-4.4c-0.5-2.8-1.2-6.8-1.9-11.5c-0.4-2.4-0.7-5-1.1-7.8
		c-0.3-2.8-0.7-5.7-1-8.7c-0.3-3-0.6-6.1-0.8-9.3c-0.2-3.2-0.4-6.4-0.5-9.6c-0.1-3.2-0.3-6.5-0.5-9.6c-0.2-3.2-0.5-6.3-0.8-9.3
		c-0.3-3-0.6-5.9-0.9-8.7c-0.3-2.8-0.5-5.4-0.7-7.8c-0.4-4.8-0.8-8.8-1-11.7C994.8,260.9,994.7,259.3,994.8,259.2L994.8,259.2z"/>
	<path class="st41" d="M785.8,250.8c0.3,8.9,0.7,18,1.4,27.3c0.8,12.5,2,24.6,3.3,36.2c-1.1,0.9-4.6,3.7-10,4c-5.3,0.3-9-2-10.2-2.8
		c-2.6-28.5-4.2-42.8-4.8-42.7c-0.6,0,0,14.6,1.5,43.7c-2,0.9-5.1,2.2-9.2,2.5c-5.2,0.4-9.3-0.9-11.5-1.8c-0.8-10.3-1.2-21.7-1-34
		c0.2-12,1.1-23.1,2.2-33.2C760.2,250.2,773,250.5,785.8,250.8z"/>
	<path class="st42" d="M786,249.2c0,2.2,0.1,4.4,0.1,6.6c-2.4,1.2-5.2,2.3-8.3,3.2c-13.2,3.6-24.8,0.5-30.9-1.8
		c-0.1-2.3-0.2-4.6-0.2-6.9C759.7,250,772.8,249.6,786,249.2z"/>
	<path class="st17" d="M781.8,175.9c-2.3-1.8-5-3.4-8.4-4.6c-15.2-5.5-29.8,3.4-32.7,5.2c0.3,6.6,0.6,13.2,0.9,19.8
		c0.8,15.9,1.7,31.6,2.8,47.2c-0.3,2.4-0.5,4.8-0.8,7.3c4.4,1.7,12.6,4.4,23.3,4.1c9.9-0.3,17.6-3,21.8-4.9c-1-11.3-2-22.7-3-34.2
		C784.5,202.4,783.2,189.1,781.8,175.9z"/>
	<path class="st19" d="M768.1,168.9c2,0.7,3.4,1.7,4.2,2.4c-0.2,2.9-0.6,6-1.1,9.2c-0.6,4.2-1.5,8.1-2.3,11.7
		c-5.5-6.6-10.9-13.3-16.4-19.9c1.7-2,3.4-2.9,4.4-3.4C762,166.6,766.9,168.5,768.1,168.9z"/>
	<path class="st43" d="M769.8,159.7c-0.1,1.9-0.1,4,0,6.2c0.1,2.3,0.3,4.4,0.6,6.3c-0.8,5.6-1.6,11.1-2.4,16.7
		c-4.2-5.6-8.4-11.2-12.6-16.8c0.2-4.1,0.3-8.3,0.5-12.4C760.5,159.7,765.1,159.7,769.8,159.7z"/>
	<path class="st18" d="M775.5,148.3c0.2-0.1,1.3-0.8,2.2-0.4c1.4,0.6,1.1,3,1.1,3.4c-0.2,2.1-1.6,3.4-2.2,3.9
		C776.3,152.9,775.9,150.6,775.5,148.3z"/>
	<path class="st18" d="M751.8,151.7c-0.1-0.1-1-0.5-1.7-0.1c-0.8,0.4-0.8,1.6-0.8,1.9c0,2.6,3.9,4.4,4.3,4.6
		C753,156,752.4,153.8,751.8,151.7z"/>
	<path class="st18" d="M760,133.1c-4.1,0.9-9,3.9-10.3,8.6c-0.5,1.8,0.3,5,2,11.2c1.5,5.6,2.3,8.4,3.4,9.9c0.3,0.4,5.3,6.4,12,5.2
		c6.9-1.3,9.3-8.9,9.6-9.7c0.8-2.6,0.4-5.2-0.3-10.4c-0.8-6-1.3-9-3-11.1C770.2,133,764.4,132.1,760,133.1z"/>
	<path class="st19" d="M746.7,183c0.7,4.1,1.7,8.7,3.2,13.5c1.3,4.3,2.7,8.3,4.2,11.8c10.6-0.1,21.1-0.2,31.7-0.3
		c0.3,6,0.6,12,0.8,18c-5-1.9-10-3.8-15-5.7c-8.9,5-17.8,9.9-26.7,14.9c-1.5-8.8-2.4-20-1.3-32.9C744.2,195.1,745.3,188.6,746.7,183
		z"/>
	<path class="st43" d="M786.1,207.3c-2.8,0.1-6.9,0.1-11.7-0.5c-9.7-1.2-14.9-4-18.7-1.2c-1.1,0.8-2.4,2.3-3,5.3
		c4.7,1,9.6,2.1,14.7,3.3c6.3,1.6,12.4,3.3,18.2,5c2.4-0.7,4.1-2.7,4.5-5C790.5,211.5,788.9,208.6,786.1,207.3z"/>
	<path class="st44" d="M770.3,261.5c0,0,0,0.8,0,2.1c0,1.3,0.1,2.9,0.2,4.6c0,0.4,0,0.9-0.1,1.4c-0.1,0.5-0.3,0.9-0.5,1.3
		c-0.5,0.8-1.2,1.2-1.9,1.4c-0.6,0.3-1.2,0.4-1.5,0.4c-0.4,0-0.6,0.1-0.6,0.1s0.2-0.1,0.5-0.2c0.3-0.2,0.8-0.4,1.3-0.7
		c0.5-0.3,1-0.8,1.4-1.4c0.4-0.6,0.4-1.3,0.3-2.1c0-0.4,0-0.8,0-1.3c0-0.4,0-0.8,0-1.2c0-0.8,0.1-1.6,0.3-2.2
		C770,262.3,770.3,261.5,770.3,261.5z"/>
	<path class="st45" d="M1133.4,241c-1.5,0.6-3.1,1.2-4.8,1.7c-10.2,2.6-19.4-0.7-24-2.8c0.5-1.4,1-2.9,1.5-4.3
		c0.1-3.8,0.3-7.6,0.4-11.4c4.3,1,9.5,1.8,15.2,2c4.3,0.2,8.3,0.1,11.8-0.2c-0.3,3.2-0.6,6.4-0.8,9.7
		C1132.9,237.4,1133.2,239.2,1133.4,241z"/>
	<path class="st46" d="M854.7,365.1c0.1,0.5,0.2,1.2,0.5,2.1c0.8,2.6,1.8,3.5,1.4,4.2c-0.4,0.7-1.8,0.8-2.8,0.4
		c-1.2-0.5-1.7-1.8-2.2-3.1c-0.3-0.7-0.4-1.3-0.5-1.7c0-0.7,0.1-1.4,0.1-2.2C852.3,364.9,853.5,365,854.7,365.1z"/>
	<path class="st46" d="M875.4,364.3c0,1.1-0.1,2.2-0.1,3.2c1.1,0.5,2.8,1.2,5,1.6c0.6,0.1,3.9,0.7,4.1,0.1
		C884.5,368.9,883,367.7,875.4,364.3z"/>
	<path class="st47" d="M854.7,366.4c0.2,2.3-0.1,2.9-0.4,3c-0.4,0.1-1.1-0.2-3.1-3.5c-0.8-4.2-1.5-8.9-1.9-14h7.4
		C856,356.9,855.3,361.7,854.7,366.4z"/>
	<path class="st46" d="M874.4,259.3c-2.5,10.4-4.9,21.2-7.2,32.3c-1.6,7.9-3.2,15.9-4.6,24.1c-1.8,9.7-3.3,19.2-4.8,28.6
		c-0.4,2.6-0.8,5.2-1.1,7.8c-0.6,0.3-1.6,0.9-2.9,1c-2.2,0.2-3.9-0.6-4.5-1c-0.2-2-0.4-4.7-0.5-7.8c-0.2-5.1-0.1-10.5,0.4-16.1
		c0.5-5.7,1.2-11,2.2-15.8c-0.7-6.9-0.9-15.1-0.2-24.2c1.2-13.8,4.3-25.3,7.4-33.9c1.2-0.4,5.2-1.5,9.8,0.4c0.4,0.2,0.8,0.4,1.2,0.6
		C872.2,256.5,873.7,258.4,874.4,259.3z"/>
	<path class="st47" d="M881.2,367.8c-0.2,0.3-2-0.4-5.7-2c-1.2-4.3-2.2-8.9-3.1-13.9h7.2c-0.2,4.6-0.4,9.3-0.6,13.9
		C880.6,367,881.3,367.6,881.2,367.8z"/>
	<path class="st46" d="M884.3,256.6c-1.1,19.2-2.1,38.5-3,58c-0.5,9.9-0.9,19.8-1.4,29.6c-0.1,2.6-0.2,5.2-0.3,7.8
		c-0.6,0.3-1.7,0.7-3.1,0.8c-2,0.1-3.5-0.5-4.2-0.8c-0.4-2-0.8-4.6-1.2-7.8c-0.8-5.6-1.3-11.5-1.4-17.8c-0.1-4.9-0.1-9.6,0.2-14
		c-1.2-6.1-2.2-13.1-2.7-20.9c-0.1-1-0.1-2.1-0.1-3.1c-0.5-13,0.8-24.3,2.5-33.3c0.1-0.5,0.2-0.9,0.3-1.4c0.6-0.3,5.7-2.9,10.5-0.5
		C882.4,254.2,883.6,255.7,884.3,256.6z"/>
	<path class="st48" d="M882.5,195.6c-1.8-1.2-4.6-2.7-8.4-3.4c-7.6-1.5-13.7,1.4-15.8,2.5c1.2,8.5,2.1,18.2,2.3,28.8
		c0.1,8.4-0.2,16.1-0.8,23.2c-1.4,3.5-2.9,7-4.3,10.5c2.9,1.6,7.9,3.8,14.5,4.5c6.6,0.7,11.9-0.4,15-1.3
		c-1.3-19.6-0.1-27.2,1.4-30.4c0,0,2.2-4.8,2.8-10.3c0.1-0.8,0.1-1.7,0-2.7c-0.2-2.7-0.9-3.8-4-13
		C884,200.4,883.1,197.4,882.5,195.6z"/>
	<path class="st21" d="M872.4,157c1-0.3,5.5-1.3,9.9,1.3c6,3.5,6.3,10.7,6.3,11.3c0.1,7.7-6.5,14.7-10.3,13.9
		C875.3,182.8,872.7,176.8,872.4,157z"/>
	<path class="st49" d="M878.2,182.7c-0.3,4.5-0.6,9.1-1,13.6c-1,0.2-2.7,0.4-4.7-0.1c-3.3-0.8-5.3-2.9-6-3.7c0.4-4.5,0.9-9,1.3-13.5
		C871.3,180.2,874.8,181.4,878.2,182.7z"/>
	<path class="st47" d="M882.6,160.4c0.5,0.2,3.3,1.7,4.6,4.8c1.1,2.7,0,3.9-0.4,10.3c-0.4,6.1,0.4,7-0.8,9.1
		c-1.7,2.8-5.1,4.4-8.1,4.5c-6,0.2-10.7-5.6-12.3-10.6c-0.2-0.5-2.7-9.2,3.1-14.9C872,160.1,877.9,158,882.6,160.4z"/>
	<path class="st21" d="M888.4,163c-1.3,1.2-3,2.5-5,3.7c-5.7,3.4-11.3,4.2-14.7,4.4c-0.4,1.7-0.8,3.6-1.2,5.5
		c-0.7,3.9-1.2,7.6-1.4,11c-6.8-8.8-7.2-19.6-2.1-25.8c2.4-2.9,7.2-6.2,13.1-5.6C884.1,156.8,887.9,162.2,888.4,163z"/>
	<path class="st47" d="M860.8,193.9c-1.1,0.3-3,1.1-4.5,3c-2.2,2.8-2.6,6.9-0.9,10.6c1,9.3,2.2,17,3.2,22.8
		c2,11.3,3.2,15.3,3.8,17.1c2.4,7.4,5.5,13.1,7.8,17c1.2-0.5,2.4-1,3.6-1.4c-0.7-2.8-1.3-5.6-1.9-8.5c-1.9-8.4-3.7-16.7-5.3-24.9
		c-0.4-7.7-0.8-15.4-1.2-23.1c-0.4-1.9-1-3.9-1.8-6.2C862.8,197.8,861.8,195.7,860.8,193.9z"/>
	<path class="st6" d="M883.4,283.3h2.5v-14.1c0-1.4-1.1-2.5-2.5-2.5h0V283.3z"/>
	<rect x="866.3" y="266.8" class="st6" width="17.1" height="2.9"/>
	<path class="st47" d="M872.7,259.5c1.5,1.7,2.3,3.3,2.9,4.4c1.2,2.5,1.1,3.7,1,4.1c-0.1,1.3-0.7,2.8-1.3,2.8
		c-0.3,0-0.5-0.2-0.7-0.5c-0.3,0.1-0.8,0.1-1.3,0.2c-1,0.1-1.7,0.1-2.3-0.2c-0.2-0.1-0.7-0.5-1.1-1.2c0.3-0.1,0.7-0.2,1-0.3
		c0.1-0.1,0.2-0.3,0.3-0.5c0.3-0.6,0.2-1.2,0.1-1.5c-0.4-0.4-0.9-1-1.2-1.7c-1-2.1-0.6-4.1-0.4-4.8
		C870.7,260,871.7,259.8,872.7,259.5z"/>
	<rect x="845.6" y="280.7" class="st7" width="59.7" height="2.7"/>
	<path class="st7" d="M896.4,310.3H854c-1.5,0-2.8-1.1-3-2.4l-3.4-24.5h55.2l-3.4,24.5C899.2,309.2,897.8,310.3,896.4,310.3z"/>
	<path class="st8" d="M895.7,306.8L895.7,306.8c-0.6,0-1-0.5-1-1.1l2.9-22.3h2.2l-2.9,22.3C896.9,306.3,896.3,306.8,895.7,306.8z"/>
	<path class="st8" d="M891.9,306.8L891.9,306.8c-0.6,0-1-0.5-1-1.1l2.9-22.3h2.2l-2.9,22.3C893,306.3,892.5,306.8,891.9,306.8z"/>
	<path class="st8" d="M888,306.8L888,306.8c-0.6,0-1-0.5-1-1.1l2.9-22.3h2.2l-2.9,22.3C889.2,306.3,888.7,306.8,888,306.8z"/>
	<path class="st8" d="M884.2,306.8L884.2,306.8c-0.6,0-1-0.5-1-1.1l2.9-22.3h2.2l-2.9,22.3C885.4,306.3,884.8,306.8,884.2,306.8z"/>
	<path class="st6" d="M867.8,285.1h-5c-1.2,0-2.2-1-2.2-2.2V282h9.4v0.8C870,284.1,869,285.1,867.8,285.1z"/>
	<path class="st6" d="M866.3,283.3h-2.5v-14.1c0-1.4,1.1-2.5,2.5-2.5l0,0V283.3z"/>
	<path class="st9" d="M1168.7,231.9c0.1-0.1,0.6-0.5,1.3-0.8c1.4-0.5,2.6,0.1,4,0.6c4,1.4,6.4,1.4,6.4,2c0,0.3-0.5,0.5-0.8,0.6
		c-1.7,0.6-3.3-0.4-3.6-0.6c0.7,0.7,1.8,1.6,3.2,2.7c2,1.4,3.5,2.2,3.3,2.8c-0.1,0.2-0.3,0.4-1.3,0.5c-0.5,0.3-1.1,0.5-1.6,0.7
		c-5.7,1.5-11.6-5.5-12.3-6.3C1167.5,233.6,1167.8,232.7,1168.7,231.9z"/>
	<path class="st50" d="M661.1,181c-2-1.3-5-2.9-9-3.7c-8.2-1.6-14.7,1.5-17,2.7c1.3,9.2,2.3,19.6,2.5,31c0.2,9-0.2,17.4-0.8,25
		c-1.2,2.9-2.4,5.8-3.5,8.7c2.4,1.8,10,7,20.3,6.2c4.4-0.3,7.9-1.7,10.3-2.8c-1.4-18.6-0.1-26.5,1.5-30c0,0,2.4-5.2,3-11.1
		c0.1-0.9,0.1-1.8,0-2.9c-0.2-3-0.9-4.1-4.3-14C662.7,186.1,661.7,183,661.1,181z"/>
	<path class="st16" d="M654.9,177.2c0.8,0.7,1.2,1.4,1.3,1.6c0.8,1.5,1.4,3.9,0.4,5.2c-1.5,2.2-6.6,1.1-9.8-0.6
		c-2.5-1.3-5.6-4.1-4.9-5.9c0.3-0.9,1.4-1.2,2.8-1.7C645.2,175.7,651.2,173.9,654.9,177.2z"/>
	<path class="st51" d="M654,140.4c1.1-0.1,6.1-0.4,10.3,3.2c5.8,4.9,4.7,12.5,4.6,13.2c-1.3,8.2-9.6,14.4-13.4,12.8
		C652.4,168.4,650.7,161.5,654,140.4z"/>
	<path class="st31" d="M656.5,167.1c-0.3,4.9-0.7,9.8-1,14.7c-1.1,0.2-2.9,0.4-5.1-0.1c-3.5-0.8-5.7-3.1-6.5-4
		c0.5-4.8,1-9.7,1.5-14.5C649,164.4,652.8,165.8,656.5,167.1z"/>
	<path class="st9" d="M664.2,145.9c0.4,0.3,3.2,2.4,4,6c0.7,3-0.7,4.1-2.4,10.8c-1.6,6.4-0.9,7.5-2.5,9.5c-2.3,2.7-6.2,3.7-9.4,3.3
		c-6.4-0.9-10.3-8-11.1-13.5c-0.1-0.6-1.2-10.2,6-15.3C653,143.7,659.7,142.6,664.2,145.9z"/>
	<path class="st51" d="M669.9,149.7c-1.6,1.1-3.6,2.1-6,3c-6.7,2.6-12.8,2.4-16.4,1.9c-0.4,1.6-1.1,3.5-2.3,5.6
		c-0.7,1.3-1.5,2.4-2.2,3.2c-4.2-6.6-3.5-14.8,1.2-19.6c5.8-5.9,14.5-3.7,14.9-3.5C666.5,142.3,669.5,148.8,669.9,149.7z"/>
	<path class="st9" d="M640.1,178.8c-1.3,0.1-3.2,0.4-5.2,1.7c-5,3.1-5.6,9.2-5.6,10c-3.1,9.6-5.4,17.7-6.9,23.8
		c-3.1,11.9-3.6,16.4-3.8,18.5c-0.9,8.3-0.4,15.3,0.2,20.2c1.4,0.1,2.8,0.1,4.2,0.2c0.6-3,1.2-6.1,1.8-9.2c1.9-9.1,3.8-18,5.8-26.8
		c3-7.8,6.1-15.5,9.1-23.2c0.5-1.9,0.9-4.2,1-6.8C640.8,183.8,640.5,181,640.1,178.8z"/>
	<path class="st6" d="M633.3,275.5h2.7v-15.2c0-1.5-1.2-2.7-2.7-2.7l0,0V275.5z"/>
	<rect x="614.9" y="257.7" class="st6" width="18.4" height="3.1"/>
	<path class="st9" d="M623.3,250.3c1,2.1,1.8,3.7,2.4,4.9c0.3,0.6,1.3,2.3,1.3,4.2c0,0.1,0,0.2,0,0.3c-0.1,1.3-0.8,3-1.6,3
		c-0.3,0-0.6-0.3-0.9-0.6c-0.4,0.1-0.9,0.1-1.6,0.2c-1.2,0.1-2,0.1-2.8-0.2c-0.3-0.1-0.9-0.5-1.3-1.3c0.4-0.1,0.8-0.2,1.2-0.3
		c0.1-0.1,0.3-0.3,0.4-0.5c0.3-0.7,0.2-1.3,0.1-1.6c-0.5-0.4-1-1-1.5-1.9c-1.2-2.2-0.7-4.4-0.5-5.1
		C620.2,251,621.7,250.6,623.3,250.3z"/>
	<rect x="592.4" y="272.7" class="st7" width="64.3" height="2.9"/>
	<path class="st7" d="M647.1,304.5h-45.6c-1.6,0-3-1.1-3.2-2.6l-3.7-26.4H654l-3.7,26.4C650.1,303.4,648.7,304.5,647.1,304.5z"/>
	<path class="st8" d="M646.4,300.8L646.4,300.8c-0.7,0-1.1-0.5-1-1.2l3.1-24h2.4l-3.1,24C647.6,300.2,647,300.8,646.4,300.8z"/>
	<path class="st8" d="M642.2,300.8L642.2,300.8c-0.7,0-1.1-0.5-1-1.2l3.1-24h2.4l-3.1,24C643.5,300.2,642.9,300.8,642.2,300.8z"/>
	<path class="st8" d="M638.1,300.8L638.1,300.8c-0.7,0-1.1-0.5-1-1.2l3.1-24h2.4l-3.1,24C639.4,300.2,638.8,300.8,638.1,300.8z"/>
	<path class="st8" d="M634,300.8L634,300.8c-0.7,0-1.1-0.5-1-1.2l3.1-24h2.4l-3.1,24C635.3,300.2,634.7,300.8,634,300.8z"/>
	<path class="st6" d="M616.6,277.4h-5.4c-1.3,0-2.4-1.1-2.4-2.4v-0.9h10.1v0.9C618.9,276.3,617.9,277.4,616.6,277.4z"/>
	<path class="st6" d="M614.9,275.5h-2.7v-15.2c0-1.5,1.2-2.7,2.7-2.7l0,0V275.5z"/>
	<path class="st48" d="M866.1,209.6c-1.3-0.1-2.8-0.1-4.4,0c-2.6,0.1-4.9,0.5-6.9,1c-0.3-1.7-0.7-4.3-0.9-7.5
		c-0.1-2.4-0.2-3.7,0.2-4.8c1.5-4,7.7-5.1,9.5-5.4C864.5,198.5,865.3,204.1,866.1,209.6z"/>
	<path class="st47" d="M888.6,223.4c0.2,2.3,0.3,4.6,0.3,7.1c0.2,13.3-2.2,24.9-5.2,34.5c-1.4,0.1-2.8,0.1-4.2,0.2
		c0.1-1.2,0.4-3,0.5-4.2c0.9-7.5,1.4-12.4,1.5-12.9C882.1,243.8,883.7,236.5,888.6,223.4z"/>
	<path class="st47" d="M880.2,259.3c0,1.5-0.4,2.6-0.7,3.3c-0.7,1.7-1.4,2.8-1.4,2.8c-0.5,0.8-0.8,1.2-0.7,1.4
		c0.2,0.4,1.3,0.2,2.1,0c0.3,0.9,0.6,1.8,0.9,2.8c-0.7,0-1.3,0-2,0c0.2,0.5,0.7,1.4,1.6,1.6c0.1,0,0.4,0.1,1.7-0.3
		c0.8-0.3,1.3-0.4,1.5-0.5c0.5-0.3,1.3-1.1,1.6-5.5c0.1-1.2,0.1-3,0-5.1C883.3,259.7,881.7,259.5,880.2,259.3z"/>
	<path class="st48" d="M885.3,208.3c1-0.4,1.9-0.7,2.9-1.1c-0.9-3.7-1.9-6.5-2.8-8.4c-0.5-1.2-1-2.1-1.9-3c-1.7-1.6-3.8-2-5-2.1
		C880.8,198.6,883.1,203.5,885.3,208.3z"/>
	<path class="st20" d="M773.6,134.5c-0.1,1.7-1.3,3.2-2.8,3.7c-2.1,0.6-3.7-0.7-3.8-0.8c-1,0.7-2.3,1.4-3.8,2
		c-3.6,1.4-6.9,1.5-9,1.3c0.3,0.9,0.5,2.4,0.2,4.2c-0.9,4.4-5.1,6.3-5.7,6.5c-0.8-1.4-3.9-6.8-2-12.5c2.8-8.5,14.7-12.4,22-8.8
		C771.1,131.2,772.7,133.2,773.6,134.5z"/>
	<path class="st18" d="M753.6,210.7c6-1.2,12-2.3,18-3.5c1.2-0.9,4-3,7.7-3c1,0,2.5,0,3.9,1c1.1,0.7,1.6,1.7,1.9,2.2
		c-3.4,1.5-6.8,3-10.2,4.5c-2.4,1.5-5.4,3.1-9,4.5c-3.5,1.3-6.7,2.2-9.3,2.7C755.4,216.2,754.5,213.4,753.6,210.7z"/>
	<path class="st17" d="M749.1,172.5c-1.5,0.2-3.6,0.7-5.9,1.8c-1.9,0.9-3.4,1.9-4.5,2.8c-1.1,3.1-2.4,7.7-2.7,13.5
		c-0.3,7.1,1.1,12.5,2.5,17.5c1.2,4.3,3.1,10,6.5,16.5c3-0.1,7.3-0.6,12-2.7c2.3-1,4.1-2.1,5.7-3.2c0.2-0.8,0.7-3.3-0.7-6
		c-1-2.1-2.6-3.2-3.3-3.7c-2.3,0.4-4.6,0.9-6.8,1.3c-1.1-4-2.2-8.7-2.8-13.8C747.9,187.1,748.3,178.9,749.1,172.5z"/>
	<path class="st44" d="M749.8,260c0,0-0.1,0.9-0.2,2.4c-0.1,0.8-0.2,1.7-0.3,2.8c-0.1,1.1-0.3,2.3-0.4,3.6c-0.1,1.3-0.3,2.7-0.4,4.2
		c-0.2,1.5-0.4,3.1-0.5,4.7c-0.2,1.6-0.3,3.3-0.4,5.1c0,0.9,0,1.7,0,2.6c0,0.9,0,1.8,0.1,2.6c0.1,3.5,0.3,7,0.4,10.3
		c0.1,1.6,0.2,3.2,0.2,4.7c0,1.5,0.1,2.9,0.1,4.2c0.1,2.6,0.1,4.8,0.1,6.4c0,1.5,0,2.4,0,2.4l-0.1,0c0,0-0.1-0.9-0.3-2.4
		c-0.2-1.5-0.4-3.7-0.6-6.3c-0.1-1.3-0.2-2.7-0.3-4.2c-0.1-1.5-0.2-3.1-0.2-4.7c0-1.6-0.1-3.4-0.1-5.1c0-1.7,0-3.5,0.1-5.2
		c0.2-3.5,0.3-7,0.3-10.3c0-1.6,0.1-3.2,0.2-4.8c0.1-1.5,0.3-2.9,0.5-4.2c0.2-1.3,0.4-2.5,0.6-3.6c0.2-1.1,0.4-2,0.5-2.7
		C749.5,260.8,749.7,260,749.8,260L749.8,260z"/>
	<path class="st17" d="M793.3,365.3c0.3-0.8-1.5-1.6-1.9-4c-0.3-1.7,0.5-2.5-0.1-3.2c-0.7-0.7-2.5-0.5-3.6,0.3
		c-1.7,1.3-2.1,4.4-0.5,6.2C789.1,366.9,792.9,366.4,793.3,365.3z"/>
	<path class="st17" d="M787.8,366.4c2.1-1.8,1.9-5.4-0.3-7.1c-2-1.5-5.1-1.1-6,0.3c-0.4,0.7,0,1.1-0.2,3.6c-0.1,1.8-0.4,2-0.2,2.5
		C781.9,367.3,785.6,368.3,787.8,366.4z"/>
	<path class="st51" d="M658.4,142c0.8-4.2-2.5-8.1-5-10c-5.3-4-14.3-4.2-19.2,1.5c-4.4,5.1-4.5,13.8-0.2,17.2
		c3.4,2.7,8.5,1.2,12.5,0C650.1,149.6,657.4,147.5,658.4,142z"/>
	<path class="st52" d="M681.5,189.5c-1.7,4.7-3.4,9.3-5.1,14c-0.2,0.6-0.8,1-1.4,1.1c-2.8,0.2-5.6,0.4-8.3,0.5c-0.5,0-0.9-0.5-0.8-1
		c1.5-4.7,3.1-9.4,4.6-14.2c0.2-0.6,0.8-1.1,1.5-1.1l8.8-0.3C681.3,188.5,681.7,189,681.5,189.5z"/>
	<path class="st9" d="M678.5,222.5c0-2.2-0.1-4.5-0.2-6.8c-0.1-3.5-0.4-6.8-0.7-10c0.4-0.3,3-2.1,3-4.9c0-1.5-0.6-2.6-1.2-3.8
		c-0.7-1.3-1.5-2.7-2.5-2.8c-1.4-0.2-3.1,2-4.2,5.3c0.3,1.5,0.6,3.1,0.9,4.6c-2.3,5.3-4.7,10.7-7,16c0.1,2.8,2.1,5.2,4.8,5.8
		C674.3,226.6,677.3,225.2,678.5,222.5z"/>
	<path class="st50" d="M623.9,250.3c-0.4,0.3-1.2,0.8-2.3,0.8c-2,0.1-3.3-1.3-3.5-1.5c-0.5-5.9-0.5-12.9,0.5-20.5
		c0.8-5.6,1.8-9.8,4-18c1.5-5.7,3.4-12.4,5.8-19.8c0.2-0.8,0.5-2,1-3.3c0.7-2,1.7-4.6,3.8-6.7c2.8-2.7,6.4-3.3,8.1-3.4
		c-0.1,4.8-0.2,9.5-0.3,14.2c-3.2,7.1-6.3,15.1-9.2,24C627.9,228.7,625.4,240.2,623.9,250.3z"/>
	<path class="st50" d="M678,208c-0.6,1.1-1.8,1.7-3,1.6c-1.2-0.1-2.3-0.8-2.9-1.9c-2,3.9-4.1,7.8-6.1,11.8c0.1,3.4,2.5,6.3,5.7,6.8
		c2.8,0.5,5.6-0.8,7.2-3.3C678.6,218,678.3,213,678,208z"/>
	<path class="st14" d="M193.2,368.6c0.1,0.5,0.2,1.1,0.4,1.9c0.7,2.4,1.7,3.2,1.3,3.9c-0.4,0.6-1.7,0.7-2.5,0.4
		c-1.1-0.4-1.5-1.6-2-2.9c-0.2-0.6-0.4-1.2-0.5-1.6c0-0.7,0.1-1.3,0.1-2C191,368.5,192.1,368.5,193.2,368.6z"/>
	<path class="st14" d="M212.2,368c0,1-0.1,2-0.1,3c1,0.5,2.6,1.1,4.6,1.5c0.6,0.1,3.6,0.6,3.7,0.1
		C220.6,372.2,219.2,371.1,212.2,368z"/>
	<path class="st53" d="M196.9,266.8c-0.9,1.1-2,2.9-3,5.3c-2.9,6.8-2,13.2,0,23c1.5,7.4,3.6,16.2,6.5,26.2
		c-1.6,4.2-3.2,8.8-4.5,13.6c-3.6,12.8-5.2,24.5-5.8,34.5c1.8,3,2.5,3.3,2.8,3.2c0.3-0.1,0.6-0.7,0.4-2.8
		c6.3-15.9,12.5-31.8,18.8-47.7c-0.2-16.9-0.5-33.7-0.7-50.6c-0.7-1-2.5-3.1-5.5-4.4C201.7,265.4,197.9,266.5,196.9,266.8z"/>
	<path class="st53" d="M207.2,266.4c-1.7,8.6-3,19.4-2.6,31.9c0.3,8.3,1.3,15.7,2.6,22.1c-0.2,4.1-0.3,8.4-0.2,12.8
		c0.4,13.9,2.6,26,5.4,36.1c3.3,1.5,5.1,2.1,5.2,1.8c0.1-0.2-0.6-0.8-2-1.8c1.4-16,2.7-31.9,4.1-47.9c1.6-10.8,2.6-23.3,2-37.2
		c-0.2-5.4-0.7-10.5-1.2-15.3c-0.6-0.9-1.7-2.2-3.6-3.1C212.4,263.7,207.8,266,207.2,266.4z"/>
	<path class="st11" d="M216,211.7c0.8,0.1,1.9,0.4,3.1,1.1c3,1.9,3.9,5.3,4.4,7.5c2.2,9.3,3.6,21.6,3.9,23.5c3,11.3,6,22.6,9,33.9
		c-0.5,0.4-1.4,1.1-2.8,1.5c-1.2,0.3-2.2,0.3-2.8,0.2c-6.3-11.8-13.3-29.1-14.8-50.8C215.6,222.6,215.6,216.9,216,211.7z"/>
	<path class="st14" d="M521.3,363.5c0.1,0.6,0.2,1.3,0.5,2.2c0.8,2.8,2,3.7,1.5,4.5c-0.4,0.7-2,0.9-3,0.4c-1.3-0.5-1.8-1.9-2.4-3.4
		c-0.3-0.7-0.5-1.4-0.6-1.8c0-0.8,0.1-1.6,0.1-2.3C518.7,363.3,520,363.4,521.3,363.5z"/>
	<path class="st14" d="M544.6,362.6c0,1.2-0.1,2.3-0.1,3.5c1.2,0.6,3,1.3,5.4,1.7c0.7,0.1,4.2,0.7,4.4,0.1
		C554.4,367.5,552.8,366.3,544.6,362.6z"/>
	<path class="st9" d="M521.3,365c0.2,2.5-0.1,3.1-0.4,3.3c-0.4,0.1-1.2-0.2-3.3-3.8v-0.6h4C521.5,364.3,521.4,364.6,521.3,365z"/>
	<path class="st54" d="M542.5,249.6c-1.4,17.5-2.7,35-4,52.7c-0.2,2.4-0.3,4.8-0.5,7.2c-4.9,15.2-9.5,30.9-13.9,46.9
		c-0.7,2.7-1.5,5.4-2.2,8.1c-0.4,0.2-1.5,0.6-2.8,0.3c-1-0.2-1.6-0.6-2-0.8c0.1-1.8,0.2-4.5,0.4-7.8c0.8-15.1,1.2-18.7,1.4-20.2
		c0.4-3.9,1-7.9,1.7-11.9c1-5.9,2.2-11.5,3.5-16.8c-2.4-10-3.6-18.6-4.2-25c-1.8-17.5,0-24.9,0.8-27.5c1.4-5.1,3.3-9.1,4.8-11.8
		c1.7-0.3,6-0.6,10.6,1.5c0.8,0.4,1.5,0.8,2.1,1.2C540.3,247.1,541.7,248.6,542.5,249.6z"/>
	<path class="st9" d="M550.9,366.3c-0.2,0.3-2.2-0.4-6.1-2.1c-0.1-0.3-0.2-0.7-0.3-1h4.1c0,0.4-0.1,0.7-0.1,1.1
		C550.2,365.5,551,366.1,550.9,366.3z"/>
	<path class="st54" d="M554.7,273.2c-0.3,16-2.8,36.5-2.8,36.5c-1.5,12.2-3,30-3,53.7c-0.6,0.1-1.4,0.2-2.3,0.2
		c-1.1,0-2.1-0.2-2.8-0.4c-0.3-1.5-0.8-3.8-1.3-6.5c-1.5-8.3-3.7-20.1-4.1-34.8c-0.1-3.7-0.1-8.8,0.2-15.1c-0.3-1.5-0.6-3.1-0.9-4.8
		c-1.1-6.3-1.9-13.4-2.2-21.1c-0.5-13.6,0.8-25.6,2.6-35.2c0.1-0.8,0.3-1.5,0.4-2.2c0.7-0.4,6.1-3.1,11.3-0.5c2.1,1,3.4,2.6,4.2,3.6
		C554.5,252.7,554.9,262,554.7,273.2z"/>
	<path class="st29" d="M551.2,181c-2-1.3-5-2.9-9-3.7c-8.2-1.6-14.7,1.5-17,2.7c1.3,9.2,2.3,19.6,2.5,31c0.2,9-0.2,17.4-0.8,25
		c-1.1,2.7-2.1,5.3-3.2,8c2.2,1.8,7.4,5.4,15,6.7c7.6,1.2,13.7-0.7,16.3-1.7c0-10.9,0-21.8,0-32.7c2.8-6.7,2.8-11.8,2.3-15
		c-0.3-2.3-1.3-5.3-3.2-11.3C553,186.2,552,183.1,551.2,181z"/>
	<path class="st13" d="M540.3,139.5c-1.1-0.3-5.9-1.4-10.7,1.4c-6.5,3.8-6.8,11.5-6.8,12.2c-0.1,8.3,7,15.8,11,14.9
		C537.1,167.2,540,160.8,540.3,139.5z"/>
	<path class="st31" d="M545.6,167.1c-0.3,4.9-0.7,9.8-1,14.7c-1.1,0.2-2.9,0.4-5.1-0.1c-3.5-0.8-5.7-3.1-6.5-4
		c0.5-4.8,1-9.7,1.5-14.5C538.2,164.4,541.9,165.8,545.6,167.1z"/>
	<path class="st9" d="M530.3,143.1c-0.5,0.2-3.5,1.8-4.9,5.2c-1.2,2.9,0,4.2,0.5,11.1c0.5,6.6-0.4,7.5,0.9,9.8
		c1.8,3,5.5,4.7,8.7,4.8c6.5,0.2,11.5-6.1,13.2-11.4c0.2-0.6,2.9-9.9-3.3-16.1C541.7,142.8,535.4,140.6,530.3,143.1z"/>
	<path class="st13" d="M524.1,145.9c1.4,1.3,3.2,2.7,5.4,4c6.1,3.7,12.2,4.5,15.9,4.7c0.1,1.6,0.5,3.7,1.3,5.9
		c0.5,1.4,1.1,2.6,1.6,3.6c5.3-5.8,6-14,2.2-19.6c-4.7-6.8-13.6-6.1-14.1-6C528.7,139.2,524.6,145.1,524.1,145.9z"/>
	<path class="st4" d="M363.2,173c-2.5-1-5.5-1.9-8.8-2.5c-13.7-2.3-25.1,2.9-30.2,5.8c-0.1,5.4-0.2,13.1,0.2,22.3
		c0.2,5.2,0.6,9.3,0.9,13.6c0.9,12.4,2,24.5,3.3,36.3c-0.2,3-0.4,5.9-0.7,8.9c3.8,1.6,8.1,3.2,12.8,4.5c4.4,1.3,8.4,2.2,12.2,2.8
		c0.6-2.6,1.1-5.1,1.7-7.7c0.6,2.4,1.1,4.9,1.7,7.3c1.8-0.4,4.3-1.3,7-3.1c2-1.3,3.5-2.8,4.5-4c-0.2-12.2-0.5-24.8-1.2-37.7
		C365.8,203.3,364.6,187.9,363.2,173z"/>
	<path class="st55" d="M350.5,191.5c3.1-1.9,6.2-3.8,9.2-5.7c-0.6-2.8-1.8-6.7-4.1-10.7c-1.3-2.3-2.8-4.2-4.1-5.8
		c-0.9-0.4-6.5-3.1-11.9-0.4c-1.8,0.9-3.1,2.1-3.9,3.1c0.8,5.6,1.6,11.2,2.4,16.9C342.2,189.8,346.3,190.7,350.5,191.5z"/>
	<path class="st43" d="M352.5,160.7c-0.1,1.9-0.1,4,0,6.2c0.1,2.3,0.3,4.4,0.6,6.3c-0.5,7.8-1,15.6-1.5,23.4
		c-4.5-7.8-9-15.7-13.5-23.5c0.2-4.1,0.3-8.3,0.5-12.4C343.2,160.7,347.9,160.7,352.5,160.7z"/>
	<path class="st18" d="M358.3,149.3c0.2-0.1,1.3-0.8,2.2-0.4c1.4,0.6,1.1,3,1.1,3.4c-0.2,2.1-1.6,3.4-2.2,3.9
		C359,153.9,358.7,151.6,358.3,149.3z"/>
	<path class="st18" d="M334.6,152.7c-0.1-0.1-1-0.5-1.7-0.1c-0.8,0.4-0.8,1.6-0.8,1.9c0,2.6,3.9,4.4,4.3,4.6
		C335.7,157,335.2,154.8,334.6,152.7z"/>
	<path class="st18" d="M342.8,134.1c-4.1,0.9-9,3.9-10.3,8.6c-0.5,1.8,0.3,5,2,11.2c1.5,5.6,2.3,8.4,3.4,9.9c0.3,0.4,5.3,6.4,12,5.2
		c6.9-1.3,9.3-8.9,9.6-9.7c0.8-2.6,0.4-5.2-0.3-10.4c-0.8-6-1.3-9-3-11.1C352.9,134,347.2,133.1,342.8,134.1z"/>
	<path class="st56" d="M218.7,212.9c-1.7-1.1-4.3-2.5-7.7-3.1c-7-1.3-12.5,1.3-14.5,2.3c1.1,7.8,2,16.7,2.1,26.4
		c0.1,7.7-0.2,14.8-0.7,21.3c-1,2.5-2,4.9-3,7.4c2.1,1.5,8.6,5.9,17.3,5.3c3.7-0.3,6.8-1.4,8.8-2.4c-1.2-15.9-0.1-22.6,1.3-25.6
		c0,0,2-4.4,2.5-9.4c0.1-0.8,0.1-1.6,0-2.5c-0.2-2.5-0.8-3.5-3.7-11.9C220.2,217.3,219.3,214.6,218.7,212.9z"/>
	<path class="st31" d="M214.8,201.1c-0.3,4.2-0.6,8.4-0.9,12.5c-0.9,0.2-2.5,0.3-4.3-0.1c-3-0.7-4.8-2.6-5.5-3.4
		c0.4-4.1,0.8-8.3,1.2-12.4C208.5,198.8,211.7,199.9,214.8,201.1z"/>
	<path class="st9" d="M213,178.7c0.5,0.1,3.3,0.8,5.2,3.3c1.6,2.1,0.9,3.5,1.9,9.2c1,5.5,1.9,6.1,1.3,8.3c-0.8,2.9-3.5,5.1-6.2,5.8
		c-5.3,1.5-10.8-2.6-13.3-6.7c-0.3-0.4-4.5-7.5-0.6-14C203.6,180.8,208.3,177.6,213,178.7z"/>
	<path class="st10" d="M216.2,178.7c-1.1,2.3-2.7,5.3-5.4,8.4c-2.2,2.6-4.5,4.5-6.4,5.8c-0.4,1-0.8,2.2-1.1,3.5
		c-0.3,1.2-0.5,2.3-0.6,3.3c-5.6-3.7-7.9-10.3-5.9-15.7c1.6-4.3,5.7-7.5,10.4-7.9C211.9,175.6,215.4,178.1,216.2,178.7z"/>
	<path class="st22" d="M459.4,365.6c0,0.6,0,1.5,0.2,2.5c0.5,2.1,1.5,2.7,1.7,4c0.1,0.9-0.3,2.3-2.7,4.2c-0.8,0-3.6-0.2-5.5-2.2
		c-0.4-0.5-1.2-1.3-1.3-2.4c-0.2-1.1,0.3-1.8,0.7-3.6c0.3-1.2,0.4-2.2,0.4-2.9C455.1,365.3,457.3,365.4,459.4,365.6z"/>
	<path class="st22" d="M501.8,360.9c-0.1,1-0.3,2-0.4,3c2.5,0.8,5.1,1.8,7.9,3c2.5,1.1,4.9,2.2,7.1,3.3c-1.6,0.2-3.4,0.2-5.4,0.1
		c-3.9-0.2-7.1-0.9-9.6-1.7c-0.7,0.1-1.9,0.2-3.2-0.3c-0.6-0.2-1.2-0.5-1.6-0.8c-0.1-0.3-0.3-0.9-0.1-1.6c0.2-0.9,0.7-1.5,0.9-1.7
		c-0.2-1.1-0.4-2.1-0.6-3.2C498.4,360.9,500.1,360.9,501.8,360.9z"/>
	<path class="st57" d="M483.7,171.6c2.2,0.5,4.9,1.4,7.8,3c1.5,0.8,2.8,1.7,3.9,2.5c0.4,1.5,0.7,3.1,1,4.8c0.4,2.4,0.6,4.5,0.6,6.5
		c0.5,5.4,1.5,13.6,3.7,23.7c1.4,6.4,2.5,9.2,3.8,15.5c1.9,9.1,3.2,17.8,4,25.7c-0.6,0.6-1.7,1.6-3.5,2.2c-2.7,0.8-4.9,0.1-5.7-0.2
		c-2.4-5.5-4.6-11.5-6.7-17.8C484.8,212.6,483.1,189.7,483.7,171.6z"/>
	<path class="st58" d="M496.2,250.8c0.3,6.9,0.7,16.3,1.4,27.3c0.4,6.4,1.1,16.1,2.6,34.7c1.4,17.1,3,33.9,4.7,50.6
		c-0.7,0.4-2,1.1-3.6,1.3c-2.5,0.4-4.5-0.4-5.4-0.8c-3.2-8.9-6.3-18.4-9-28.6c-6.2-22.9-9.4-44.1-11-62.5c-3,15.4-6,30.7-9,46.1
		c-2,15.7-4,31.4-6,47.1c-1.2,0.3-2.7,0.5-4.4,0.5c-2.2,0.1-4.1-0.2-5.6-0.5c-1.3-15.5-1.9-33.1-1-52.4c1.1-24.2,4.3-45.6,8-63.6
		C470.6,250.2,483.4,250.5,496.2,250.8z"/>
	<path class="st57" d="M496.3,249.2c0.2,2,0.5,4,0.8,6c-2.5,1.4-5.5,2.7-9,3.8c-13.9,4-26.2,0-31.8-2.2c0.1-2.2,0.2-4.3,0.2-6.5
		C469.8,249.9,483.1,249.6,496.3,249.2z"/>
	<path class="st59" d="M492.2,175.9c-2.3-1.8-5-3.4-8.4-4.6c-15.2-5.5-29.8,3.4-32.7,5.2c0.3,6.6,0.6,13.2,0.9,19.8
		c0.8,15.9,1.7,31.6,2.8,47.2c-0.3,2.4-0.5,4.8-0.8,7.3c4.4,1.7,12.6,4.4,23.3,4.1c9.9-0.3,17.6-3,21.8-4.9c-1-11.3-2-22.7-3-34.2
		C494.8,202.4,493.6,189.1,492.2,175.9z"/>
	<path class="st57" d="M481.1,182c3-2.7,2.5-8.5-0.1-11.6c-4.6-5.5-16.4-3-17.9,1.2c-1.1,3.1,3.2,7.5,6.8,9.5
		C470.6,181.6,477.3,185.3,481.1,182z"/>
	<path class="st31" d="M480.2,159.7c-0.1,1.9-0.1,4,0,6.2c0.1,2.3,0.3,4.4,0.6,6.3c0.2,3.5-0.7,6.9-2.9,8c-3,1.5-8.9-1.1-12.1-8.1
		c0.2-4.1,0.3-8.3,0.5-12.4C470.8,159.7,475.5,159.7,480.2,159.7z"/>
	<path class="st9" d="M486.2,147.5c0.2-0.2,1.3-0.9,2.2-0.6c1.4,0.5,1.3,3,1.3,3.3c-0.1,2.1-1.4,3.5-1.9,4
		C487.2,152,486.7,149.8,486.2,147.5z"/>
	<path class="st9" d="M462.8,152.4c-0.1-0.1-1-0.4-1.7,0c-0.8,0.5-0.7,1.7-0.7,2c0.1,2.6,4.2,4.2,4.6,4.3
		C464.2,156.6,463.5,154.5,462.8,152.4z"/>
	<path class="st9" d="M469.7,133.4c-4,1.2-8.7,4.5-9.7,9.2c-0.4,1.9,0.6,4.9,2.7,11c1.9,5.4,2.8,8.2,4.1,9.6
		c0.4,0.4,5.7,6.1,12.4,4.4c6.8-1.7,8.7-9.5,8.9-10.3c0.6-2.6,0.1-5.2-1-10.3c-1.2-6-1.9-8.9-3.8-10.9
		C479.9,132.6,474.1,132.1,469.7,133.4z"/>
	<path class="st60" d="M480.7,261.5c0,0,0,0.8,0,2.1c0,1.3,0.1,2.9,0.2,4.6c0,0.4,0,0.9-0.1,1.4c-0.1,0.5-0.3,0.9-0.5,1.3
		c-0.5,0.8-1.2,1.2-1.9,1.4c-0.6,0.3-1.2,0.4-1.5,0.4c-0.4,0-0.6,0.1-0.6,0.1s0.2-0.1,0.5-0.2c0.3-0.2,0.8-0.4,1.3-0.7
		c0.5-0.3,1-0.8,1.4-1.4c0.4-0.6,0.4-1.3,0.3-2.1c0-0.4,0-0.8,0-1.3c0-0.4,0-0.8,0-1.2c0-0.8,0.1-1.6,0.3-2.2
		C480.4,262.3,480.7,261.5,480.7,261.5z"/>
	<g>
		<polygon class="st60" points="455.8,267.6 454.7,264.9 462.2,259.7 462.8,260.5 456,265.3 456.7,267.2 		"/>
	</g>
	<path class="st60" d="M469.6,261.5c0,0-1.2,6.4-2.9,15.9c-0.4,2.4-0.9,5-1.3,7.7c-0.5,2.7-1,5.6-1.5,8.6c-1.1,6-1.9,12.4-2.6,18.8
		c-0.3,3.2-0.6,6.4-0.9,9.6c-0.3,3.2-0.6,6.3-0.8,9.3c-0.5,6-1,11.7-1.4,16.5c-0.8,9.7-1.3,16.1-1.3,16.1l-0.1,0c0,0,0-1.6,0.1-4.5
		c0.1-2.8,0.2-6.9,0.4-11.7c0.1-2.4,0.3-5.1,0.5-7.8c0.2-2.8,0.4-5.7,0.7-8.7c0.6-6,1.3-12.5,2.3-18.9c0.5-3.2,0.9-6.4,1.4-9.6
		c0.4-3.2,0.8-6.3,1.2-9.3c0.4-3,0.8-5.9,1.2-8.7c0.4-2.8,0.9-5.3,1.4-7.7c0.5-2.4,0.9-4.6,1.3-6.5c0.4-1.9,0.8-3.6,1.2-5
		C469.1,263.1,469.5,261.5,469.6,261.5L469.6,261.5z"/>
	<path class="st60" d="M491.9,259.2c0,0,0.2,1.6,0.6,4.4c0.2,1.4,0.4,3.1,0.7,5.1c0.3,2,0.5,4.2,0.7,6.6c0.3,2.4,0.5,5,0.7,7.8
		c0.2,2.8,0.4,5.7,0.5,8.7c0.1,3,0.3,6.1,0.5,9.3c0.2,3.2,0.5,6.4,0.7,9.6c0.6,6.4,1.1,12.9,1.8,18.9c0.3,3,0.7,5.9,1,8.7
		c0.3,2.8,0.6,5.4,0.9,7.8c1.2,9.6,2,16,2,16l-0.1,0c0,0-0.3-1.6-0.9-4.4c-0.5-2.8-1.2-6.8-1.9-11.5c-0.4-2.4-0.7-5-1.1-7.8
		c-0.3-2.8-0.7-5.7-1-8.7c-0.3-3-0.6-6.1-0.8-9.3c-0.2-3.2-0.4-6.4-0.5-9.6c-0.1-3.2-0.3-6.5-0.5-9.6c-0.2-3.2-0.5-6.3-0.8-9.3
		c-0.3-3-0.6-5.9-0.9-8.7c-0.3-2.8-0.5-5.4-0.7-7.8c-0.4-4.8-0.8-8.8-1-11.7C491.9,260.9,491.8,259.3,491.9,259.2L491.9,259.2z"/>
	<path class="st9" d="M527.6,179.1c-0.7,0.2-1.7,0.5-2.8,1.1c-5.2,3.1-6,10.4-6.5,14.1c-0.9,6.9-2.7,16-6.2,28.6
		c0.2,0.3,1.2,2.2,3.6,2.8c2.5,0.6,4.4-0.9,4.6-1.1c2.9-5.5,7-14.5,9-24.2c0.8-3.7,1-6.6,0.9-9.6C530,185.7,528.7,181.7,527.6,179.1
		z"/>
	<path class="st6" d="M447,279.9h2.7v-15.2c0-1.5-1.2-2.7-2.7-2.7l0,0V279.9z"/>
	<rect x="428.6" y="262.1" class="st6" width="18.4" height="3.1"/>
	<rect x="406.1" y="277.1" class="st7" width="64.3" height="2.9"/>
	<path class="st7" d="M460.8,308.9h-45.6c-1.6,0-3-1.1-3.2-2.6l-3.7-26.4h59.5l-3.7,26.4C463.8,307.8,462.4,308.9,460.8,308.9z"/>
	<path class="st8" d="M460.1,305.2L460.1,305.2c-0.7,0-1.1-0.5-1-1.2l3.1-24h2.4l-3.1,24C461.3,304.7,460.7,305.2,460.1,305.2z"/>
	<path class="st8" d="M455.9,305.2L455.9,305.2c-0.7,0-1.1-0.5-1-1.2l3.1-24h2.4l-3.1,24C457.2,304.7,456.6,305.2,455.9,305.2z"/>
	<path class="st8" d="M451.8,305.2L451.8,305.2c-0.7,0-1.1-0.5-1-1.2l3.1-24h2.4l-3.1,24C453.1,304.7,452.5,305.2,451.8,305.2z"/>
	<path class="st8" d="M447.7,305.2L447.7,305.2c-0.7,0-1.1-0.5-1-1.2l3.1-24h2.4l-3.1,24C448.9,304.7,448.3,305.2,447.7,305.2z"/>
	<path class="st6" d="M430.2,281.8h-5.4c-1.3,0-2.4-1.1-2.4-2.4v-0.9h10.1v0.9C432.6,280.8,431.6,281.8,430.2,281.8z"/>
	<path class="st6" d="M428.6,279.9h-2.7v-15.2c0-1.5,1.2-2.7,2.7-2.7l0,0V279.9z"/>
	<path class="st9" d="M520.7,222.4c-0.7-3.8-1.4-7.7-2.2-11.8c-1.8-8.3-3.8-16.1-6-23.4c-0.8-1.7-1.8-2.7-2.5-3.2
		c-0.8-0.7-0.7-0.3-3-1.9c-0.9-0.6-1.3-0.9-1.5-0.8c-0.3,0.2,0.1,1.2,0.5,1.9c0.5,0.7,1.1,1.2,1.5,1.4c-2.6,0-4.7-0.3-6.1-0.6
		c-2-0.5-3.2-1-3.6-0.5c-0.6,0.7,1,2.8,1.4,3.2c1.7,2.2,3.8,3.2,4.2,3.4c2,0.9,3.8,0.9,4.9,0.9c0.2,5.3,0.6,11,1.2,17
		c0.6,5.3,1.4,10.3,2.2,15c1,2,3.1,3.1,5.1,2.8C518.6,225.5,520.1,224.2,520.7,222.4z"/>
	<path class="st9" d="M441.9,253.1c-0.1,0.8-0.2,1.7-0.2,2.5c0.5,1.9,0.9,3.5,1.3,4.6c0.8,2.4,1.2,3.2,1.2,4.8
		c0,0.4-0.1,3.3-1.5,3.8c-0.4,0.2-0.9,0-1.3-0.1c-0.3,0-0.6,0.1-1.1,0c-0.8-0.1-1.4-0.3-1.8-0.5c-2.7-1.2-3.4-1.2-3.7-1.9
		c-0.1-0.2-0.1-0.5,0-1c0.5,0,0.9-0.1,1.4-0.1c0.2-0.3,0.4-0.6,0.6-0.9c-0.5-0.5-1.2-1.2-1.7-2.1c-1.5-2.8-0.7-5.8-0.5-6.5
		c0-0.8,0-1.7,0-2.5C437,253,439.5,253.1,441.9,253.1z"/>
	<path class="st59" d="M442.7,254.8c-0.5,0.3-2.3,1.6-4.8,1.3c-2.1-0.2-3.5-1.3-4-1.7c-0.6-6.8-0.6-14.7,0.6-23.4
		c0.9-6.4,2.1-11.2,4.6-20.5c1.7-6.5,3.9-14.1,6.7-22.6c0.2-1,0.6-2.3,1.1-3.8c0.8-2.2,2-5.3,4.4-7.6c3.2-3.1,7.2-3.7,9.3-3.9
		c-0.1,5.4-0.2,10.8-0.3,16.2c-2.9,8.9-5.8,18.2-8.4,27.9C448.1,230,445.1,242.7,442.7,254.8z"/>
	<path class="st6" d="M316.7,281.9h2.7v-15.2c0-1.5-1.2-2.7-2.7-2.7l0,0V281.9z"/>
	<rect x="298.3" y="264.1" class="st6" width="18.4" height="3.1"/>
	<rect x="275.8" y="279.1" class="st7" width="64.3" height="2.9"/>
	<path class="st7" d="M330.5,310.9h-45.6c-1.6,0-3-1.1-3.2-2.6l-3.7-26.4h59.5l-3.7,26.4C333.5,309.8,332.1,310.9,330.5,310.9z"/>
	<path class="st8" d="M329.8,307.2L329.8,307.2c-0.7,0-1.1-0.5-1-1.2l3.1-24h2.4l-3.1,24C331,306.7,330.4,307.2,329.8,307.2z"/>
	<path class="st8" d="M325.6,307.2L325.6,307.2c-0.7,0-1.1-0.5-1-1.2l3.1-24h2.4l-3.1,24C326.9,306.7,326.3,307.2,325.6,307.2z"/>
	<path class="st8" d="M321.5,307.2L321.5,307.2c-0.7,0-1.1-0.5-1-1.2l3.1-24h2.4l-3.1,24C322.8,306.7,322.2,307.2,321.5,307.2z"/>
	<path class="st8" d="M317.4,307.2L317.4,307.2c-0.7,0-1.1-0.5-1-1.2l3.1-24h2.4l-3.1,24C318.6,306.7,318,307.2,317.4,307.2z"/>
	<path class="st6" d="M299.9,283.8h-5.4c-1.3,0-2.4-1.1-2.4-2.4v-0.9h10.1v0.9C302.3,282.8,301.3,283.8,299.9,283.8z"/>
	<path class="st6" d="M298.3,281.9h-2.7v-15.2c0-1.5,1.2-2.7,2.7-2.7l0,0V281.9z"/>
	<path class="st9" d="M311.6,255.1c-0.1,0.8-0.2,1.7-0.2,2.5c0.5,1.9,0.9,3.5,1.3,4.6c0.8,2.4,1.2,3.2,1.2,4.8
		c0,0.4-0.1,3.3-1.5,3.8c-0.4,0.2-0.9,0-1.3-0.1c-0.3,0-0.6,0.1-1.1,0c-0.8-0.1-1.4-0.3-1.8-0.5c-2.7-1.2-3.4-1.2-3.7-1.9
		c-0.1-0.2-0.1-0.5,0-1c0.5,0,0.9-0.1,1.4-0.1c0.2-0.3,0.4-0.6,0.6-0.9c-0.5-0.5-1.2-1.2-1.7-2.1c-1.5-2.8-0.7-5.8-0.5-6.5
		c0-0.8,0-1.7,0-2.5C306.7,255,309.2,255.1,311.6,255.1z"/>
	<path class="st4" d="M312.4,256.7c-0.5,0.3-2.3,1.6-4.8,1.3c-2.1-0.2-3.5-1.3-4-1.7c-0.6-6.8-0.6-14.7,0.6-23.4
		c0.9-6.4,2.1-11.2,4.6-20.5c1.7-6.5,3.9-14.1,6.7-22.6c0.2-1,0.6-2.3,1.1-3.8c0.8-2.2,2-5.3,4.4-7.6c3.2-3.1,7.2-3.7,9.3-3.9
		c-0.1,5.4-0.2,10.8-0.3,16.2c-2.9,8.9-5.8,18.2-8.4,27.9C317.8,232,314.8,244.7,312.4,256.7z"/>
	<polygon class="st57" points="491.8,195 484.4,196.2 484.9,198.5 491.8,197.8 	"/>
	<polygon class="st57" points="453.5,210.2 459.2,191.8 457.6,203.6 	"/>
	<path class="st12" d="M484.1,137c-0.4-1-1.3-2.5-2.8-3.9c-4-3.6-9.4-2.8-10.8-2.6c-0.8,0.1-11.1,1.7-12.8,9.8
		c-0.9,4.4,1.1,9.1,4.9,12.2c0.8-3.1,1.6-6.2,2.4-9.2c2.9-0.4,6.2-1.2,9.9-2.4C478.5,139.7,481.6,138.3,484.1,137z"/>
	<path class="st12" d="M485.3,158.6c-0.6-1.4-1.3-1.9-1.8-2.2c-1.5-0.7-3.1-0.1-3.4,0.1c-0.7,0.1-2.9,0.4-4.3,2.2
		c-2.2,2.7-1.8,7.8,1.6,9.8c2.5,1.5,6,0.8,7.8-1.3C487.8,164.2,486,160.2,485.3,158.6z"/>
	<path class="st9" d="M484.5,158.3c-1.2,0-2.5-0.1-3.8-0.1c-1.8,0.9-3.6,1.8-5.3,2.8c-0.1,0.2-0.5,1.6,0.2,3.1c0.9,1.7,2.7,2,2.9,2
		c0.4-0.4,1.4-1.5,3.1-1.9c1.4-0.4,2.5-0.2,3.1-0.1c0.3-0.4,0.8-1.1,0.9-2.2C485.8,159.9,484.7,158.6,484.5,158.3z"/>
	<path class="st61" d="M537.9,300.5c0-3,0.2-5.9,0.4-8.9c0.1-1.5,0.2-3,0.3-4.4l0.2-2.2l0.1-1.1l0.1-1.1c0.1-1.5,0.3-3,0.4-4.4
		c0.1-1.5,0.3-2.9,0.4-4.4c0.2-1.5,0.3-2.9,0.5-4.4c0.2-1.5,0.3-2.9,0.6-4.4l0-0.3l0.1-0.1c0.6-0.7,1.2-1.5,1.7-2.4
		c0.2-0.4,0.5-0.9,0.7-1.3c0.2-0.4,0.4-0.9,0.5-1.4c0.7-1.9,1-3.9,1-5.9c0.4,2,0.4,4.1,0,6.2c-0.1,0.5-0.3,1-0.4,1.5
		c-0.2,0.5-0.4,1-0.6,1.5c-0.4,1-1,1.9-1.6,2.7l0.2-0.4c-0.1,1.5-0.2,3-0.3,4.4c-0.1,1.5-0.2,3-0.4,4.4c-0.1,1.5-0.3,3-0.4,4.4
		c-0.2,1.5-0.3,2.9-0.5,4.4l-0.1,1.1l-0.2,1.1l-0.3,2.2c-0.2,1.5-0.5,2.9-0.7,4.4C539.1,294.7,538.5,297.6,537.9,300.5z"/>
	<path class="st62" d="M526.4,247c-1.4,2.1-2.5,4.4-3.4,6.8c-0.4,1.2-0.8,2.4-1,3.7c-0.2,1.2-0.4,2.5-0.5,3.7c-0.2,2.5,0,5,0.3,7.6
		c0.3,2.5,0.6,5.1,0.8,7.6l0.7,7.6c0.2,2.5,0.5,5.1,0.8,7.6c0.3,2.5,0.6,5.1,0.9,7.6l1,7.6l0,0.1l0,0.1c-1,4.5-2,8.9-2.8,13.4
		c-0.8,4.5-1.5,9-2.1,13.5c-0.6,4.5-1.1,9.1-1.5,13.6c-0.4,4.6-0.7,9.1-1,13.7l-0.1,0c0-2.3,0-4.6,0-6.9c0.1-2.3,0.1-4.6,0.3-6.9
		c0.3-4.6,0.7-9.1,1.3-13.7c0.6-4.6,1.3-9.1,2.2-13.6c0.9-4.5,1.9-9,3.1-13.4l0,0.1l-0.7-7.6c-0.3-2.5-0.5-5.1-0.8-7.6
		c-0.3-2.5-0.6-5.1-0.9-7.6l-1-7.6c-0.3-2.5-0.6-5.1-0.9-7.6c-0.3-2.6-0.4-5.2-0.2-7.7c0.1-1.3,0.3-2.6,0.6-3.8
		c0.3-1.3,0.7-2.5,1.2-3.7C523.5,251.3,524.8,249,526.4,247L526.4,247z"/>
	<path class="st56" d="M191.8,206.1c-1.5,1.8-3.1,3.9-4.5,6.3c-4.6,7.2-7,14.2-8.2,19.8c0.2,0.6,0.8,2.2,2.6,3.4
		c2.4,1.6,5,1,5.4,0.9c1.8-2.9,3.7-6.5,5.3-10.8c2.6-7,3.4-13.3,3.6-17.9c-0.2-0.3-0.7-0.8-1.5-1.2
		C193.2,205.9,192.2,206,191.8,206.1z"/>
	<path class="st63" d="M202.1,209.8c0.7,1.9,1.3,3.9,1.8,6c3.7,15.7-1.6,29.8-5.4,37.5c-0.9-1.8-1.7-3.5-2.6-5.3
		c0.8-3.3,1.5-6.9,1.8-10.9c1-10.1-0.1-18.9-1.6-25.4c0.5-0.4,1.2-1,2.3-1.4C200,209.6,201.4,209.7,202.1,209.8z"/>
	<path class="st63" d="M220.6,253.2c1.5-2.9,3-6.7,3.9-11.1c2.6-13.9-2.9-25.3-5.2-29.6c-1.5-0.6-3.1-1.2-4.6-1.8
		c1.3,2.3,2.5,4.8,3.5,7.5C223.4,232.1,222.2,245.1,220.6,253.2z"/>
	<path class="st5" d="M192.7,242.8c-1.4-0.9-3-0.8-3.1-0.8c-1.7,0.2-2.8,1.3-3.1,1.6c0.1,1.2,0.4,2.9,1.1,4.9c1.4,3.6,4.4,7.5,6.1,7
		c0.8-0.2,1.1-1.4,1.4-2.9C195.7,249.9,195.9,244.7,192.7,242.8z"/>
	<path class="st64" d="M208.5,200.6l-6.1,4.7c-0.4,0.3-1,0.2-1.4-0.3l-10.3-13.9c-0.3-0.5-0.3-1.1,0.1-1.4l6.1-4.7
		c0.4-0.3,1-0.2,1.4,0.3l10.3,13.9C209,199.7,208.9,200.3,208.5,200.6z"/>
	<path class="st9" d="M200,192.2c-1.7,1-2.7,2.2-3.3,3c-1.6,2.1-2.4,4.5-3.3,7c-0.1,0.4-0.5,1.4-1,2.8c-0.3,0.8-0.6,1.5-0.8,2
		c0.2,0.3,0.4,0.6,0.9,0.9c1.2,0.9,2.5,0.6,2.8,0.6c0.3-0.5,0.7-1,1-1.5c0.5-0.3,1.3-0.9,1.9-1.7c0.9-1.1,0.8-1.6,1.5-3
		c1.4-2.5,2.7-2.8,3.1-4.9c0.1-0.7,0.1-1.4,0-1.8c0.1-0.6,0.1-1-0.2-1.2c-0.6-0.5-2.3,0.4-5.2,2.7c0.3-0.8,0.7-1.4,1-1.8
		c0.6-0.8,1.1-1,1.4-1.8C200.1,193,200.1,192.5,200,192.2z"/>
	<path class="st65" d="M213.6,320.5c-0.1,0-0.5-7-1.4-17.8c-0.6-7.7-1.3-14-1.8-18.2c1.1-1,2.3-2.3,3.5-4c1.2-1.7,2.1-3.4,2.8-4.8
		c-0.3,2-1.1,4.7-2.8,7.5c-0.6,0.9-1.2,1.8-1.8,2.5C213.5,314.2,213.7,320.5,213.6,320.5z"/>
	<path class="st65" d="M200.1,273.5c-2.4,2-4.8,4-7.2,6c0.5,0.7,0.9,1.3,1.4,2c2.3-2,4.6-3.9,6.9-5.9
		C200.8,274.9,200.4,274.2,200.1,273.5z"/>
	<path class="st65" d="M207.1,334.6c2-4.2,4.1-8.3,6.1-12.5c-0.3,1.8-0.8,3.7-1.4,5.8c-1.2,4.1-2.7,7.7-4.1,10.8
		C207.5,337.3,207.3,336,207.1,334.6z"/>
	<path class="st14" d="M216.5,366.7c-0.5-0.1-1.4-0.1-2.5,0.2c-1.1,0.4-1.9,1-2.3,1.3c0.3,0.8,0.6,1.5,0.8,2.2
		c3.6,1.5,5.6,1.9,6,1.3c0.3-0.4-0.3-1.4-1.8-2.8C216.6,368.2,216.6,367.4,216.5,366.7z"/>
	<path class="st14" d="M194.7,367.4c-0.3-0.3-0.7-0.8-1.4-1.2c-1.5-0.7-2.9-0.4-3.3-0.2c-0.2,0.7-0.4,1.9-0.2,3.4
		c0.1,0.6,0.3,1.2,0.5,1.6c1.2,1.1,2.5,2.2,3.7,3.3c0.2-0.2,0.8-1,0.8-2.2c-0.1-0.8-0.4-1.4-0.6-1.6
		C194.2,369.4,194.5,368.4,194.7,367.4z"/>
	<path class="st55" d="M343.2,199c-3.8,0-7.7,0-11.5,0c0.1,1.1,0.2,2.1,0.3,3.2c3.7,0.1,7.4,0.2,11.2,0.3
		C343.2,201.3,343.2,200.2,343.2,199z"/>
	<path class="st18" d="M367.3,141.5c0.7-0.5,0.9-1.5,1.1-3.3c0.3-2.6,0.1-4.4,0-5.6c-0.4-5.8,1.9-8.9,0.7-9.6c-1-0.6-3.2,1.1-4.1,2
		c-2.7,2.7-2.9,6.3-3,7.4c-1.4-3.3-1.9-3.9-2-3.9c-0.3,0.1,0.3,2,0.6,5.7c0.2,2.7,0,3,0.4,3.9C362.2,140.8,365.8,142.5,367.3,141.5z
		"/>
	<path class="st66" d="M359.1,148.8c0.4-3.9-0.4-6.8-1-8.5c-0.6-1.6-2.8-7.6-7.1-8.2c-0.6-0.1-1.2-0.1-1.6,0
		c-0.3-0.2-1.8-1.4-3.7-1.1c-0.7,0.1-1.3,0.4-1.7,0.6c-0.3-0.1-2.2-1-4.1-0.1c-0.9,0.4-1.5,1.1-1.8,1.5c-0.1,0-1.6-0.4-2.9,0.6
		c-1,0.8-1.1,2-1.1,2.2c-0.5,0.2-1.6,0.7-2.5,1.9c-1.1,1.5-1,3.1-1,3.5c-0.3,0.8-0.5,1.7-0.5,2.8c-0.2,4.4,2.7,7.6,3.6,8.5
		c0.7,0.1,1.4,0.3,2.2,0.4c0.1-0.8,0.3-1.7,0.4-2.6c0.4-2.5,0.6-4.8,0.8-7.1c0.3,0,1-0.1,1.7-0.5c0.8-0.5,1.2-1.2,1.4-1.5
		c0.1,0.1,1.1,0.7,2.2,0.2c1.3-0.5,1.6-1.8,1.6-1.9c0.1,0.1,1.5,1.1,3,0.5c1-0.4,1.5-1.1,1.6-1.4c0.1,0.1,1.1,0.9,2.4,0.6
		c1.1-0.2,1.7-1.1,1.8-1.2c0.2,0.9,1.1,1.4,1.9,1.2c0.7-0.1,1.2-0.7,1.4-1.4C357.1,141.5,358.1,145.1,359.1,148.8z"/>
	<path class="st3" d="M348.5,273.4c1-0.3,2.5-0.7,4-1.6c2.9-1.7,4-3.7,4.2-3.5c0.3,0.2-0.8,3.7-3.8,5
		C351.1,274.1,349.2,273.6,348.5,273.4z"/>
	<g>
		<path class="st67" d="M79.8,365.6c-0.1,0.8-0.1,2,0.1,3.4c0.6,3.4,2.3,4.5,1.8,6c-0.7,2-4.4,2.1-4.5,2.1c-1.9,0.1-4.4-0.7-5.5-2.6
			c-0.6-1-0.5-2.5-0.2-5.2c0.1-2,0.4-3.6,0.6-4.7C74.6,364.9,77.2,365.2,79.8,365.6z"/>
		<path class="st67" d="M108.1,363.5c0.1,1.2,0.2,2.4,0.3,3.7c0.9,0.7,2.3,1.7,4.2,2.7c5.1,2.6,9.7,2.6,9.7,3c0,0.3-2.9,0.6-6.7,0.3
			c-3.9-0.2-9.4-1-15.8-3.5c0-1.8,0-3.7,0-5.5C102.5,363.9,105.3,363.7,108.1,363.5z"/>
		<path class="st68" d="M113.7,252c0.1,3.2,0.2,6.4,0.3,9.7c1,35.7-0.7,70-4.3,102.7c-0.6,0.6-2.5,2.2-5.3,2.7
			c-3.7,0.5-6.4-1.2-7-1.7c-1-10.6-1.8-21.6-2.3-33c-0.9-19.3-1.1-37.7-0.7-55c-1.5,11.6-3,23.3-4.7,35c-2.5,17.9-5,35.5-7.7,53
			c-0.6,0.5-2.8,2.1-6,2c-3.6-0.1-5.8-2.2-6.3-2.7c-0.3-29.8,0.9-61.2,4.3-94c0.6-5.8,1.3-11.6,2-17.3
			C88.6,252.9,101.2,252.4,113.7,252z"/>
		<path class="st9" d="M121.1,254.7c-0.3,0.2-0.8,0.5-1.1,1c-0.4,0.6-0.3,1.1-0.5,2.7c-0.1,1.3-0.2,1.9-0.5,2.6
			c-0.6,1.6-1.5,2.1-1.2,2.6c0.2,0.4,0.9,0.5,1.4,0.3c0.6-0.2,1-0.6,1.8-2.1c0.4-0.8,0.9-1.8,1.4-3
			C122,257.5,121.5,256.1,121.1,254.7z"/>
		<path class="st6" d="M135.5,278.8h2.7v-15.2c0-1.5-1.2-2.7-2.7-2.7l0,0V278.8z"/>
		<rect x="117.1" y="261" class="st6" width="18.4" height="3.1"/>
		<path class="st9" d="M125.7,251.6c0.2,0.8,0.3,1.6,0.5,2.3c0.3,0.4,0.7,0.9,1.1,1.7c0.6,1.1,0.9,2,1.4,3.8
			c0.6,1.9,0.6,2.4,0.6,2.8c0,0.7,0.1,2.1-0.8,2.6c-0.2,0.2-0.5,0.2-0.7,0.2c-0.4,0.3-0.9,0.6-1.3,0.8c-0.2,0.1-0.5,0.3-0.8,0.4
			c-0.4,0.1-0.8,0.1-1.1,0.1c-0.2,0.2-0.6,0.7-1.3,0.7c-1,0-1.6-0.9-1.8-1.3c-0.4-0.6-0.5-1.3-0.5-1.6c0.7-0.1,1.3-0.2,2-0.3
			c0.1-0.3,0.1-0.7,0-1.2c-0.1-0.8-0.4-1.3-0.6-1.6c-0.3-0.2-0.7-0.6-1.2-1.1c-0.5-0.5-1.4-1.7-1.5-3.3c0-0.4,0-1,0.2-1.7
			c-0.2-0.7-0.5-1.4-0.8-2.2C121.3,252.3,123.5,252,125.7,251.6z"/>
		<rect x="94.6" y="276" class="st7" width="64.3" height="2.9"/>
		<path class="st7" d="M149.2,307.8h-45.6c-1.6,0-3-1.1-3.2-2.6l-3.7-26.4h59.5l-3.7,26.4C152.3,306.7,150.8,307.8,149.2,307.8z"/>
		<path class="st8" d="M148.5,304.1L148.5,304.1c-0.7,0-1.1-0.5-1-1.2l3.1-24h2.4l-3.1,24C149.8,303.6,149.2,304.1,148.5,304.1z"/>
		<path class="st8" d="M144.4,304.1L144.4,304.1c-0.7,0-1.1-0.5-1-1.2l3.1-24h2.4l-3.1,24C145.7,303.6,145.1,304.1,144.4,304.1z"/>
		<path class="st8" d="M140.3,304.1L140.3,304.1c-0.7,0-1.1-0.5-1-1.2l3.1-24h2.4l-3.1,24C141.5,303.6,140.9,304.1,140.3,304.1z"/>
		<path class="st8" d="M136.2,304.1L136.2,304.1c-0.7,0-1.1-0.5-1-1.2l3.1-24h2.4l-3.1,24C137.4,303.6,136.8,304.1,136.2,304.1z"/>
		<path class="st6" d="M118.7,280.7h-5.4c-1.3,0-2.4-1.1-2.4-2.4v-0.9h10.1v0.9C121.1,279.7,120,280.7,118.7,280.7z"/>
		<path class="st6" d="M117.1,278.8h-2.7v-15.2c0-1.5,1.2-2.7,2.7-2.7l0,0V278.8z"/>
		<path class="st69" d="M102.2,170.5c2.2,0.5,4.9,1.4,7.8,3c1.5,0.8,2.8,1.7,3.9,2.5c0.4,1.5,0.7,3.1,1,4.8c0.4,2.4,0.6,4.5,0.6,6.5
			c0.5,5.4,1.5,13.6,3.7,23.7c1.4,6.4,2.5,9.2,3.8,15.5c1.9,9.1,3.2,17.8,4,25.7c-0.6,0.6-1.7,1.6-3.5,2.2c-2.7,0.8-4.9,0.1-5.7-0.2
			c-2.4-5.5-4.6-11.5-6.7-17.8C103.2,211.5,101.6,188.6,102.2,170.5z"/>
		<path class="st69" d="M114.8,248.1c0.2,2,0.5,4,0.8,6c-2.5,1.4-5.5,2.7-9,3.8c-13.9,4-26.2,0-31.8-2.3c0.1-2.2,0.2-4.3,0.2-6.5
			C88.3,248.8,101.6,248.5,114.8,248.1z"/>
		<path class="st70" d="M110.7,174.8c-2.3-1.8-5-3.4-8.4-4.6c-15.2-5.5-29.8,3.4-32.7,5.2c0.3,6.6,0.6,13.2,0.9,19.8
			c0.8,15.9,1.7,31.6,2.8,47.2c-0.3,2.4-0.5,4.8-0.8,7.3c4.4,1.7,12.6,4.4,23.3,4.1c9.9-0.3,17.6-3,21.8-4.9c-1-11.3-2-22.7-3-34.2
			C113.3,201.3,112,188,110.7,174.8z"/>
		<path class="st69" d="M102.9,171.5c-0.9,2.4-1.8,4.9-2.7,7.3c-1.7-0.5-3.4-1-5.1-1.6c-0.5,0.4-1,0.8-1.5,1.2
			c-0.6-0.3-1.3-0.6-1.9-0.9c-1.9,0.6-3.7,1.2-5.6,1.8c-2-2.5-4-5-6-7.5c0.7-0.7,5.3-5.2,12.4-4.9
			C98.2,167.3,101.9,170.5,102.9,171.5z"/>
		<path class="st31" d="M98.6,158.6c-0.1,1.9-0.1,4,0,6.2c0.1,2.3,0.3,4.4,0.6,6.3c-1.9,2.1-3.8,4.2-5.8,6.3
			c-3.1-2.1-6.2-4.3-9.3-6.4c0.2-4.1,0.3-8.3,0.5-12.4C89.3,158.6,94,158.6,98.6,158.6z"/>
		<path class="st9" d="M108.5,151.6c0.2-0.1,1.5-0.4,2.3,0.2c1.1,1,0.2,3.2,0.1,3.6c-0.8,1.9-2.5,2.8-3.2,3.1
			C107.9,156.2,108.2,153.9,108.5,151.6z"/>
		<path class="st9" d="M84.8,148.2c-0.1-0.1-0.8-0.8-1.6-0.6c-0.9,0.2-1.2,1.3-1.3,1.6c-0.8,2.5,2.5,5.4,2.8,5.6
			C84.7,152.6,84.7,150.4,84.8,148.2z"/>
		<path class="st9" d="M97.8,132.7c-4.2-0.2-9.7,1.2-12.3,5.3c-1,1.6-1.1,4.9-1.2,11.3c-0.1,5.8-0.2,8.7,0.5,10.4
			c0.2,0.5,3.3,7.6,10.1,8.4c7,0.7,11.5-5.9,11.9-6.6c1.5-2.3,1.9-4.9,2.6-10.1c0.9-6,1.3-9,0.2-11.5
			C107.6,135.4,102.3,132.9,97.8,132.7z"/>
		<path class="st69" d="M75.6,181.9c0.7,4.5,1.6,9.2,2.8,14.1c1.2,5.1,2.5,9.9,3.9,14.4c8-1.1,16-2.2,24-3.2
			c0.6,2.1,1.2,4.2,1.8,6.4c-1.7,2.1-3.8,4.3-6.1,6.4c-9.9,8.8-20.8,12.6-28.1,14.2c-0.5-2.9-1-5.8-1.5-8.6
			C73.3,211,74.4,196.4,75.6,181.9z"/>
		<path class="st70" d="M77.9,171.4c-1.5,0.2-3.6,0.7-5.9,1.8c-1.9,0.9-3.4,1.9-4.5,2.8c-1.1,2.9-2.4,7-3.2,12
			c-0.3,2.1-1.1,7.3-0.5,16c0.4,6.1,1.5,14.8,4.6,25.2c6.1-0.2,15.7-1.4,26.1-6.2c6.2-2.9,11-6.3,14.5-9.2c0.2-0.7,0.5-2.2,0-4
			c-0.4-1.6-1.3-2.7-1.8-3.2c-9.4,2.1-18.8,4.2-28.2,6.2c-1-5-1.9-10.8-2.2-17.2C76.3,186.1,77,178,77.9,171.4z"/>
		<path class="st71" d="M129.3,192.7c-2.2,6-4.4,12-6.5,17.9c-0.3,0.8-1,1.3-1.8,1.4c-3.6,0.2-7.1,0.5-10.7,0.7
			c-0.7,0-1.2-0.6-1-1.3c2-6.1,4-12.1,6-18.2c0.3-0.8,1-1.4,1.9-1.4l11.3-0.4C129.1,191.4,129.5,192,129.3,192.7z"/>
		<path class="st9" d="M118.8,205.4c-1.9-1.3-4.5-2.7-7-1.8c-1,0.3-1.5,0.9-2.8,1.8c-1.4,0.9-3.4,2.2-6.4,3.1
			c-0.2,0.6-0.4,1.7-0.2,3.1c0.5,2.4,2.3,3.7,2.8,4c0.8-0.4,1.6-0.8,2.4-1.2c0.5,0,1.3,0,2.2-0.3c1-0.4,1.4-1,2.2-1.7
			c1.4-1,2.4-0.8,3.5-1.2C116.7,210.6,118,209.2,118.8,205.4z"/>
		<path class="st72" d="M108.5,156.4c0.4,0.9,0.9,2.1,1.1,3.6c0.8,5-0.9,12.6-6.6,15c-5.8,2.5-12.1-1.9-15-5.2
			c-6.3-7.2-3.3-17-3.1-17.6c0,1,0.3,4.1,2.6,6.6c1.1,1.3,2.4,2,3.2,2.4c0.3-0.3,4.2-4.3,9.5-3.4c3.2,0.6,5.2,2.6,5.9,3.4
			C106.9,159.5,107.7,158,108.5,156.4z"/>
		<path class="st9" d="M104.2,161.2c-0.9-0.2-1.8-0.5-2.8-0.9c-0.8-0.3-1.5-0.6-2.1-0.9c-0.6,0.3-1.3,0.7-2.1,1
			c-1.9,0.7-3.6,1.1-5,1.2c0.1,0.2,2.2,3.2,6,3.1C102.2,164.8,104.1,161.4,104.2,161.2z"/>
		<path class="st72" d="M107,140.2c-1,1.2-2,2-3,2.6c-8.1,4.8-19.4-2.5-20.3-3.1c0.5-1.7,1.5-4,3.7-5.8c4.2-3.5,10.9-3.6,17-0.2
			c0.2-0.1,0.5-0.2,0.9-0.2c2.5-0.2,4.3,3.6,4.5,4c0.4,0.8,1.3,2.8,0.6,3.5C109.7,141.5,108.4,141.2,107,140.2z"/>
		<path class="st73" d="M85.4,262.5c-3,2.8-6,5.6-9,8.3c-0.8-0.9-1.7-1.8-2.5-2.7c2.9-2.9,5.8-5.9,8.7-8.8
			C83.5,260.4,84.4,261.4,85.4,262.5z"/>
		<path class="st73" d="M102.7,261.7c0,0,0.4,0.9,0.5,2.4c0,0.8,0,1.6-0.2,2.6c-0.2,0.9-0.5,1.9-1,2.8c-0.2,0.4-0.5,0.9-0.8,1.3
			c-0.3,0.4-0.6,0.8-0.9,1.1c-0.7,0.7-1.3,1.3-2,1.7c-1.3,0.8-2.3,1.1-2.3,1.1s0.2-0.1,0.6-0.4c0.4-0.2,0.8-0.6,1.4-1.1
			c0.5-0.5,1.1-1.1,1.7-1.8c0.3-0.3,0.5-0.7,0.8-1.1c0.3-0.4,0.5-0.8,0.7-1.2c0.9-1.7,1.3-3.5,1.5-5c0.1-0.7,0.1-1.3,0.1-1.8
			C102.7,261.9,102.7,261.7,102.7,261.7z"/>
	</g>
</g>
<g id="_x2014_ŽÓť_x5F_1">
	<path class="st74" d="M1354.4,215.9h-24.7c-1.2,0-2.2-1-2.2-2.2v-6.5c0-1.2,1-2.2,2.2-2.2h24.7c1.2,0,2.2,1,2.2,2.2v6.5
		C1356.6,214.9,1355.6,215.9,1354.4,215.9z"/>
	<path class="st75" d="M1354.4,215.9h-24.7c-1.2,0-2.2-1-2.2-2.2v-6.5c0-1.2,1-2.2,2.2-2.2h24.7c1.2,0,2.2,1,2.2,2.2v6.5
		C1356.6,214.9,1355.6,215.9,1354.4,215.9z"/>
	<rect x="1308.7" y="242" class="st76" width="62.8" height="5.2"/>
	<polygon class="st77" points="1302.7,251.6 1260.6,251.6 1260.6,239.2 1302.7,246.2 	"/>
	<path class="st78" d="M1276.7,222.4h-48.1c-1.1,0-2.1-0.9-2.1-2.1l0,0c0-1.1,0.9-2.1,2.1-2.1h48.1c1.1,0,2.1,0.9,2.1,2.1l0,0
		C1278.7,221.5,1277.8,222.4,1276.7,222.4z"/>
	<rect x="1269.7" y="217.5" class="st78" width="3.2" height="14"/>
	<rect x="1230.5" y="217.5" class="st78" width="3.2" height="14"/>
	<rect x="1392.5" y="253.7" class="st79" width="12.7" height="24.9"/>
	<rect x="1357.9" y="253.7" class="st79" width="12.7" height="24.9"/>
	<rect x="1232" y="253.7" class="st79" width="12.7" height="24.9"/>
	<rect x="1196" y="253.7" class="st79" width="12.7" height="24.9"/>
	<path class="st80" d="M1409.5,256.8h-217.7c-1.2,0-2.1-0.9-2.1-2.1l0,0c0-1.2,0.9-2.1,2.1-2.1h217.7c1.2,0,2.1,0.9,2.1,2.1l0,0
		C1411.6,255.9,1410.6,256.8,1409.5,256.8z"/>
	<path class="st79" d="M1421,371h-243c-1.6,0-2.8-1.3-2.8-2.8l0,0c0-1.6,1.3-2.8,2.8-2.8h243c1.6,0,2.8,1.3,2.8,2.8l0,0
		C1423.8,369.7,1422.5,371,1421,371z"/>
	<polygon class="st81" points="1411.6,365.3 1181.1,365.3 1190.7,259.9 1411.6,259.9 	"/>
	<polygon class="st82" points="1411.6,259.9 1375.6,259.9 1357.6,365.3 1411.6,365.3 	"/>
	<polygon class="st83" points="1293.2,251.6 1223.7,251.6 1223.7,226.8 1281.2,226.8 	"/>
	<path class="st83" d="M1284.3,197l-3.1,24h-57.5v-30.8h54.6C1282,190.2,1284.8,193.4,1284.3,197z"/>
	<path class="st84" d="M1270.8,206.8h-42.2c-1.2,0-2.1-1-2.1-2.1V199c0-1.2,1-2.1,2.1-2.1h42.2c1.2,0,2.1,1,2.1,2.1v5.8
		C1273,205.9,1272,206.8,1270.8,206.8z"/>
	<polygon class="st85" points="1231.5,204.5 1229.8,204.5 1231.1,199 1232.7,199 	"/>
	<polygon class="st85" points="1234.4,204.5 1232.8,204.5 1234,199 1235.6,199 	"/>
	<polygon class="st85" points="1237.3,204.5 1235.7,204.5 1236.9,199 1238.6,199 	"/>
	<polygon class="st85" points="1240.2,204.5 1238.6,204.5 1239.8,199 1241.5,199 	"/>
	<polygon class="st85" points="1243.1,204.5 1241.5,204.5 1242.8,199 1244.4,199 	"/>
	<polygon class="st85" points="1265.1,204.5 1263.5,204.5 1264.8,199 1266.4,199 	"/>
	<polygon class="st85" points="1268.1,204.5 1266.4,204.5 1267.7,199 1269.3,199 	"/>
	<rect x="1245.7" y="199" class="st86" width="17.2" height="1.5"/>
	<path class="st77" d="M1281.2,221h-5.3v-30.8h2.5c3.6,0,6.4,3.2,6,6.8L1281.2,221z"/>
	<polygon class="st77" points="1293.2,251.6 1275.9,251.6 1275.9,226.8 1281.2,226.8 	"/>
	<rect x="1223.7" y="251.6" class="st87" width="79" height="1"/>
	<rect x="1232.1" y="217.5" class="st77" width="33.5" height="3.5"/>
	<rect x="1306.2" y="245.4" class="st88" width="67.2" height="7.2"/>
	<rect x="1306.2" y="240.8" class="st74" width="67.2" height="2.5"/>
	<polygon class="st75" points="1371.5,243.2 1371.5,245.4 1373.5,245.4 1373.5,252.6 1346.1,252.6 1346.1,240.8 1373.5,240.8 
		1373.5,243.2 	"/>
	<path class="st74" d="M1351.5,215.9h-24.7c-1.2,0-2.2-1-2.2-2.2v-6.5c0-1.2,1-2.2,2.2-2.2h24.7c1.2,0,2.2,1,2.2,2.2v6.5
		C1353.7,214.9,1352.7,215.9,1351.5,215.9z"/>
	<rect x="1326.9" y="208.1" class="st84" width="24.5" height="3.3"/>
	<rect x="1341.2" y="212.5" class="st74" width="2.3" height="30.8"/>
	<polygon class="st85" points="1350.4,210.5 1349.8,210.5 1350.2,208.6 1350.8,208.6 	"/>
	<polygon class="st85" points="1349.4,210.5 1348.9,210.5 1349.3,208.6 1349.9,208.6 	"/>
	<polygon class="st85" points="1348.5,210.5 1347.9,210.5 1348.4,208.6 1348.9,208.6 	"/>
	<polygon class="st85" points="1347.5,210.5 1347,210.5 1347.4,208.6 1348,208.6 	"/>
	<polygon class="st85" points="1346.6,210.5 1346,210.5 1346.5,208.6 1347,208.6 	"/>
	<polygon class="st85" points="1345.7,210.5 1345.1,210.5 1345.5,208.6 1346.1,208.6 	"/>
	<polygon class="st85" points="1344.7,210.5 1344.2,210.5 1344.6,208.6 1345.2,208.6 	"/>
	<polygon class="st82" points="1377.7,306 1267.2,306 1264.2,278.6 1377.7,278.6 	"/>
</g>
</svg>
