<svg xmlns="http://www.w3.org/2000/svg" xmlns:xlink="http://www.w3.org/1999/xlink" viewBox="0 0 55.5 52.9"><defs><style>.cls-1{fill:none;}.cls-2{clip-path:url(#clip-path);}.cls-3{fill:url(#Unbenannter_Verlauf_2);}.cls-4{clip-path:url(#clip-path-2);}.cls-5{fill:url(#Unbenannter_Verlauf_2-2);}</style><clipPath id="clip-path" transform="translate(2.4 0.2)"><polygon class="cls-1" points="47 12.8 24.5 0 24.5 52.6 33.5 47.4 33.5 32.6 40.3 36.5 40.2 26.4 33.5 22.5 33.5 16.6 47 24.5 47 12.8"/></clipPath><linearGradient id="Unbenannter_Verlauf_2" x1="-2.1" y1="-273.85" x2="53.1" y2="-273.85" gradientTransform="matrix(1, 0, 0, -1, 0, -247.6)" gradientUnits="userSpaceOnUse"><stop offset="0" stop-color="#ff6f00"/><stop offset="1" stop-color="#ffa800"/></linearGradient><clipPath id="clip-path-2" transform="translate(2.4 0.2)"><polygon class="cls-1" points="0 12.8 22.5 0 22.5 52.6 13.5 47.4 13.5 16.6 0 24.5 0 12.8"/></clipPath><linearGradient id="Unbenannter_Verlauf_2-2" x1="-2.4" y1="-273.85" x2="52.8" y2="-273.85" xlink:href="#Unbenannter_Verlauf_2"/></defs><title>Element 2</title><g id="Ebene_2" data-name="Ebene 2"><g id="Ebene_1-2" data-name="Ebene 1"><g class="cls-2"><path class="cls-3" d="M-2.1-.2H53.1V52.7H-2.1Z" transform="translate(2.4 0.2)"/></g><g class="cls-4"><path class="cls-5" d="M-2.4-.2H52.8V52.7H-2.4Z" transform="translate(2.4 0.2)"/></g></g></g></svg>