<svg xmlns="http://www.w3.org/2000/svg" xmlns:xlink="http://www.w3.org/1999/xlink" viewBox="0 0 963.7 514.59"><defs><style>.cls-1{fill:#acd5f4;}.cls-2{fill:#d4ecff;}.cls-3{fill:#e4efff;}.cls-4{fill:#cfd9e8;}.cls-5{opacity:0.7;}.cls-6{fill:#93cef5;}.cls-7{fill:#7dbfe8;}.cls-8{opacity:0.3;}.cls-43,.cls-9{fill:#fff;}.cls-9{opacity:0.2;}.cls-10{clip-path:url(#clip-path);}.cls-11{opacity:0.6;}.cls-12{fill:#bfe4ff;}.cls-13{fill:#36a6c2;}.cls-14{fill:#e9d6b8;}.cls-15{fill:#194866;}.cls-16{fill:#3bb6d5;}.cls-17{fill:#161711;}.cls-18{fill:#163f59;}.cls-19{fill:#b0bfde;}.cls-20{fill:#aebddc;}.cls-21{fill:#f1f0f6;}.cls-22{fill:#61dafb;}.cls-23{fill:#367082;}.cls-24{fill:#88bdda;}.cls-25{fill:#001f46;}.cls-26{fill:#3dc7c9;}.cls-27{fill:#33a8b5;}.cls-28{fill:#dce5ea;}.cls-29{fill:#b4c0c7;}.cls-30{fill:#d6e3eb;}.cls-31{fill:#8599a4;}.cls-32{fill:#d7dfe2;}.cls-33{fill:#e2c59c;}.cls-34{fill:#fece40;}.cls-35{fill:#d1dbea;}.cls-36{fill:#d0dee6;}.cls-37{fill:#b6c2c9;}.cls-38{fill:#86bbd8;}.cls-39{fill:url(#New_Gradient_Swatch_83);}.cls-40{fill:#f8c44f;}.cls-41{fill:#36afb1;}.cls-42{fill:#2c5b6a;}.cls-44,.cls-45,.cls-46{fill:none;stroke-miterlimit:10;}.cls-44{stroke:#3096af;}.cls-44,.cls-45{stroke-width:1.58px;}.cls-45{stroke:#f4da80;}.cls-46{stroke:#161711;stroke-width:1.18px;}</style><clipPath id="clip-path" transform="translate(0 -42.61)"><rect class="cls-1" x="73.85" y="123.94" width="213.28" height="160.47"/></clipPath><radialGradient id="New_Gradient_Swatch_83" cx="203.78" cy="170.25" r="380.24" gradientUnits="userSpaceOnUse"><stop offset="0" stop-color="#cdf7f1"/><stop offset="1" stop-color="#5dcfca"/></radialGradient></defs><g id="Layer_3" data-name="Layer 3"><path class="cls-2" d="M526.73,68.78C461,81.71,410.27,92,282.24,121.28,124.75,157.28,39,238.5,45.47,310.36c7.45,83.22,10.09,137.18,232.61,164.8C1062,572.45,977.54,335.25,942.45,162.07,915,26.45,756.44,23.6,526.73,68.78Z" transform="translate(0 -42.61)"/><rect class="cls-3" x="652.7" y="71.17" width="233.6" height="180.78"/><rect class="cls-4" x="648.78" y="62.03" width="241.43" height="9.83"/><rect class="cls-3" x="648.78" y="60.84" width="241.43" height="7.71"/><rect class="cls-1" x="662.85" y="81.32" width="213.28" height="160.47"/><g class="cls-5"><rect class="cls-6" x="704.25" y="99.13" width="61.75" height="128.27"/><rect class="cls-6" x="701.6" y="224.01" width="67.05" height="16.92"/><rect class="cls-6" x="701.6" y="225.3" width="10.08" height="15.64"/><rect class="cls-6" x="758.56" y="225.3" width="10.09" height="15.64"/><rect class="cls-7" x="708.42" y="225.3" width="57.32" height="15.64"/><rect class="cls-7" x="704.25" y="99.13" width="61.75" height="6.46"/><rect class="cls-6" x="701.16" y="92.72" width="67.92" height="7.96"/><rect class="cls-7" x="708.94" y="110.14" width="10.33" height="10.32"/><rect class="cls-7" x="722.96" y="110.14" width="10.32" height="10.32"/><rect class="cls-7" x="736.97" y="110.14" width="10.33" height="10.32"/><rect class="cls-7" x="750.98" y="110.14" width="10.33" height="10.32"/><rect class="cls-7" x="708.94" y="123.84" width="10.33" height="10.33"/><rect class="cls-7" x="722.96" y="123.84" width="10.32" height="10.33"/><rect class="cls-7" x="736.97" y="123.84" width="10.33" height="10.33"/><rect class="cls-7" x="750.98" y="123.84" width="10.33" height="10.33"/><rect class="cls-7" x="708.94" y="137.54" width="10.33" height="10.32"/><rect class="cls-7" x="722.96" y="137.54" width="10.32" height="10.32"/><rect class="cls-7" x="736.97" y="137.54" width="10.33" height="10.32"/><rect class="cls-7" x="750.98" y="137.54" width="10.33" height="10.32"/><rect class="cls-7" x="708.94" y="151.23" width="10.33" height="10.32"/><rect class="cls-7" x="722.96" y="151.23" width="10.32" height="10.32"/><rect class="cls-7" x="736.97" y="151.23" width="10.33" height="10.32"/><rect class="cls-7" x="750.98" y="151.23" width="10.33" height="10.32"/><rect class="cls-7" x="708.94" y="164.92" width="10.33" height="10.33"/><rect class="cls-7" x="722.96" y="164.92" width="10.32" height="10.33"/><rect class="cls-7" x="736.97" y="164.92" width="10.33" height="10.33"/><rect class="cls-7" x="750.98" y="164.92" width="10.33" height="10.33"/><rect class="cls-7" x="708.94" y="178.62" width="10.33" height="10.32"/><rect class="cls-7" x="722.96" y="178.62" width="10.32" height="10.32"/><rect class="cls-7" x="736.97" y="178.62" width="10.33" height="10.32"/><rect class="cls-7" x="750.98" y="178.62" width="10.33" height="10.32"/><rect class="cls-7" x="708.94" y="192.31" width="10.33" height="10.33"/><rect class="cls-7" x="722.96" y="192.31" width="10.32" height="10.33"/><rect class="cls-7" x="736.97" y="192.31" width="10.33" height="10.33"/><rect class="cls-7" x="750.98" y="192.31" width="10.33" height="10.33"/><rect class="cls-7" x="708.94" y="206.01" width="10.33" height="10.33"/><rect class="cls-7" x="722.96" y="206.01" width="10.32" height="10.33"/><rect class="cls-7" x="736.97" y="206.01" width="10.33" height="10.33"/><rect class="cls-7" x="750.98" y="206.01" width="10.33" height="10.33"/></g><polygon class="cls-6" points="876.49 196.97 795.5 196.97 795.5 141.06 876.49 154.41 876.49 196.97"/><polygon class="cls-7" points="876.49 156.8 793.82 143.46 793.82 138.95 876.49 152.29 876.49 156.8"/><rect class="cls-6" x="748.56" y="198.37" width="127.93" height="42.56"/><rect class="cls-6" x="848.06" y="225.43" width="17.72" height="15.5"/><rect class="cls-7" x="758.11" y="211.34" width="45.42" height="20.57"/><rect class="cls-7" x="812.79" y="211.34" width="54.44" height="7.61"/><rect class="cls-7" x="795.5" y="166.81" width="60.08" height="20.57"/><rect class="cls-7" x="745.9" y="196.26" width="130.59" height="4.51"/><g class="cls-8"><polygon class="cls-6" points="703.54 240.93 676.38 240.93 676.38 208.04 689.65 198.12 703.54 208.04 703.54 240.93"/><polygon class="cls-7" points="689.63 198.59 704.07 209.14 704.07 206.66 689.64 195.36 675.86 206.66 675.86 209.1 689.63 198.59"/><rect class="cls-7" x="687.91" y="214.6" width="4.11" height="8.7"/></g><polygon class="cls-9" points="711.35 241.79 835.26 81.33 817.18 81.33 693.27 241.79 711.35 241.79"/><polygon class="cls-9" points="728.21 241.79 852.12 81.33 843.96 81.33 720.05 241.79 728.21 241.79"/><rect class="cls-3" x="764.42" y="78.28" width="10.16" height="166.56"/><rect class="cls-3" x="63.7" y="71.17" width="233.6" height="180.78"/><rect class="cls-1" x="73.85" y="81.32" width="213.28" height="160.47"/><g class="cls-10"><g class="cls-11"><polygon class="cls-6" points="210.9 124.89 253.13 111.98 295.35 124.89 210.9 124.89"/><rect class="cls-7" x="214.78" y="132.84" width="76.73" height="90.63"/><rect class="cls-6" x="211.49" y="219.26" width="83.31" height="21.03"/><rect class="cls-7" x="211.49" y="220.86" width="12.53" height="19.43"/><rect class="cls-7" x="218.53" y="220.86" width="76.27" height="19.43"/><rect class="cls-6" x="214.78" y="132.84" width="76.73" height="8.02"/><rect class="cls-7" x="210.94" y="124.88" width="84.41" height="9.89"/><rect class="cls-6" x="220.61" y="146.53" width="12.83" height="12.83"/><rect class="cls-6" x="238.02" y="146.53" width="12.83" height="12.83"/><rect class="cls-6" x="255.44" y="146.53" width="12.83" height="12.83"/><rect class="cls-6" x="272.85" y="146.53" width="12.83" height="12.83"/><rect class="cls-6" x="220.61" y="163.54" width="12.83" height="12.83"/><rect class="cls-6" x="238.02" y="163.54" width="12.83" height="12.83"/><rect class="cls-6" x="255.44" y="163.54" width="12.83" height="12.83"/><rect class="cls-6" x="272.85" y="163.54" width="12.83" height="12.83"/><rect class="cls-6" x="220.61" y="180.56" width="12.83" height="12.83"/><rect class="cls-6" x="238.02" y="180.56" width="12.83" height="12.83"/><rect class="cls-6" x="255.44" y="180.56" width="12.83" height="12.83"/><rect class="cls-6" x="272.85" y="180.56" width="12.83" height="12.83"/><rect class="cls-6" x="220.61" y="197.58" width="12.83" height="12.83"/><rect class="cls-6" x="238.02" y="197.58" width="12.83" height="12.83"/><rect class="cls-6" x="255.44" y="197.58" width="12.83" height="12.83"/><rect class="cls-6" x="272.85" y="197.58" width="12.83" height="12.83"/></g><polygon class="cls-7" points="195.02 240.29 138.44 240.29 138.44 70.64 166.08 50.54 195.02 70.64 195.02 240.29"/><polygon class="cls-6" points="166.03 51.51 196.12 73.5 196.12 68.34 166.06 44.78 137.34 68.34 137.34 73.42 166.03 51.51"/><rect class="cls-6" x="162.44" y="84.88" width="8.57" height="18.13"/><rect class="cls-6" x="162.44" y="110.26" width="8.57" height="18.12"/><rect class="cls-6" x="162.44" y="135.63" width="8.57" height="18.12"/><rect class="cls-6" x="162.44" y="161" width="8.57" height="18.12"/><rect class="cls-7" x="180.37" y="178.35" width="52.96" height="61.94"/><rect class="cls-6" x="216.81" y="215.54" width="11.28" height="24.75"/><rect class="cls-6" x="214.61" y="236.48" width="15.69" height="3.81"/><rect class="cls-6" x="180.37" y="207.73" width="52.96" height="5.83"/><rect class="cls-6" x="180.37" y="206.4" width="52.96" height="1.33"/><rect class="cls-6" x="180.37" y="178.81" width="52.96" height="4.45"/><rect class="cls-6" x="179.91" y="206.81" width="53.89" height="3.96"/><rect class="cls-6" x="186.04" y="185.39" width="3.31" height="7.72"/><rect class="cls-6" x="190.82" y="185.39" width="3.3" height="7.72"/><rect class="cls-6" x="186.04" y="195.13" width="3.31" height="7.71"/><rect class="cls-6" x="190.82" y="195.13" width="3.3" height="7.71"/><rect class="cls-6" x="202.2" y="185.39" width="3.31" height="7.72"/><rect class="cls-6" x="206.98" y="185.39" width="3.31" height="7.72"/><rect class="cls-6" x="202.2" y="195.13" width="3.31" height="7.71"/><rect class="cls-6" x="206.98" y="195.13" width="3.31" height="7.71"/><rect class="cls-6" x="218.36" y="185.39" width="3.31" height="7.72"/><rect class="cls-6" x="223.14" y="185.39" width="3.3" height="7.72"/><rect class="cls-6" x="218.36" y="195.13" width="3.31" height="7.71"/><rect class="cls-6" x="223.14" y="195.13" width="3.3" height="7.71"/><rect class="cls-6" x="186.04" y="215.88" width="3.31" height="7.71"/><rect class="cls-6" x="190.82" y="215.88" width="3.3" height="7.71"/><rect class="cls-6" x="186.04" y="225.62" width="3.31" height="7.71"/><rect class="cls-6" x="190.82" y="225.62" width="3.3" height="7.71"/><rect class="cls-6" x="202.2" y="215.88" width="3.31" height="7.71"/><rect class="cls-6" x="206.98" y="215.88" width="3.31" height="7.71"/><rect class="cls-6" x="202.2" y="225.62" width="3.31" height="7.71"/><rect class="cls-6" x="206.98" y="225.62" width="3.31" height="7.71"/><polygon class="cls-6" points="225.75 160.42 216.6 160.42 212.72 160.42 200.41 160.42 195.71 160.42 187.38 160.42 180.86 176.68 185.27 176.68 206.21 176.68 206.93 176.68 227.03 176.68 232.27 176.68 225.75 160.42"/><rect class="cls-7" x="179.91" y="176.51" width="53.89" height="3.96"/><rect class="cls-6" x="87.61" y="104.59" width="13.38" height="60.19"/><polygon class="cls-6" points="126.75 240.29 12.06 240.29 12.06 149.91 68.09 114.62 126.75 149.91 126.75 240.29"/><polygon class="cls-7" points="67.99 115.45 128.99 152.34 128.99 147.93 68.03 109.71 9.82 147.93 9.82 152.27 67.99 115.45"/><rect class="cls-7" x="69.96" y="159.62" width="21.82" height="22.29"/><rect class="cls-7" x="94.11" y="159.62" width="21.83" height="22.29"/><rect class="cls-6" y="193.06" width="163.28" height="47.22"/><rect class="cls-6" x="13.67" y="220.5" width="22.61" height="19.79"/><rect class="cls-7" x="93.11" y="202.51" width="57.97" height="26.26"/><rect class="cls-7" x="11.81" y="202.51" width="69.48" height="9.71"/><rect class="cls-7" y="190.72" width="166.67" height="5"/></g><rect class="cls-4" x="59.78" y="62.03" width="241.43" height="9.83"/><rect class="cls-3" x="59.78" y="60.84" width="241.43" height="7.71"/><polygon class="cls-9" points="122.35 241.79 246.26 81.33 228.18 81.33 104.27 241.79 122.35 241.79"/><polygon class="cls-9" points="139.21 241.79 263.12 81.33 254.96 81.33 131.05 241.79 139.21 241.79"/><rect class="cls-3" x="175.42" y="78.28" width="10.16" height="166.56"/><path class="cls-12" d="M762.36,437c-63.05-5.68-208.54-16.6-327.76-23.08-221.06-12-458.53,46.85-339.54,74.92,33.26,7.85-61.29,60.18,172.61,67.41,205.33,6.33,414.06-18.92,515.11-30s147.45-28.25,169-36C970.73,483.38,960.92,454.84,762.36,437Z" transform="translate(0 -42.61)"/><path class="cls-13" d="M383.38,155.53s-4.88,7.22,4,15.51c15.09,14.12,34.55,21.91,38.31,23.54s15.2,4.31,19-.75-7.93-14.47-7.93-14.47-13.25-7.29-25.17-14.92S383.38,155.53,383.38,155.53Z" transform="translate(0 -42.61)"/><path class="cls-13" d="M462.63,141.49s-14.62-7.31-15.84-3.66c-5.35,16.06-13.56,33.4-14.44,37.4s-1.3,15.75,4.41,18.55,12.67-10.58,12.67-10.58,4.6-14.4,9.79-27.57S462.63,141.49,462.63,141.49Z" transform="translate(0 -42.61)"/><path class="cls-14" d="M396.87,155.17c-.36,4.23-2.63,7.89-5,8.06h-6.8c-2.39-.17-4.66-3.83-5-8.06q-.82-10.46-1.67-20.91c-.37-4.18,1.27-12.57,4.89-15a9,9,0,0,1,10.41,0c3.61,2.47,5.25,10.86,4.88,15Q397.7,144.71,396.87,155.17Z" transform="translate(0 -42.61)"/><path class="cls-14" d="M344.74,225.35l18.18,29.57s-27-13-25.65-25.09S344.74,225.35,344.74,225.35Z" transform="translate(0 -42.61)"/><path class="cls-15" d="M386.85,258.91S397,307,407.57,332.46c9.37,22.58,20.3-6.8,20.3-6.8l-17.1-87.42-28.2-2.14S380.63,236.82,386.85,258.91Z" transform="translate(0 -42.61)"/><path class="cls-15" d="M389.2,236.33l3.46,37.44-4.88,2.88S385,332.25,384,335.06c-5.29,16.1-19,6.44-20.84,1.08s-5-45.07-4.35-74.05l.62-29Z" transform="translate(0 -42.61)"/><path class="cls-16" d="M413.77,166.22,395.63,157l-4.88,2-14-1.52L355,164.88s-4.42,5.75-.47,26.42,4.29,53.76,4.29,53.76l54.23,3.22S420.3,161.69,413.77,166.22Z" transform="translate(0 -42.61)"/><path class="cls-16" d="M364.32,165.77s-7.37-6.36-15.85,5.38c-12.63,17.47-20.06,37.62-21.46,41.66s-3.26,16.12,2.33,19.71l5.6,3.58,12.46-7.27-2.14-3.93-1.46-1.79s6.53-14.34,13.53-27.33S364.32,165.77,364.32,165.77Z" transform="translate(0 -42.61)"/><polygon class="cls-13" points="391.67 115.88 388.17 122.58 377.35 114.66 379.49 110.85 391.67 115.88"/><polygon class="cls-13" points="397.47 111.06 392.58 115.88 397.3 121.54 399.99 114.32 397.47 111.06"/><path class="cls-17" d="M364.18,428c-.47.65-.11,2.37-.11,2.37s8.37,1.08,11.06.38a13.07,13.07,0,0,0,3-1.57c.18-.11.51-.84.69-.95.34-.23.52.15.81-.05a10.3,10.3,0,0,0,1.27-1c.72-4.31-.27-6.05-.27-6.05s-7.14-2.69-8.47-.84C369,424.65,365.23,426.58,364.18,428Z" transform="translate(0 -42.61)"/><path class="cls-17" d="M423.87,418.5l1.27,7h6.8s.38-1,.95-1,1.11,1,1.77,1H452s.31-1.47-.06-2a6.27,6.27,0,0,0-2.09-.93c-3.52-1-13.56-4.28-15.31-7.81C432.36,410.5,423.87,418.5,423.87,418.5Z" transform="translate(0 -42.61)"/><path class="cls-15" d="M382.84,320.41s2.26,10.52,1.94,30.4c-.21,12.6-1.38,46-3.55,70.81-.14,1.52-11.82.37-11.82.37s-7.12-80.63-7.74-96.24C361.48,321.05,373.51,309.29,382.84,320.41Z" transform="translate(0 -42.61)"/><path class="cls-15" d="M423.15,324.35s-3.68-1.45-13.69,1.44c-6.52,1.88,13.38,93.85,13.38,93.85l14.74-5.41-10.14-90.84Z" transform="translate(0 -42.61)"/><path class="cls-18" d="M389.45,114.29v-4.83h10.44a6.35,6.35,0,0,1,6.36,6.36v4.83H395.81A6.36,6.36,0,0,1,389.45,114.29Z" transform="translate(0 -42.61)"/><path class="cls-14" d="M385.1,69.7h12.83a5.65,5.65,0,0,1,5.65,5.65V101a5.66,5.66,0,0,1-5.66,5.66H385.1a5.65,5.65,0,0,1-5.65-5.65V75.36A5.65,5.65,0,0,1,385.1,69.7Z"/><path class="cls-18" d="M389.05,109.46a6.34,6.34,0,0,0-5.32,2.87h-2.19a4.93,4.93,0,0,0-4.92,4.93v12.17h3.47v-5a3.46,3.46,0,0,1,3.46-3.46H394a6.36,6.36,0,0,0,6.36-6.36v-5.2Z" transform="translate(0 -42.61)"/><path class="cls-14" d="M381.18,132.59a3,3,0,0,0-3-3h-.25a3,3,0,0,0-3,3v3.67a3,3,0,0,0,3,3h.25a3,3,0,0,0,2.76-1.8" transform="translate(0 -42.61)"/><polygon class="cls-19" points="447.24 121.44 444.58 114.06 434.51 371.88 437.47 371.88 447.24 121.44"/><polygon class="cls-19" points="436.25 371.88 437.47 371.88 447.24 121.44 446.15 118.42 436.25 371.88"/><polygon class="cls-19" points="478.47 252.38 434.6 252.38 440.82 93.13 484.69 93.13 478.47 252.38"/><polygon class="cls-4" points="584.88 225.3 588.81 220.74 603.63 380 599.27 380 584.88 225.3"/><polygon class="cls-20" points="601.06 380 599.27 380 584.88 225.3 586.49 223.43 601.06 380"/><polygon class="cls-4" points="460.25 225.3 464.18 220.74 479 380 474.64 380 460.25 225.3"/><polygon class="cls-20" points="476.42 380 474.64 380 460.25 225.3 461.86 223.43 476.42 380"/><polygon class="cls-21" points="456.11 252.38 598.13 252.38 583.31 93.13 441.29 93.13 456.11 252.38"/><path class="cls-14" d="M454.47,132c-2.25.25-7.75,3.25-7.75,3.25l8.25.25a4.73,4.73,0,0,1,0,1.7l.26,5.2-.07,2.42a4.25,4.25,0,0,0,.1,1.72c.7,1,1.22.12,1.22.12l1.08-9.36,1.34,8.94s.36,1.12,1,1.15.54-.34.54-.34l.85-10.44,1.21,4.54s.38,1.09,1,1.15l.83.11-1.19-9.55A23.45,23.45,0,0,0,454.47,132Z" transform="translate(0 -42.61)"/><path class="cls-14" d="M459.27,137.59l1.3,6.24a5.21,5.21,0,0,0,.62,2,.84.84,0,0,0,1.17.27l-1.05-9.59Z" transform="translate(0 -42.61)"/><path class="cls-22" d="M577.21,211.82c-.64-8.31-11.13-15.42-26.65-19.13,2.23-16.53-.32-29.35-7.49-33a10.3,10.3,0,0,0-5.55-1l.44,5.71a5.32,5.32,0,0,1,2.82.45c3.46,1.74,5.48,9.22,5.12,19.07-.08,2.43-.32,5-.66,7.62a112.2,112.2,0,0,0-15.63-1.6,123,123,0,0,0-11.09-12c7.32-8.36,14.42-13.18,19.47-13.57l-.44-5.7h0c-6.68.51-15,6.2-23.2,15.58-9.5-8-18.62-12.24-25.3-11.73l.44,5.7c5-.39,12.8,3.26,21.31,10.34a120.59,120.59,0,0,0-9,13.54,107.56,107.56,0,0,0-15.23,4c-.75-2.51-1.36-5-1.83-7.31-1.9-9.68-1.08-17.39,2-19.66a5.21,5.21,0,0,1,2.74-.88l-.44-5.7h0a10.36,10.36,0,0,0-5.37,1.85c-6.51,4.67-7,17.7-2.26,33.64-14.72,6.08-23.95,14.69-23.31,23s11.14,15.42,26.66,19.13c-2.24,16.53.32,29.35,7.49,33a10.24,10.24,0,0,0,5.57,1c6.67-.51,15-6.2,23.19-15.58,9.51,8,18.63,12.25,25.31,11.73a10.4,10.4,0,0,0,5.37-1.86c6.5-4.67,7-17.7,2.26-33.64C568.63,228.74,577.86,220.11,577.21,211.82Zm-32.92-14.61c-.65,3.37-1.5,6.86-2.5,10.36-1.15-2-2.35-3.94-3.65-5.89s-2.62-3.87-4-5.72C537.67,196.23,541,196.64,544.29,197.21Zm-9,28.1c-1.63,3.59-3.32,7-5.1,10.22q-5.38.91-10.93,1.36c-3.67.28-7.35.38-11,.36-2.25-2.89-4.46-6-6.62-9.27s-4-6.48-5.84-9.78c1.24-3.55,2.68-7.1,4.24-10.59s3.31-7,5.09-10.22c3.59-.62,7.25-1.08,10.94-1.36s7.34-.39,11-.36c2.25,2.88,4.47,6,6.62,9.26s4.05,6.48,5.84,9.78C538.25,218.26,536.84,221.82,535.28,225.31Zm7.58-3.93c1.58,3.32,3,6.66,4.14,9.91a101.49,101.49,0,0,1-9.85,2.82c1-2.06,2.07-4.17,3-6.33S542,223.5,542.86,221.38Zm-22.51,29.18c-2.44-2.28-4.91-4.84-7.38-7.66,2.19-.06,4.43-.16,6.69-.34s4.54-.4,6.74-.7A99.42,99.42,0,0,1,520.35,250.56ZM501.13,236.9c-3.49-.27-6.87-.68-10.11-1.25.64-3.37,1.49-6.86,2.49-10.36,1.16,2,2.36,3.94,3.66,5.9S499.79,235.05,501.13,236.9ZM515,182.3a102.62,102.62,0,0,1,7.38,7.66c-2.19.07-4.43.16-6.69.34s-4.53.4-6.73.7A99.39,99.39,0,0,1,515,182.3Zm-16.8,16.45c-1,2.06-2.07,4.17-3,6.33s-1.84,4.26-2.68,6.38c-1.57-3.32-3-6.66-4.13-9.92C491.42,200.51,494.72,199.56,498.15,198.75Zm-19.49,33.71c-8.9-3.19-14.85-7.83-15.16-11.84s4.86-9.53,13.16-14c2-1.11,4.23-2.13,6.52-3.11a127.09,127.09,0,0,0,6.67,15.15,125,125,0,0,0-4.19,15.92A69.65,69.65,0,0,1,478.66,232.46ZM494.54,268c-3.45-1.74-5.47-9.22-5.11-19.07.08-2.43.32-5,.66-7.62a112.2,112.2,0,0,0,15.63,1.6,123,123,0,0,0,11.09,12c-7.32,8.36-14.42,13.18-19.47,13.57A5.59,5.59,0,0,1,494.54,268Zm56.08-23.94c1.9,9.68,1.08,17.39-2,19.66a5.24,5.24,0,0,1-2.74.88c-5,.39-12.81-3.25-21.32-10.34a119.11,119.11,0,0,0,9-13.53,108.76,108.76,0,0,0,15.22-4A75,75,0,0,1,550.62,244.05Zm8-17.77c-2,1.1-4.23,2.12-6.53,3.1a127,127,0,0,0-6.66-15.15,127,127,0,0,0,4.19-15.91c2.46.6,4.81,1.3,7,2.08,8.89,3.19,14.84,7.83,15.16,11.84S567,221.78,558.65,226.28Z" transform="translate(0 -42.61)"/><path class="cls-22" d="M489,162.54Z" transform="translate(0 -42.61)"/><ellipse class="cls-22" cx="517.64" cy="216.43" rx="11.13" ry="11.72" transform="translate(-15.16 -2.01) rotate(-4.43)"/><path class="cls-22" d="M537.5,158.72Z" transform="translate(0 -42.61)"/><path class="cls-23" d="M170.09,417.5a14.55,14.55,0,0,1-9.63-3.49c-4.84-4.2-6.94-11.69-6.24-22.24.48-7.13,3.28-14.34,6.25-22,5-12.85,10.66-27.4,7.7-46.66l5.5-.85c3.19,20.73-3,36.7-8,49.52-2.93,7.54-5.46,14.06-5.88,20.33-.57,8.55.91,14.65,4.28,17.63a9.26,9.26,0,0,0,7.36,2.07l1.11,5.45A12.86,12.86,0,0,1,170.09,417.5Z" transform="translate(0 -42.61)"/><path class="cls-24" d="M212.75,461.65l5.43,8.26L172.66,484.5s-3-2.91,8.12-8.75C193.79,468.94,212.75,461.65,212.75,461.65Z" transform="translate(0 -42.61)"/><path class="cls-24" d="M220.84,461.65l-5.42,8.26,45.52,14.59s3-2.91-8.13-8.75C239.8,468.94,220.84,461.65,220.84,461.65Z" transform="translate(0 -42.61)"/><rect class="cls-24" x="212.04" y="394.45" width="9.51" height="33.87"/><path class="cls-1" d="M212.15,463.39l4.63,7.89-39,13.91s-2.6-2.77,7-8.35C195.91,470.35,212.15,463.39,212.15,463.39Z" transform="translate(0 -42.61)"/><path class="cls-1" d="M221.45,463.39l-4.64,7.89,39,13.91s2.61-2.77-7-8.35C237.68,470.35,221.45,463.39,221.45,463.39Z" transform="translate(0 -42.61)"/><path class="cls-25" d="M182.23,488.32a3.31,3.31,0,1,1-3.3-3.3A3.31,3.31,0,0,1,182.23,488.32Z" transform="translate(0 -42.61)"/><path class="cls-25" d="M257.73,488.32a3.31,3.31,0,1,1-3.31-3.3A3.31,3.31,0,0,1,257.73,488.32Z" transform="translate(0 -42.61)"/><path class="cls-23" d="M174.23,488.32a3.31,3.31,0,1,1-3.3-3.3A3.31,3.31,0,0,1,174.23,488.32Z" transform="translate(0 -42.61)"/><path class="cls-23" d="M265.73,488.32a3.31,3.31,0,1,1-3.31-3.3A3.31,3.31,0,0,1,265.73,488.32Z" transform="translate(0 -42.61)"/><rect class="cls-23" x="213.19" y="382.04" width="6.96" height="12.18"/><path class="cls-23" d="M225.37,418.22a6.78,6.78,0,0,1-6.78,6.78h-3.83a6.78,6.78,0,0,1-6.78-6.78h0a6.78,6.78,0,0,1,6.78-6.78h3.83a6.78,6.78,0,0,1,6.78,6.78Z" transform="translate(0 -42.61)"/><path class="cls-26" d="M268.38,412c.17-.8.27-5.81.27-6.67,0-5.48-3.54-9.92-7.91-9.92H172.61c-4.37,0-7.91,4.44-7.91,9.92,0,.86.1,5.87.26,6.67Z" transform="translate(0 -42.61)"/><path class="cls-23" d="M163.89,414.7c0,1.68,1,3,2.19,3H267.27c1.21,0,2.19-1.36,2.19-3h0c0-1.67-1-3-2.19-3H166.08c-1.21,0-2.19,1.36-2.19,3Z" transform="translate(0 -42.61)"/><path class="cls-26" d="M168.82,361.13c2.18.16,16,.4,18.37.43,15.12.19,28.15-2.65,28.87-6.38a128.88,128.88,0,0,0,.39-46.83c-.64-3.72-13.86-6.56-29.3-6.37-2.43,0-16.53.28-18.74.44A126.75,126.75,0,0,1,168.82,361.13Z" transform="translate(0 -42.61)"/><path class="cls-23" d="M166.74,302.42c-1.69,0-2.87.82-2.64,1.79a126.35,126.35,0,0,1,.48,55.14c-.21,1,1,1.77,2.61,1.79h0c1.66,0,3.19-.75,3.4-1.73a126.63,126.63,0,0,0-.36-55.27c-.23-1-1.79-1.74-3.49-1.72Z" transform="translate(0 -42.61)"/><path class="cls-27" d="M166.07,361.1a36.41,36.41,0,0,0,4,.26c3.3,0,6.69-2.86,7.35-6.52a127.22,127.22,0,0,0-.21-46.12c-.69-3.67-4.17-6.57-7.52-6.53a37.89,37.89,0,0,0-4.05.27A126.59,126.59,0,0,1,166.07,361.1Z" transform="translate(0 -42.61)"/><path class="cls-28" d="M248.56,223.14H241.1V227A9.15,9.15,0,0,1,248.56,223.14Z" transform="translate(0 -42.61)"/><path class="cls-20" d="M215.78,246.12s-12.89,4.6-.51,41.56,20.63,32.47,20.63,32.47l10.23-1,19.63-23.28-10.57-9.24-2.13.85s-2.74-1.13-3.05-3.67-5.27-13.17-9-34.88C239.27,238.93,218.26,245.22,215.78,246.12Z" transform="translate(0 -42.61)"/><path class="cls-14" d="M263,296.32s25.45,13,41.47-12.16c4.77-7.47,2.73,1.14.13,9.32s-18.42,26.71-36.39,27.95-24.83.24-28.2-6S263,296.32,263,296.32Z" transform="translate(0 -42.61)"/><path class="cls-4" d="M241.11,290.42l6.45-4.18,2.67-1.52a5.64,5.64,0,0,0,2.83,2.78l-5.39,2.21-5.86,3.77-6.07,7.28Z" transform="translate(0 -42.61)"/><path class="cls-4" d="M239.58,352.27l-48.17-1s-18.94-49.61-20-67.07c-.64-10.14,5.41-32.45,15.74-37.45,2.31-1.11,9.49-4,13-4.2a268.3,268.3,0,0,1,36.76.06S253.65,257.13,239.58,352.27Z" transform="translate(0 -42.61)"/><path class="cls-18" d="M318.9,494.68s-4.68,7.23-7.07,2.8c-7.18-13.29-13.66-55.25-14.06-72.46-.55-23-1.6-37-1.6-37l23.1-8.38Z" transform="translate(0 -42.61)"/><path class="cls-18" d="M237.88,351.78l81.5,27.91L298,391.62S214,406.36,212.45,375.16C211.19,348.92,237.88,351.78,237.88,351.78Z" transform="translate(0 -42.61)"/><path class="cls-15" d="M290,495.34s-4.22,3.87-6.62-.56c-7.18-13.29-19-48.6-19.37-65.82-.54-23,3.25-38.93,3.25-38.93l23.61-8.19Z" transform="translate(0 -42.61)"/><path class="cls-15" d="M212.61,352.68,290.32,382,269,393.59s-78.86,14.74-80.39-16.45S212.61,352.68,212.61,352.68Z" transform="translate(0 -42.61)"/><path class="cls-15" d="M187.26,378.89c-.2,2.15,1.05,9.32,3.45,12.21,7.35,8.88,24.78,5.9,38.67,5.9.77,0,4.64-10.84,4.64-10.84l5.8-35.45-48.72.82S188.94,361,187.26,378.89Z" transform="translate(0 -42.61)"/><path class="cls-14" d="M266.41,330.06l17.84-3.2s2.78-.3,2.91,1.62c.17,2.53-.29,10.8-.29,10.8l-3.2-2-4.6,2.8-5.33-7.05a13.86,13.86,0,0,1-5.05-.05C267.93,332.8,266.41,330.06,266.41,330.06Z" transform="translate(0 -42.61)"/><path class="cls-14" d="M222.64,325l47.23,5.24s-25.33,12.94-36.94,13a104,104,0,0,1-22.48-2.59Z" transform="translate(0 -42.61)"/><path class="cls-20" d="M199.35,276,223,320.69l-1.35,3.62,3.63.68-11,17.53-17.28-3.94-21.13-49.87s-7.48-21.11,7.67-35C187.46,250,197.26,272.46,199.35,276Z" transform="translate(0 -42.61)"/><path class="cls-4" d="M205.34,335.93s11.17-8.54,16.85-13.2l-.59,1.58,3.63.68-3.86,6-6.69,7.78-3.84-1.4,1.45-2.73Z" transform="translate(0 -42.61)"/><path class="cls-14" d="M302.49,292.9s-3.83-9.18-2.46-11.67S307,270,307,270l1.66-2.11s3.35.5-.51,6.36-.39,4-.39,4l5.52-4,7.17-4.38,2.92-2.34s1.56-1.45,2.23-1.48c1.93-.09,1.28,1.4,1.28,1.4l-10.6,10.05,12.33-6.65s1.72-.59,2.33.13.08,1,.08,1L318.9,282.72l6.74-2.72s1.7-.54,2.34.13a12.29,12.29,0,0,0,.91.92L304.1,294.93Z" transform="translate(0 -42.61)"/><path class="cls-14" d="M318.27,279.23l9-4.18a8.07,8.07,0,0,1,3.11-1.15,1.3,1.3,0,0,1,1.43,1.21l-12.86,7.61Z" transform="translate(0 -42.61)"/><path class="cls-15" d="M297.52,502.47a5.26,5.26,0,0,1,.09,2.5s-7.29,1.2-9.62.48a11.19,11.19,0,0,1-2.58-1.63c-.16-.13-.44-.88-.6-1s-.45.17-.7,0a8.25,8.25,0,0,1-1.09-1c-.6-4.54.27-6.39.27-6.39s6.22-2.88,7.36-.94C293.33,499,296.62,501,297.52,502.47Z" transform="translate(0 -42.61)"/><path class="cls-18" d="M311.05,496.75l1,6.58h5.52s.3-.93.77-.93.9.93,1.43.93h14s.25-1.38-.06-1.86a4.89,4.89,0,0,0-1.69-.88c-2.85-1-11.46-3.1-13.38-6.16C317.2,492.06,311.05,496.75,311.05,496.75Z" transform="translate(0 -42.61)"/><rect class="cls-20" x="199.54" y="236.46" width="8.5" height="12" transform="translate(-100.17 288.87) rotate(-66.28)"/><path class="cls-18" d="M219.21,210.08a5.84,5.84,0,0,1-4.86,6.68l-21.78,3.43a5.84,5.84,0,0,1-6.68-4.86h0a5.83,5.83,0,0,1,4.86-6.67l21.78-3.43a5.83,5.83,0,0,1,6.68,4.85Z" transform="translate(0 -42.61)"/><path class="cls-18" d="M216.79,220.71a10.8,10.8,0,0,1-9,12.34l-11.37,1.79a10.8,10.8,0,0,1-12.33-9h0a10.78,10.78,0,0,1,9-12.33l11.37-1.8a10.8,10.8,0,0,1,12.33,9Z" transform="translate(0 -42.61)"/><path class="cls-14" d="M228,236.43l-5.25-33.32c-.83-5.31-4.3.67-9.61,1.51l-5.12.81a9.72,9.72,0,0,0-8.1,11.12l3.74,23.71Z" transform="translate(0 -42.61)"/><path class="cls-14" d="M205.37,223.32a4.28,4.28,0,0,1-3.56,4.89h0a4.27,4.27,0,0,1-4.88-3.56h0a4.26,4.26,0,0,1,3.55-4.88h0a4.27,4.27,0,0,1,4.89,3.55Z" transform="translate(0 -42.61)"/><path class="cls-14" d="M223.61,226.42a2.43,2.43,0,0,0,2.75,2.08l2-.31a2.44,2.44,0,0,0,2-2.82s-6.32-12-7.62-11.76a4,4,0,0,0-.69,2.61Z" transform="translate(0 -42.61)"/><path class="cls-18" d="M214.29,236.72c-9.61,1.52-11.07-1.27-11.89-4.6,0,0-1.23,8.84-.8,11.56l.48,3c.92,5.85,7.69,9.65,15.12,8.48l13.45-2.12-2.35-14.94-.56-3.53Z" transform="translate(0 -42.61)"/><path class="cls-18" d="M226.77,228.42l-7.69,1.21a6.47,6.47,0,0,0-5.39,7.41,6.22,6.22,0,0,0,.47,1.57L228,236.43Z" transform="translate(0 -42.61)"/><path class="cls-14" d="M217.9,236.71l.34,2.13a1.08,1.08,0,0,0,1.23.91l6.23-1a1.08,1.08,0,0,0,.9-1.23l-.33-2.14Z" transform="translate(0 -42.61)"/><path class="cls-18" d="M218.53,197.71l-19.71,3.11a3.88,3.88,0,0,0-3.23,4.45L196.8,213l23.55-3.71Z" transform="translate(0 -42.61)"/><path class="cls-18" d="M231.65,201.53a5.87,5.87,0,0,1-4.89,6.72l-13.34,2.1a5.87,5.87,0,0,1-6.72-4.89h0a5.87,5.87,0,0,1,4.89-6.72l13.35-2.1a5.87,5.87,0,0,1,6.71,4.89Z" transform="translate(0 -42.61)"/><rect class="cls-18" x="199.73" y="209.31" width="5.39" height="14.2" transform="translate(-31.21 -8.48) rotate(-8.95)"/><rect class="cls-18" x="200.57" y="202.19" width="15.87" height="16.71" transform="translate(-30.22 -7.61) rotate(-8.95)"/><path class="cls-14" d="M205.67,219.68a8,8,0,0,1,6.68-9.18l4.09-.65c4.38-.69,7.29,2.49,8,6.87h0a8,8,0,0,1-6.69,9.18l-2.88.46a8,8,0,0,1-9.18-6.68Z" transform="translate(0 -42.61)"/><path class="cls-29" d="M267.1,339.76a.56.56,0,0,0-.05-.08l.05-2.31h95.7v2.31a.1.1,0,0,1,0,.08l-.24.43c-1.23,2-3.44,2.36-6,2.36H273.31c-2.53,0-4.74-.36-6-2.36Z" transform="translate(0 -42.61)"/><path class="cls-30" d="M290.16,340.15a.11.11,0,0,1,0,.06l-.24.35a3.76,3.76,0,0,1-1.4,1.17H274c-2.43,0-4.55-.29-5.74-1.91l-.23-.35,0-.06,0-1.14h22.18Z" transform="translate(0 -42.61)"/><rect class="cls-31" x="303.08" y="295.29" width="47.82" height="1.63"/><path class="cls-32" d="M290.69,337.28l12.41-47a3.12,3.12,0,0,1,2.84-2.25h67.14a1.67,1.67,0,0,1,1.65,2.25l-12.4,47Z" transform="translate(0 -42.61)"/><path class="cls-29" d="M328.66,312.65a3.24,3.24,0,0,0,3.2,4.35,6.07,6.07,0,0,0,5.5-4.35,3.24,3.24,0,0,0-3.2-4.35A6,6,0,0,0,328.66,312.65Z" transform="translate(0 -42.61)"/><path class="cls-23" d="M787.35,419.85a13.2,13.2,0,0,0,8.72-3.16c4.38-3.8,6.27-10.58,5.64-20.13-.44-6.44-3-13-5.66-19.88-4.52-11.62-9.64-24.79-7-42.22l-5-.76c-2.88,18.75,2.73,33.2,7.25,44.81,2.65,6.82,4.94,12.71,5.32,18.39.52,7.74-.82,13.26-3.87,16a8.33,8.33,0,0,1-6.66,1.87l-1,4.94A11.45,11.45,0,0,0,787.35,419.85Z" transform="translate(0 -42.61)"/><path class="cls-24" d="M748.74,459.8l-4.9,7.48L785,480.47s2.75-2.63-7.36-7.91C765.9,466.4,748.74,459.8,748.74,459.8Z" transform="translate(0 -42.61)"/><path class="cls-24" d="M741.43,459.8l4.9,7.48-41.19,13.19s-2.75-2.63,7.36-7.91C724.27,466.4,741.43,459.8,741.43,459.8Z" transform="translate(0 -42.61)"/><rect class="cls-24" x="740.78" y="394.94" width="8.61" height="30.65"/><path class="cls-1" d="M749.29,461.37l-4.19,7.14,35.25,12.59s2.36-2.51-6.29-7.55A276,276,0,0,0,749.29,461.37Z" transform="translate(0 -42.61)"/><path class="cls-1" d="M740.88,461.37l4.19,7.14L709.81,481.1s-2.35-2.51,6.3-7.55A274.6,274.6,0,0,1,740.88,461.37Z" transform="translate(0 -42.61)"/><path class="cls-25" d="M776.36,483.93a3,3,0,1,0,3-3A3,3,0,0,0,776.36,483.93Z" transform="translate(0 -42.61)"/><path class="cls-25" d="M708.05,483.93a3,3,0,1,0,3-3A3,3,0,0,0,708.05,483.93Z" transform="translate(0 -42.61)"/><path class="cls-23" d="M783.6,483.93a3,3,0,1,0,3-3A3,3,0,0,0,783.6,483.93Z" transform="translate(0 -42.61)"/><path class="cls-23" d="M700.81,483.93a3,3,0,1,0,3-3A3,3,0,0,0,700.81,483.93Z" transform="translate(0 -42.61)"/><rect class="cls-23" x="742.05" y="383.71" width="6.29" height="11.02"/><path class="cls-23" d="M737.33,420.5a6.13,6.13,0,0,0,6.13,6.14h3.47a6.14,6.14,0,0,0,6.14-6.14h0a6.14,6.14,0,0,0-6.14-6.14h-3.47a6.13,6.13,0,0,0-6.13,6.14Z" transform="translate(0 -42.61)"/><path class="cls-26" d="M698.4,414.88c-.15-.72-.23-5.25-.23-6,0-5,3.2-9,7.15-9h79.75c3.95,0,7.15,4,7.15,9,0,.78-.08,5.31-.23,6Z" transform="translate(0 -42.61)"/><path class="cls-23" d="M793,417.32c0,1.51-.89,2.74-2,2.74H699.41c-1.09,0-2-1.23-2-2.74h0c0-1.52.89-2.75,2-2.75H791c1.09,0,2,1.23,2,2.75Z" transform="translate(0 -42.61)"/><path class="cls-26" d="M788.5,368.84c-2,.14-14.47.37-16.63.39-13.68.17-25.47-2.4-26.12-5.77a116.78,116.78,0,0,1-.35-42.38c.58-3.37,12.54-5.93,26.51-5.76,2.2,0,15,.25,17,.39A114.53,114.53,0,0,0,788.5,368.84Z" transform="translate(0 -42.61)"/><path class="cls-23" d="M790.38,315.71c1.53,0,2.6.75,2.39,1.62a114.27,114.27,0,0,0-.43,49.89c.19.89-.87,1.61-2.37,1.63h0c-1.5,0-2.88-.68-3.07-1.57a114.51,114.51,0,0,1,.32-50c.21-.88,1.62-1.58,3.16-1.56Z" transform="translate(0 -42.61)"/><path class="cls-27" d="M791,368.81a32.29,32.29,0,0,1-3.59.24c-3,0-6-2.59-6.65-5.91a115,115,0,0,1,.19-41.73,7.35,7.35,0,0,1,6.81-5.9,33.58,33.58,0,0,1,3.66.24A114.37,114.37,0,0,0,791,368.81Z" transform="translate(0 -42.61)"/><path class="cls-33" d="M708,328.91s-.1,3.48-17,3.5-41.72-4.15-41.72-4.15l39-3.68S703.25,323.88,708,328.91Z" transform="translate(0 -42.61)"/><path class="cls-33" d="M662.59,329.5c-8,.25-11.36,4.38-14.51,5.73a58.64,58.64,0,0,0-6.26,3.33c1.68-3.49,4.27-3.67,5.54-4.83s.94-.58-1.93-.7c-1.63-.07-4.4,2.88-6.41,4.54a6.45,6.45,0,0,1-2.85,1.57,35.18,35.18,0,0,1,4.57-5.38,41.07,41.07,0,0,1,7.92-5.8c1.7-.73,7.07-1.08,10.91-.7C663.91,327.71,668.38,329.31,662.59,329.5Z" transform="translate(0 -42.61)"/><path class="cls-33" d="M649.1,328.1s-6.11,1.76-7.16,2.61c-.74.59-3.77,4-3.77,4a8.11,8.11,0,0,0,3.58-1.74C643,331.68,649.1,328.1,649.1,328.1Z" transform="translate(0 -42.61)"/><path class="cls-19" d="M700.36,321.83s15.58.44,14.83,9.7c-.42,5.26-3.91,7.2-8.62,7-8.76-.41-18.7-1.34-18.7-1.34L683,323Z" transform="translate(0 -42.61)"/><path class="cls-19" d="M703.66,323l13.6-48s2-7,5.74-5.85c5.41,1.69,3,7.47,2.61,10.86-.72,6.92,0,9.89-4.33,26.64-2.68,10.33-4.9,22.2-7.32,29-1.66,4.69-5-1.84-9.76-3.53C695.31,329,703.66,323,703.66,323Z" transform="translate(0 -42.61)"/><path class="cls-15" d="M730,259.49a19.81,19.81,0,1,0,15.09-23.25A19.6,19.6,0,0,0,730,259.49Z" transform="translate(0 -42.61)"/><path class="cls-15" d="M711.81,248.75A14.89,14.89,0,0,0,729.6,260l2.09-7.72A14.89,14.89,0,0,0,743,234.53l-1.23-5.45A14.88,14.88,0,0,0,724,217.8l-3.63.82A14.89,14.89,0,0,0,709,236.4Z" transform="translate(0 -42.61)"/><path class="cls-14" d="M712.83,226.09a29.94,29.94,0,0,0,1.27,4c3.55,9,10.82,14.82,17.21,14.31a45.61,45.61,0,0,0,4.58,10.79c2,3.42,7.16,6.34,7.16,6.34,2.51,6.28-22.63,27.32-23.71,26.77-2.28-1.17,1.81-16.28,5.92-21,1.94-2.19,3.9-4.78,3.94-6.26.15-5.18-1.5-6.29-4-8.66a12.19,12.19,0,0,0-9.39-2.12,1.71,1.71,0,0,1-1.35-.26,10.37,10.37,0,0,1-1.13-2.93l-2.69-12A10.51,10.51,0,0,1,712.83,226.09Z" transform="translate(0 -42.61)"/><path class="cls-34" d="M738.9,359.73s-6.44,5.83-8.25,6.35c-2.43.69-9.21-2.24-9.21-2.24s1.87-30.24,1.17-42.23-3.51-15.45-3.19-19.15c.52-5.92-4.28-8.94-2.86-13.46s5-20.72,5.22-18.47c2.1,19.17,9.45,4.39,10.92,2.07C733.5,271.33,738.9,359.73,738.9,359.73Z" transform="translate(0 -42.61)"/><path class="cls-35" d="M725.44,265.39s-8.52,6.25-8.4,9.13-4.41,11.42-2.58,24.24c2.1,14.64,2.88,24.47,2.44,33.82S712.17,350,712,361.51c-.11,9,2,9.81,2,9.81a7.49,7.49,0,0,0,7.32-1.61c3.34-3.08,2.75-33.91,2.24-41.66s-2.93-26-3.49-31.38a56.67,56.67,0,0,1,.7-15,62.66,62.66,0,0,1,3.58-13c.16-.42,2.38-2.19,2.52-2.52C727.44,264.77,726.14,264.6,725.44,265.39Z" transform="translate(0 -42.61)"/><path class="cls-19" d="M727.71,262.25s1.77-.37.26,1.66a4.21,4.21,0,0,0-.87,2.09s-.76-.81-1.92.35-2.7,2.35-2.7,2.35a28.06,28.06,0,0,1,1.31-3.22C724.65,264.7,727.71,262.25,727.71,262.25Z" transform="translate(0 -42.61)"/><path class="cls-15" d="M735.68,285.82a20.69,20.69,0,1,0,15.76-24.28A20.48,20.48,0,0,0,735.68,285.82Z" transform="translate(0 -42.61)"/><polygon class="cls-14" points="693.13 420.59 697 450.25 680.28 457.92 671 459.88 687.47 447.58 682.08 420.82 693.13 420.59"/><path class="cls-17" d="M698.09,497.33l-3.62.95L692,496.09l-13.35,6.48-11.85,2.71a2.19,2.19,0,0,1,.26-1.43c1.48-1.87,9.78-6.06,9.78-6.06s.13,2.75,1.31,2.83,11.41-5.12,13.78-6.56c4.07-2.49,4.83-4,5.14-3.85C697.93,490.73,698.09,497.33,698.09,497.33Z" transform="translate(0 -42.61)"/><polygon class="cls-14" points="652.78 379.35 639.5 404.62 621.13 403.72 612 401.18 632.28 397.86 643.36 376.27 652.78 379.35"/><path class="cls-17" d="M638.41,451.71l-3.64-.84-1.16-3.06-16.47-.24-9.83-2.23a8.2,8.2,0,0,1,1.92-1.58c2.19-.89,10-1.34,10-1.34s-.82,2.15.19,2.76,12.33,1,15.09.79c4.77-.33,6.16-1.35,6.34-1C641.32,445.77,638.41,451.71,638.41,451.71Z" transform="translate(0 -42.61)"/><path class="cls-15" d="M749.81,346.37l-9.91,4.31-4.3,12.93-63.74-10.5s-6.49-2-10.63,8.26c-5.88,14.59-20.85,60-20.85,60l9.48,9.91L679.58,380s60.92,28.57,81,22.4c7.7-2.36,13.59-16,12.49-29.73a175.32,175.32,0,0,0-3-20.67Z" transform="translate(0 -42.61)"/><path class="cls-18" d="M741.2,402.05l-48.75-3.51,4.19,75.22-14.37.46-10.62-88.09S674.51,373,683.82,375,715.66,394.23,741.2,402.05Z" transform="translate(0 -42.61)"/><path class="cls-35" d="M735,365.47s-1.17-30.6-2.07-45.12-.7-42.52-.89-46a42.69,42.69,0,0,1,.77-8.42s4.4-7.52,9.32-6.86c4.32.57,11,6.59,15.17,9.38s3.63,53.89,3.83,56.47c.74,9.29,6.28,18.47,10.46,27.4,2.68,5.72,3.29,14.76,3.29,14.76S750.1,362.31,735,365.47Z" transform="translate(0 -42.61)"/><polygon class="cls-19" points="740.63 214.06 737.14 217.51 732.22 222.79 734.71 228.72 743.39 216.53 740.63 214.06"/><path class="cls-14" d="M747.31,336.64s-.53,3.73-20.57,1.53-49-10-49-10l46.67,1.17S742.27,330.59,747.31,336.64Z" transform="translate(0 -42.61)"/><path class="cls-14" d="M693.39,331.28c-9.56-.78-14,3.23-17.88,4.27a69.38,69.38,0,0,0-7.82,2.76c2.41-3.54,5.5-3.4,7.14-4.47s1.19-.51-2.19-1c-1.93-.29-5.56,2.54-8.14,4.05a8.13,8.13,0,0,1-3.58,1.32A39.45,39.45,0,0,1,667,333a49.51,49.51,0,0,1,10.08-5.21c2.1-.56,8.51-.24,13,.69C695.17,329.53,700.28,331.85,693.39,331.28Z" transform="translate(0 -42.61)"/><path class="cls-14" d="M677.56,328s-7.44,1.09-8.79,1.87c-.94.53-4.95,3.8-4.95,3.8a10.08,10.08,0,0,0,4.45-1.4C670,331.05,677.56,328,677.56,328Z" transform="translate(0 -42.61)"/><path class="cls-19" d="M739.08,328l2.23-47.35s2.55-9.92,6.27-12.2c4.41-2.7,10.48,2.3,10.48,2.3s3.11,7.4,1,42.32c-1.39,23.35-3.54,35.44-14.62,33.74-10.33-1.6-22-3.91-22-3.91L718.31,327Z" transform="translate(0 -42.61)"/><path class="cls-36" d="M699.25,339.76a.3.3,0,0,1,0-.08l0-2.34H602v2.34a.2.2,0,0,0,0,.08l.25.44c1.25,2,3.49,2.4,6.06,2.4h84.64c2.56,0,4.8-.37,6.06-2.4Z" transform="translate(0 -42.61)"/><path class="cls-37" d="M675.81,340.16s0,0,0,.06l.24.35a3.89,3.89,0,0,0,1.42,1.2h14.79c2.47,0,4.63-.3,5.83-1.94l.23-.36,0-.06,0-1.16H675.81Z" transform="translate(0 -42.61)"/><rect class="cls-37" x="614.08" y="295.27" width="48.6" height="1.66"/><path class="cls-32" d="M675.27,337.25l-12.61-47.79a3.18,3.18,0,0,0-2.88-2.29H591.54a1.7,1.7,0,0,0-1.68,2.29l12.61,47.79Z" transform="translate(0 -42.61)"/><path class="cls-37" d="M636.68,312.21a3.29,3.29,0,0,1-3.25,4.42,6.16,6.16,0,0,1-5.59-4.42,3.29,3.29,0,0,1,3.26-4.42A6.14,6.14,0,0,1,636.68,312.21Z" transform="translate(0 -42.61)"/><polygon class="cls-6" points="293.5 464.15 303.45 464.15 287.03 305.09 272.59 305.09 293.5 464.15"/><polygon class="cls-38" points="273.56 312.42 292.87 361.51 287.4 308.68 287.03 305.09 274.41 305.09 273.56 312.42"/><polygon class="cls-6" points="188.98 464.15 179.03 464.15 195.45 305.09 209.88 305.09 188.98 464.15"/><polygon class="cls-38" points="208.92 312.42 202.59 360.59 195.08 308.68 195.45 305.09 208.07 305.09 208.92 312.42"/><polygon class="cls-6" points="612.66 464.15 602.71 464.15 619.13 305.09 633.57 305.09 612.66 464.15"/><polygon class="cls-38" points="632.61 312.42 626.27 360.59 618.76 308.68 619.13 305.09 631.75 305.09 632.61 312.42"/><polygon class="cls-6" points="717.18 464.15 727.13 464.15 710.71 305.09 696.27 305.09 717.18 464.15"/><polygon class="cls-38" points="697.24 312.42 716.56 361.51 711.08 308.68 710.71 305.09 698.09 305.09 697.24 312.42"/><rect class="cls-23" x="418.86" y="299.92" width="305.78" height="9.3"/><rect class="cls-39" x="183.58" y="299.92" width="426.59" height="9.3"/><path class="cls-17" d="M499.1,509.74l-1.6,8.35H489s-.47-1.19-1.19-1.19-1.39,1.19-2.22,1.19H463.93s-.38-1.76.09-2.36a8.08,8.08,0,0,1,2.61-1.12c4.4-1.24,17-5.1,19.17-9.3C488.46,500.21,499.1,509.74,499.1,509.74Z" transform="translate(0 -42.61)"/><path class="cls-18" d="M496.67,405.22s2.44,13.63,4.46,31c1.49,12.78,1.53,49.31-.83,74.68-.14,1.55-16.27-3.17-16.27-3.17s-5.89-71-7.24-86.91S487,395.31,496.67,405.22Z" transform="translate(0 -42.61)"/><path class="cls-17" d="M523.86,494.7c-.65-.78-.18-2.82-.18-2.82s11.21-1.25,14.81-.4a18.64,18.64,0,0,1,4,1.88c.24.15.69,1,.94,1.15.45.27.68-.18,1.07.05a13.46,13.46,0,0,1,1.71,1.19c1,5.14-.32,7.21-.32,7.21s-9.23,2.87-11.33,1C529.23,499.09,525.26,496.39,523.86,494.7Z" transform="translate(0 -42.61)"/><path class="cls-18" d="M524.66,417.13s-8.92-5.21-6.65,8.77c5.49,33.75,10.53,58.49,12.9,69.7.91,4.35,2.32,3.66,2.32,3.66l10.26,1.67,5.17-3.53-9.58-76.28Z" transform="translate(0 -42.61)"/><path class="cls-15" d="M484,419.31c1.35,1.75,47.28,25,49.4,25h37.76c2.12,0,17.47-2.25,20.8-12.34,3.52-10.66,0-29.66,0-29.66a3.92,3.92,0,0,0-3.84-4h-47c-2.12,0-6.4,1.79-6.4,4L489,400.81S474,406.31,484,419.31Z" transform="translate(0 -42.61)"/><path class="cls-18" d="M570.91,430.61H527.68c-.45,0-37.77-10.18-38.19-10.3l4.5,14.5c0,2.21,37.28,9.47,39.4,9.47h37.76c2.12,0,17.47-2.25,20.8-12.34a39.47,39.47,0,0,0,1.55-11.32C588.1,428.72,573.13,430.61,570.91,430.61Z" transform="translate(0 -42.61)"/><path class="cls-14" d="M554.87,294.4l-2-9.22s-7.19.51-8.58-3c-2.82-7.07-.46-18.37,1.24-21.53,4.84-9,6.89-24.8,29.54-12.25,8.62,4.78-4.68,27.92-5.68,32.94s2,10.78,2,10.78l-5.3,3.62Z" transform="translate(0 -42.61)"/><path class="cls-14" d="M517.51,357.7l38.84,13.79s-45.8,3.29-46,.62C509.41,357.49,517.51,357.7,517.51,357.7Z" transform="translate(0 -42.61)"/><path class="cls-40" d="M595.35,303.39s7.73,3.66,13.29,33.4,2,28.61,2,28.61l-1,6.78-14.45,1.2-7.8-25.67Z" transform="translate(0 -42.61)"/><path class="cls-34" d="M595.83,303.46l-19-7.87-5.25-4.52-20.22-.45-3.54,5.31-15.68,6.2s-3.86,5.54-.5,26.12c3.73,22.8-.06,81.78-.06,81.78l64,.91S590.27,314.52,595.83,303.46Z" transform="translate(0 -42.61)"/><path class="cls-34" d="M537.16,302.17s-3.53-3.58-12.12,6.16c-14.66,16.59-21.75,37.18-23.26,41.17s-3.23,13.81,2.77,20.43c4.58,5.07,9,3.19,9,3.19l14-10.94-4.5-2.27-3.07-.23s7.08-14.17,14.66-27S537.16,302.17,537.16,302.17Z" transform="translate(0 -42.61)"/><path class="cls-15" d="M551.88,263.28s2.56-1.44,3,.35-1,5.74-2.16,6.11-1.57,5.2-1.57,5.2l3.15,5.39h15.94s4.93-2,5.33-5.21,4.32-26,4.32-26l-11.22-5.39a77.78,77.78,0,0,0-10-3.77c-6.35-1.66-7.68,1.44-7.48,3.05s-1.78,1.8-4.34,1.8-5.71,1.79-4.33,2.87c.57.44-2,1.86-1,3.58,1.45,2.44,6.28,3.24,6.68,7.19C548.32,260.22,549.13,266.14,551.88,263.28Z" transform="translate(0 -42.61)"/><path class="cls-41" d="M505.14,458.57c-.15-.72-.24-5.25-.24-6,0-5,3.21-9,7.16-9h79.75c4,0,7.15,4,7.15,9,0,.78-.09,5.31-.23,6Z" transform="translate(0 -42.61)"/><path class="cls-42" d="M599.7,461c0,1.52-.89,2.75-2,2.75H506.15c-1.1,0-2-1.23-2-2.75h0c0-1.52.88-2.75,2-2.75h91.57c1.09,0,2,1.23,2,2.75Z" transform="translate(0 -42.61)"/><path class="cls-24" d="M562.48,503.48,557.57,511l41.19,13.2s2.76-2.63-7.35-7.92C579.64,510.08,562.48,503.48,562.48,503.48Z" transform="translate(0 -42.61)"/><path class="cls-24" d="M555.16,503.48l4.91,7.48-41.19,13.2s-2.75-2.63,7.35-7.92C538,510.08,555.16,503.48,555.16,503.48Z" transform="translate(0 -42.61)"/><rect class="cls-24" x="554.52" y="438.62" width="8.61" height="30.64"/><path class="cls-1" d="M563,505.06l-4.2,7.14,35.26,12.59s2.36-2.51-6.29-7.56C577.72,511.36,563,505.06,563,505.06Z" transform="translate(0 -42.61)"/><path class="cls-1" d="M554.61,505.06l4.2,7.14-35.26,12.59s-2.35-2.51,6.3-7.56C539.92,511.36,554.61,505.06,554.61,505.06Z" transform="translate(0 -42.61)"/><path class="cls-25" d="M590.1,527.62a3,3,0,1,0,3-3A3,3,0,0,0,590.1,527.62Z" transform="translate(0 -42.61)"/><path class="cls-25" d="M521.78,527.62a3,3,0,1,0,3-3A3,3,0,0,0,521.78,527.62Z" transform="translate(0 -42.61)"/><path class="cls-23" d="M597.34,527.62a3,3,0,1,0,3-3A3,3,0,0,0,597.34,527.62Z" transform="translate(0 -42.61)"/><path class="cls-23" d="M514.54,527.62a3,3,0,1,0,3-3A3,3,0,0,0,514.54,527.62Z" transform="translate(0 -42.61)"/><rect class="cls-42" x="555.79" y="427.4" width="6.29" height="11.02"/><path class="cls-42" d="M551.06,464.18a6.14,6.14,0,0,0,6.14,6.14h3.46a6.14,6.14,0,0,0,6.14-6.14h0a6.13,6.13,0,0,0-6.14-6.13H557.2a6.13,6.13,0,0,0-6.14,6.13Z" transform="translate(0 -42.61)"/><path class="cls-26" d="M518.14,458.57c-.15-.72-.24-5.25-.24-6,0-5,3.21-9,7.16-9h79.75c4,0,7.15,4,7.15,9,0,.78-.09,5.31-.23,6Z" transform="translate(0 -42.61)"/><path class="cls-23" d="M612.7,461c0,1.52-.89,2.75-2,2.75H519.15c-1.1,0-2-1.23-2-2.75h0c0-1.52.88-2.75,2-2.75h91.57c1.09,0,2,1.23,2,2.75Z" transform="translate(0 -42.61)"/><path class="cls-27" d="M602.84,385.28a4,4,0,0,1-4,4H523.53a5,5,0,0,1-4.76-4,140.85,140.85,0,0,1,0-49.23,5,5,0,0,1,4.76-4h75.35a4,4,0,0,1,4,4Q602.63,360.7,602.84,385.28Z" transform="translate(0 -42.61)"/><path class="cls-26" d="M607.23,385.28a4,4,0,0,1-4,4H527.87a5,5,0,0,1-4.72-4,147.92,147.92,0,0,1,0-49.23,5,5,0,0,1,4.72-4h75.36a4,4,0,0,1,4,4Z" transform="translate(0 -42.61)"/><path class="cls-23" d="M538.55,463.94c11.6-41.72-10.52-83.44-1-125.16.5-2.21-.78-4-3-4H533.2a5.43,5.43,0,0,0-5,4c-9.52,41.72,12.61,83.44,1,125.16Z" transform="translate(0 -42.61)"/><path class="cls-23" d="M604.55,463.94c11.6-41.72-10.52-83.44-1-125.16.5-2.21-.78-4-3-4H599.2a5.43,5.43,0,0,0-5,4c-9.52,41.72,12.61,83.44,1,125.16Z" transform="translate(0 -42.61)"/><rect class="cls-19" x="821.45" y="425.15" width="67.52" height="9"/><rect class="cls-19" x="813.22" y="349.15" width="84" height="78"/><rect class="cls-4" x="813.22" y="356.15" width="84" height="69"/><rect class="cls-3" x="826.72" y="358.15" width="57" height="24"/><rect class="cls-43" x="846.57" y="362.12" width="17.28" height="4.06"/><rect class="cls-3" x="826.72" y="389.15" width="57" height="24"/><rect class="cls-43" x="846.57" y="393.12" width="17.28" height="4.06"/><rect class="cls-4" x="808.72" y="340.15" width="93" height="9"/><path class="cls-16" d="M852.41,360.6s4.12-14.74,10.61-19.76,11.21-12.09,19.76-15.33,10.62-9.14,7.38-11.21-13.87-8-26.84,5.6-16.22,24.19-15.93,36.87S851.82,368,852.41,360.6Z" transform="translate(0 -42.61)"/><path class="cls-44" d="M885.43,316.56s-13,3.84-18.87,8.26-16.81,16.81-17.4,28.9" transform="translate(0 -42.61)"/><path class="cls-40" d="M848.86,365.32s-6.68-18.87-9.43-24.77-2.36-20.06,2-25.56,11.41-13.76,8.26-25.95-1.57-19.67,4.33-15,16.26,15.13,16.51,31.86c.2,12.78-3.57,20.26-10.61,29.49C854.17,342.91,848.47,356.67,848.86,365.32Z" transform="translate(0 -42.61)"/><path class="cls-45" d="M846.8,360.8s-3.54-18.87,0-26.54,12-21.85,12.68-31.26c.89-11.8-6.49-23-6.49-23" transform="translate(0 -42.61)"/><path class="cls-15" d="M822.62,337.31c-7.67-1.48-8.26-10.33-2.36-12.1s15.63-1.47,20.35,4.72c5.47,7.18,7.67,20.06,5.9,29.2s0-3.54-3.84-9.73S828.94,338.52,822.62,337.31Z" transform="translate(0 -42.61)"/><path class="cls-46" d="M819.08,330.13s10.61-2.07,18,5c6.38,6.13,9.14,13.77,10.32,21.63" transform="translate(0 -42.61)"/><polygon class="cls-19" points="861.55 340.6 840.31 340.6 836.77 306.39 865.09 306.39 861.55 340.6"/><polygon class="cls-4" points="838.87 306.39 840.89 333.62 856.12 333.62 858.14 306.39 838.87 306.39"/></g></svg>