<svg xmlns="http://www.w3.org/2000/svg" xmlns:xlink="http://www.w3.org/1999/xlink" viewBox="0 0 2496.44 1605"><defs><style>.cls-1{mask:url(#mask);}.cls-12,.cls-13,.cls-130,.cls-2,.cls-233,.cls-4,.cls-46,.cls-79{mix-blend-mode:multiply;}.cls-2{fill:url(#linear-gradient);}.cls-3{mask:url(#mask-2);}.cls-235,.cls-4{fill:url(#linear-gradient-2);}.cls-5{fill:none;}.cls-6{isolation:isolate;}.cls-47,.cls-7{fill:#fff;}.cls-8{clip-path:url(#clip-path);}.cls-9{fill:#005bbb;}.cls-10{fill:#ffd500;}.cls-11,.cls-46{opacity:0.6;}.cls-12,.cls-13,.cls-233{opacity:0.8;}.cls-12{fill:url(#linear-gradient-3);}.cls-13{fill:url(#linear-gradient-4);}.cls-14,.cls-236{mix-blend-mode:screen;}.cls-14{opacity:0.4;}.cls-15,.cls-78{fill:#1a171b;}.cls-131,.cls-15,.cls-237,.cls-47{opacity:0;}.cls-16,.cls-77{fill:#211e22;}.cls-16,.cls-48{opacity:0.03;}.cls-17,.cls-76{fill:#29262a;}.cls-17,.cls-49{opacity:0.06;}.cls-18,.cls-75{fill:#302d31;}.cls-18,.cls-50{opacity:0.1;}.cls-19,.cls-74{fill:#383538;}.cls-19,.cls-51{opacity:0.13;}.cls-20,.cls-73{fill:#3f3c40;}.cls-20,.cls-52{opacity:0.16;}.cls-21,.cls-72{fill:#464447;}.cls-21,.cls-53{opacity:0.19;}.cls-22,.cls-71{fill:#4e4b4e;}.cls-22,.cls-54{opacity:0.23;}.cls-23,.cls-70{fill:#555356;}.cls-23,.cls-55{opacity:0.26;}.cls-24,.cls-69{fill:#5c5a5d;}.cls-24,.cls-56{opacity:0.29;}.cls-25,.cls-68{fill:#646265;}.cls-25,.cls-57{opacity:0.32;}.cls-26,.cls-67{fill:#6b696c;}.cls-26,.cls-58{opacity:0.35;}.cls-27,.cls-66{fill:#737173;}.cls-27,.cls-59{opacity:0.39;}.cls-28,.cls-65{fill:#7a787b;}.cls-28,.cls-60{opacity:0.42;}.cls-107,.cls-29,.cls-64{fill:#818082;}.cls-29,.cls-61{opacity:0.45;}.cls-30,.cls-63{fill:#898789;}.cls-30,.cls-62{opacity:0.48;}.cls-31,.cls-62{fill:#908f91;}.cls-31,.cls-63{opacity:0.52;}.cls-102,.cls-32,.cls-61{fill:#989698;}.cls-32,.cls-64{opacity:0.55;}.cls-33,.cls-60{fill:#9f9e9f;}.cls-33,.cls-65{opacity:0.58;}.cls-34,.cls-59{fill:#a6a5a7;}.cls-34,.cls-66{opacity:0.61;}.cls-35,.cls-58{fill:#aeadae;}.cls-35,.cls-67{opacity:0.65;}.cls-36,.cls-57{fill:#b5b4b5;}.cls-36,.cls-68{opacity:0.68;}.cls-37,.cls-56{fill:#bdbcbd;}.cls-37,.cls-69{opacity:0.71;}.cls-38,.cls-55{fill:#c4c3c4;}.cls-38,.cls-70{opacity:0.74;}.cls-39,.cls-54{fill:#cbcbcc;}.cls-39,.cls-71{opacity:0.77;}.cls-40,.cls-53{fill:#d3d2d3;}.cls-40,.cls-72{opacity:0.81;}.cls-41,.cls-52{fill:#dadada;}.cls-41,.cls-73{opacity:0.84;}.cls-42,.cls-51{fill:#e1e1e2;}.cls-42,.cls-74{opacity:0.87;}.cls-43,.cls-50{fill:#e9e9e9;}.cls-43,.cls-75{opacity:0.9;}.cls-137,.cls-285,.cls-44,.cls-49{fill:#f0f0f0;}.cls-44,.cls-76{opacity:0.94;}.cls-45,.cls-48{fill:#f8f8f8;}.cls-45,.cls-77{opacity:0.97;}.cls-79{opacity:0.5;}.cls-80{fill:#fbfafb;}.cls-132,.cls-238,.cls-80{opacity:0.02;}.cls-81{fill:#f6f6f6;}.cls-134,.cls-239,.cls-81{opacity:0.04;}.cls-82{fill:#f2f1f2;}.cls-136,.cls-240,.cls-82{opacity:0.06;}.cls-83{fill:#ededed;}.cls-138,.cls-241,.cls-83{opacity:0.08;}.cls-84{fill:#e9e8e9;}.cls-140,.cls-242,.cls-84{opacity:0.1;}.cls-85{fill:#e4e4e4;}.cls-142,.cls-243,.cls-85{opacity:0.12;}.cls-86{fill:#e0dfe0;}.cls-144,.cls-244,.cls-86{opacity:0.14;}.cls-87{fill:#dbdbdb;}.cls-146,.cls-245,.cls-87{opacity:0.16;}.cls-88{fill:#d7d6d7;}.cls-148,.cls-246,.cls-88{opacity:0.18;}.cls-149,.cls-279,.cls-89{fill:#d2d2d2;}.cls-150,.cls-247,.cls-89{opacity:0.2;}.cls-90{fill:#cecdce;}.cls-152,.cls-248,.cls-90{opacity:0.22;}.cls-91{fill:#c9c8c9;}.cls-154,.cls-249,.cls-91{opacity:0.24;}.cls-92{fill:#c5c4c5;}.cls-156,.cls-250,.cls-92{opacity:0.25;}.cls-93{fill:#c0bfc0;}.cls-158,.cls-251,.cls-93{opacity:0.27;}.cls-94{fill:#bcbbbc;}.cls-160,.cls-252,.cls-94{opacity:0.29;}.cls-95{fill:#b7b6b7;}.cls-253,.cls-95{opacity:0.31;}.cls-96{fill:#b3b2b3;}.cls-164,.cls-254,.cls-96{opacity:0.33;}.cls-97{fill:#aeadaf;}.cls-166,.cls-255,.cls-97{opacity:0.35;}.cls-98{fill:#aaa9aa;}.cls-168,.cls-256,.cls-98{opacity:0.37;}.cls-99{fill:#a5a4a6;}.cls-170,.cls-257,.cls-99{opacity:0.39;}.cls-100{fill:#a19fa1;}.cls-100,.cls-172,.cls-258{opacity:0.41;}.cls-101{fill:#9c9b9d;}.cls-101,.cls-174,.cls-259{opacity:0.43;}.cls-102,.cls-176,.cls-260{opacity:0.45;}.cls-103{fill:#939294;}.cls-103,.cls-178,.cls-261{opacity:0.47;}.cls-104{fill:#8f8d8f;}.cls-104,.cls-180,.cls-262{opacity:0.49;}.cls-105{fill:#8a898b;}.cls-105,.cls-182,.cls-263{opacity:0.51;}.cls-106{fill:#868486;}.cls-106,.cls-184,.cls-264{opacity:0.53;}.cls-107,.cls-186,.cls-265{opacity:0.55;}.cls-108{fill:#7d7b7d;}.cls-108,.cls-188,.cls-266{opacity:0.57;}.cls-109{fill:#787779;}.cls-109,.cls-190,.cls-267{opacity:0.59;}.cls-110{fill:#747274;}.cls-110,.cls-192,.cls-268{opacity:0.61;}.cls-111{fill:#6f6d70;}.cls-111,.cls-194,.cls-269{opacity:0.63;}.cls-112{fill:#6b696b;}.cls-112,.cls-196,.cls-270{opacity:0.65;}.cls-113{fill:#666467;}.cls-113,.cls-198,.cls-271{opacity:0.67;}.cls-114{fill:#626063;}.cls-114,.cls-200,.cls-272{opacity:0.69;}.cls-115{fill:#5d5b5e;}.cls-115,.cls-202,.cls-273{opacity:0.71;}.cls-116{fill:#59575a;}.cls-116,.cls-204,.cls-274{opacity:0.73;}.cls-117{fill:#545255;}.cls-117,.cls-206,.cls-275{opacity:0.75;}.cls-118{fill:#504e51;}.cls-118,.cls-208,.cls-276{opacity:0.76;}.cls-119{fill:#4b494c;}.cls-119,.cls-210,.cls-277{opacity:0.78;}.cls-120{fill:#474448;}.cls-120,.cls-212,.cls-278{opacity:0.8;}.cls-121{fill:#424043;}.cls-121,.cls-214,.cls-279{opacity:0.82;}.cls-122{fill:#3e3b3f;}.cls-122,.cls-216,.cls-280{opacity:0.84;}.cls-123{fill:#39373a;}.cls-123,.cls-218,.cls-281{opacity:0.86;}.cls-124{fill:#353236;}.cls-124,.cls-220,.cls-282{opacity:0.88;}.cls-125{fill:#302e31;}.cls-125,.cls-222,.cls-283{opacity:0.9;}.cls-126{fill:#2c292d;}.cls-126,.cls-224,.cls-284{opacity:0.92;}.cls-127{fill:#272528;}.cls-127,.cls-226,.cls-285{opacity:0.94;}.cls-128{fill:#232024;}.cls-128,.cls-228,.cls-286{opacity:0.96;}.cls-129{fill:#1e1c1f;}.cls-129,.cls-230,.cls-287{opacity:0.98;}.cls-130{opacity:0.7;}.cls-133,.cls-287{fill:#fafafa;}.cls-135,.cls-286{fill:#f5f5f5;}.cls-139,.cls-284{fill:#ebebeb;}.cls-141,.cls-283{fill:#e6e6e6;}.cls-143,.cls-282{fill:#e1e1e1;}.cls-145,.cls-281{fill:#dcdcdc;}.cls-147,.cls-280{fill:#d7d7d7;}.cls-151,.cls-278{fill:#cdcdcd;}.cls-153,.cls-277{fill:#c8c8c8;}.cls-155,.cls-276{fill:#c3c3c3;}.cls-157,.cls-275{fill:#bebebe;}.cls-159,.cls-274{fill:#b9b9b9;}.cls-161,.cls-273{fill:#b4b4b4;}.cls-162{opacity:0.31;}.cls-163,.cls-272{fill:#afafaf;}.cls-165,.cls-271{fill:#aaa;}.cls-167,.cls-270{fill:#a5a5a5;}.cls-169,.cls-269{fill:#a0a0a0;}.cls-171,.cls-268{fill:#9b9b9b;}.cls-173,.cls-267{fill:#969696;}.cls-175,.cls-266{fill:#919191;}.cls-177,.cls-265{fill:#8c8c8c;}.cls-179,.cls-264{fill:#878787;}.cls-181,.cls-263{fill:#828282;}.cls-183,.cls-262{fill:#7d7d7d;}.cls-185,.cls-261{fill:#787878;}.cls-187,.cls-260{fill:#737373;}.cls-189,.cls-259{fill:#6e6e6e;}.cls-191,.cls-258{fill:#696969;}.cls-193,.cls-257{fill:#646464;}.cls-195,.cls-256{fill:#5f5f5f;}.cls-197,.cls-255{fill:#5a5a5a;}.cls-199,.cls-254{fill:#555;}.cls-201,.cls-253{fill:#505050;}.cls-203,.cls-252{fill:#4b4b4b;}.cls-205,.cls-251{fill:#464646;}.cls-207,.cls-250{fill:#414141;}.cls-209,.cls-249{fill:#3c3c3c;}.cls-211,.cls-248{fill:#373737;}.cls-213,.cls-247{fill:#323232;}.cls-215,.cls-246{fill:#2d2d2d;}.cls-217,.cls-245{fill:#282828;}.cls-219,.cls-244{fill:#232323;}.cls-221,.cls-243{fill:#1e1e1e;}.cls-223,.cls-242{fill:#191919;}.cls-225,.cls-241{fill:#141414;}.cls-227,.cls-240{fill:#0f0f0f;}.cls-229,.cls-239{fill:#0a0a0a;}.cls-231,.cls-238{fill:#050505;}.cls-232{mask:url(#mask-3);}.cls-233{fill:url(#linear-gradient-5);}.cls-234{mask:url(#mask-4);}.cls-236{opacity:0.2;}.cls-288{filter:url(#luminosity-noclip-4);}.cls-289{filter:url(#luminosity-noclip-3);}.cls-290{filter:url(#luminosity-noclip-2);}.cls-291{filter:url(#luminosity-noclip);}</style><filter id="luminosity-noclip" x="1550.53" y="-8995" width="683.75" height="32766" filterUnits="userSpaceOnUse" color-interpolation-filters="sRGB"><feFlood flood-color="#fff" result="bg"/><feBlend in="SourceGraphic" in2="bg"/></filter><mask id="mask" x="1550.53" y="-8995" width="683.75" height="32766" maskUnits="userSpaceOnUse"><g class="cls-291"/></mask><linearGradient id="linear-gradient" x1="-14423.14" y1="644.3" x2="-13765.5" y2="748.79" gradientTransform="matrix(-1, 0, 0, 1, -12152.22, 0)" gradientUnits="userSpaceOnUse"><stop offset="0" stop-color="#fff"/><stop offset="0.1" stop-color="#cfcfcf"/><stop offset="0.23" stop-color="#999"/><stop offset="0.37" stop-color="#6a6a6a"/><stop offset="0.5" stop-color="#444"/><stop offset="0.63" stop-color="#262626"/><stop offset="0.76" stop-color="#111"/><stop offset="0.88" stop-color="#040404"/><stop offset="1"/></linearGradient><filter id="luminosity-noclip-2" x="440.59" y="-8995" width="796.45" height="32766" filterUnits="userSpaceOnUse" color-interpolation-filters="sRGB"><feFlood flood-color="#fff" result="bg"/><feBlend in="SourceGraphic" in2="bg"/></filter><mask id="mask-2" x="440.59" y="-8995" width="796.45" height="32766" maskUnits="userSpaceOnUse"><g class="cls-290"/></mask><linearGradient id="linear-gradient-2" x1="-13220.94" y1="929.39" x2="-12717.43" y2="732.56" gradientTransform="matrix(-1, 0, 0, 1, -12152.22, 0)" gradientUnits="userSpaceOnUse"><stop offset="0" stop-color="#fff"/><stop offset="0.04" stop-color="#d5d5d5"/><stop offset="0.1" stop-color="#a9a9a9"/><stop offset="0.16" stop-color="#818181"/><stop offset="0.22" stop-color="#5e5e5e"/><stop offset="0.3" stop-color="#404040"/><stop offset="0.37" stop-color="#292929"/><stop offset="0.46" stop-color="#161616"/><stop offset="0.57" stop-color="#0a0a0a"/><stop offset="0.7" stop-color="#020202"/><stop offset="1"/></linearGradient><clipPath id="clip-path" transform="translate(-0.01 0.09)"><path class="cls-5" d="M2234.81,411.39h-1636L470.31,533.87c74.81,217.83,20.75,472.31-15.78,715.31,49.75-37.63,166.69-117.35,286-146.2,0,196.47,1494.33,127,1494.33,127Z"/></clipPath><linearGradient id="linear-gradient-3" x1="-12993.26" y1="1119.22" x2="-13104.3" y2="1089.89" gradientTransform="matrix(-1, 0, 0, 1, -12152.22, 0)" gradientUnits="userSpaceOnUse"><stop offset="0" stop-color="#fff"/><stop offset="0.04" stop-color="#d7d7d7"/><stop offset="0.1" stop-color="#aaa"/><stop offset="0.16" stop-color="#818181"/><stop offset="0.23" stop-color="#5e5e5e"/><stop offset="0.3" stop-color="#414141"/><stop offset="0.38" stop-color="#292929"/><stop offset="0.46" stop-color="#171717"/><stop offset="0.57" stop-color="#0a0a0a"/><stop offset="0.71" stop-color="#020202"/><stop offset="1"/></linearGradient><linearGradient id="linear-gradient-4" x1="-13590.16" y1="1034.49" x2="-13639.9" y2="993.17" gradientTransform="matrix(-1, 0, 0, 1, -12152.22, 0)" gradientUnits="userSpaceOnUse"><stop offset="0.04" stop-color="#fff"/><stop offset="0.05" stop-color="#f6f6f6"/><stop offset="0.09" stop-color="#c8c8c8"/><stop offset="0.13" stop-color="#9d9d9d"/><stop offset="0.18" stop-color="#777"/><stop offset="0.23" stop-color="#575757"/><stop offset="0.29" stop-color="#3b3b3b"/><stop offset="0.35" stop-color="#252525"/><stop offset="0.42" stop-color="#141414"/><stop offset="0.51" stop-color="#090909"/><stop offset="0.64" stop-color="#020202"/><stop offset="1"/></linearGradient><filter id="luminosity-noclip-3" x="1550.53" y="413.65" width="683.75" height="591.31" filterUnits="userSpaceOnUse" color-interpolation-filters="sRGB"><feFlood flood-color="#fff" result="bg"/><feBlend in="SourceGraphic" in2="bg"/></filter><mask id="mask-3" x="1550.52" y="413.74" width="683.75" height="591.31" maskUnits="userSpaceOnUse"><g class="cls-289"><g transform="translate(-0.01 0.09)"><g class="cls-1"><path class="cls-2" d="M1550.53,513.15c26.65-6.42,57.46-7.65,96.29-.93,522.34,90.25,582-76.69,587.46-98.57C2228.75,438.33,2174,660.86,1981.2,779,1845,862.33,1836.7,948.77,1836.7,948.77s-117.4-9.57-286.17,56.19Z"/></g></g></g></mask><linearGradient id="linear-gradient-5" x1="-14423.14" y1="644.3" x2="-13765.5" y2="748.79" gradientTransform="matrix(-1, 0, 0, 1, -12152.22, 0)" gradientUnits="userSpaceOnUse"><stop offset="0"/><stop offset="0.1" stop-color="#303030"/><stop offset="0.23" stop-color="#666"/><stop offset="0.37" stop-color="#959595"/><stop offset="0.5" stop-color="#bbb"/><stop offset="0.63" stop-color="#d9d9d9"/><stop offset="0.76" stop-color="#eee"/><stop offset="0.88" stop-color="#fbfbfb"/><stop offset="1" stop-color="#fff"/></linearGradient><filter id="luminosity-noclip-4" x="440.59" y="451.04" width="796.45" height="780.65" filterUnits="userSpaceOnUse" color-interpolation-filters="sRGB"><feFlood flood-color="#fff" result="bg"/><feBlend in="SourceGraphic" in2="bg"/></filter><mask id="mask-4" x="440.58" y="451.12" width="796.45" height="780.65" maskUnits="userSpaceOnUse"><g class="cls-288"><g transform="translate(-0.01 0.09)"><g class="cls-3"><path class="cls-4" d="M505.59,1231.68c15.44-118.63,32.86-398.35-43-492.6s57.36-155.72,194.64-209,692.47-147.55,559.31,0S976.22,809.68,970.73,961.91c-3.22,90.16,39.6,138.42,39.6,138.42s-10.45-20.56-171.51-11.24C645.43,1100.33,571.2,1186,505.59,1231.68Z"/></g></g></g></mask></defs><g class="cls-6"><g id="_Layer_" data-name="&lt;Layer&gt;"><rect class="cls-7" width="2496.44" height="1605"/><g class="cls-8"><path class="cls-9" d="M2234.81,411.29s-35.7,175.78-172.39,305.24l-.55.52c-138.63,63.33-300,24.93-445.45,40.29-97.31,10.29-170.37,48.11-170.37,48.11s3.63-9.78,10.77-25.75,28.8-28.2-47.18-20-133.42,53.77-236.58,91.83c-99.22,36.71-184.87,12-184.87,12a526.21,526.21,0,0,1,21.67-54.43c37.93-81.84-236-46-415.07,38-84,39.45-89.22,60.89-94.23,116.8-9,100.27-281.72,100.27-462.17,100.27V790.32h244c213.07,0,191.8-34.43,191.8-34.43h0c-35.33-51.08-99-126,183.13-225.77,197.48-69.86,689.08-135.87,559.31,0l-50.69,57.09s45.09,13.86,115.24,16.68,100.67,12.55,159.78-31.75c50.18-37.63,107.43-78.64,205.91-59.92C1789.09,539.23,2176.69,583.92,2234.81,411.29Z" transform="translate(-0.01 0.09)"/><path class="cls-10" d="M2062.42,716.53A491.87,491.87,0,0,1,1981.2,779C1845,862.33,1836.7,948.77,1836.7,948.77s-121-10-294.09,59.15c-116.38,46.56-139.52,15.82-61.69,4.9s47.58-25.65-24.4-13c-90,15.91-290.32,136.19-460.24,140.52-239.86,6.1-149.2-33.43-49.29-29,105.67,4.65,83.15-31.2-80.34-24C463,1104.88,629.94,1338.06,38.39,1338.06V1064.17c180.45,0,453.18,0,462.17-100.27,5-55.91,10.18-77.35,94.23-116.8,179-84,453-119.84,415.07-38a526.21,526.21,0,0,0-21.67,54.43s85.65,24.7,184.87-12c103.16-38.06,160.57-83.63,236.58-91.83s54.3,4,47.18,20-10.77,25.75-10.77,25.75,73.06-37.82,170.37-48.11c145.46-15.36,306.82,23,445.45-40.29Z" transform="translate(-0.01 0.09)"/><path class="cls-10" d="M844.81,1130.86c-8.88-9.63,45.19-21.68,102.27-19.12,105.65,4.77,83.14-31.77-80.35-24.51-12,.56-23.56,1.25-34.59,2.17l-.23,0c6.27,28,13,41.44,13,41.44Z" transform="translate(-0.01 0.09)"/><path class="cls-10" d="M1418.47,1010.53a284.8,284.8,0,0,1,38-10.23c72-12.67,102.28,2,24.4,13-34,4.77-48.75,13.38-44.82,17.61l-.37-.9a212.26,212.26,0,0,1-17.47-19.38Z" transform="translate(-0.01 0.09)"/><g class="cls-11"><path class="cls-12" d="M844.81,1130.86c-8.88-9.63,45.19-21.68,102.27-19.12,105.65,4.77,83.14-31.77-80.35-24.51-12,.56-23.56,1.25-34.59,2.17l-.23,0c6.27,28,13,41.44,13,41.44Z" transform="translate(-0.01 0.09)"/><path class="cls-13" d="M1418.47,1010.53a284.8,284.8,0,0,1,38-10.23c72-12.67,102.28,2,24.4,13-34,4.77-48.75,13.38-44.82,17.61l-.37-.9a212.26,212.26,0,0,1-17.47-19.38Z" transform="translate(-0.01 0.09)"/><g class="cls-14"><path class="cls-15" d="M1412,1012.3s-87.61-83.79-36.15-177c115.61-209.35,33.33-2.7,73.25,81.47,23.46,49.36,71.16,77.73,76.12,80.79C1478.83,987.63,1412,1012.3,1412,1012.3Z" transform="translate(-0.01 0.09)"/><path class="cls-16" d="M1414.32,1011.78s-86.75-82.14-36.78-174.13c110.83-204,31.92-5.54,71.4,79,23.09,49.16,71.33,77.82,76.28,80.88C1480,987.81,1414.32,1011.78,1414.32,1011.78Z" transform="translate(-0.01 0.09)"/><path class="cls-17" d="M1416.64,1011.25s-85.88-80.46-37.41-171.23c106.1-198.68,30.52-8.36,69.56,76.55,22.71,48.95,71.47,77.9,76.43,81C1481.07,988,1416.64,1011.25,1416.64,1011.25Z" transform="translate(-0.01 0.09)"/><path class="cls-18" d="M1419,1010.73s-85-78.79-38-168.33c101.41-193.3,28.92-11.11,67.72,74.08,22.23,48.81,71.63,78,76.59,81C1482.19,988.18,1419,1010.73,1419,1010.73Z" transform="translate(-0.01 0.09)"/><path class="cls-19" d="M1421.28,1010.21s-84.15-77.11-38.68-165.43c96.73-187.9,27.47-13.92,65.88,71.62,21.82,48.61,71.78,78.07,76.74,81.13C1483.31,988.36,1421.28,1010.21,1421.28,1010.21Z" transform="translate(-0.01 0.09)"/><path class="cls-20" d="M1423.6,1009.69s-83.28-75.41-39.32-162.53c92.1-182.47,26-16.74,64,69.15,21.43,48.42,72,78.16,76.9,81.22C1484.44,988.55,1423.6,1009.69,1423.6,1009.69Z" transform="translate(-0.01 0.09)"/><path class="cls-21" d="M1425.92,1009.16s-82.42-73.7-40-159.62c87.49-177,24.58-19.56,62.2,66.69,21,48.22,72.09,78.24,77,81.3C1485.56,988.73,1425.92,1009.16,1425.92,1009.16Z" transform="translate(-0.01 0.09)"/><path class="cls-22" d="M1428.24,1008.64s-81.55-72-40.58-156.72c82.92-171.52,23.14-22.38,60.35,64.23,20.63,48,72.25,78.32,77.21,81.38C1486.68,988.92,1428.24,1008.64,1428.24,1008.64Z" transform="translate(-0.01 0.09)"/><path class="cls-23" d="M1430.56,1008.12s-80.69-70.25-41.22-153.82c78.39-166,21.7-25.2,58.52,61.76,20.24,47.82,72.4,78.41,77.36,81.47C1487.8,989.1,1430.56,1008.12,1430.56,1008.12Z" transform="translate(-0.01 0.09)"/><path class="cls-24" d="M1432.88,1007.59S1353.06,939.1,1391,856.68c73.9-160.43,20.27-28,56.67,59.3,19.85,47.62,72.57,78.49,77.52,81.55C1488.92,989.28,1432.88,1007.59,1432.88,1007.59Z" transform="translate(-0.01 0.09)"/><path class="cls-25" d="M1435.2,1007.07s-79-66.73-42.49-148c69.47-154.84,18.84-30.85,54.84,56.83,19.46,47.42,72.71,78.58,77.67,81.64C1490,989.47,1435.2,1007.07,1435.2,1007.07Z" transform="translate(-0.01 0.09)"/><path class="cls-26" d="M1437.52,1006.55s-78.08-65-43.12-145.11c65.07-149.21,17.41-33.68,53,54.37,19.08,47.22,72.87,78.66,77.83,81.72C1491.17,989.65,1437.52,1006.55,1437.52,1006.55Z" transform="translate(-0.01 0.09)"/><path class="cls-27" d="M1439.84,1006s-77.2-63.15-43.75-142.2c60.72-143.53,16-36.51,51.15,51.9,18.69,47,73,78.75,78,81.81C1492.29,989.84,1439.84,1006,1439.84,1006Z" transform="translate(-0.01 0.09)"/><path class="cls-28" d="M1442.16,1005.5s-76.31-61.34-44.39-139.3c56.45-137.82,14.57-39.35,49.31,49.44,18.32,46.81,73.19,78.83,78.14,81.89C1493.41,990,1442.16,1005.5,1442.16,1005.5Z" transform="translate(-0.01 0.09)"/><path class="cls-29" d="M1444.48,1005s-75.42-59.52-45-136.4c52.22-132.07,13.16-42.18,47.47,47,17.93,46.6,73.33,78.91,78.29,82C1494.53,990.2,1444.48,1005,1444.48,1005Z" transform="translate(-0.01 0.09)"/><path class="cls-30" d="M1446.8,1004.45s-74.53-57.66-45.66-133.49c48.07-126.27,11.75-45,45.63,44.51,17.56,46.4,73.49,79,78.45,82.06C1495.65,990.39,1446.8,1004.45,1446.8,1004.45Z" transform="translate(-0.01 0.09)"/><path class="cls-31" d="M1449.12,1003.93s-73.61-55.79-46.29-130.59c44-120.43,10.34-47.85,43.79,42,17.18,46.19,73.64,79.08,78.6,82.14C1496.78,990.57,1449.12,1003.93,1449.12,1003.93Z" transform="translate(-0.01 0.09)"/><path class="cls-32" d="M1451.44,1003.41s-72.68-53.89-46.92-127.69c40-114.54,8.94-50.69,41.94,39.58,16.81,46,73.8,79.17,78.76,82.23C1497.9,990.76,1451.44,1003.41,1451.44,1003.41Z" transform="translate(-0.01 0.09)"/><path class="cls-33" d="M1453.76,1002.89s-71.74-52-47.56-124.8c36.06-108.59,7.55-53.52,40.11,37.13,16.44,45.77,74,79.25,78.91,82.31C1499,990.94,1453.76,1002.89,1453.76,1002.89Z" transform="translate(-0.01 0.09)"/><path class="cls-34" d="M1456.08,1002.36s-70.76-50-48.19-121.89c32.23-102.61,6.15-56.36,38.26,34.66,16.08,45.57,74.11,79.34,79.07,82.4C1500.14,991.12,1456.08,1002.36,1456.08,1002.36Z" transform="translate(-0.01 0.09)"/><path class="cls-35" d="M1458.4,1001.84s-69.75-48.06-48.82-119c28.49-96.58,4.76-59.21,36.42,32.2,15.7,45.36,74.26,79.42,79.22,82.48C1501.26,991.31,1458.4,1001.84,1458.4,1001.84Z" transform="translate(-0.01 0.09)"/><path class="cls-36" d="M1460.72,1001.32s-68.7-46.06-49.46-116.09c24.87-90.5,3.38-62.05,34.58,29.73,15.35,45.15,74.42,79.51,79.38,82.57C1502.39,991.49,1460.72,1001.32,1460.72,1001.32Z" transform="translate(-0.01 0.09)"/><path class="cls-37" d="M1463,1000.79s-67.6-44-50.09-113.18c21.36-84.37,2-64.9,32.74,27.27,15,44.94,74.57,79.59,79.53,82.65C1503.51,991.68,1463,1000.79,1463,1000.79Z" transform="translate(-0.01 0.09)"/><path class="cls-38" d="M1465.36,1000.27s-66.42-42-50.73-110.28c18-78.21.63-67.75,30.9,24.81,14.63,44.72,74.73,79.67,79.69,82.73C1504.63,991.86,1465.36,1000.27,1465.36,1000.27Z" transform="translate(-0.01 0.09)"/><path class="cls-39" d="M1467.68,999.75s-65.16-39.89-51.36-107.38c14.72-72-.74-70.59,29.06,22.34,14.27,44.51,74.88,79.76,79.84,82.82C1505.75,992,1467.68,999.75,1467.68,999.75Z" transform="translate(-0.01 0.09)"/><path class="cls-40" d="M1470,999.22s-63.76-37.76-52-104.47c11.6-65.76-2.11-73.44,27.21,19.88,13.92,44.3,75,79.84,80,82.9C1506.87,992.23,1470,999.22,1470,999.22Z" transform="translate(-0.01 0.09)"/><path class="cls-41" d="M1472.32,998.7s-62.2-35.63-52.63-101.57c8.64-59.5-3.46-76.3,25.38,17.41,13.56,44.09,75.19,79.93,80.15,83C1508,992.41,1472.32,998.7,1472.32,998.7Z" transform="translate(-0.01 0.09)"/><path class="cls-42" d="M1474.64,998.18s-60.41-33.47-53.26-98.67c5.83-53.24-4.81-79.15,23.53,15,13.21,43.87,75.35,80,80.31,83.07C1509.12,992.6,1474.64,998.18,1474.64,998.18Z" transform="translate(-0.01 0.09)"/><path class="cls-43" d="M1477,997.66s-58.29-31.33-53.9-95.77c3.21-47-6.15-82,21.7,12.48,12.86,43.66,75.5,80.1,80.46,83.16C1510.24,992.78,1477,997.66,1477,997.66Z" transform="translate(-0.01 0.09)"/><path class="cls-44" d="M1479.28,997.13s-55.69-29.21-54.53-92.86c.74-40.81-7.36-84.9,19.85,10,12.59,43.43,75.66,80.18,80.62,83.24C1511.36,993,1479.28,997.13,1479.28,997.13Z" transform="translate(-0.01 0.09)"/><path class="cls-45" d="M1481.6,996.61s-52.38-27.23-55.16-90c-1.55-34.77-8.76-87.73,18,7.56,12.21,43.22,75.81,80.26,80.77,83.32C1512.48,993.15,1481.6,996.61,1481.6,996.61Z" transform="translate(-0.01 0.09)"/><path class="cls-7" d="M1483.92,996.09s-48-25.57-55.8-87.06c-3.66-29-10.16-90.57,16.17,5.09,11.83,43,76,80.35,80.93,83.41C1513.6,993.33,1483.92,996.09,1483.92,996.09Z" transform="translate(-0.01 0.09)"/></g><g class="cls-46"><path class="cls-47" d="M1166.42,586.6c-109.1,125.47-191.28,242.73-195.69,375.31-3.22,97.28,39.6,138.42,39.6,138.42,9.26,10.21-32,14.17-63.34,11-62.09-6.27-220.94,31.63,49.29,29,133.12-1.29,346.45-101.23,346.45-101.23s-95.42-67.1-20.3-220.76,264.19-310.45,264.19-310.45-62.07-4.75-158.31,73.12c-44.25,35.82-98.76,25.38-199.13,18.49C1196,597.28,1166.42,586.6,1166.42,586.6Z" transform="translate(-0.01 0.09)"/><path class="cls-48" d="M1166.42,586.6c-109.1,125.47-191.28,242.73-195.69,375.31-3.22,97.28,39.6,138.42,39.6,138.42,9.26,10.21-32,14.18-63.34,11-62.24-6.31-220.89,31.69,49.29,29,129.73-1.26,337.32-98.13,337.32-98.13s-94.37-66.8-19.25-220.46c74.76-152.9,261.07-306,264.78-309.91.62-.66-58.5-5.59-150.82,69.18-44.25,35.82-98.76,25.38-199.13,18.49C1196,597.28,1166.42,586.6,1166.42,586.6Z" transform="translate(-0.01 0.09)"/><path class="cls-49" d="M1166.42,586.6c-109.1,125.47-191.28,242.73-195.69,375.31-3.22,97.28,39.6,138.42,39.6,138.42,9.26,10.21-32,14.2-63.34,11-62.38-6.35-220.84,31.74,49.29,29,126.34-1.24,328.19-95,328.19-95s-93.32-66.5-18.2-220.16c74.4-152.18,258-301.54,265.37-309.38,1.24-1.31-54.93-6.43-143.33,65.25-44.25,35.82-98.76,25.38-199.13,18.49C1196,597.28,1166.42,586.6,1166.42,586.6Z" transform="translate(-0.01 0.09)"/><path class="cls-50" d="M1166.42,586.6c-109.1,125.47-191.28,242.73-195.69,375.31-3.22,97.28,39.6,138.42,39.6,138.42,9.26,10.21-32,14.21-63.34,11-62.53-6.39-220.79,31.79,49.29,29,123-1.21,319-91.93,319-91.93s-92.26-66.2-17.14-219.86c74-151.45,254.84-297.08,266-308.84,1.87-2-51.37-7.27-135.84,61.31-44.25,35.82-98.76,25.38-199.13,18.49C1196,597.28,1166.42,586.6,1166.42,586.6Z" transform="translate(-0.01 0.09)"/><path class="cls-51" d="M1166.42,586.6c-109.1,125.47-191.28,242.73-195.69,375.31-3.22,97.28,39.6,138.42,39.6,138.42,9.26,10.21-32,14.22-63.34,11-62.68-6.43-220.74,31.85,49.29,29,119.56-1.18,309.92-88.83,309.92-88.83S1215,985.63,1290.12,832c73.68-150.72,251.72-292.63,266.54-308.3,2.49-2.63-47.8-8.12-128.35,57.37-44.25,35.82-98.76,25.38-199.13,18.49C1196,597.28,1166.42,586.6,1166.42,586.6Z" transform="translate(-0.01 0.09)"/><path class="cls-52" d="M1166.42,586.6c-109.1,125.47-191.28,242.73-195.69,375.31-3.22,97.28,39.6,138.42,39.6,138.42,9.26,10.21-32,14.23-63.34,11-62.83-6.47-220.69,31.9,49.29,29,116.18-1.15,300.78-85.73,300.78-85.73s-90.15-65.61-15-219.26c73.33-150,248.6-288.17,267.13-307.77,3.11-3.28-44.23-9-120.86,53.44-44.25,35.82-98.76,25.38-199.13,18.49C1196,597.28,1166.42,586.6,1166.42,586.6Z" transform="translate(-0.01 0.09)"/><path class="cls-53" d="M1166.42,586.6c-109.1,125.47-191.28,242.73-195.69,375.31-3.22,97.28,39.6,138.42,39.6,138.42,9.26,10.21-32,14.25-63.34,11-63-6.52-220.64,32,49.29,29,112.79-1.13,291.65-82.63,291.65-82.63s-89.09-65.31-14-219c73-149.26,245.49-283.72,267.72-307.23,3.73-3.94-40.66-9.8-113.37,49.5-44.25,35.82-98.76,25.38-199.13,18.49C1196,597.28,1166.42,586.6,1166.42,586.6Z" transform="translate(-0.01 0.09)"/><path class="cls-54" d="M1166.42,586.6c-109.1,125.47-191.28,242.73-195.69,375.31-3.22,97.28,39.6,138.42,39.6,138.42,9.26,10.21-32,14.26-63.34,11-63.13-6.56-220.59,32,49.29,29,109.4-1.1,282.51-79.53,282.51-79.53s-88-65-12.91-218.66c72.62-148.54,242.37-279.26,268.31-306.7,4.36-4.59-37.1-10.63-105.88,45.57-44.25,35.82-98.76,25.38-199.13,18.49C1196,597.28,1166.42,586.6,1166.42,586.6Z" transform="translate(-0.01 0.09)"/><path class="cls-55" d="M1166.42,586.6c-109.1,125.47-191.28,242.73-195.69,375.31-3.22,97.28,39.6,138.42,39.6,138.42,9.26,10.21-32,14.27-63.34,11-63.28-6.6-220.54,32.06,49.29,29,106-1.07,273.38-76.42,273.38-76.42s-87-64.72-11.86-218.37c72.26-147.81,239.26-274.81,268.9-306.16,5-5.25-33.53-11.47-98.39,41.63-44.25,35.82-98.76,25.38-199.13,18.49C1196,597.28,1166.42,586.6,1166.42,586.6Z" transform="translate(-0.01 0.09)"/><path class="cls-56" d="M1166.42,586.6c-109.1,125.47-191.28,242.73-195.69,375.31-3.22,97.28,39.6,138.42,39.6,138.42,9.26,10.21-32,14.28-63.34,11-63.43-6.64-220.49,32.12,49.29,29,102.63-1,264.24-73.32,264.24-73.32s-85.92-64.42-10.8-218.07c71.91-147.08,236.15-270.35,269.49-305.62,5.6-5.91-30-12.32-90.9,37.69-44.25,35.82-98.76,25.38-199.13,18.49C1196,597.28,1166.42,586.6,1166.42,586.6Z" transform="translate(-0.01 0.09)"/><path class="cls-57" d="M1166.42,586.6c-109.1,125.47-191.28,242.73-195.69,375.31-3.22,97.28,39.6,138.42,39.6,138.42,9.26,10.21-32,14.29-63.34,11-63.58-6.68-220.44,32.17,49.29,29,99.24-1,255.11-70.22,255.11-70.22s-84.87-64.12-9.74-217.77c71.54-146.35,233-265.9,270.08-305.09,6.21-6.56-26.4-13.15-83.42,33.76-44.25,35.82-98.76,25.38-199.13,18.49C1196,597.28,1166.42,586.6,1166.42,586.6Z" transform="translate(-0.01 0.09)"/><path class="cls-58" d="M1166.42,586.6c-109.1,125.47-191.28,242.73-195.69,375.31-3.22,97.28,39.6,138.42,39.6,138.42,9.26,10.21-32,14.31-63.34,11-63.73-6.72-220.39,32.22,49.29,29,95.85-1,246-67.12,246-67.12s-83.81-63.82-8.68-217.47c71.18-145.62,229.91-261.45,270.67-304.55,6.84-7.22-22.84-14-75.93,29.82-44.25,35.82-98.76,25.38-199.13,18.49C1196,597.28,1166.42,586.6,1166.42,586.6Z" transform="translate(-0.01 0.09)"/><path class="cls-59" d="M1166.42,586.6c-109.1,125.47-191.28,242.73-195.69,375.31-3.22,97.28,39.6,138.42,39.6,138.42,9.26,10.21-32,14.32-63.34,11-63.88-6.77-220.34,32.28,49.29,29,92.46-1,236.84-64,236.84-64s-82.76-63.52-7.63-217.17c70.83-144.9,226.79-257,271.26-304,7.46-7.88-19.27-14.84-68.44,25.88-44.25,35.82-98.76,25.38-199.13,18.49C1196,597.28,1166.42,586.6,1166.42,586.6Z" transform="translate(-0.01 0.09)"/><path class="cls-60" d="M1166.42,586.6c-109.1,125.47-191.28,242.73-195.69,375.31-3.22,97.28,39.6,138.42,39.6,138.42,9.26,10.21-32,14.33-63.34,11-64-6.81-220.29,32.33,49.29,29,89.08-.94,227.71-60.92,227.71-60.92s-81.71-63.22-6.58-216.87C1287.89,718.41,1441.09,610,1489.26,559.1c8.08-8.53-15.7-15.68-61,21.95-44.25,35.82-98.76,25.38-199.13,18.49C1196,597.28,1166.42,586.6,1166.42,586.6Z" transform="translate(-0.01 0.09)"/><path class="cls-61" d="M1166.42,586.6c-109.1,125.47-191.28,242.73-195.69,375.31-3.22,97.28,39.6,138.42,39.6,138.42,9.26,10.21-32,14.34-63.34,11-64.17-6.85-220.24,32.38,49.29,29,85.69-.91,218.57-57.82,218.57-57.82s-80.65-62.92-5.52-216.57C1279.45,722.54,1429.89,617.9,1481.77,563c8.71-9.19-12.13-16.52-53.46,18-44.25,35.82-98.76,25.38-199.13,18.49C1196,597.28,1166.42,586.6,1166.42,586.6Z" transform="translate(-0.01 0.09)"/><path class="cls-62" d="M1166.42,586.6c-109.1,125.47-191.28,242.73-195.69,375.31-3.22,97.28,39.6,138.42,39.6,138.42,9.26,10.21-32,14.36-63.34,11-64.32-6.89-220.19,32.44,49.29,29,82.3-.89,209.44-54.72,209.44-54.72s-79.6-62.62-4.47-216.27C1271,726.67,1418.7,625.75,1474.28,567c9.33-9.84-8.57-17.36-46,14.08-44.25,35.82-98.76,25.38-199.13,18.49C1196,597.28,1166.42,586.6,1166.42,586.6Z" transform="translate(-0.01 0.09)"/><path class="cls-63" d="M1166.42,586.6c-109.1,125.47-191.28,242.73-195.69,375.31-3.22,97.28,39.6,138.42,39.6,138.42,9.26,10.21-32,14.37-63.34,11-64.47-6.93-220.14,32.49,49.29,29,78.91-.86,200.3-51.62,200.3-51.62s-78.54-62.32-3.41-216c69.41-142,214.33-239.16,273.62-301.86,10-10.5-5-18.2-38.48,10.14-44.25,35.82-98.76,25.38-199.13,18.49C1196,597.28,1166.42,586.6,1166.42,586.6Z" transform="translate(-0.01 0.09)"/><path class="cls-64" d="M1166.42,586.6c-109.1,125.47-191.28,242.73-195.69,375.31-3.22,97.28,39.6,138.42,39.6,138.42,9.26,10.21-32,14.38-63.34,11-64.62-7-220.09,32.54,49.29,29,75.52-.83,191.17-48.52,191.17-48.52s-77.48-62-2.35-215.68c69.05-141.25,211.21-234.71,274.2-301.32,10.57-11.16-1.43-19.05-31,6.2-44.25,35.82-98.76,25.38-199.13,18.49C1196,597.28,1166.42,586.6,1166.42,586.6Z" transform="translate(-0.01 0.09)"/><path class="cls-65" d="M1166.42,586.6c-109.1,125.47-191.28,242.73-195.69,375.31-3.22,97.28,39.6,138.42,39.6,138.42,9.26,10.21-32,14.39-63.34,11-64.77-7-220,32.6,49.29,29,72.14-.81,182-45.41,182-45.41s-76.42-61.73-1.29-215.39c68.69-140.52,208.09-230.25,274.79-300.79,11.2-11.81,2.14-19.88-23.5,2.27-44.25,35.82-98.76,25.38-199.13,18.49C1196,597.28,1166.42,586.6,1166.42,586.6Z" transform="translate(-0.01 0.09)"/><path class="cls-66" d="M1166.42,586.6c-109.1,125.47-191.28,242.73-195.69,375.31-3.22,97.28,39.6,138.42,39.6,138.42,9.26,10.21-32,14.4-63.34,11-64.92-7.06-220,32.65,49.29,29,68.75-.78,172.9-42.31,172.9-42.31s-75.37-61.43-.24-215.09c68.34-139.79,205-225.8,275.38-300.25,11.82-12.47,5.71-20.73-16-1.67-44.25,35.82-98.76,25.38-199.13,18.49C1196,597.28,1166.42,586.6,1166.42,586.6Z" transform="translate(-0.01 0.09)"/><path class="cls-67" d="M1166.42,586.6c-109.1,125.47-191.28,242.73-195.69,375.31-3.22,97.28,39.6,138.42,39.6,138.42,9.26,10.21-32,14.42-63.34,11-65.07-7.1-219.94,32.71,49.29,29,65.36-.75,163.76-39.21,163.76-39.21s-74.31-61.13.82-214.79c68-139.06,201.86-221.34,276-299.72,12.44-13.12,9.27-21.56-8.52-5.6-44.25,35.82-98.76,25.38-199.13,18.49C1196,597.28,1166.42,586.6,1166.42,586.6Z" transform="translate(-0.01 0.09)"/><path class="cls-68" d="M1166.42,586.6c-109.1,125.47-191.28,242.73-195.69,375.31-3.22,97.28,39.6,138.42,39.6,138.42,9.26,10.21-32,14.43-63.34,11-65.22-7.14-219.89,32.76,49.29,29,62-.73,154.63-36.11,154.63-36.11s-73.26-60.84,1.87-214.49c67.63-138.33,198.75-216.89,276.56-299.18,13.06-13.78,12.84-22.4-1-9.54-44.25,35.82-98.76,25.38-199.13,18.49C1196,597.28,1166.42,586.6,1166.42,586.6Z" transform="translate(-0.01 0.09)"/><path class="cls-69" d="M1166.42,586.6c-109.1,125.47-191.28,242.73-195.69,375.31-3.22,97.28,39.6,138.42,39.6,138.42,9.26,10.21-32,14.44-63.34,11-65.37-7.18-219.84,32.81,49.29,29,58.59-.7,145.49-33,145.49-33s-72.2-60.54,2.93-214.19c67.27-137.61,195.63-212.43,277.16-298.64,13.68-14.44,16.4-23.25,6.45-13.48-44.25,35.82-98.76,25.38-199.13,18.49C1196,597.28,1166.42,586.6,1166.42,586.6Z" transform="translate(-0.01 0.09)"/><path class="cls-70" d="M1166.42,586.6c-109.1,125.47-191.28,242.73-195.69,375.31-3.22,97.28,39.6,138.42,39.6,138.42,9.26,10.21-32,14.45-63.34,11-65.52-7.22-219.79,32.87,49.29,29,55.2-.67,136.36-29.91,136.36-29.91s-71.15-60.24,4-213.89c66.91-136.88,192.51-208,277.74-298.11,14.3-15.09,20-24.08,13.94-17.41-44.25,35.82-98.76,25.38-199.13,18.49C1196,597.28,1166.42,586.6,1166.42,586.6Z" transform="translate(-0.01 0.09)"/><path class="cls-71" d="M1166.42,586.6c-109.1,125.47-191.28,242.73-195.69,375.31-3.22,97.28,39.6,138.42,39.6,138.42,9.26,10.21-32,14.47-63.34,11-65.66-7.27-219.74,32.92,49.29,29,51.81-.65,127.22-26.81,127.22-26.81s-70.09-59.94,5-213.59C1195.1,763.82,1318,696.45,1406.88,602.4c14.92-15.75,23.53-24.93,21.43-21.35-44.25,35.82-98.76,25.38-199.13,18.49C1196,597.28,1166.42,586.6,1166.42,586.6Z" transform="translate(-0.01 0.09)"/><path class="cls-72" d="M1166.42,586.6c-109.1,125.47-191.28,242.73-195.69,375.31-3.22,97.28,39.6,138.42,39.6,138.42,9.26,10.21-32,14.48-63.34,11-65.81-7.31-219.69,33,49.29,29,48.42-.62,118.09-23.71,118.09-23.71s-69-59.64,6.1-213.29c66.2-135.42,186.28-199.07,278.92-297,15.55-16.41,27.1-25.77,28.92-25.29-44.25,35.82-98.76,25.38-199.13,18.49C1196,597.28,1166.42,586.6,1166.42,586.6Z" transform="translate(-0.01 0.09)"/><path class="cls-73" d="M1166.42,586.6c-109.1,125.47-191.28,242.73-195.69,375.31-3.22,97.28,39.6,138.42,39.6,138.42,9.26,10.21-32,14.49-63.34,11-66-7.35-219.64,33,49.29,29,45-.59,109-20.61,109-20.61s-68-59.34,7.15-213c65.84-134.69,183.17-194.61,279.51-296.5,16.17-17.06,30.67-26.61,36.41-29.22-44.25,35.82-98.76,25.38-199.13,18.49C1196,597.28,1166.42,586.6,1166.42,586.6Z" transform="translate(-0.01 0.09)"/><path class="cls-74" d="M1166.42,586.6c-109.1,125.47-191.28,242.73-195.69,375.31-3.22,97.28,39.6,138.42,39.6,138.42,9.26,10.21-32,14.5-63.34,11-66.11-7.39-219.59,33.08,49.29,29,41.65-.57,99.82-17.51,99.82-17.51s-66.93-59,8.21-212.69c65.49-134,180-190.16,280.1-296,16.79-17.72,34.24-27.45,43.9-33.16-44.25,35.82-98.76,25.38-199.13,18.49C1196,597.28,1166.42,586.6,1166.42,586.6Z" transform="translate(-0.01 0.09)"/><path class="cls-75" d="M1166.42,586.6c-109.1,125.47-191.28,242.73-195.69,375.31-3.22,97.28,39.6,138.42,39.6,138.42,9.26,10.21-32,14.52-63.34,11-66.26-7.43-219.54,33.13,49.29,29,38.26-.54,90.69-14.41,90.69-14.41s-65.87-58.74,9.26-212.39c65.13-133.24,176.94-185.7,280.69-295.43,17.41-18.37,37.8-28.29,51.39-37.09-44.25,35.82-98.76,25.38-199.13,18.49C1196,597.28,1166.42,586.6,1166.42,586.6Z" transform="translate(-0.01 0.09)"/><path class="cls-76" d="M1166.42,586.6c-109.1,125.47-191.28,242.73-195.69,375.31-3.22,97.28,39.6,138.42,39.6,138.42,9.26,10.21-32,14.53-63.34,11-66.41-7.47-219.49,33.19,49.29,29,34.87-.51,81.55-11.31,81.55-11.31S1013,1070.62,1088.15,917c64.78-132.51,173.82-181.25,281.28-294.89,18-19,41.37-29.13,58.88-41-44.25,35.82-98.76,25.38-199.13,18.49C1196,597.28,1166.42,586.6,1166.42,586.6Z" transform="translate(-0.01 0.09)"/><path class="cls-77" d="M1166.42,586.6c-109.1,125.47-191.28,242.73-195.69,375.31-3.22,97.28,39.6,138.42,39.6,138.42,9.26,10.21-32,14.54-63.34,11-66.56-7.52-219.44,33.24,49.29,29,31.48-.49,72.42-8.2,72.42-8.2s-63.76-58.15,11.38-211.8c64.41-131.78,170.7-176.79,281.86-294.35,18.66-19.69,44.94-30,66.37-45-44.25,35.82-98.76,25.38-199.13,18.49C1196,597.28,1166.42,586.6,1166.42,586.6Z" transform="translate(-0.01 0.09)"/><path class="cls-78" d="M1166.42,586.6c-109.1,125.47-191.28,242.73-195.69,375.31-3.22,97.28,39.6,138.42,39.6,138.42,9.26,10.21-32,14.55-63.34,11-66.71-7.56-219.39,33.29,49.29,29,28.1-.46,63.28-5.1,63.28-5.1s-62.7-57.85,12.44-211.5c64.06-131,167.58-172.34,282.45-293.82,19.28-20.34,48.51-30.81,73.86-48.9-44.25,35.82-98.76,25.38-199.13,18.49C1196,597.28,1166.42,586.6,1166.42,586.6Z" transform="translate(-0.01 0.09)"/></g><g class="cls-79"><path class="cls-47" d="M1551.06,619c313.5-267,285.64,329.79,285.64,329.79s-121-10-294.09,59.15c-116.38,46.56-139.52,15.82-61.69,4.9,37.39-5.22,49.83-11.34,44.74-14.89l.34.35S1292.17,851.15,1551.06,619Z" transform="translate(-0.01 0.09)"/><path class="cls-80" d="M1549.34,622.28c308.91-265.07,279.69,325.6,282.92,327.24-.27.09-119.38-9.6-289.46,58.4-116.37,46.55-139.51,15.82-61.68,4.9,37.38-5.22,49.83-11.34,44.73-14.89l.35.34S1294.28,852.55,1549.34,622.28Z" transform="translate(-0.01 0.09)"/><path class="cls-81" d="M1547.31,625.56c304.31-263.14,273.74,321.41,280.2,324.69-.53.18-117.73-9.15-284.82,57.65-116.37,46.56-139.51,15.83-61.68,4.9,37.38-5.22,49.83-11.34,44.73-14.89l.35.35S1296.08,854,1547.31,625.56Z" transform="translate(-0.01 0.09)"/><path class="cls-82" d="M1545.31,628.88C1845,367.66,1813.1,946.1,1822.79,951c-.8.27-116.08-8.71-280.18,56.9-116.38,46.55-139.52,15.82-61.69,4.9,37.39-5.22,49.83-11.34,44.74-14.89l.34.35S1297.91,855.38,1545.31,628.88Z" transform="translate(-0.01 0.09)"/><path class="cls-83" d="M1543.27,632.13c295.12-259.29,261.83,313,274.76,319.59-1.07.36-114.44-8.26-275.55,56.16-116.38,46.55-139.52,15.82-61.69,4.89,37.39-5.22,49.83-11.34,44.74-14.89l.34.35S1299.7,856.74,1543.27,632.13Z" transform="translate(-0.01 0.09)"/><path class="cls-84" d="M1541.25,635.42c290.52-257.38,255.88,308.84,272,317-1.34.45-112.8-7.82-270.92,55.4-116.38,46.55-139.51,15.82-61.68,4.9,37.38-5.22,49.83-11.34,44.73-14.89l.35.35S1301.51,858.14,1541.25,635.42Z" transform="translate(-0.01 0.09)"/><path class="cls-85" d="M1539.23,638.7c285.93-255.45,249.93,304.66,269.32,314.5-1.61.54-111.15-7.37-266.28,54.65-116.38,46.55-139.51,15.82-61.68,4.9,37.38-5.22,49.82-11.34,44.73-14.89l.35.34S1303.32,859.53,1539.23,638.7Z" transform="translate(-0.01 0.09)"/><path class="cls-86" d="M1537.21,642c281.33-253.53,244,300.47,266.6,312-1.87.62-109.51-6.93-261.64,53.9-116.38,46.55-139.51,15.82-61.68,4.89,37.38-5.22,49.82-11.33,44.73-14.88l.35.34S1305.14,860.93,1537.21,642Z" transform="translate(-0.01 0.09)"/><path class="cls-87" d="M1535.2,645.28c276.73-251.61,238,296.27,263.88,309.39-2.15.72-107.87-6.48-257,53.15-116.38,46.55-139.51,15.83-61.68,4.9,37.38-5.22,49.82-11.34,44.73-14.89l.35.35S1307,862.33,1535.2,645.28Z" transform="translate(-0.01 0.09)"/><path class="cls-88" d="M1533.19,648.56c272.13-249.68,232.07,292.09,261.15,306.85-2.41.81-106.21-6-252.36,52.4-116.39,46.55-139.52,15.82-61.69,4.9,37.38-5.22,49.83-11.34,44.74-14.89l.34.35S1308.77,863.73,1533.19,648.56Z" transform="translate(-0.01 0.09)"/><path class="cls-89" d="M1531.18,651.85c267.54-247.75,226.12,287.9,258.44,304.3-2.68.9-104.58-5.59-247.74,51.65-116.38,46.55-139.51,15.82-61.68,4.9,37.38-5.22,49.82-11.34,44.73-14.89l.35.35S1310.59,865.13,1531.18,651.85Z" transform="translate(-0.01 0.09)"/><path class="cls-90" d="M1529.17,655.14c262.95-245.83,220.17,283.71,255.72,301.75-3,1-102.93-5.14-243.1,50.9-116.39,46.55-139.52,15.82-61.69,4.9,37.39-5.22,49.83-11.34,44.74-14.89l.34.35S1312.41,866.53,1529.17,655.14Z" transform="translate(-0.01 0.09)"/><path class="cls-91" d="M1527.16,658.43c258.35-243.91,214.22,279.52,253,299.2-3.21,1.07-101.28-4.7-238.46,50.15-116.39,46.55-139.51,15.82-61.69,4.9,37.39-5.22,49.83-11.34,44.74-14.89l.34.34S1314.24,867.92,1527.16,658.43Z" transform="translate(-0.01 0.09)"/><path class="cls-92" d="M1525.16,661.71c253.76-242,208.27,275.34,250.28,296.66-3.48,1.16-99.64-4.25-233.83,49.4-116.38,46.54-139.51,15.82-61.68,4.9,37.38-5.22,49.82-11.34,44.73-14.89l.35.34S1316.06,869.32,1525.16,661.71Z" transform="translate(-0.01 0.09)"/><path class="cls-93" d="M1523.16,665c249.16-240.06,202.32,271.15,247.56,294.1-3.75,1.26-98-3.8-229.19,48.66-116.39,46.54-139.52,15.82-61.69,4.9,37.38-5.22,49.83-11.34,44.74-14.89l.34.34S1317.89,870.72,1523.16,665Z" transform="translate(-0.01 0.09)"/><path class="cls-94" d="M1521.17,668.29c244.55-238.13,196.36,267,244.83,291.55-4,1.35-96.35-3.35-224.55,47.91-116.39,46.54-139.52,15.82-61.69,4.9,37.38-5.22,49.83-11.34,44.74-14.89l.34.34S1319.73,872.13,1521.17,668.29Z" transform="translate(-0.01 0.09)"/><path class="cls-95" d="M1519.17,671.58c240-236.21,190.41,262.77,242.12,289-4.29,1.43-94.71-2.91-219.92,47.15-116.39,46.54-139.52,15.82-61.69,4.9,37.38-5.22,49.83-11.34,44.74-14.89l.34.35S1321.56,873.53,1519.17,671.58Z" transform="translate(-0.01 0.09)"/><path class="cls-96" d="M1517.18,674.87c235.37-234.28,184.46,258.58,239.4,286.46-4.56,1.53-93.07-2.46-215.29,46.4-116.39,46.55-139.51,15.82-61.68,4.9,37.38-5.22,49.82-11.34,44.73-14.89l.35.35S1323.4,874.93,1517.18,674.87Z" transform="translate(-0.01 0.09)"/><path class="cls-97" d="M1515.19,678.16C1746,445.8,1693.7,932.55,1751.87,962.07c-4.83,1.62-91.42-2-210.65,45.65-116.39,46.55-139.52,15.83-61.69,4.9,37.38-5.22,49.83-11.34,44.74-14.89l.34.35S1325.24,876.33,1515.19,678.16Z" transform="translate(-0.01 0.09)"/><path class="cls-98" d="M1513.21,681.46c226.17-230.45,172.55,250.2,234,281.35-5.09,1.71-89.77-1.57-206,44.91-116.4,46.54-139.52,15.82-61.69,4.89,37.38-5.22,49.83-11.34,44.74-14.88l.34.34S1327.09,877.73,1513.21,681.46Z" transform="translate(-0.01 0.09)"/><path class="cls-99" d="M1511.22,684.75c221.58-228.52,166.61,246,231.24,278.8-5.36,1.8-88.13-1.12-201.38,44.16-116.39,46.54-139.51,15.82-61.68,4.9,37.38-5.22,49.82-11.34,44.73-14.89l.35.34S1328.94,879.14,1511.22,684.75Z" transform="translate(-0.01 0.09)"/><path class="cls-100" d="M1509.25,688c217-226.59,160.65,241.82,228.51,276.26-5.63,1.88-86.48-.68-196.74,43.4-116.4,46.54-139.52,15.82-61.69,4.9,37.38-5.22,49.83-11.34,44.74-14.89l.34.35S1330.79,880.54,1509.25,688Z" transform="translate(-0.01 0.09)"/><path class="cls-101" d="M1507.29,691.33C1719.67,466.66,1662,929,1733.08,965c-5.89,2-84.84-.23-192.11,42.66-116.39,46.54-139.51,15.82-61.68,4.89,37.38-5.22,49.83-11.34,44.73-14.88l.35.34S1332.66,881.94,1507.29,691.33Z" transform="translate(-0.01 0.09)"/><path class="cls-102" d="M1505.43,694.63c207.79-222.75,148.75,233.44,223.07,271.15-6.16,2.07-83.19.22-187.47,41.91-116.4,46.54-139.51,15.82-61.68,4.9,37.38-5.22,49.82-11.34,44.73-14.89l.34.35S1334.63,883.35,1505.43,694.63Z" transform="translate(-0.01 0.09)"/><path class="cls-103" d="M1503.57,697.92c203.19-220.82,142.8,229.26,220.35,268.61-6.43,2.16-81.55.66-182.83,41.16-116.4,46.54-139.52,15.82-61.69,4.89,37.38-5.22,49.83-11.34,44.74-14.88l.34.34S1336.6,884.75,1503.57,697.92Z" transform="translate(-0.01 0.09)"/><path class="cls-104" d="M1501.71,701.21c198.6-218.89,136.84,225.07,217.63,266.07-6.7,2.24-79.9,1.1-178.2,40.4-116.39,46.54-139.51,15.82-61.68,4.9,37.38-5.22,49.83-11.34,44.73-14.89l.35.35S1338.57,886.16,1501.71,701.21Z" transform="translate(-0.01 0.09)"/><path class="cls-105" d="M1499.85,704.51c194-217,130.89,220.88,214.91,263.51-7,2.34-78.26,1.56-173.56,39.66-116.4,46.54-139.52,15.82-61.69,4.9,37.39-5.22,49.83-11.34,44.74-14.89l.34.34S1340.54,887.57,1499.85,704.51Z" transform="translate(-0.01 0.09)"/><path class="cls-106" d="M1498,707.81c189.4-215.06,124.94,216.69,212.19,261-7.23,2.43-76.61,2-168.93,38.91-116.39,46.53-139.51,15.82-61.68,4.89,37.38-5.22,49.83-11.34,44.73-14.88l.35.34S1342.51,889,1498,707.81Z" transform="translate(-0.01 0.09)"/><path class="cls-107" d="M1496.13,711.1c184.81-213.12,119,212.5,209.47,258.42-7.5,2.51-75,2.44-164.29,38.15-116.4,46.54-139.51,15.83-61.68,4.9,37.38-5.22,49.82-11.34,44.73-14.89l.35.35S1344.48,890.38,1496.13,711.1Z" transform="translate(-0.01 0.09)"/><path class="cls-108" d="M1494.27,714.4c180.21-211.2,113,208.31,206.75,255.86-7.77,2.61-73.32,2.9-159.65,37.41-116.4,46.54-139.52,15.82-61.69,4.9,37.38-5.22,49.83-11.34,44.74-14.89l.34.35S1346.46,891.79,1494.27,714.4Z" transform="translate(-0.01 0.09)"/><path class="cls-109" d="M1492.42,717.7C1668,508.42,1599.5,921.82,1696.45,971c-8,2.7-71.69,3.34-155,36.66-116.4,46.54-139.51,15.82-61.68,4.9,37.38-5.22,49.83-11.34,44.73-14.89l.35.35S1348.43,893.2,1492.42,717.7Z" transform="translate(-0.01 0.09)"/><path class="cls-110" d="M1490.56,721c171-207.36,101.13,199.93,201.31,250.76-8.31,2.79-70,3.79-150.39,35.91-116.4,46.54-139.52,15.82-61.69,4.9,37.39-5.22,49.83-11.34,44.74-14.89l.34.35S1350.4,894.61,1490.56,721Z" transform="translate(-0.01 0.09)"/><path class="cls-111" d="M1488.7,724.3c166.42-205.44,95.18,195.74,198.59,248.21-8.58,2.88-68.4,4.23-145.75,35.16-116.41,46.54-139.52,15.82-61.69,4.9,37.38-5.22,49.83-11.34,44.73-14.89l.35.35S1352.37,896,1488.7,724.3Z" transform="translate(-0.01 0.09)"/><path class="cls-112" d="M1486.84,727.6c161.82-203.51,89.23,191.55,195.87,245.66-8.85,3-66.75,4.68-141.12,34.41-116.4,46.54-139.51,15.83-61.68,4.9,37.38-5.22,49.82-11.34,44.73-14.89l.35.35S1354.34,897.43,1486.84,727.6Z" transform="translate(-0.01 0.09)"/><path class="cls-113" d="M1485,730.9c157.23-201.59,83.28,187.37,193.15,243.12-9.11,3.05-65.11,5.12-136.48,33.66-116.41,46.53-139.52,15.82-61.69,4.89,37.39-5.22,49.83-11.34,44.74-14.88l.34.34S1356.31,898.84,1485,730.9Z" transform="translate(-0.01 0.09)"/><path class="cls-114" d="M1483.12,734.2c152.63-199.66,77.32,183.18,190.43,240.57-9.38,3.15-63.46,5.57-131.85,32.91-116.4,46.53-139.51,15.82-61.68,4.9,37.38-5.22,49.83-11.34,44.73-14.89l.35.34S1358.28,900.26,1483.12,734.2Z" transform="translate(-0.01 0.09)"/><path class="cls-115" d="M1481.26,737.5c148-197.73,71.37,179,187.71,238-9.65,3.24-61.82,6-127.21,32.16-116.41,46.53-139.51,15.83-61.68,4.9,37.38-5.22,49.82-11.34,44.73-14.89l.34.35S1360.25,901.67,1481.26,737.5Z" transform="translate(-0.01 0.09)"/><path class="cls-116" d="M1479.4,740.81c143.44-195.82,65.42,174.8,185,235.47-9.92,3.33-60.17,6.46-122.57,31.41-116.41,46.53-139.52,15.82-61.69,4.9,37.38-5.22,49.83-11.34,44.74-14.89l.34.34S1362.22,903.09,1479.4,740.81Z" transform="translate(-0.01 0.09)"/><path class="cls-117" d="M1477.54,744.11C1616.38,550.22,1537,914.73,1659.81,977c-10.18,3.42-58.53,6.91-117.94,30.67-116.41,46.52-139.51,15.82-61.68,4.89,37.38-5.22,49.83-11.34,44.73-14.89l.35.35S1364.19,904.5,1477.54,744.11Z" transform="translate(-0.01 0.09)"/><path class="cls-118" d="M1475.69,747.42c134.24-192,53.51,166.42,179.54,230.37-10.45,3.51-56.88,7.36-113.3,29.91-116.41,46.53-139.52,15.82-61.69,4.9,37.39-5.22,49.83-11.34,44.74-14.89l.34.35S1366.16,905.92,1475.69,747.42Z" transform="translate(-0.01 0.09)"/><path class="cls-119" d="M1473.83,750.73c129.64-190.05,47.56,162.23,176.82,227.82-10.72,3.6-55.24,7.8-108.66,29.16-116.42,46.53-139.52,15.82-61.69,4.9,37.38-5.22,49.83-11.34,44.73-14.89l.35.35S1368.13,907.34,1473.83,750.73Z" transform="translate(-0.01 0.09)"/><path class="cls-120" d="M1472,754c125-188.11,41.61,158.05,174.1,225.28-11,3.69-53.59,8.25-104,28.41-116.41,46.53-139.51,15.82-61.68,4.9,37.38-5.22,49.82-11.34,44.73-14.89l.35.35S1370.1,908.76,1472,754Z" transform="translate(-0.01 0.09)"/><path class="cls-121" d="M1470.11,757.34c120.45-186.19,35.66,153.86,171.38,222.73-11.25,3.78-52,8.69-99.39,27.66-116.42,46.53-139.52,15.82-61.69,4.9,37.38-5.22,49.83-11.34,44.74-14.89l.34.35S1372.08,910.18,1470.11,757.34Z" transform="translate(-0.01 0.09)"/><path class="cls-122" d="M1468.25,760.65c115.86-184.27,29.71,149.67,168.66,220.18-11.52,3.87-50.3,9.14-94.76,26.91-116.41,46.53-139.51,15.82-61.68,4.9,37.38-5.22,49.83-11.34,44.73-14.89l.35.35S1374.05,911.6,1468.25,760.65Z" transform="translate(-0.01 0.09)"/><path class="cls-123" d="M1466.39,764c111.26-182.35,23.76,145.47,165.94,217.62-11.79,4-48.66,9.59-90.12,26.17-116.42,46.52-139.51,15.82-61.69,4.89,37.39-5.22,49.83-11.34,44.74-14.89l.34.35S1376,913,1466.39,764Z" transform="translate(-0.01 0.09)"/><path class="cls-124" d="M1464.53,767.28c106.67-180.42,17.81,141.29,163.22,215.08-12,4-47,10-85.48,25.41-116.42,46.52-139.52,15.82-61.69,4.9,37.38-5.22,49.83-11.34,44.74-14.89l.34.34S1378,914.45,1464.53,767.28Z" transform="translate(-0.01 0.09)"/><path class="cls-125" d="M1462.67,770.59c102.07-178.5,11.85,137.1,160.5,212.53-12.32,4.14-45.37,10.48-80.85,24.67-116.41,46.52-139.51,15.82-61.68,4.89,37.38-5.22,49.82-11.34,44.73-14.89l.35.35S1380,915.88,1462.67,770.59Z" transform="translate(-0.01 0.09)"/><path class="cls-126" d="M1460.81,773.91c97.47-176.58,5.9,132.91,157.79,210-12.6,4.23-43.73,10.92-76.22,23.91-116.42,46.53-139.52,15.82-61.69,4.9,37.39-5.22,49.83-11.34,44.74-14.89l.34.35S1381.93,917.3,1460.81,773.91Z" transform="translate(-0.01 0.09)"/><path class="cls-127" d="M1459,777.23c92.88-174.65,0,128.72,155.07,207.43-12.87,4.31-42.09,11.37-71.59,23.16-116.41,46.52-139.51,15.82-61.68,4.9,37.38-5.22,49.83-11.34,44.73-14.89l.35.35S1383.9,918.73,1459,777.23Z" transform="translate(-0.01 0.09)"/><path class="cls-128" d="M1457.1,780.55c88.27-172.73-6,124.53,152.34,204.88-13.13,4.4-40.44,11.81-67,22.41-116.42,46.52-139.51,15.82-61.68,4.9,37.38-5.22,49.82-11.34,44.73-14.89l.35.35S1385.87,920.16,1457.1,780.55Z" transform="translate(-0.01 0.09)"/><path class="cls-129" d="M1455.24,783.87c83.68-170.81-12,120.34,149.62,202.33-13.4,4.5-38.8,12.26-62.31,21.66-116.42,46.52-139.52,15.83-61.69,4.9,37.38-5.22,49.83-11.34,44.74-14.89l.34.35S1387.84,921.59,1455.24,783.87Z" transform="translate(-0.01 0.09)"/><path class="cls-78" d="M1453.38,787.22c79.09-168.88-17.9,116.16,146.9,199.79-13.66,4.58-37.15,12.71-57.67,20.91-116.42,46.52-139.52,15.82-61.69,4.9,37.39-5.22,49.83-11.34,44.74-14.89l.34.35S1389.82,923.06,1453.38,787.22Z" transform="translate(-0.01 0.09)"/></g><g class="cls-130"><g class="cls-131"><path class="cls-7" d="M282.34,790.32c213.07,0,191.8-34.43,191.8-34.43-35.33-51.08-99-126,183.13-225.77,34.34-12.13,77.67-24.13,125-35L773,1054.48c-286.83,96.79-189,283.58-734.63,283.58V790.32Z" transform="translate(-0.01 0.09)"/></g><g class="cls-132"><path class="cls-133" d="M282.34,790.32c213.07,0,191.8-34.43,191.8-34.43-35.08-50.72-98.79-125.51,181-224.89,30.36-10.27,74.45-20.82,121.8-30.1.95,1.41-8.59,557.18-11,558.07-282.18,95.26-188,279.09-727.51,279.09V790.32Z" transform="translate(-0.01 0.09)"/></g><g class="cls-134"><path class="cls-135" d="M282.34,790.32c213.07,0,191.8-34.43,191.8-34.43C439.3,705.52,375.6,630.82,653,531.89c26.39-8.42,71.24-17.53,118.61-25.17,1.9,2.82-7.93,555-12.83,556.75-277.53,93.72-187.08,274.59-720.4,274.59V790.32Z" transform="translate(-0.01 0.09)"/></g><g class="cls-136"><path class="cls-137" d="M282.34,790.32c213.07,0,191.8-34.43,191.8-34.43-34.59-50-98.3-124.62,176.74-223.12,22.42-6.56,68-14.22,115.42-20.24,2.86,4.24-7.28,552.75-14.62,555.44-272.89,92.17-186.1,270.09-713.29,270.09V790.32Z" transform="translate(-0.01 0.09)"/></g><g class="cls-138"><path class="cls-139" d="M282.34,790.32c213.07,0,191.8-34.43,191.8-34.43-34.34-49.66-98.06-124.18,174.61-222.24,18.44-4.7,64.81-10.92,112.24-15.3,3.8,5.65-6.63,550.54-16.42,554.11-268.24,90.64-185.12,265.6-706.18,265.6V790.32Z" transform="translate(-0.01 0.09)"/></g><g class="cls-140"><path class="cls-141" d="M282.34,790.32c213.07,0,191.8-34.43,191.8-34.43-34.1-49.3-97.82-123.73,172.48-221.35,14.47-2.85,61.6-7.62,109-10.37,4.75,7.05-6,548.32-18.21,552.79-263.6,89.1-184.14,261.1-699.07,261.1V790.32Z" transform="translate(-0.01 0.09)"/></g><g class="cls-142"><path class="cls-143" d="M282.34,790.32c213.07,0,191.8-34.43,191.8-34.43C440.29,707,376.56,632.61,644.5,535.42c10.48-1,58.38-4.31,105.85-5.44,5.71,8.47-5.32,546.11-20,551.48-259,87.55-183.17,256.6-692,256.6V790.32Z" transform="translate(-0.01 0.09)"/></g><g class="cls-144"><path class="cls-145" d="M282.34,790.32c213.07,0,191.8-34.43,191.8-34.43C440.53,707.3,376.8,633.05,642.37,536.3c6.51.87,55.16-1,102.67-.5,6.65,9.88-4.67,543.89-21.81,550.15-254.29,86-182.18,252.11-684.84,252.11V790.32Z" transform="translate(-0.01 0.09)"/></g><g class="cls-146"><path class="cls-147" d="M282.34,790.32c213.07,0,191.8-34.43,191.8-34.43-33.36-48.23-97.09-122.39,166.1-218.7,2.53,2.72,52,2.29,99.48,4.43,7.61,11.29-4,541.68-23.6,548.83-249.65,84.48-181.2,247.61-677.73,247.61V790.32Z" transform="translate(-0.01 0.09)"/></g><g class="cls-148"><path class="cls-149" d="M282.34,790.32c213.07,0,191.8-34.43,191.8-34.43C441,708,377.29,634,638.11,538.07c-1.44,4.58,48.74,5.59,96.29,9.36C743,560.14,731,1086.9,709,1095c-245,82.93-180.22,243.11-670.62,243.11V790.32Z" transform="translate(-0.01 0.09)"/></g><g class="cls-150"><path class="cls-151" d="M282.34,790.32c213.07,0,191.8-34.43,191.8-34.43C441.27,708.37,377.53,634.39,636,539c-5.42,6.44,45.52,8.9,93.11,14.3,9.51,14.12-2.71,537.25-27.19,546.19-240.36,81.4-179.25,238.62-663.51,238.62V790.32Z" transform="translate(-0.01 0.09)"/></g><g class="cls-152"><path class="cls-153" d="M282.34,790.32c213.07,0,191.8-34.43,191.8-34.43-32.62-47.16-96.37-121,159.71-216-9.39,8.29,42.31,12.19,89.92,19.23,10.46,15.52-2.06,535-29,544.87-235.71,79.86-178.27,234.12-656.4,234.12V790.32Z" transform="translate(-0.01 0.09)"/></g><g class="cls-154"><path class="cls-155" d="M282.34,790.32c213.07,0,191.8-34.43,191.8-34.43C441.76,709.08,378,635.29,631.72,540.72c-13.36,10.15,39.1,15.5,86.73,24.16,11.42,16.94-1.4,532.82-30.77,543.56-231.07,78.31-177.29,229.62-649.29,229.62V790.32Z" transform="translate(-0.01 0.09)"/></g><g class="cls-156"><path class="cls-157" d="M282.34,790.32c213.07,0,191.8-34.43,191.8-34.43C442,709.44,378.26,635.73,629.59,541.6c-17.34,12,35.89,18.81,83.55,29.1,12.36,18.35-.75,530.61-32.58,542.23-226.41,76.78-176.3,225.13-642.17,225.13V790.32Z" transform="translate(-0.01 0.09)"/></g><g class="cls-158"><path class="cls-159" d="M282.34,790.32c213.07,0,191.8-34.43,191.8-34.43-31.89-46.09-95.64-119.71,153.32-213.4-21.31,13.86,32.67,22.1,80.36,34,13.32,19.76-.1,528.39-34.37,540.91-221.77,75.23-175.32,220.63-635.06,220.63V790.32Z" transform="translate(-0.01 0.09)"/></g><g class="cls-160"><path class="cls-161" d="M282.34,790.32c213.07,0,191.8-34.43,191.8-34.43-31.64-45.74-95.4-119.26,151.2-212.52-25.3,15.72,29.45,25.41,77.16,39,14.27,21.17.56,526.17-36.16,539.59C449.22,1195.62,492,1338.06,38.39,1338.06V790.32Z" transform="translate(-0.01 0.09)"/></g><g class="cls-162"><path class="cls-163" d="M282.34,790.32c213.07,0,191.8-34.43,191.8-34.43C442.74,710.51,379,637.07,623.21,544.25c-29.27,17.58,26.24,28.71,74,43.9,15.21,22.59,1.21,524-38,538.27-212.48,72.16-173.37,211.64-620.84,211.64V790.32Z" transform="translate(-0.01 0.09)"/></g><g class="cls-164"><path class="cls-165" d="M282.34,790.32c213.07,0,191.8-34.43,191.8-34.43-31.15-45-94.92-118.37,146.94-210.75-33.25,19.43,23,32,70.79,48.83,16.17,24,1.86,521.75-39.75,537-207.83,70.61-172.39,207.14-613.73,207.14V790.32Z" transform="translate(-0.01 0.09)"/></g><g class="cls-166"><path class="cls-167" d="M282.34,790.32c213.07,0,191.8-34.43,191.8-34.43C443.24,711.22,379.46,638,619,546c-37.22,21.29,19.81,35.32,67.6,53.77,17.12,25.4,2.52,519.53-41.54,535.63-203.18,69.07-171.42,202.64-606.62,202.64V790.32Z" transform="translate(-0.01 0.09)"/></g><g class="cls-168"><path class="cls-169" d="M282.34,790.32c213.07,0,191.8-34.43,191.8-34.43-30.66-44.31-94.43-117.48,142.68-209-41.2,23.15,16.6,38.62,64.42,58.7,18.07,26.82,3.17,517.32-43.35,534.31-198.53,67.54-170.43,198.15-599.5,198.15V790.32Z" transform="translate(-0.01 0.09)"/></g><g class="cls-170"><path class="cls-171" d="M282.34,790.32c213.07,0,191.8-34.43,191.8-34.43-30.41-43.95-94.19-117,140.55-208.1-45.17,25,13.38,41.92,61.23,63.63,19,28.23,3.82,515.1-45.14,533-193.88,66-169.45,193.65-592.39,193.65V790.32Z" transform="translate(-0.01 0.09)"/></g><g class="cls-172"><path class="cls-173" d="M282.34,790.32c213.07,0,191.8-34.43,191.8-34.43C444,712.29,380.19,639.31,612.56,548.67c-49.15,26.86,10.17,45.22,58.05,68.57,20,29.64,4.47,512.88-46.94,531.67-189.24,64.45-168.47,189.15-585.28,189.15V790.32Z" transform="translate(-0.01 0.09)"/></g><g class="cls-174"><path class="cls-175" d="M282.34,790.32c213.07,0,191.8-34.43,191.8-34.43-29.92-43.24-93.71-116.14,136.29-206.34-53.12,28.72,7,48.53,54.86,73.5,20.92,31.06,5.12,510.68-48.73,530.35C432,1216.32,449.06,1338.06,38.39,1338.06V790.32Z" transform="translate(-0.01 0.09)"/></g><g class="cls-176"><path class="cls-177" d="M282.34,790.32c213.07,0,191.8-34.43,191.8-34.43C444.46,713,380.67,640.2,608.3,550.44,551.21,581,612,602.27,660,628.87c21.88,32.46,5.78,508.46-50.52,529-180,61.37-166.52,180.16-571.06,180.16V790.32Z" transform="translate(-0.01 0.09)"/></g><g class="cls-178"><path class="cls-179" d="M282.34,790.32c213.07,0,191.8-34.43,191.8-34.43-29.43-42.53-93.22-115.25,132-204.57-61.07,32.43.53,55.13,48.49,83.37,22.82,33.87,6.43,506.24-52.32,527.71C427,1222.23,436.8,1338.06,38.39,1338.06V790.32Z" transform="translate(-0.01 0.09)"/></g><g class="cls-180"><path class="cls-181" d="M282.34,790.32c213.07,0,191.8-34.43,191.8-34.43-29.18-42.17-93-114.8,129.91-203.69-65,34.29-2.69,58.44,45.29,88.3,23.78,35.29,7.08,504-54.12,526.39-170.64,58.3-164.55,171.17-556.83,171.17V790.32Z" transform="translate(-0.01 0.09)"/></g><g class="cls-182"><path class="cls-183" d="M282.34,790.32c213.07,0,191.8-34.43,191.8-34.43-28.94-41.82-92.74-114.35,127.78-202.8-69,36.14-5.91,61.73,42.1,93.23,24.73,36.7,7.74,501.82-55.91,525.07-166,56.75-163.58,166.67-549.72,166.67V790.32Z" transform="translate(-0.01 0.09)"/></g><g class="cls-184"><path class="cls-185" d="M282.34,790.32c213.07,0,191.8-34.43,191.8-34.43C445.45,714.43,381.64,642,599.79,554c-73,38-9.12,65,38.92,98.17,25.67,38.11,8.39,499.6-57.71,523.74-161.35,55.22-162.6,162.18-542.61,162.18V790.32Z" transform="translate(-0.01 0.09)"/></g><g class="cls-186"><path class="cls-187" d="M282.34,790.32c213.07,0,191.8-34.43,191.8-34.43-28.45-41.1-92.26-113.46,123.52-201-77,39.86-12.33,68.35,35.73,103.1,26.63,39.53,9,497.39-59.5,522.43-156.71,53.68-161.62,157.68-535.5,157.68V790.32Z" transform="translate(-0.01 0.09)"/></g><g class="cls-188"><path class="cls-189" d="M282.34,790.32c213.07,0,191.8-34.43,191.8-34.43-28.2-40.75-92-113,121.39-200.15-80.95,41.71-15.54,71.64,32.54,108,27.58,40.93,9.7,495.17-61.29,521.11C414.72,1237,406.14,1338.06,38.39,1338.06V790.32Z" transform="translate(-0.01 0.09)"/></g><g class="cls-190"><path class="cls-191" d="M282.34,790.32c213.07,0,191.8-34.43,191.8-34.43-28-40.39-91.77-112.57,119.26-199.27-84.93,43.57-18.76,75,29.36,113,28.53,42.34,10.34,493-63.09,519.79C412.25,1240,400,1338.06,38.39,1338.06V790.32Z" transform="translate(-0.01 0.09)"/></g><g class="cls-192"><path class="cls-193" d="M282.34,790.32c213.07,0,191.8-34.43,191.8-34.43-27.71-40-91.53-112.12,117.13-198.39-88.9,45.43-22,78.25,26.17,117.9,29.48,43.76,11,490.75-64.89,518.47-142.76,49.06-158.68,144.19-514.16,144.19V790.32Z" transform="translate(-0.01 0.09)"/></g><g class="cls-194"><path class="cls-195" d="M282.34,790.32c213.07,0,191.8-34.43,191.8-34.43-27.46-39.68-91.29-111.67,115-197.5-92.88,47.28-25.18,81.55,23,122.83,30.44,45.17,11.66,488.53-66.68,517.15-138.12,47.51-157.7,139.69-507.05,139.69V790.32Z" transform="translate(-0.01 0.09)"/></g><g class="cls-196"><path class="cls-197" d="M282.34,790.32c213.07,0,191.8-34.43,191.8-34.43C446.92,716.57,383.09,644.66,587,559.27c-96.85,49.14-28.4,84.85,19.8,127.77,31.38,46.58,12.3,486.31-68.48,515.82-133.47,46-156.72,135.2-499.94,135.2V790.32Z" transform="translate(-0.01 0.09)"/></g><g class="cls-198"><path class="cls-199" d="M282.34,790.32c213.07,0,191.8-34.43,191.8-34.43-27-39-90.8-110.78,110.75-195.74-100.83,51-31.62,88.16,16.6,132.71,32.34,48,13,484.1-70.27,514.5-128.82,44.44-155.75,130.7-492.83,130.7V790.32Z" transform="translate(-0.01 0.09)"/></g><g class="cls-200"><path class="cls-201" d="M282.34,790.32c213.07,0,191.8-34.43,191.8-34.43C447.41,717.28,383.58,645.56,582.76,561,478,613.89,547.93,652.5,596.17,698.67c33.29,49.41,13.62,481.89-72.06,513.19-124.18,42.89-154.77,126.2-485.72,126.2V790.32Z" transform="translate(-0.01 0.09)"/></g><g class="cls-202"><path class="cls-203" d="M282.34,790.32c213.07,0,191.8-34.43,191.8-34.43-26.48-38.25-90.32-109.89,106.49-194-108.78,54.71-38,94.76,10.23,142.57,34.24,50.81,14.26,479.67-73.86,511.86-119.53,41.36-153.79,121.71-478.61,121.71V790.32Z" transform="translate(-0.01 0.09)"/></g><g class="cls-204"><path class="cls-205" d="M282.34,790.32c213.07,0,191.8-34.43,191.8-34.43C447.9,718,384.06,646.45,578.5,562.8c-112.76,56.57-41.26,98.07,7,147.51,35.19,52.22,14.92,477.45-75.66,510.54C395,1260.67,357.08,1338.06,38.39,1338.06V790.32Z" transform="translate(-0.01 0.09)"/></g><g class="cls-206"><path class="cls-207" d="M282.34,790.32c213.07,0,191.8-34.43,191.8-34.43-26-37.54-89.84-109,102.23-192.2-116.73,58.42-44.47,101.37,3.86,152.43,36.13,53.64,15.57,475.24-77.46,509.23-110.23,38.27-151.83,112.71-464.38,112.71V790.32Z" transform="translate(-0.01 0.09)"/></g><g class="cls-208"><path class="cls-209" d="M282.34,790.32c213.07,0,191.8-34.43,191.8-34.43-25.74-37.18-89.6-108.55,100.1-191.32-120.71,60.28-47.69,104.67.67,157.37,37.09,55,16.22,473-79.25,507.9-105.59,36.74-150.85,108.22-457.27,108.22V790.32Z" transform="translate(-0.01 0.09)"/></g><g class="cls-210"><path class="cls-211" d="M282.34,790.32c213.07,0,191.8-34.43,191.8-34.43-25.5-36.83-89.35-108.1,98-190.44-124.68,62.14-50.9,108-2.52,162.31,38,56.46,16.88,470.81-81,506.58-100.94,35.2-149.87,103.72-450.16,103.72V790.32Z" transform="translate(-0.01 0.09)"/></g><g class="cls-212"><path class="cls-213" d="M282.34,790.32c213.07,0,191.8-34.43,191.8-34.43C448.89,719.42,385,648.24,570,566.34c-128.66,64-54.11,111.27-5.7,167.23,39,57.87,17.52,468.6-82.84,505.27-96.3,33.65-148.89,99.22-443,99.22V790.32Z" transform="translate(-0.01 0.09)"/></g><g class="cls-214"><path class="cls-215" d="M282.34,790.32c213.07,0,191.8-34.43,191.8-34.43-25-36.12-88.87-107.21,93.72-188.67C435.22,633.07,510.52,681.8,559,739.39c39.94,59.28,18.18,466.38-84.63,503.94-91.65,32.12-147.92,94.73-435.94,94.73V790.32Z" transform="translate(-0.01 0.09)"/></g><g class="cls-216"><path class="cls-217" d="M282.34,790.32c213.07,0,191.8-34.43,191.8-34.43-24.76-35.76-88.63-106.76,91.59-187.79C429.12,635.81,505.18,686,553.64,745.21c40.9,60.69,18.84,464.17-86.43,502.62-87,30.57-146.93,90.23-428.82,90.23V790.32Z" transform="translate(-0.01 0.09)"/></g><g class="cls-218"><path class="cls-219" d="M282.34,790.32c213.07,0,191.8-34.43,191.8-34.43-24.51-35.4-88.39-106.32,89.46-186.9C423,638.55,499.84,690.17,548.33,751c41.84,62.11,19.48,462-88.23,501.31-82.35,29-146,85.73-421.71,85.73V790.32Z" transform="translate(-0.01 0.09)"/></g><g class="cls-220"><path class="cls-221" d="M282.34,790.32c213.07,0,191.8-34.43,191.8-34.43-24.27-35-88.14-105.87,87.33-186-144.56,71.42-67,124.49-18.46,187,42.8,63.52,20.14,459.74-90,500-77.7,27.5-145,81.24-414.6,81.24V790.32Z" transform="translate(-0.01 0.09)"/></g><g class="cls-222"><path class="cls-223" d="M282.34,790.32c213.07,0,191.8-34.43,191.8-34.43-24-34.69-87.9-105.42,85.2-185.14C410.8,644,489.15,698.54,537.69,762.66c43.75,64.93,20.8,457.52-91.81,498.66-73.06,26-144,76.74-407.49,76.74V790.32Z" transform="translate(-0.01 0.09)"/></g><g class="cls-224"><path class="cls-225" d="M282.34,790.32c213.07,0,191.8-34.43,191.8-34.43-23.78-34.33-87.66-105,83.07-184.25-152.51,75.13-73.4,131.09-24.83,196.83,44.7,66.35,21.44,455.32-93.61,497.35-68.41,24.41-143,72.24-400.38,72.24V790.32Z" transform="translate(-0.01 0.09)"/></g><g class="cls-226"><path class="cls-227" d="M282.34,790.32c213.07,0,191.8-34.43,191.8-34.43-23.53-34-87.42-104.53,80.94-183.37-156.49,77-76.61,134.39-28,201.77,45.65,67.75,22.1,453.1-95.4,496-63.77,22.88-142,67.75-393.27,67.75V790.32Z" transform="translate(-0.01 0.09)"/></g><g class="cls-228"><path class="cls-229" d="M282.34,790.32c213.07,0,191.8-34.43,191.8-34.43C450.85,722.27,387,651.81,553,573.4c-160.46,78.86-79.83,137.7-31.21,206.71,46.6,69.16,22.75,450.88-97.19,494.7-59.12,21.33-141.06,63.25-386.16,63.25V790.32Z" transform="translate(-0.01 0.09)"/></g><g class="cls-230"><path class="cls-231" d="M282.34,790.32c213.07,0,191.8-34.43,191.8-34.43-23-33.27-86.93-103.64,76.68-181.6-164.44,80.71-83,141-34.39,211.63,47.55,70.58,23.4,448.67-99,493.39-54.47,19.79-140.08,58.75-379,58.75V790.32Z" transform="translate(-0.01 0.09)"/></g><path d="M282.34,790.32c213.07,0,191.8-34.43,191.8-34.43C451.34,723,387.45,652.7,548.69,575.17c-168.41,82.57-86.25,144.3-37.58,216.57,48.5,72,24.06,446.45-100.79,492.06-49.82,18.26-139.1,54.26-371.93,54.26V790.32Z" transform="translate(-0.01 0.09)"/></g><g class="cls-232"><path class="cls-233" d="M1550.53,513.15c26.65-6.42,57.46-7.65,96.29-.93,522.34,90.25,582-76.69,587.46-98.57C2228.75,438.33,2174,660.86,1981.2,779,1845,862.33,1836.7,948.77,1836.7,948.77s-117.4-9.57-286.17,56.19Z" transform="translate(-0.01 0.09)"/></g><g class="cls-234"><path class="cls-235" d="M505.59,1231.68c15.44-118.63,32.86-398.35-43-492.6s57.36-155.72,194.64-209,692.47-147.55,559.31,0S976.22,809.68,970.73,961.91c-3.22,90.16,39.6,138.42,39.6,138.42s-10.45-20.56-171.51-11.24C645.43,1100.33,571.2,1186,505.59,1231.68Z" transform="translate(-0.01 0.09)"/></g><g class="cls-14"><path class="cls-15" d="M868.78,1087.19S830.75,1036.1,834,946c3-82.75,29.32-164.5,88.78-234.57,35.78-42.18,62.33-66.16,81.64-77.35s31.37-9.61,38.18-.67c13.63,17.88,6.27,65.19-6.14,98.53-30.14,81-62.86,151.36-65.72,229.93-3,83.57,34.19,131.91,39.6,138.49-11.47-9.09-46.86-12.38-79.38-13.39S868.78,1087.19,868.78,1087.19Z" transform="translate(-0.01 0.09)"/><path class="cls-16" d="M871.67,1087.23s-37.25-50-34.35-138.33c2.44-72.95,23.39-145.33,69.95-209.54q7.59-10.43,16.07-20.56c34.74-41.25,60.55-65,79.41-76.18s30.49-9.65,37.17-1.11c13.34,17,6.48,63.07-5.74,96.63-8.11,22.26-16.58,43.72-24.49,64.87-20.35,54.36-37.16,105.89-38.89,161.35a251.89,251.89,0,0,0,2,40.53c7.6,57.1,33.1,90.1,37.49,95.44-11.33-9-46-12.26-77.83-13.29S871.67,1087.23,871.67,1087.23Z" transform="translate(-0.01 0.09)"/><path class="cls-17" d="M874.56,1087.26s-36.48-49-33.92-135.42c2.21-71.26,22.41-142.2,67.67-205.44,4.9-6.82,10.08-13.57,15.6-20.2,33.6-40.4,58.76-63.87,77.18-75,18.15-11,29.61-9.69,36.15-1.56,13,16.23,6.7,60.94-5.34,94.73-7.78,21.86-16.07,43-23.77,63.85-19.79,53.6-35.86,104.33-37.25,158.67a247.3,247.3,0,0,0,2.24,39.78c7.76,56,32.88,88.39,37.21,93.66-11.19-8.87-45.13-12.14-76.27-13.19S874.56,1087.26,874.56,1087.26Z" transform="translate(-0.01 0.09)"/><path class="cls-18" d="M877.45,1087.29S841.74,1039.41,844,954.77c2-69.57,21.41-139,65.37-201.33,4.75-6.68,9.78-13.32,15.14-19.84,32.51-39.5,57-62.72,74.95-73.83,17.57-10.86,28.73-9.73,35.14-2,12.76,15.4,6.91,58.81-4.94,92.83-7.47,21.46-15.58,42.19-23.06,62.82C987.34,866.28,972,916.19,971,969.41a243,243,0,0,0,2.45,39.05c7.91,54.89,32.66,86.66,36.93,91.87-11-8.76-44.26-12-74.72-13.09S877.45,1087.29,877.45,1087.29Z" transform="translate(-0.01 0.09)"/><path class="cls-19" d="M880.34,1087.33s-34.94-46.81-33-129.63c1.73-67.87,20.27-136,63.07-197.21,4.59-6.57,9.47-13.09,14.68-19.49,31.42-38.61,55.19-61.58,72.72-72.65,17-10.75,27.85-9.77,34.12-2.45,12.47,14.58,7.12,56.68-4.53,90.93-7.16,21-15.09,41.42-22.35,61.79-18.66,52.11-33.36,101.21-34,153.32a236.21,236.21,0,0,0,2.65,38.3c8.07,53.8,32.43,85,36.65,90.09-10.9-8.65-43.39-11.9-73.17-13S880.34,1087.33,880.34,1087.33Z" transform="translate(-0.01 0.09)"/><path class="cls-20" d="M883.23,1087.36s-34.16-45.74-32.6-126.73c1.49-66.18,19.24-132.89,60.77-193.1,4.44-6.44,9.17-12.84,14.22-19.13C956,710.69,979,688,996.11,676.92c16.42-10.62,27-9.8,33.11-2.88,12.18,13.75,7.32,54.53-4.13,89-6.85,20.64-14.59,40.66-21.64,60.76-18.1,51.37-32.08,99.66-32.34,150.64A231.8,231.8,0,0,0,974,1012c8.23,52.7,32.22,83.24,36.38,88.31-10.75-8.54-42.53-11.78-71.61-12.89S883.23,1087.36,883.23,1087.36Z" transform="translate(-0.01 0.09)"/><path class="cls-21" d="M886.12,1087.4S852.73,1042.73,854,963.56c1.25-64.48,18.21-129.77,58.47-189,4.29-6.31,8.86-12.6,13.77-18.77,29.23-36.81,51.61-59.28,68.25-70.3,15.84-10.51,26.1-9.85,32.09-3.33,11.9,12.93,7.53,52.39-3.72,87.11-6.55,20.24-14.1,39.9-20.93,59.75-17.54,50.61-30.79,98.1-30.71,148a228.66,228.66,0,0,0,3.05,36.83c8.39,51.6,32,81.52,36.1,86.52-10.61-8.43-41.66-11.66-70.06-12.79S886.12,1087.4,886.12,1087.4Z" transform="translate(-0.01 0.09)"/><path class="cls-22" d="M889,1087.43s-32.8-43.6-31.73-120.93c.87-62.8,17.19-126.66,56.18-184.88,4.14-6.19,8.55-12.36,13.31-18.43,28.14-35.9,49.82-58.11,66-69.12,15.27-10.38,25.22-9.88,31.08-3.77,11.61,12.11,7.72,50.25-3.32,85.21-6.26,19.82-13.61,39.13-20.22,58.72-17,49.87-29.51,96.54-29.08,145.28a225.43,225.43,0,0,0,3.26,36.08c8.54,50.5,31.77,79.81,35.82,84.74-10.46-8.32-40.79-11.54-68.51-12.69S889,1087.43,889,1087.43Z" transform="translate(-0.01 0.09)"/><path class="cls-23" d="M891.9,1087.47s-32-42.53-31.29-118c.62-61.1,16.16-123.53,53.88-180.77,4-6.06,8.25-12.12,12.85-18.07,27.06-35,48-57,63.79-67.94,14.69-10.25,24.35-9.92,30.06-4.22,11.34,11.3,7.92,48.11-2.91,83.31-6,19.41-13.11,38.37-19.52,57.69-16.41,49.12-28.21,95-27.43,142.6a220.14,220.14,0,0,0,3.46,35.35c8.7,49.39,31.55,78.09,35.54,82.95-10.32-8.21-39.93-11.42-67-12.58S891.9,1087.47,891.9,1087.47Z" transform="translate(-0.01 0.09)"/><path class="cls-24" d="M894.79,1087.5s-31.29-41.45-30.85-115.14C864.3,913,879.08,852,915.52,795.71c3.84-5.94,7.94-11.88,12.39-17.72,26-34.09,46.25-55.8,61.56-66.77,14.12-10.12,23.47-10,29-4.66,11,10.49,8.11,46-2.51,81.41-5.69,19-12.62,37.6-18.81,56.67-15.84,48.36-26.92,93.43-25.79,139.92a215.78,215.78,0,0,0,3.66,34.6c8.85,48.3,31.32,76.38,35.26,81.17-10.17-8.09-39.06-11.3-65.4-12.48S894.79,1087.5,894.79,1087.5Z" transform="translate(-0.01 0.09)"/><path class="cls-25" d="M897.68,1087.54s-30.54-40.39-30.41-112.25c.1-57.71,14.12-117.28,49.28-172.54,3.69-5.8,7.64-11.63,11.93-17.36,24.89-33.19,44.46-54.64,59.32-65.59,13.55-10,22.61-10,28-5.1,10.78,9.66,8.3,43.8-2.1,79.5-5.41,18.57-12.13,36.83-18.1,55.64-15.28,47.62-25.63,91.87-24.16,137.24a212.56,212.56,0,0,0,3.87,33.86c9,47.2,31.1,74.66,35,79.39-10-8-38.19-11.18-63.85-12.38S897.68,1087.54,897.68,1087.54Z" transform="translate(-0.01 0.09)"/><path class="cls-26" d="M900.57,1087.57s-29.79-39.31-30-109.35c-.15-56,13.09-114.15,47-168.43,3.55-5.67,7.33-11.39,11.47-17,23.81-32.28,42.67-53.47,57.09-64.42,13-9.85,21.73-10,27-5.54,10.5,8.86,8.48,41.65-1.7,77.6-5.14,18.14-11.63,36.07-17.39,54.61-14.72,46.87-24.34,90.32-22.52,134.56a209.74,209.74,0,0,0,4.06,33.13c9.18,46.1,30.88,72.94,34.71,77.6-9.89-7.87-37.33-11.06-62.29-12.28S900.57,1087.57,900.57,1087.57Z" transform="translate(-0.01 0.09)"/><path class="cls-27" d="M903.47,1087.61s-29-38.24-29.54-106.45c-.4-54.32,12.07-111,44.68-164.32,3.4-5.55,7-11.15,11-16.65,22.74-31.37,40.88-52.3,54.86-63.24,12.41-9.71,20.86-10.05,26-6,10.22,8,8.64,39.49-1.31,75.7-4.86,17.72-11.13,35.3-16.67,53.58-14.16,46.13-23,88.77-20.89,131.89a209.2,209.2,0,0,0,4.27,32.38c9.43,45,30.66,71.23,34.43,75.82-9.74-7.76-36.46-10.94-60.74-12.18S903.47,1087.61,903.47,1087.61Z" transform="translate(-0.01 0.09)"/><path class="cls-28" d="M906.36,1087.64s-28.29-37.17-29.11-103.55c-.64-52.63,11.06-107.89,42.39-160.21,3.25-5.42,6.72-10.9,10.55-16.29,21.66-30.45,39.1-51.13,52.63-62.07,11.84-9.56,20-10.07,25-6.43,10,7.25,8.82,37.33-.9,73.8-4.6,17.29-10.63,34.53-16,52.56-13.6,45.37-21.76,87.2-19.25,129.2a205.3,205.3,0,0,0,4.47,31.65c9.59,43.87,30.44,69.51,34.15,74-9.6-7.65-35.59-10.82-59.18-12.08S906.36,1087.64,906.36,1087.64Z" transform="translate(-0.01 0.09)"/><path class="cls-29" d="M909.25,1087.67S881.72,1051.58,880.58,987c-.9-50.93,10-104.76,40.1-156.1,3.09-5.28,6.41-10.65,10.08-15.93,20.59-29.53,37.31-50,50.4-60.89,11.27-9.42,19.13-10.11,24-6.88,9.7,6.46,9,35.17-.5,71.9-4.35,16.86-10.14,33.77-15.25,51.53-13,44.63-20.46,85.65-17.62,126.53a201.14,201.14,0,0,0,4.68,30.9c9.75,42.78,30.21,67.8,33.87,72.25-9.45-7.54-34.72-10.7-57.63-12S909.25,1087.67,909.25,1087.67Z" transform="translate(-0.01 0.09)"/><path class="cls-30" d="M912.14,1087.71s-26.77-35-28.23-97.76c-1.15-49.23,9-101.62,37.8-152,2.94-5.16,6.1-10.41,9.63-15.58,19.5-28.61,35.51-48.78,48.16-59.72,10.71-9.26,18.27-10.13,23-7.32,9.46,5.66,9.13,33-.09,70-4.09,16.44-9.61,33-14.54,50.51-12.38,43.9-19.17,84.1-16,123.85a197.36,197.36,0,0,0,4.88,30.17c9.91,41.67,30,66.07,33.59,70.46-9.31-7.43-33.86-10.58-56.08-11.88S912.14,1087.71,912.14,1087.71Z" transform="translate(-0.01 0.09)"/><path class="cls-31" d="M915,1087.74s-26-33.94-27.79-94.86c-1.39-47.53,8-98.48,35.5-147.87,2.79-5,5.8-10.16,9.17-15.22,18.44-27.69,33.73-47.6,45.93-58.54,10.14-9.1,17.41-10.16,22-7.76,9.21,4.86,9.27,30.83.31,68.08-3.85,16-9.12,32.25-13.83,49.48-11.82,43.16-17.87,82.55-14.35,121.18a195.87,195.87,0,0,0,5.08,29.42c10.07,40.57,29.78,64.36,33.32,68.68-9.16-7.32-33-10.46-54.52-11.78S915,1087.74,915,1087.74Z" transform="translate(-0.01 0.09)"/><path class="cls-32" d="M917.92,1087.78s-25.24-32.88-27.35-92c-1.64-45.85,7-95.35,33.2-143.77,2.65-4.9,5.5-9.91,8.71-14.86,17.37-26.76,31.95-46.41,43.7-57.37,9.58-8.94,16.56-10.18,20.94-8.2,9,4.07,9.41,28.66.72,66.18-3.61,15.58-8.62,31.49-13.13,48.46-11.25,42.4-16.56,81-12.7,118.49a192.1,192.1,0,0,0,5.28,28.68c10.23,39.47,29.55,62.65,33,66.9-9-7.21-32.12-10.34-53-11.68S917.92,1087.78,917.92,1087.78Z" transform="translate(-0.01 0.09)"/><path class="cls-33" d="M920.81,1087.81s-24.48-31.8-26.91-89.06c-1.88-44.15,6-92.2,30.9-139.65,2.5-4.77,5.19-9.67,8.25-14.51,16.31-25.83,30.17-45.21,41.47-56.2,9-8.76,15.72-10.21,19.93-8.64,8.77,3.27,9.52,26.48,1.12,64.28-3.37,15.14-8.13,30.72-12.42,47.43-10.68,41.66-15.26,79.43-11.07,115.81a189.8,189.8,0,0,0,5.49,28c10.39,38.37,29.33,60.93,32.76,65.11-8.87-7.09-31.26-10.22-51.42-11.58S920.81,1087.81,920.81,1087.81Z" transform="translate(-0.01 0.09)"/><path class="cls-34" d="M923.7,1087.85s-23.71-30.73-26.47-86.17c-2.12-42.45,5-89,28.6-135.54,2.35-4.64,4.89-9.42,7.79-14.15,15.26-24.89,28.39-44,39.24-55,8.47-8.59,14.88-10.25,18.91-9.09,8.58,2.47,9.64,24.31,1.53,62.38-3.14,14.71-7.64,30-11.71,46.4-10.12,40.91-14,77.88-9.43,113.14a187.38,187.38,0,0,0,5.69,27.2c10.54,37.27,29.1,59.22,32.48,63.33-8.73-7-30.39-10.1-49.86-11.48S923.7,1087.85,923.7,1087.85Z" transform="translate(-0.01 0.09)"/><path class="cls-35" d="M926.59,1087.88s-22.94-29.65-26-83.27a261.32,261.32,0,0,1,26.31-131.43c2.21-4.5,4.59-9.17,7.33-13.79,14.21-23.95,26.62-42.81,37-53.85,7.92-8.41,14-10.29,17.9-9.53,8.39,1.66,9.73,22.13,1.93,60.48-2.91,14.27-7.14,29.19-11,45.38-9.56,40.15-12.65,76.32-7.8,110.45a184,184,0,0,0,5.9,26.47c10.7,36.16,28.88,57.5,32.2,61.54-8.59-6.87-29.52-10-48.31-11.38S926.59,1087.88,926.59,1087.88Z" transform="translate(-0.01 0.09)"/><path class="cls-36" d="M929.48,1087.92s-22.16-28.58-25.6-80.37a255.86,255.86,0,0,1,24-127.32c2.06-4.38,4.29-8.93,6.87-13.44,13.17-23,24.86-41.6,34.78-52.67,7.38-8.23,13.24-9.52,16.88-10,8.21-1,9.82,20,2.33,58.58-2.68,13.83-6.64,28.42-10.28,44.35-9,39.41-11.34,74.77-6.16,107.78a181.83,181.83,0,0,0,6.1,25.72c10.85,35.06,28.66,55.78,31.92,59.76-8.44-6.76-28.66-9.86-46.76-11.28S929.48,1087.92,929.48,1087.92Z" transform="translate(-0.01 0.09)"/><path class="cls-37" d="M932.37,1088s-21.38-27.5-25.16-77.47a250.52,250.52,0,0,1,21.71-123.21c1.92-4.24,4-8.68,6.41-13.09,12.13-22,23.1-40.37,32.55-51.49,6.84-8,12.5-9.62,15.87-10.41,7.85-1.86,9.89,17.75,2.73,56.67-2.46,13.39-6.15,27.65-9.57,43.32-8.44,38.66-10,73.21-4.53,105.1a181.55,181.55,0,0,0,6.3,25c11,34,28.44,54.06,31.65,58-8.3-6.65-27.79-9.74-45.2-11.18S932.37,1088,932.37,1088Z" transform="translate(-0.01 0.09)"/><path class="cls-38" d="M935.26,1088s-20.6-26.44-24.72-74.58A245.15,245.15,0,0,1,930,894.31c1.77-4.11,3.69-8.42,5.95-12.73,11.1-21.1,21.35-39.14,30.32-50.31,6.3-7.85,11.59-10.48,14.85-10.86,7.91-.92,9.94,15.57,3.14,54.77-2.25,13-5.66,26.88-8.86,42.29-7.89,37.91-8.72,71.66-2.89,102.42a178.45,178.45,0,0,0,6.5,24.25c11.16,32.86,28.22,52.35,31.37,56.19-8.15-6.54-26.92-9.62-43.65-11.07S935.26,1088,935.26,1088Z" transform="translate(-0.01 0.09)"/><path class="cls-39" d="M938.15,1088s-19.81-25.36-24.28-71.68a240,240,0,0,1,17.11-115c1.63-4,3.4-8.18,5.5-12.38,10.07-20.14,19.6-37.91,28.08-49.14,5.78-7.64,10.77-10.57,13.84-11.3,7.74-1.84,10,13.38,3.54,52.87-2,12.52-5.2,26.11-8.15,41.27-7.4,37.14-7.4,70.1-1.26,99.74a176.82,176.82,0,0,0,6.71,23.5,172.81,172.81,0,0,0,31.09,54.41c-8-6.43-26.05-9.5-42.1-11S938.15,1088,938.15,1088Z" transform="translate(-0.01 0.09)"/><path class="cls-40" d="M941,1088.06s-19-24.29-23.84-68.79C913.69,987,916.3,949.16,932,908.4c1.49-3.85,3.1-7.92,5-12,9.06-19.18,17.87-36.67,25.85-48,5.26-7.44,9.94-10.68,12.82-11.75,7.56-2.8,10,11.19,3.95,51-1.83,12.09-4.7,25.36-7.44,40.25-6.84,36.39-6.08,68.54.38,97.06a181,181,0,0,0,37.72,75.39c-7.86-6.32-25.19-9.38-40.54-10.87S941,1088.06,941,1088.06Z" transform="translate(-0.01 0.09)"/><path class="cls-41" d="M943.93,1088.09s-18.22-23.21-23.41-65.88c-3.71-30.59-1.84-67,12.52-106.77,1.35-3.71,2.81-7.66,4.58-11.66,8-18.21,16.16-35.42,23.62-46.79,4.75-7.23,9.09-10.78,11.81-12.19,7.33-3.78,10,9,4.35,49.06-1.63,11.65-4.21,24.59-6.74,39.22-6.27,35.65-4.74,67,2,94.39a181.37,181.37,0,0,0,37.65,72.86c-7.72-6.21-24.32-9.26-39-10.77S943.93,1088.09,943.93,1088.09Z" transform="translate(-0.01 0.09)"/><path class="cls-42" d="M946.82,1088.12s-17.41-22.14-23-63c-3.93-28.89-2.78-63.78,10.23-102.65,1.19-3.59,2.51-7.41,4.11-11.31,7.07-17.24,14.47-34.17,21.39-45.61,4.25-7,8.23-10.9,10.8-12.64,7.06-4.77,9.92,6.81,4.75,47.16-1.44,11.21-3.72,23.82-6,38.2-5.71,34.89-3.42,65.42,3.66,91.7a174.2,174.2,0,0,0,7.32,21.29,177.81,177.81,0,0,0,30.25,49c-7.58-6.09-23.45-9.14-37.44-10.67S946.82,1088.12,946.82,1088.12Z" transform="translate(-0.01 0.09)"/><path class="cls-43" d="M949.71,1088.16s-16.6-21.08-22.53-60.09c-4.13-27.2-3.71-60.61,7.93-98.54,1.06-3.45,2.23-7.16,3.65-10.95,6.09-16.27,12.8-32.91,19.16-44.44,3.76-6.81,7.36-11,9.78-13.07,6.76-5.78,9.85,4.6,5.16,45.25-1.25,10.77-3.22,23.06-5.32,37.17-5.15,34.15-2.09,63.86,5.29,89a173.78,173.78,0,0,0,7.52,20.54,179,179,0,0,0,30,47.27c-7.43-6-22.59-9-35.88-10.57S949.71,1088.16,949.71,1088.16Z" transform="translate(-0.01 0.09)"/><path class="cls-44" d="M952.6,1088.19s-15.77-20-22.09-57.19c-4.34-25.51-4.62-57.43,5.63-94.43.92-3.31,2-6.9,3.19-10.59,5.14-15.29,11.15-31.64,16.93-43.26,3.28-6.6,6.47-11.11,8.77-13.52,6.42-6.76,9.74,2.41,5.56,43.35-1.06,10.34-2.73,22.29-4.61,36.14-4.58,33.4-.75,62.29,6.93,86.35a174.88,174.88,0,0,0,7.72,19.81,183,183,0,0,0,29.7,45.48c-7.29-5.87-21.72-8.9-34.33-10.47A229.48,229.48,0,0,0,952.6,1088.19Z" transform="translate(-0.01 0.09)"/><path class="cls-45" d="M955.49,1088.23s-14.93-19-21.65-54.3c-4.53-23.82-5.52-54.26,3.33-90.31.78-3.19,1.68-6.64,2.73-10.24,4.21-14.32,9.54-30.37,14.7-42.09a69,69,0,0,1,7.75-14c6.08-7.72,9.6.22,6,41.45-.88,9.9-2.23,21.52-3.9,35.11a184.56,184.56,0,0,0,8.56,83.67,181.87,181.87,0,0,0,7.93,19.07,188,188,0,0,0,29.42,43.7c-7.14-5.76-20.85-8.78-32.78-10.37A208.65,208.65,0,0,0,955.49,1088.23Z" transform="translate(-0.01 0.09)"/><path class="cls-7" d="M958.38,1088.26s-38.84-49.35-20.18-137.6c4.39-20.8,14.46-54.57,21.48-65.2s11,1.88,3.18,73.64a174.26,174.26,0,0,0,18.33,99.31,195.26,195.26,0,0,0,29.14,41.92c-7-5.65-20-8.66-31.22-10.27A193.55,193.55,0,0,0,958.38,1088.26Z" transform="translate(-0.01 0.09)"/></g><g class="cls-236"><path class="cls-237" d="M658.21,529.23c66.53-23.54,166.38-46.61,264.6-61.67s194.82-22.12,254.86-13.64c-84.47,37.1-144.56,89.68-189,148s-73.27,122.31-95.2,182.27c-43.85,119.92-60.15,223.64-118.87,233-70.11,11.19-105-91.78-133.55-201.12S590.14,591,545.12,576.69C574.55,561.49,611.58,545.72,658.21,529.23Z" transform="translate(-0.01 0.09)"/><path class="cls-238" d="M547.6,575.67c29.11-15,65.69-30.53,111.7-46.78,65.79-23.24,164.31-46,261.27-60.92,43.2-6.65,86.1-11.76,125.7-14.67,49.6-3.63,94-3.8,127.28.76-72.22,31.49-126.47,74.58-168.3,123q-10.11,11.7-19.27,23.77c-39.66,52.12-66.75,108.9-87.59,163.22Q895,773,891.75,781.8C848.35,901,832.3,1004.12,774.49,1013.37c-69,11.05-103-91.58-131-200.37S593.19,589.26,547.6,575.67Z" transform="translate(-0.01 0.09)"/><path class="cls-239" d="M550.07,574.65c28.79-14.77,64.92-30.1,110.31-46.11,65.06-22.93,162.26-45.4,258-60.16,42.85-6.63,85.42-11.74,124.77-14.68,49.14-3.65,93.19-3.9,126.33.51-71.69,31-125.54,73.77-167,121.9q-10,11.61-19.09,23.61c-39.25,51.72-66.07,108.11-86.7,162.07q-3.39,8.87-6.57,17.64c-42.94,118.4-58.74,221-115.64,230.14-67.95,10.91-100.95-91.38-128.5-199.62S596.23,587.52,550.07,574.65Z" transform="translate(-0.01 0.09)"/><path class="cls-240" d="M552.54,573.64C581,559.07,616.7,544,661.47,528.2c64.33-22.63,160.19-44.8,254.62-59.41,42.5-6.61,84.74-11.71,123.84-14.69,48.68-3.67,92.37-4,125.39.25-71.18,30.55-124.62,73-165.78,120.84q-9.93,11.52-18.92,23.44c-38.85,51.32-65.4,107.31-85.81,160.91q-3.34,8.81-6.49,17.52c-42.49,117.65-58,219.69-114,228.71-66.87,10.77-98.94-91.19-126-198.87S599.27,585.79,552.54,573.64Z" transform="translate(-0.01 0.09)"/><path class="cls-241" d="M555,572.62c28.15-14.35,63.38-29.23,107.53-44.76,63.6-22.33,158.14-44.21,251.31-58.66,42.14-6.58,84.06-11.69,122.89-14.7,48.22-3.69,91.57-4.09,124.45,0-70.66,30.09-123.68,72.18-164.52,119.77q-9.82,11.44-18.74,23.28C939.5,648.45,913.22,704.05,893,757.3c-2.22,5.83-4.35,11.63-6.43,17.39-42,116.89-57.34,218.38-112.41,227.28-65.79,10.63-96.93-91-123.45-198.13S602.32,584.05,555,572.62Z" transform="translate(-0.01 0.09)"/><path class="cls-242" d="M557.49,571.6c27.83-14.14,62.62-28.79,106.15-44.08,62.86-22,156.07-43.61,248-57.91,41.79-6.56,83.38-11.67,122-14.71,47.76-3.71,90.76-4.19,123.5-.26C1087,484.26,1034.33,526,993.82,573.33q-9.74,11.37-18.56,23.12c-38,50.51-64,105.72-84,158.61q-3.29,8.67-6.35,17.25c-41.58,116.14-56.64,217.07-110.8,225.85-64.71,10.5-94.92-90.78-120.93-197.37S605.36,582.32,557.49,571.6Z" transform="translate(-0.01 0.09)"/><path class="cls-243" d="M560,570.58c27.5-13.92,61.84-28.35,104.75-43.4,62.13-21.73,154-43,244.66-57.16,41.44-6.54,82.71-11.64,121-14.72,47.31-3.73,90-4.29,122.56-.52-69.61,29.16-121.82,70.57-162,117.63q-9.65,11.28-18.39,23c-37.64,50.09-63.38,104.91-83.13,157.45q-3.24,8.61-6.28,17.12C842.05,885.32,827.24,985.69,774,994.36c-63.64,10.36-92.93-90.58-118.41-196.62S608.4,580.58,560,570.58Z" transform="translate(-0.01 0.09)"/><path class="cls-244" d="M562.44,569.56c27.19-13.71,61.08-27.91,103.37-42.72,61.39-21.43,152-42.42,241.33-56.41,41.09-6.51,82-11.62,120.09-14.73,46.85-3.74,89.15-4.38,121.61-.78-69.09,28.7-120.89,69.77-160.73,116.56q-9.55,11.21-18.21,22.8c-37.23,49.69-62.7,104.11-82.24,156.3q-3.21,8.53-6.2,17C840.79,882.19,826.23,982,773.9,990.56,711.34,1000.78,683,900.18,658,794.69S611.45,578.85,562.44,569.56Z" transform="translate(-0.01 0.09)"/><path class="cls-245" d="M564.91,568.54c26.87-13.49,60.31-27.47,102-42,60.66-21.13,149.9-41.82,238-55.66,40.73-6.49,81.34-11.6,119.15-14.74,46.39-3.76,88.34-4.48,120.66-1-68.56,28.23-120,69-159.47,115.48q-9.45,11.12-18,22.64c-36.83,49.28-62,103.32-81.35,155.14q-3.17,8.49-6.13,16.87C839.53,879.07,825.22,978.33,773.8,986.76c-61.47,10.08-88.91-90.19-113.37-195.12S614.49,577.11,564.91,568.54Z" transform="translate(-0.01 0.09)"/><path class="cls-246" d="M567.39,567.52c26.54-13.28,59.54-27,100.59-41.36,59.92-20.83,147.83-41.22,234.69-54.91,40.39-6.47,80.67-11.57,118.21-14.75,45.94-3.78,87.54-4.58,119.72-1.29-68,27.76-119,68.17-158.2,114.42q-9.36,11-17.85,22.47c-36.43,48.88-61.36,102.52-80.47,154Q881,754.51,878,762.83C838.27,875.94,824.21,974.64,773.7,983c-60.39,9.95-86.9-90-110.84-194.36S617.53,575.37,567.39,567.52Z" transform="translate(-0.01 0.09)"/><path class="cls-247" d="M569.86,566.5c26.23-13.07,58.77-26.59,99.2-40.68,59.19-20.53,145.78-40.62,231.37-54.16,40-6.44,80-11.55,117.28-14.76,45.47-3.8,86.72-4.68,118.77-1.54-67.52,27.29-118.1,67.36-156.94,113.34q-9.27,10.95-17.67,22.31c-36,48.48-60.69,101.72-79.57,152.84q-3.1,8.35-6,16.61C837,872.81,823.19,971,773.6,979.15c-59.31,9.81-84.89-89.78-108.32-193.61S620.58,573.64,569.86,566.5Z" transform="translate(-0.01 0.09)"/><path class="cls-248" d="M572.34,565.49c25.9-12.86,58-26.17,97.81-40,58.45-20.23,143.71-40,228-53.41,39.69-6.42,79.31-11.53,116.34-14.77,45-3.82,85.92-4.77,117.83-1.8-67,26.83-117.16,66.57-155.67,112.27q-9.18,10.88-17.5,22.15c-35.63,48.07-60,100.93-78.68,151.69q-3.06,8.28-5.91,16.48c-38.85,111.59-52.42,209.18-101.1,217.26-58.23,9.68-82.88-89.58-105.79-192.86S623.62,571.9,572.34,565.49Z" transform="translate(-0.01 0.09)"/><path class="cls-249" d="M574.81,564.47c25.59-12.65,57.23-25.73,96.42-39.33C729,505.21,812.89,485.71,896,472.49c39.33-6.4,78.63-11.51,115.4-14.79,44.56-3.84,85.11-4.87,116.88-2.06C1061.77,482,1012,521.41,973.83,566.85q-9.09,10.78-17.32,22C921.29,636.5,897.17,689,878.72,739.37q-3,8.22-5.84,16.35c-38.39,110.84-51.71,207.86-99.48,215.83-57.15,9.54-80.87-89.38-103.27-192.11S626.67,570.17,574.81,564.47Z" transform="translate(-0.01 0.09)"/><path class="cls-250" d="M577.28,563.45c25.27-12.43,56.47-25.29,95-38.65,57-19.63,139.6-38.83,221.4-51.9,39-6.38,77.95-11.49,114.47-14.8,44.1-3.86,84.3-5,115.93-2.31-65.95,25.9-115.3,65-153.15,110.13q-9,10.71-17.14,21.83C919,635,895.16,687.07,876.93,737.13q-3,8.14-5.76,16.22c-37.94,110.08-51,206.55-97.87,214.4-56.07,9.4-78.86-89.19-100.74-191.36S629.71,568.43,577.28,563.45Z" transform="translate(-0.01 0.09)"/><path class="cls-251" d="M579.76,562.43c24.94-12.22,55.69-24.85,93.64-38,56.25-19.33,137.54-38.24,218.08-51.15C930.11,467,968.76,461.84,1005,458.5c43.65-3.88,83.5-5.07,115-2.57-65.43,25.44-114.37,64.16-151.88,109.06q-8.91,10.62-17,21.67c-34.42,46.85-58,98.53-76,148.22q-2.94,8.1-5.69,16.1c-37.48,109.32-50.3,205.23-96.25,213-55,9.27-76.85-89-98.22-190.61S632.75,566.7,579.76,562.43Z" transform="translate(-0.01 0.09)"/><path class="cls-252" d="M582.23,561.41c24.63-12,54.93-24.41,92.26-37.3,55.51-19,135.5-37.46,214.75-50.39,38.3-6.25,76.6-11.44,112.6-14.82,43.19-3.9,82.69-5.16,114-2.83-64.9,25-113.44,63.37-150.62,108q-8.81,10.53-16.79,21.5c-34,46.44-57.32,97.73-75.12,147.07q-2.9,8-5.61,16c-37,108.56-49.61,203.92-94.64,211.53-53.91,9.13-74.84-88.78-95.69-189.86S635.8,565,582.23,561.41Z" transform="translate(-0.01 0.09)"/><path class="cls-253" d="M584.71,560.39c24.3-11.79,54.15-24,90.86-36.62C730.35,505.05,809,486.91,887,474.13c37.94-6.22,75.91-11.42,111.65-14.83,42.73-3.92,81.89-5.26,113.1-3.08-64.38,24.5-112.51,62.56-149.35,106.92q-8.73,10.46-16.62,21.34c-33.61,46-56.65,96.93-74.23,145.92q-2.87,8-5.54,15.84c-36.57,107.8-48.9,202.6-93,210.1-52.84,9-72.84-88.58-93.18-189.11S638.84,563.23,584.71,560.39Z" transform="translate(-0.01 0.09)"/><path class="cls-254" d="M587.18,559.38c24-11.59,53.39-23.54,89.48-36,54-18.42,131.39-36.25,208.11-48.89,37.59-6.2,75.24-11.4,110.72-14.84,42.27-3.94,81.07-5.36,112.15-3.34-63.86,24-111.57,61.76-148.09,105.85q-8.62,10.38-16.44,21.18c-33.2,45.64-56,96.14-73.33,144.77q-2.84,7.89-5.47,15.71c-36.12,107-48.2,201.29-91.4,208.67-51.75,8.85-70.84-88.38-90.65-188.36S641.88,561.49,587.18,559.38Z" transform="translate(-0.01 0.09)"/><path class="cls-255" d="M589.65,558.36c23.67-11.37,52.62-23.1,88.09-35.27C731.05,505,807.07,487.44,882.53,475c37.24-6.17,74.55-11.45,109.79-14.85,41.8-4.05,80.26-5.46,111.2-3.6-63.33,23.58-110.64,61-146.83,104.79q-8.52,10.29-16.26,21c-32.8,45.23-55.3,95.34-72.44,143.62q-2.79,7.82-5.4,15.57c-35.66,106.3-47.49,200-89.78,207.24-50.67,8.72-68.83-88.17-88.13-187.6S644.93,559.75,589.65,558.36Z" transform="translate(-0.01 0.09)"/><path class="cls-256" d="M592.13,557.34c23.34-11.16,51.85-22.67,86.7-34.59,52.57-17.82,127.27-35,201.46-47.39,36.89-6.14,73.88-11.43,108.85-14.86,41.35-4.07,79.46-5.55,110.26-3.85-62.81,23.11-109.71,60.16-145.56,103.71q-8.45,10.21-16.09,20.85c-32.4,44.83-54.63,94.54-71.55,142.47q-2.76,7.76-5.32,15.44c-35.2,105.54-46.79,198.67-88.17,205.81-49.59,8.58-66.82-88-85.6-186.85S648,558,592.13,557.34Z" transform="translate(-0.01 0.09)"/><path class="cls-257" d="M594.6,556.32c23-10.94,51.08-22.23,85.31-33.91,51.84-17.52,125.22-34.44,198.15-46.64,36.54-6.11,73.19-11.4,107.91-14.87,40.89-4.09,78.65-5.65,109.32-4.11C1033,479.44,986.5,516.15,951,559.43q-8.34,10.14-15.9,20.7c-32,44.41-54,93.74-70.67,141.3q-2.71,7.7-5.25,15.32c-34.74,104.78-46.09,197.35-86.55,204.38-48.51,8.44-64.81-87.78-83.08-186.1S651,556.28,594.6,556.32Z" transform="translate(-0.01 0.09)"/><path class="cls-258" d="M597.08,555.3c22.7-10.73,50.31-21.79,83.92-33.23,51.11-17.22,123.15-33.84,194.82-45.89,36.19-6.09,72.51-11.38,107-14.88,40.44-4.11,77.85-5.75,108.38-4.37-61.77,22.19-107.86,58.56-143.05,101.58q-8.25,10-15.72,20.53c-31.6,44-53.29,92.94-69.78,140.15q-2.67,7.63-5.17,15.19c-34.29,104-45.39,196-84.94,203-47.43,8.3-62.8-87.58-80.55-185.35S654.06,554.55,597.08,555.3Z" transform="translate(-0.01 0.09)"/><path class="cls-259" d="M599.55,554.28c22.38-10.52,49.54-21.35,82.53-32.55,50.38-16.92,121.1-33.24,191.5-45.14,35.84-6.06,71.84-11.36,106-14.89,40-4.13,77-5.85,107.43-4.62-61.25,21.72-106.93,57.76-141.78,100.5q-8.16,10-15.55,20.37c-31.19,43.6-52.61,92.14-68.89,139q-2.64,7.56-5.1,15.06c-33.83,103.27-44.68,194.72-83.32,201.51-46.35,8.17-60.79-87.37-78-184.59S657.1,552.81,599.55,554.28Z" transform="translate(-0.01 0.09)"/><path class="cls-260" d="M602,553.26c22.06-10.3,48.78-20.91,81.15-31.87,49.64-16.62,119-32.64,188.17-44.39,35.49-6,71.16-11.34,105.1-14.91,39.52-4.15,76.23-5.93,106.49-4.87-60.73,21.25-106,57-140.52,99.43q-8.07,9.89-15.37,20.21c-30.79,43.2-51.94,91.35-68,137.85q-2.61,7.5-5,14.93c-33.38,102.51-44,193.41-81.71,200.08-45.27,8-58.78-87.17-75.5-183.84S660.14,551.08,602,553.26Z" transform="translate(-0.01 0.09)"/><path class="cls-261" d="M604.5,552.25c21.74-10.1,48-20.48,79.75-31.2,48.91-16.32,117-32,184.86-43.64,35.13-6,70.47-11.32,104.16-14.92,39.06-4.17,75.42-6,105.54-5.13-60.2,20.79-105.06,56.16-139.25,98.37q-8,9.79-15.2,20c-30.39,42.8-51.27,90.55-67.1,136.7q-2.57,7.42-5,14.8C819.38,829,809,919.36,772.21,925.92c-44.19,7.89-56.77-87-73-183.09S663.19,549.34,604.5,552.25Z" transform="translate(-0.01 0.09)"/><path class="cls-262" d="M607,551.23c21.42-9.88,47.24-20,78.37-30.52,48.17-16,114.92-31.43,181.53-42.89,34.78-6,69.8-11.3,103.23-14.93,38.6-4.19,74.61-6.13,104.59-5.38-59.68,20.32-104.13,55.35-138,97.29q-7.87,9.72-15,19.88c-30,42.39-50.59,89.75-66.21,135.55q-2.54,7.37-4.88,14.67c-32.47,101-42.58,190.78-78.48,197.22-43.11,7.76-54.76-86.78-70.46-182.35S666.23,547.61,607,551.23Z" transform="translate(-0.01 0.09)"/><path class="cls-263" d="M609.44,550.21c21.1-9.67,46.47-19.6,77-29.84,47.44-15.72,112.86-30.84,178.21-42.14,34.44-6,69.12-11.27,102.29-14.94,38.15-4.21,73.81-6.23,103.65-5.64-59.16,19.86-103.2,54.56-136.73,96.22q-7.79,9.64-14.84,19.72c-29.58,42-49.92,88.95-65.32,134.39q-2.49,7.31-4.81,14.55C816.86,822.76,807,912,772,918.32c-42,7.62-52.76-86.58-67.94-181.6S669.28,545.87,609.44,550.21Z" transform="translate(-0.01 0.09)"/><path class="cls-264" d="M611.92,549.19A768.8,768.8,0,0,1,687.51,520c46.67-15.51,110.8-30.23,174.88-41.38,34.09-5.93,68.44-11.25,101.36-14.95,37.69-4.23,73-6.32,102.7-5.9C1007.82,477.19,964.18,511.55,931,553q-7.69,9.54-14.67,19.55c-29.18,41.58-49.25,88.16-64.43,133.24q-2.45,7.25-4.73,14.42C815.6,819.64,806,908.31,771.92,914.51c-41,7.49-50.75-86.37-65.42-180.84S672.32,544.14,611.92,549.19Z" transform="translate(-0.01 0.09)"/><path class="cls-265" d="M614.39,548.17a765.42,765.42,0,0,1,74.2-28.49c45.94-15.21,108.74-29.63,171.57-40.63,33.73-5.9,67.76-11.23,100.41-15,37.23-4.25,72.2-6.42,101.76-6.15C1004.22,476.87,961,510.89,928.13,552q-7.61,9.47-14.49,19.4c-28.77,41.17-48.57,87.35-63.54,132.08q-2.4,7.17-4.66,14.29c-31.1,98.72-40.46,186.83-73.62,192.92-39.87,7.35-48.75-86.17-62.89-180.09S675.36,542.4,614.39,548.17Z" transform="translate(-0.01 0.09)"/><path class="cls-266" d="M616.87,547.15a761.24,761.24,0,0,1,72.81-27.81c45.2-14.91,106.68-29,168.24-39.88,33.38-5.88,67.08-11.2,99.48-15,36.77-4.27,71.39-6.52,100.81-6.41-57.59,18.47-100.41,52.15-132.93,93q-7.51,9.39-14.32,19.24c-28.37,40.76-47.9,86.55-62.64,130.93q-2.39,7.11-4.59,14.16c-30.65,98-39.76,185.52-72,191.49-38.79,7.21-46.74-86-60.37-179.34S678.41,540.66,616.87,547.15Z" transform="translate(-0.01 0.09)"/><path class="cls-267" d="M619.34,546.13A762.16,762.16,0,0,1,690.76,519c44.47-14.61,104.63-28.43,164.92-39.13,33-5.85,66.4-11.18,98.55-15,36.31-4.29,70.57-6.62,99.86-6.67-57.06,18-99.47,51.36-131.67,91.95q-7.42,9.3-14.14,19.07C880.32,609.6,861.06,655,846.53,699q-2.34,7-4.52,14c-30.19,97.2-39.06,184.2-70.39,190.06-37.71,7.07-44.73-85.78-57.84-178.59S681.45,538.93,619.34,546.13Z" transform="translate(-0.01 0.09)"/><path class="cls-268" d="M621.81,545.12c19.5-8.61,42.61-17.48,70-26.46,43.73-14.31,102.56-27.84,161.59-38.38,32.68-5.83,65.73-11.16,97.61-15,35.86-4.3,69.77-6.71,98.92-6.92-56.54,17.53-98.54,50.55-130.41,90.87q-7.32,9.22-14,18.91c-27.56,40-46.55,85-60.86,128.62q-2.29,7-4.44,13.9c-29.74,96.45-38.36,182.9-68.78,188.63-36.63,6.94-42.72-85.57-55.32-177.83S684.49,537.19,621.81,545.12Z" transform="translate(-0.01 0.09)"/><path class="cls-269" d="M624.29,544.1c19.17-8.39,41.83-17,68.64-25.78,43-14,100.51-27.24,158.28-37.63,32.33-5.81,65-11.13,96.67-15,35.4-4.32,69-6.81,98-7.18-56,17.07-97.61,49.75-129.14,89.8q-7.25,9.15-13.78,18.75c-27.17,39.55-45.89,84.16-60,127.47q-2.26,6.91-4.37,13.77C809.3,804,800.93,889.88,771.42,895.5c-35.55,6.8-40.71-85.37-52.79-177.08S687.54,535.46,624.29,544.1Z" transform="translate(-0.01 0.09)"/><path class="cls-270" d="M626.76,543.08c18.86-8.18,41.07-16.6,67.26-25.1,42.26-13.72,98.44-26.65,155-36.88,32-5.78,64.37-11.11,95.73-15,34.94-4.34,68.16-6.91,97-7.43-55.5,16.6-96.68,48.95-127.88,88.72q-7.14,9.07-13.6,18.59c-26.76,39.15-45.21,83.37-59.09,126.32q-2.22,6.86-4.3,13.64C808,800.87,799.92,886.2,771.32,891.7c-34.47,6.66-38.7-85.17-50.27-176.33S690.58,533.72,626.76,543.08Z" transform="translate(-0.01 0.09)"/><path class="cls-271" d="M629.24,542.06c18.53-8,40.29-16.16,65.86-24.42,41.53-13.42,96.39-26.06,151.63-36.13,31.63-5.76,63.69-11.08,94.8-15a963.37,963.37,0,0,1,96.08-7.69c-55,16.14-95.75,48.15-126.62,87.66q-7,9-13.42,18.42c-26.36,38.74-44.54,82.57-58.2,125.17q-2.18,6.78-4.22,13.51c-28.37,94.18-36.24,179-63.93,184.34-33.39,6.52-36.69-85-47.74-175.58S693.62,532,629.24,542.06Z" transform="translate(-0.01 0.09)"/><path class="cls-272" d="M631.71,541c18.22-7.75,39.53-15.72,64.47-23.74,40.8-13.12,94.33-25.46,148.31-35.37,31.28-5.75,63-11.07,93.87-15,34-4.38,66.54-7.1,95.13-7.95-54.45,15.68-94.82,47.35-125.35,86.59q-7,8.9-13.25,18.27c-25.95,38.33-43.86,81.76-57.31,124q-2.15,6.72-4.14,13.38c-27.92,93.42-35.55,177.64-62.31,182.9-32.32,6.39-34.69-84.77-45.23-174.82S696.67,530.25,631.71,541Z" transform="translate(-0.01 0.09)"/><path class="cls-273" d="M634.18,540c17.9-7.54,38.76-15.28,63.09-23.06,40.06-12.81,92.27-24.87,145-34.62,30.92-5.73,62.33-11,92.92-15,33.57-4.39,65.74-7.2,94.19-8.2-53.93,15.21-93.88,46.54-124.09,85.51q-6.85,8.82-13.07,18.11c-25.55,37.92-43.19,81-56.41,122.86q-2.12,6.64-4.08,13.25C804.26,791.48,796.88,875.14,771,880.29c-31.24,6.25-32.68-84.57-42.7-174.08S699.71,528.52,634.18,540Z" transform="translate(-0.01 0.09)"/><path class="cls-274" d="M636.66,539c17.57-7.32,38-14.84,61.69-22.38,39.33-12.51,90.21-24.28,141.67-33.87,30.57-5.7,61.65-11,92-15.06,33.11-4.41,64.92-7.3,93.24-8.46-53.4,14.74-93,45.75-122.82,84.45q-6.78,8.73-12.9,17.94C864.38,599.14,847,641.79,834,683.32q-2.07,6.6-4,13.13c-27,91.91-34.13,175-59.07,180-30.16,6.11-30.67-84.37-40.18-173.33S702.75,526.78,636.66,539Z" transform="translate(-0.01 0.09)"/><path class="cls-275" d="M639.13,538c17.26-7.12,37.23-14.41,60.31-21.72,38.59-12.2,88.14-23.68,138.34-33.11,30.22-5.68,61-11,91.05-15.07,32.66-4.43,64.12-7.4,92.31-8.72-52.89,14.28-92,44.95-121.57,83.38q-6.68,8.65-12.72,17.78C862.11,597.65,845,639.9,832.22,681.08q-2,6.52-3.93,13c-26.55,91.15-33.43,173.69-57.46,178.61-29.07,6-28.66-84.17-37.65-172.58S705.8,525.05,639.13,538Z" transform="translate(-0.01 0.09)"/><path class="cls-276" d="M641.61,537c16.93-6.91,36.45-14,58.91-21,37.87-11.9,86.09-23.09,135-32.36,29.87-5.66,60.3-11,90.12-15.08,32.2-4.44,63.31-7.49,91.36-9-52.37,13.81-91.1,44.14-120.31,82.31q-6.59,8.56-12.54,17.61C859.83,596.15,843,638,830.43,678.84q-2,6.46-3.86,12.87c-26.09,90.39-32.72,172.38-55.84,177.18-28,5.83-26.66-84-35.13-171.83S708.84,523.31,641.61,537Z" transform="translate(-0.01 0.09)"/><path class="cls-277" d="M644.08,536c16.61-6.69,35.69-13.53,57.53-20.36,37.13-11.6,84-22.5,131.7-31.61,29.51-5.64,59.61-10.94,89.18-15.09,31.73-4.46,62.5-7.59,90.41-9.23C961.06,473,922.73,503,893.86,540.9q-6.5,8.48-12.37,17.45c-23.93,36.31-40.5,77.78-52.85,118.25q-1.95,6.39-3.78,12.74c-25.64,89.63-32,171.06-54.23,175.74C743.72,870.79,746,781.31,738,694S711.89,521.57,644.08,536Z" transform="translate(-0.01 0.09)"/><path class="cls-278" d="M646.55,534.93c16.3-6.48,34.92-13.09,56.14-19.68,36.4-11.29,82-21.92,128.38-30.86,29.16-5.62,58.94-10.91,88.24-15.1,31.28-4.47,61.7-7.69,89.47-9.49C957.46,472.69,919.54,502.35,891,540c-4.27,5.6-8.32,11.38-12.19,17.29-23.53,35.9-39.82,77-52,117.1q-1.92,6.32-3.71,12.61C798,775.84,791.82,856.72,770.53,861.28c-25.83,5.57-22.64-83.57-30.08-170.32S714.93,519.84,646.55,534.93Z" transform="translate(-0.01 0.09)"/><path class="cls-279" d="M649,533.91c16-6.26,34.15-12.65,54.75-19,35.66-11,79.9-21.33,125.05-30.11,28.81-5.61,58.26-10.88,87.31-15.11C947,465.2,977,461.9,1004.66,460c-50.8,12.42-88.3,41.74-116.51,79.1q-6.31,8.31-12,17.12c-23.13,35.5-39.15,76.19-51.06,116q-1.89,6.25-3.64,12.48c-24.73,88.12-30.62,168.43-51,172.88-24.75,5.43-20.63-83.37-27.55-169.57S718,518.1,649,533.91Z" transform="translate(-0.01 0.09)"/><path class="cls-280" d="M651.5,532.89c15.65-6,33.38-12.21,53.36-18.32,34.93-10.69,77.84-20.74,121.73-29.36,28.46-5.59,57.58-10.86,86.37-15.12,30.37-4.5,60.09-7.88,87.58-10-50.27,12-87.37,40.94-115.25,78q-6.21,8.24-11.83,17c-22.73,35.08-38.48,75.38-50.18,114.78q-1.85,6.2-3.57,12.36c-24.27,87.36-29.91,167.12-49.38,171.45-23.67,5.29-18.62-83.17-25-168.82S721,516.37,651.5,532.89Z" transform="translate(-0.01 0.09)"/><path class="cls-281" d="M654,531.87c15.33-5.83,32.61-11.76,52-17.64,34.2-10.38,75.78-20.16,118.41-28.61,28.1-5.57,56.91-10.77,85.43-15.13,29.92-4.46,59.27-8,86.63-10.26-49.75,11.49-86.44,40.15-114,77q-6.12,8.16-11.65,16.81c-22.33,34.68-37.81,74.58-49.29,113.63q-1.82,6.14-3.49,12.22c-23.82,86.61-29.21,165.81-47.77,170-22.59,5.16-16.61-83-22.51-168.06S724.06,514.63,654,531.87Z" transform="translate(-0.01 0.09)"/><path class="cls-282" d="M656.45,530.86q22.51-8.45,50.58-17c33.49-10,73.72-19.58,115.09-27.86,27.75-5.56,56.23-10.75,84.49-15.14,29.47-4.48,58.47-8.08,85.69-10.51-49.23,11-85.51,39.34-112.72,75.88q-6,8.09-11.48,16.65C846.17,587.19,831,626.7,819.7,665.39c-1.18,4-2.32,8.08-3.42,12.09-23.36,85.85-28.51,164.5-46.14,168.59-21.52,5-14.61-82.76-20-167.31S727.1,512.9,656.45,530.86Z" transform="translate(-0.01 0.09)"/><path class="cls-283" d="M658.92,529.84q22-8.13,49.2-16.29c32.75-9.71,71.65-19,111.76-27.11,27.4-5.54,55.55-10.73,83.56-15.15,29-4.5,57.66-8.18,84.74-10.77-48.7,10.56-84.58,38.54-111.46,74.82q-5.94,8-11.3,16.48c-21.52,33.87-36.46,73-47.51,111.33q-1.73,6-3.34,12C791.66,760.2,786.76,838.29,770,842.27c-20.44,4.88-12.6-82.57-17.47-166.56S730.15,511.16,658.92,529.84Z" transform="translate(-0.01 0.09)"/><path class="cls-284" d="M661.4,528.82Q683,521,709.2,513.21c32-9.41,69.59-18.42,108.44-26.36,27.05-5.53,54.88-10.7,82.63-15.16,28.54-4.52,56.85-8.27,83.79-11-48.18,10.1-83.65,37.74-110.2,73.75q-5.83,7.9-11.12,16.32C841.62,584.2,827,622.92,816.12,660.91q-1.7,5.93-3.27,11.83c-22.45,84.34-27.1,161.87-42.91,165.73-19.35,4.74-10.59-82.37-14.94-165.81S733.19,509.43,661.4,528.82Z" transform="translate(-0.01 0.09)"/><path class="cls-285" d="M663.87,527.8q21.07-7.49,46.42-14.93c31.28-9.11,67.51-17.9,105.12-25.61,26.68-5.56,54.19-10.68,81.68-15.17,28.09-4.54,56-8.37,82.85-11.28-47.66,9.63-82.71,36.94-108.93,72.67q-5.76,7.83-11,16.16c-20.71,33.06-35.11,71.4-45.72,109q-1.67,5.87-3.2,11.7c-22,83.58-26.4,160.55-41.3,164.3-18.27,4.6-8.58-82.17-12.42-165.07S736.23,507.69,663.87,527.8Z" transform="translate(-0.01 0.09)"/><path class="cls-286" d="M666.35,526.78c13.72-4.77,28.78-9.54,45-14.25,30.55-8.81,65.46-17.3,101.8-24.86,26.33-5.54,53.52-10.66,80.75-15.18,27.63-4.56,55.24-8.47,81.9-11.54-47.13,9.17-81.78,36.14-107.67,71.61q-5.65,7.74-10.77,16c-20.31,32.66-34.44,70.6-44.83,107.87q-1.62,5.8-3.13,11.58c-21.54,82.82-25.69,159.24-39.68,162.86-17.19,4.47-6.57-82-9.89-164.31S739.28,506,666.35,526.78Z" transform="translate(-0.01 0.09)"/><path class="cls-287" d="M668.82,525.76c13.41-4.56,28-9.1,43.64-13.57,29.81-8.51,63.39-16.71,98.47-24.11,26-5.52,52.84-10.63,79.81-15.19,27.18-4.58,54.43-8.57,81-11.8-46.61,8.71-80.85,35.34-106.4,70.54q-5.56,7.67-10.6,15.84c-19.91,32.24-33.77,69.79-43.94,106.71q-1.59,5.75-3,11.45c-21.09,82.06-25,157.92-38.07,161.43-16.11,4.33-4.57-81.76-7.37-163.56S742.32,504.22,668.82,525.76Z" transform="translate(-0.01 0.09)"/><path class="cls-7" d="M671.29,524.74c38.46-12.77,86.14-25.26,137.4-36.25,25.64-5.49,52.16-10.61,78.88-15.2s53.62-8.66,80-12.05c-46.09,8.23-79.92,34.53-105.14,69.46S820.61,609.19,809,651.94c-23.28,85.5-26.7,167.77-39.43,171.32-15,4.19-2.56-81.57-4.84-162.81S745.37,502.48,671.29,524.74Z" transform="translate(-0.01 0.09)"/></g></g></g></g></g></svg>