<?xml version="1.0" encoding="utf-8"?>
<!-- Generator: Adobe Illustrator 26.0.3, SVG Export Plug-In . SVG Version: 6.00 Build 0)  -->
<svg version="1.1" id="Layer_1" xmlns="http://www.w3.org/2000/svg" xmlns:xlink="http://www.w3.org/1999/xlink" x="0px" y="0px"
	 viewBox="0 0 3200 1600" style="enable-background:new 0 0 3200 1600;" xml:space="preserve">
<style type="text/css">
	.st0{fill:none;}
	.st1{fill:#E89143;}
	.st2{opacity:0.85;}
	.st3{fill:#FFD500;}
	.st4{fill:#005BBB;}
	.st5{fill:#FFFFFF;}
	.st6{display:none;fill:#E89143;}
	.st7{fill:#FF0000;}
	.st8{fill:#FFCC00;}
</style>
<g id="layer_0">
	<polygon id="rectangle_3_" class="st0" points="1109.3,0 0,0 0,1600 3200,1600 3200,0 	"/>
</g>
<path id="pole_00000083050825804291073410000013605027585805517967_" class="st1" d="M2116.1,112.3c12-3.2,24.2,3.9,27.4,15.8
	c-263.3,456.1-526.7,912.2-790,1368.3c-12,3.2-24.2-3.9-27.4-15.8C1589.4,1024.5,1852.8,568.4,2116.1,112.3z"/>
<g id="layer_1">
	<g id="grope_3_">
		<g id="small_flag_2_">
			<path id="pole_1_" class="st1" d="M1801.9,1475.8c-3.2,11.9-15.4,19-27.4,15.8c-263.3-456.1-526.7-912.2-790-1368.3
				c3.2-11.9,15.4-19,27.4-15.8C1275.2,563.6,1538.6,1019.7,1801.9,1475.8z"/>
			<g id="wrap_1_" class="st2">
				<path id="yellow_3_" class="st3" d="M1324.5,712.2c3.2-11.9,15.4-19,27.4-15.8c-56.7-98.1-113.3-196.3-170-294.4
					c-11.9-3.2-24.2,3.9-27.4,15.8C1211.2,515.9,1267.9,614.1,1324.5,712.2z"/>
				<path id="blue_1_" class="st4" d="M1154.5,417.8c3.2-11.9,15.4-19,27.4-15.8c-56.7-98.1-113.3-196.3-170-294.4
					c-11.9-3.2-24.2,3.9-27.4,15.8C1041.2,221.5,1097.9,319.6,1154.5,417.8z"/>
			</g>
			<g id="flag_2_">
				<g id="bottom_part_1_">
					<path id="contour_4_" class="st5" d="M653.6,1104.2c195.4,52.4,396.2-63.6,448.6-259C987.6,646.6,872.9,448,758.2,249.4
						c-52.4,195.4-253.2,311.4-448.6,259C424.3,707,539,905.6,653.6,1104.2z"/>
					<path id="contour_3_" class="st3" d="M929,551.8C875.2,743,678.6,856.5,486.2,807.5c56.7,98.1,113.3,196.3,170,294.4
						c192.5,49,389-64.5,442.8-255.7C1042.3,748.1,985.7,649.9,929,551.8z"/>
					<path id="contour_2_" class="st4" d="M759,257.3C705.2,448.5,508.6,562,316.2,513c56.7,98.1,113.3,196.3,170,294.4
						c192.5,49,389-64.5,442.8-255.7C872.3,453.6,815.7,355.5,759,257.3z"/>
				</g>
				<g id="top_part_1_">
					<path id="contour_8_" class="st5" d="M877.9,974.7c52.4-195.4,253.2-311.4,448.6-259c-114.7-198.6-229.3-397.2-344-595.8
						c-195.4-52.4-396.2,63.6-448.6,259C648.6,577.5,763.3,776.1,877.9,974.7z"/>
					<path id="contour_7_" class="st3" d="M1150,416.6c-192.5-49-389,64.5-442.8,255.7c56.7,98.1,113.3,196.3,170,294.4
						C931,775.5,1127.5,662,1320,711C1263.3,612.9,1206.7,514.7,1150,416.6z"/>
					<path id="contour_6_" class="st4" d="M980,122.1c-192.5-49-389,64.5-442.8,255.7c56.7,98.1,113.3,196.3,170,294.4
						C761,481.1,957.5,367.6,1150,416.6C1093.3,318.4,1036.7,220.3,980,122.1z"/>
				</g>
			</g>
		</g>
		<g id="small_flag_1_">
			
				<ellipse id="pole_2_" transform="matrix(0.5 -0.866 0.866 0.5 173.3463 1901.1793)" class="st6" cx="1733.2" cy="800.5" rx="1179" ry="21.3"/>
			<g id="wrap_2_">
				<path id="contour_9_" class="st7" d="M1915.2,516.8c-3.2-11.9-15.4-19-27.4-15.8c37.8-65.4,75.6-130.9,113.3-196.3
					c11.9-3.2,24.2,3.9,27.4,15.8C1990.8,385.9,1953,451.3,1915.2,516.8z"/>
				<path id="contour_5_" d="M2028.6,320.5c-3.2-11.9-15.4-19-27.4-15.8c37.8-65.4,75.6-130.9,113.3-196.3
					c11.9-3.2,24.2,3.9,27.4,15.8C2104.1,189.6,2066.3,255,2028.6,320.5z"/>
				<path id="contour_1_" class="st8" d="M1801.9,713.1c-3.2-11.9-15.4-19-27.4-15.8c37.8-65.4,75.6-130.9,113.3-196.3
					c11.9-3.2,24.2,3.9,27.4,15.8C1877.5,582.2,1839.7,647.6,1801.9,713.1z"/>
			</g>
			<g id="flag_1_">
				<g id="bottom_part_2_">
					<path class="st5" d="M2048.7,860.2c58.1,216.8,280.9,345.4,497.7,287.3c114.7-198.6,229.3-397.2,344-595.8
						c-216.8,58.1-439.6-70.6-497.7-287.3C2278.1,463,2163.4,661.6,2048.7,860.2z"/>
					<path class="st8" d="M2657.2,948.9c-213.8,54.7-432.4-71.5-491.9-284c-37.8,65.4-75.6,130.9-113.3,196.3
						c59.5,212.5,278.1,338.7,491.9,284C2581.6,1079.8,2619.4,1014.4,2657.2,948.9z"/>
					<path class="st7" d="M2770.5,752.6c-213.8,54.7-432.4-71.5-491.9-284c-37.8,65.4-75.6,130.9-113.3,196.3
						c59.5,212.5,278.1,338.7,491.9,284C2695,883.5,2732.7,818,2770.5,752.6z"/>
					<path d="M2883.8,556.3c-213.8,54.7-432.4-71.5-491.9-284c-37.8,65.4-75.6,130.9-113.3,196.3c59.5,212.5,278.1,338.7,491.9,284
						C2808.3,687.2,2846.1,621.8,2883.8,556.3z"/>
				</g>
				<g id="top_part_2_">
					<path class="st5" d="M1799.9,716.5c216.8-58.1,439.6,70.6,497.7,287.3c114.7-198.6,229.3-397.2,344-595.8
						c-58.1-216.8-280.9-345.4-497.7-287.3C2029.2,319.3,1914.6,517.9,1799.9,716.5z"/>
					<path class="st8" d="M2411.6,799.6c-59.5-212.5-278.1-338.7-491.9-284c-37.8,65.4-75.6,130.9-113.3,196.3
						c213.8-54.7,432.4,71.5,491.9,284C2336.1,930.4,2373.9,865,2411.6,799.6z"/>
					<path class="st7" d="M2525,603.3c-59.5-212.5-278.1-338.7-491.9-284c-37.8,65.4-75.6,130.9-113.3,196.3
						c213.8-54.7,432.4,71.5,491.9,284C2449.4,734.1,2487.2,668.7,2525,603.3z"/>
					<path d="M2638.3,407c-59.5-212.5-278.1-338.7-491.9-284c-37.8,65.4-75.6,130.9-113.3,196.3c213.8-54.7,432.4,71.5,491.9,284
						C2562.8,537.8,2600.5,472.4,2638.3,407z"/>
				</g>
			</g>
		</g>
	</g>
</g>
</svg>
