<svg xmlns="http://www.w3.org/2000/svg" viewBox="0 0 2587.33 2290.03"><defs><style>.cls-1{fill:#005bba;}.cls-1,.cls-10,.cls-11,.cls-12,.cls-13,.cls-14,.cls-15,.cls-16,.cls-17,.cls-18,.cls-19,.cls-2,.cls-20,.cls-21,.cls-22,.cls-23,.cls-24,.cls-25,.cls-26,.cls-3,.cls-4,.cls-5,.cls-6,.cls-7,.cls-8,.cls-9{fill-rule:evenodd;}.cls-2{fill:#3689e2;}.cls-3{fill:#1370d4;}.cls-4{fill:#053f7c;}.cls-5{fill:#054f9e;}.cls-6{fill:#0f75e2;}.cls-7{fill:#3891f2;}.cls-8{fill:#0a417c;}.cls-9{fill:#60aafb;}.cls-10{fill:#0a64c3;}.cls-11{fill:#1880ef;}.cls-12{fill:#fff;}.cls-13{fill:#cfe6ff;}.cls-14{fill:#deba04;}.cls-15{fill:#00448c;}.cls-16{fill:#ffd400;}.cls-17{fill:#005bbb;}.cls-18{fill:#c2c2c2;}.cls-19{fill:#999;}.cls-20{fill:#ffdd3b;}.cls-21{fill:#edc603;}.cls-22{fill:#dbb603;}.cls-23{fill:#1cb31c;}.cls-24{fill:#158215;}.cls-25{fill:#dfa307;}.cls-26{fill:#aa7b00;}</style></defs><g id="Layer_2" data-name="Layer 2"><g id="Layer_1-2" data-name="Layer 1"><path class="cls-1" d="M1675.5,970.32c-596.1,100.83-1072.69,411.34-1551.43,580.27A1287.68,1287.68,0,0,1,0,1031.5C547.09,978.39,1115.57,823,1675.5,778.56Z"/><path class="cls-2" d="M1675.5,970.21c-234,39.62-449.66,111.56-654.23,194.6L1371.49,812c101.51-14,202.9-25.63,304-33.65Z"/><path class="cls-3" d="M1675.5,970.21c-225.51,38.17-433.92,106.37-631.82,185.58l-.07-.08c202.19-168.29,410.18-244.9,631.89-277.25Z"/><path class="cls-4" d="M1021.27,1164.81c-316.4,128.45-606.36,283.33-897.11,386a1287.48,1287.48,0,0,1-58.93-146.64C341.69,1371.74,663.26,1294.64,1021.27,1164.81Z"/><path class="cls-5" d="M1021.27,1164.81C705.7,1292.92,416.46,1447.35,126.49,1550l-3.09-.87a1287.62,1287.62,0,0,1-58.17-145C341.69,1371.74,663.26,1294.64,1021.27,1164.81Z"/><path class="cls-6" d="M0,1031.5c359.53-34.92,728.31-114.06,1097.83-176.84C915.55,1140.79,477.35,1270.07,27.19,1263.28A1296.09,1296.09,0,0,1,0,1031.5Z"/><path class="cls-7" d="M0,1031.54c267.83-26,540.79-76.59,815.37-126.65-191,224.25-511.53,305.21-805.29,257.41A1301,1301,0,0,1,0,1031.54Z"/><path class="cls-8" d="M1675.5,825.54c-579.33,52-1155.26,230.44-1667.58,318q2.47,21.89,5.64,43.56c511.57-90.52,1090-271.67,1661.94-328.95Z"/><path class="cls-9" d="M1675.5,907.56C1110.17,986.11,546.41,1200.28,41.72,1325q5,19.21,10.68,38.17C555.27,1235.38,1119.26,1020,1675.5,936.3Z"/><path class="cls-1" d="M111.32,1522.94c934.54-208.81,1571-1235.86,2369.4-1041.75a1297.62,1297.62,0,0,1,33.53,944.41C1804.39,1268.84,1030.66,1667.24,269.35,1787A1293.7,1293.7,0,0,1,111.32,1522.94Z"/><path class="cls-2" d="M111.37,1523.06c252.77-56.56,483.71-173,702-309L466.25,1750.69c-65.62,13.91-131.2,26.26-196.68,36.56A1294,1294,0,0,1,111.37,1523.06Z"/><path class="cls-3" d="M111.37,1523.05c244.2-54.64,468-165.17,679.74-295.2l.07.11c-197.27,252-400.12,368.82-616,419.33A1289.88,1289.88,0,0,1,111.37,1523.05Z"/><path class="cls-4" d="M813.32,1214.11c588.54-366.7,1084.73-875,1667.11-733.59,66.47,152.82,104.26,321,106.67,497.66C2258.57,729.85,1632.18,758.37,813.32,1214.11Z"/><path class="cls-5" d="M813.32,1214.11c312.74-194.85,599.38-429.74,886.75-585.91,353.88,155.28,647.12,178.3,857.7,92.09a1298.05,1298.05,0,0,1,29.33,257.89C2258.57,729.85,1632.18,758.37,813.32,1214.11Z"/><path class="cls-10" d="M2509.36,595.7q7.69.81,15.3,1.75a1289.86,1289.86,0,0,1,55.82,264.81,797.8,797.8,0,0,1-86.44-4.53c-180.93-19.13-324.17-93.31-319.93-165.67S2328.44,576.56,2509.36,595.7Z"/><path class="cls-11" d="M2221.39,768c127.84,8.13,240.65-8.48,336.39-47.67a1297.54,1297.54,0,0,1,22.7,142,797.8,797.8,0,0,1-86.44-4.53C2378,845.47,2277.46,810.55,2221.39,768Z"/><path class="cls-6" d="M2514.25,1425.58c-564.65-124.69-1169.72,101.94-1776.8,260.27C1025,993.06,1955.22,904.75,2552.9,1293.66A1287.57,1287.57,0,0,1,2514.25,1425.58Z"/><path class="cls-7" d="M2133.33,1389.81c-362.66,6.51-737.77,113.81-1116,219.64C1280.07,1136,1790.26,1082.41,2133.33,1389.81Z"/><path class="cls-8" d="M222,1721.68c862.6-137.41,1713.18-685,2348.92-519.17q5.48-34.14,9.17-68.83C1947.89,957.29,1063.89,1533,192.46,1676.06Q206.76,1699.19,222,1721.68Z"/><path class="cls-9" d="M153,1607.8c886.63-184.33,1770.37-891.22,2425.36-764.06q-4.09-34.92-10-69.26c-648.06-118.3-1553.3,603.18-2435.44,794.29Q142.65,1588.47,153,1607.8Z"/><path class="cls-12" d="M2266.72,622.25A139.72,139.72,0,0,1,2420,598.66a140.13,140.13,0,0,1,101.76-10.21,1289.24,1289.24,0,0,1,61,299.06q-6.12.78-12.39,1.38a143.59,143.59,0,0,1-257.1,51.36,118.84,118.84,0,0,1-215-44.64c-80.12-13.63-137.61-50.78-137.61-94.47,0-41.37,51.51-76.87,125-92.11a124.08,124.08,0,0,1,181.12-86.78Z"/><path class="cls-12" d="M571.09,918.05c19.75-15.84,46-25.51,74.92-25.51a123.78,123.78,0,0,1,46.87,9.08,123.4,123.4,0,0,1,50.75-10.74c55.37,0,101.28,35.56,109.62,82C907,984.32,944,1008,944,1035.41c0,33.88-56.61,62.11-131.63,68.38-11.48,44.59-56.94,77.89-111.28,77.89-38.39,0-72.35-16.63-93-42.11-17,21.88-45.63,36.25-78.11,36.25-46.13,0-84.54-29-92.78-67.35-63.67-9.49-109.36-35.37-109.36-65.81,0-28.81,40.94-53.54,99.32-64.15,8.35-40.31,48.58-70.87,97-70.87A109.2,109.2,0,0,1,571.09,918.05Z"/><path class="cls-13" d="M1084.88,1264.1c-22.66,7.22-49.42,12.36-78.61,14.72-13.23,49.6-65.64,86.65-128.28,86.65-44.28,0-83.44-18.5-107.27-46.85C751.13,1343,718.11,1359,680.67,1359c-53.2,0-97.48-32.28-107-74.93-73.4-10.57-126.08-39.35-126.08-73.22,0-32.06,47.19-59.57,114.51-71.38,9.62-44.85,56-78.85,111.8-78.85a132.42,132.42,0,0,1,35.46,4.77c20.48-10.4,47.51-18.69,78.67-23.92,10.06-44.84,58.62-78.84,117-78.84a141.06,141.06,0,0,1,56.67,11.59c11-51.68,89.29-78.85,147-18.28A159.51,159.51,0,0,1,1170,944c66.83,0,122.23,39.56,132.3,91.28,64.92,12.67,109.57,39,109.57,69.51,0,37.69-68.32,69.1-158.86,76.09C1233.74,1249.62,1149.58,1277.27,1084.88,1264.1Z"/><path class="cls-14" d="M1632.55,615.77c98,34,201-69.54,308.69,15.15L1931.49,242c-44.16-76.5-214.43,5-296.4-78.18Z"/><path class="cls-15" d="M1632.55,615.77c98,34,201-69.54,308.69,15.15l-5.39-215c-82.62-100.26-222.55,27.45-301.87-53Z"/><path class="cls-16" d="M1335.76,562.17c128.51,35.71,263.38-72.51,404.76,16.32l-13.36-407.16c-58-80.16-281.14,4.9-388.74-82.29Z"/><path class="cls-17" d="M1335.76,562.17c128.51,35.71,263.38-72.51,404.76,16.32l-7.28-222c-98.8-77-297.75,13.34-396.14-30.83Z"/><path class="cls-18" d="M1343.13,35.86h0a18.67,18.67,0,0,0-18.56,18.63l.94,2181a18.57,18.57,0,0,0,18.58,18.52h0a18.66,18.66,0,0,0,18.56-18.62l-1-2181A18.56,18.56,0,0,0,1343.13,35.86Z"/><path class="cls-19" d="M1343.09,0a35.86,35.86,0,1,1-35.82,35.9A35.87,35.87,0,0,1,1343.09,0Z"/><path class="cls-20" d="M1141.29,2281.08c214.1-9.19,423.38-33.35,614.5-76.21C2071.68,2084,2328,1842.81,2468.92,1537.41c-712.72,301.38-1452.4,393.83-2056,406.74C609,2126.24,861.46,2248.3,1141.29,2281.08Z"/><path class="cls-21" d="M1066.45,2270.16c264.65-7.4,524.51-36.12,755.47-92.69,275.71-123.53,500.24-340.76,633.22-611.14C1850.76,1885.84,1156.38,2016.19,559,2061.4A1286.74,1286.74,0,0,0,1066.45,2270.16Z"/><path class="cls-22" d="M2119.59,1991.92C1677,2129.68,1211.54,2179.73,776.44,2182.51a1289.37,1289.37,0,0,0,517,107.52C1607.53,2290,1895.47,2178.06,2119.59,1991.92Z"/><path class="cls-12" d="M413.16,1944.34q1.77-6.28,3.88-12.67l30.15-91.3,33.14,90.08c11.22,30.49,32.7,58,52,83.74,9.64,12.81,19.18,25.55,28.07,38.61,18.76-52,17.7-100.66,14.94-155.22L573,1850.31l79.71,11.91,5.31,26.62c11.87,59.56,12.59,110.58-1.26,168.51A268.58,268.58,0,0,1,697.26,2044c32.27-8.13,78.28-11.4,107.12-26.76l4.32-2.31c-6.56-35.19-2.77-72.55,13.72-113.57l32.07-79.79L889.64,1900c13.74,30.71,40.65,58.86,63.2,83.51,13.78,15.06,27.83,30.39,40.65,46.61.86-2,1.73-3.92,2.64-5.91,23.35-51.93,22.18-99.9,18.75-155.48l-2.89-46.85,87.65,10.76,6.36,26.25c14.78,61,15.46,112.86-2,172,18.29-7.14,37.36-12.21,56.6-16.19,40.54-8.39,94.73-11,132-27.28l7.89-3.45c-19.27-50.79-19.62-104.85,5-166.25l34-84.73,37.32,83.33c16,35.74,47,68.23,73.25,96.91,17,18.55,34.35,37.49,49.93,57.67,1.66-3.84,3.39-7.73,5.18-11.7,27.1-60.28,25.81-115.85,21.84-180.36l-3.07-50,94.72,11.64,6.81,28c17.43,71.77,17.69,132.42-4.27,202.56,22.74-9.49,46.66-16,70.81-21,45.91-9.5,106.27-12.46,149.38-30.26-7.94-44.93-2.84-92.61,18.22-145l36.42-90.62,39.92,89.13c18.68,41.72,54.62,79.4,85.24,112.88,20.78,22.71,42.15,46,61,70.94q3.91-9.12,8.23-18.71c31.57-70.21,30.16-134.85,25.53-210l-3.3-53.79,103.19,12.67,7.31,30.14c14.49,59.67,18.65,112.6,10.25,167.84a1299.9,1299.9,0,0,1-279.1,223.43c-10.56-10.82-20.77-21.53-30-32.19-19-22-35.36-44.11-48.53-66.61a176.19,176.19,0,0,1-57.67,67.85,221.15,221.15,0,0,1-37.28,21.08c-67,30-148,28-214,52.55-4.47,33.28-3.86,71.94-1.06,109.88q-54,11.6-109.69,18.66-.22-12.49-.41-25c-.34-22.63-.35-45.34.32-68-24.78-37.57-65.25-71.73-94.11-105.1a432.09,432.09,0,0,1-28.48-36.48c-10.84,34.52-30.34,63.73-61.1,85.45a195.07,195.07,0,0,1-32.89,18.59c-57.72,25.84-127.77,24.5-184.6,45.17-2.87,22.45-3.11,47.66-1.91,73.16q-50.85-9.57-100.23-23,.1-10.24.39-20.48c-21.44-32.16-56.4-61.77-81.12-90.36a357.79,357.79,0,0,1-32.31-43.08c-9.11,25.88-23.41,49.25-45.06,67.86A160.41,160.41,0,0,1,766.13,2178,1295.54,1295.54,0,0,1,413.16,1944.34Z"/><path class="cls-23" d="M2179.62,1727.94c23.43,96.65,12.72,158.19-7,217.38q-28.73,26.64-59,51.54c27-66.51,57.85-95.9,47.09-271.24Z"/><path class="cls-24" d="M1545.79,2120.56c49.71-178.55,235.84-138,335.29-181.57C1845.7,2107.71,1657.55,2060,1545.79,2120.56Z"/><path class="cls-23" d="M1585,1778.28c37.22,153.56-25.13,204.72-52.53,328.87a158.72,158.72,0,0,0-7.36-47.07,185,185,0,0,0-7.56-20c24.71-81.87,61.81-89,51.07-263.83l16.38,2Zm-62.81,491.57c-8.1,1.45-16.25,2.76-24.41,4.05-.53-20.93-.69-40.19-.54-58l1.12,2,14.51-30.29a218.9,218.9,0,0,0,10.89-27h0C1520.39,2192,1519.42,2227.86,1522.21,2269.85Z"/><path class="cls-24" d="M1032.76,2165.65c43.22-155.24,205-120,291.51-157.86C1293.51,2154.47,1129.92,2113,1032.76,2165.65Z"/><path class="cls-23" d="M1068.07,1868.08c32.37,133.53-21.85,178-45.67,286a138.06,138.06,0,0,0-6.4-40.94,161.41,161.41,0,0,0-6.57-17.37c21.48-71.18,53.74-77.36,44.4-229.39l14.24,1.74Zm-56,391.18q-10.18-2.27-20.33-4.68l0-6,1,1.75,12.63-26.36a188.46,188.46,0,0,0,9.46-23.47h0A504.63,504.63,0,0,0,1012.06,2259.26Z"/><path class="cls-24" d="M635.37,2110.32c55.39-62.61,146.7-48.49,201.36-77.62-14.71,85.35-66.37,107-122.73,120.56Q673.86,2133.11,635.37,2110.32Z"/><path class="cls-23" d="M622.91,1897.17c18.11,90.85,3.27,140.48-14.24,196.91q-10.09-6.3-20.07-12.78c14.68-39.34,28.43-70.9,22.62-185.88Z"/><path class="cls-24" d="M1898.14,1790.19c-54,134.44,19.68,220.76,91.8,296.54q44.89-28.74,87.16-61.06C2033.45,1942.18,1936.29,1875.4,1898.14,1790.19Z"/><path class="cls-24" d="M1341.46,1832.14c-69.08,172,103.33,253,155.83,348C1571.78,2024.68,1393.4,1948.16,1341.46,1832.14Z"/><path class="cls-24" d="M856.31,1914.93c-60.06,149.53,89.84,219.93,135.48,302.56C1056.56,2082.33,901.47,2015.79,856.31,1914.93Z"/><path class="cls-24" d="M448.9,1944a242.23,242.23,0,0,0-7.09,26.21q19.41,17,39.52,33.18C468.24,1984.46,456.62,1965,448.9,1944Z"/><path class="cls-12" d="M1861.37,1335.71a198.73,198.73,0,0,1-23.49-50.86l-14.34-48.06,47.66-16.64a204.38,204.38,0,0,1,55.28-10.91q-.37-4.71-.5-9.46l-.7-40.39,40.66-2.82c2.93-.2,5.87-.32,8.81-.39a199,199,0,0,1,5.22-55.65l11.77-48.78,49.74,9.22a203.77,203.77,0,0,1,53.37,17.9q1.83-3.81,3.85-7.49l19.46-36.82,37.12,18.18q4.13,2,8.12,4.1a200.43,200.43,0,0,1,32.61-45.55l34.78-36.38,38.42,32.59a200.45,200.45,0,0,1,37.22,42c2.52-1.72,5.11-3.38,7.73-5l34.76-21,23,33.26c1.73,2.48,3.38,5,5,7.58a202.78,202.78,0,0,1,51.23-23.28l48.49-14.26,16.8,47.29a198.18,198.18,0,0,1,11,54.83c2.93-.24,5.87-.41,8.8-.51l40.74-1.36,3.55,40.65q.36,4.51.47,9c5.57-.25,11.16-.27,16.74-.08-38.41,275-163.22,522.36-346.16,713.66a203.59,203.59,0,0,1-23.06-28.7q-3.81,2.58-7.76,5l-34.43,20.8L2140,1854.29q-2.55-3.72-4.93-7.55A203.16,203.16,0,0,1,2083.8,1870l-48.51,14.25L2018.5,1837a198.91,198.91,0,0,1-11-54.79q-4.74.38-9.57.51l-40,.64-3.48-39.72c-.28-3.09-.45-6.19-.53-9.27a204.19,204.19,0,0,1-56.06-5.2l-20.32-4.83,3.19,10.71-38.61,13.48a144.5,144.5,0,0,1-32.61,7.24l1.16,34-34.19,2.36a140.52,140.52,0,0,1-3.89,32.9l-9.54,39.5-40.27-7.46a143.55,143.55,0,0,1-31.92-9.88h0l-16.46,29.38L1644,1862.21a142.45,142.45,0,0,1-20,26.57l-28.19,29.47-31.11-26.43a142.44,142.44,0,0,1-22.66-24.37l-28.73,17.37-19.45-27.56a143.85,143.85,0,0,1-30.72,13.1l-39.29,11.56-13.61-38.32a141.12,141.12,0,0,1-7.31-32.33h-.05l-33.64.53-2.94-33.27a144,144,0,0,1-33.2-3.86l-6.44-1.53-15.19,10.32a124.11,124.11,0,0,1,10.51,25l10.87,36.43-36.13,12.63a128,128,0,0,1-26.52,6.16l1,29.74-29.94,2.06a124.56,124.56,0,0,1-3.43,26.76l-8.92,37-37.72-7a128.27,128.27,0,0,1-26.12-7.8l-14.41,25.7-26.57-12.52a127.52,127.52,0,0,1-16.53,21.51l-26.41,27.59L1052,1982a127.24,127.24,0,0,1-18.66-19.69l-25.14,15.2-17-24.11A128.82,128.82,0,0,1,966,1963.8l-36.79,10.81-12.74-35.86a124.85,124.85,0,0,1-6.21-26.32l-29.47.48-2.56-29.1a128.66,128.66,0,0,1-27-3.41l-8.93-2.13.39,1.32-32.45,11.34a103.22,103.22,0,0,1-17.36,4.41l.81,23.54L770,1920.51a102.53,102.53,0,0,1-2.63,17.57l-8,33.2L725.47,1965a104.21,104.21,0,0,1-17.38-4.81l-11.37,20.31-21-9.89a103.57,103.57,0,0,1-11.21,14l-23.7,24.76-26.15-22.21a103.12,103.12,0,0,1-12.6-12.74l-19.82,12-13.43-19a104.14,104.14,0,0,1-16.78,6.57l-33,9.71-11.43-32.22a102.17,102.17,0,0,1-4.48-17.31l-23.23.37-2-22.93a104.63,104.63,0,0,1-17.84-2.63l-11.48-2.72,7.55,25.31-31.23,10.91a94.27,94.27,0,0,1-10.53,3,1300.26,1300.26,0,0,1-233.76-289c1.88.53,3.73,1.12,5.57,1.76l10.12-19.17,19.66,9.62a94.38,94.38,0,0,1,9.3-11.39L248,1613.47l25.17,21.34a94.57,94.57,0,0,1,10.53,10.46L302,1634.2l12.11,17.5a96.14,96.14,0,0,1,13.9-5.29l31.79-9.34,11,31a96.23,96.23,0,0,1,3.82,14.19l21.2-.73L397.7,1703a97.23,97.23,0,0,1,14.76,2.31l16.6,4a100.05,100.05,0,0,1-5.21-13.76l-9.74-32.7,32.43-11.35A103.93,103.93,0,0,1,464,1647l-.41-23.54,23.17-1.6a101.6,101.6,0,0,1,2.65-17.57l8-33.22,33.86,6.28a104.56,104.56,0,0,1,17.23,4.75l11.07-21,21.47,10.53a103.51,103.51,0,0,1,11.14-13.89L615.91,1533l26.17,22.2a103.28,103.28,0,0,1,12.61,12.75l20.06-12.1L688,1574.94a104.78,104.78,0,0,1,16.73-6.54l33-9.71,11.43,32.22a101.68,101.68,0,0,1,4.45,17.21l23.23-.79,2,23.46a104.72,104.72,0,0,1,17.85,2.62l19.74,4.68,3.28-2.2a124.76,124.76,0,0,1-10.51-25l-10.87-36.43,36.14-12.63a128.67,128.67,0,0,1,26.56-6.17l-.53-29.78,29.4-2a125.37,125.37,0,0,1,3.43-26.77l8.93-37,37.71,7a128.11,128.11,0,0,1,26.07,7.77l14-26.45,27.1,13.26a127,127,0,0,1,16.49-21.47l26.39-27.59,29.13,24.73a127.37,127.37,0,0,1,18.68,19.69l25.39-15.31L1140,1466a127.39,127.39,0,0,1,25.15-10.43l36.79-10.82,12.73,35.87a125.17,125.17,0,0,1,6.21,26.27l29.46-1,2.57,29.65A128.21,128.21,0,0,1,1280,1539l6.89,1.63L1272.66,1517l27.81-18.65a141,141,0,0,1-13.21-30.5l-11.61-38.93,38.61-13.47a144,144,0,0,1,32.64-7.24s0,0,0,0l-.59-34,33.61-2.32a141.13,141.13,0,0,1,3.88-32.91l9.54-39.49,40.28,7.45a143.65,143.65,0,0,1,31.91,9.87l16-30.21,30.92,15.14a142.6,142.6,0,0,1,20-26.56l28.18-29.47,31.12,26.41a142.22,142.22,0,0,1,22.68,24.38l29-17.53,19.17,27.71a144.58,144.58,0,0,1,30.72-13.1l39.29-11.55,13.61,38.32a141.22,141.22,0,0,1,7.3,32.33l33.68-1.13,2.95,33.87a144.13,144.13,0,0,1,33.21,3.86l15,3.56-18-29.83,33.62-22.55q3.66-2.46,7.44-4.74ZM1857.78,1669h0l.15-.76c.28-1.55.6-3.09.92-4.62l-3,2c.65,1.12,1.29,2.25,1.9,3.38Zm13.24-43.2h0q2.32-5.32,5-10.52-2-.93-3.93-1.92c-1.93,1.54-3.89,3-5.91,4.49Z"/><path class="cls-16" d="M1568.41,1299.07c19.57,16.62,32,39.58,37.46,64.4,7.65,34.89,1.48,71.64-10.26,105a118.17,118.17,0,0,0-46.62,2.41c-15.15-32-25.12-67.91-21.15-103.4,2.82-25.23,12.8-49.34,30.54-67.88l4.77-5,5.26,4.47Zm19.54,565.8h0c-19.57-16.61-32-39.57-37.46-64.38-7.66-34.9-1.48-71.66,10.26-105a117.63,117.63,0,0,0,46.61-2.39c15.15,32,25.13,67.9,21.16,103.39-2.82,25.24-12.81,49.35-30.54,67.89l-4.77,5-5.26-4.47Zm-91.06-364.64h0A116,116,0,0,1,1536,1475c-6.66-34.71-19.85-69.6-44.07-96-17.23-18.8-39.58-32.51-64.93-37.21l-6.81-1.26-1.6,6.68c-6,24.75-2.46,50.78,7.78,73.94,14.47,32.71,41.23,58.88,70.49,79.06Zm162.58,163.48h0a115.8,115.8,0,0,1-39.15,25.2c6.67,34.71,19.86,69.6,44.09,96,17.22,18.79,39.58,32.51,64.91,37.2l6.81,1.27,1.62-6.69c6-24.75,2.45-50.77-7.79-73.93-14.47-32.71-41.23-58.89-70.49-79.07Zm-192.94-112.23h0c-35.51-3-71.88-12.38-100.89-33.53-20.65-15-36.71-35.68-44-60.17l-2-6.59,6.53-2.28c24.21-8.46,50.7-7.66,75,0,34.31,10.88,63.33,34.57,86.61,61.33a114.31,114.31,0,0,0-21.23,41.21Zm223.3,61h0c35.51,3,71.88,12.38,100.9,33.53,20.63,15,36.7,35.67,44,60.17l2,6.59-6.54,2.28c-24.22,8.46-50.69,7.67-75,0-34.33-10.88-63.35-34.56-86.62-61.33a114.35,114.35,0,0,0,21.23-41.2Zm-223.73-1.56h0a114.33,114.33,0,0,1-3.55-23,113.12,113.12,0,0,1,1.14-23.22c-33.65-11.64-70.73-17.76-105.92-10.17-25,5.39-48.18,17.73-65,37.14l-4.51,5.21,5,4.73c18.7,17.59,43,27.48,68.49,30.28,35.79,3.93,72-6,104.28-21ZM1690.25,1553h0a113.53,113.53,0,0,1,3.56,23,114.71,114.71,0,0,1-1.14,23.23c33.64,11.64,70.73,17.75,105.92,10.16,25-5.39,48.19-17.73,65-37.13l4.5-5.22-5-4.72c-18.7-17.59-43-27.48-68.48-30.28-35.79-3.94-72,5.94-104.29,21Zm-194.52,109.52h0c-20.36,29-46.76,55.54-79.75,69.88-23.37,10.15-49.62,13.66-74.58,7.72l-6.74-1.59,1.27-6.76c4.74-25.12,18.57-47.28,37.52-64.36,26.66-24,61.85-37.09,96.85-43.7a114.81,114.81,0,0,0,25.43,38.81Zm164.9-161.17h0c20.35-29,46.76-55.54,79.76-69.89,23.36-10.15,49.61-13.65,74.58-7.72l6.73,1.61-1.27,6.75c-4.73,25.11-18.57,47.27-37.52,64.35-26.66,24-61.86,37.1-96.86,43.7a114.34,114.34,0,0,0-25.42-38.8Zm-113.21,191.27h0a116.16,116.16,0,0,1-41.57-21.05c-27,23.07-50.89,51.85-61.86,85.87-7.76,24.08-8.57,50.33,0,74.34l2.3,6.47,6.65-2c24.71-7.27,45.52-23.2,60.68-43.66,21.34-28.77,30.82-64.82,33.83-100Zm165-360.53h0l-2.3-6.48-6.64,1.95c-24.71,7.27-45.52,23.21-60.7,43.66-21.33,28.77-30.81,64.83-33.81,100a115.93,115.93,0,0,1,41.55,21.06c27-23.08,50.89-51.85,61.87-85.88C1720.14,1382.38,1720.93,1356.13,1712.4,1332.13Z"/><path class="cls-25" d="M1523.71,1352.59a96.05,96.05,0,0,0-26.45-18.69l-.28-.13-.14.27a94.37,94.37,0,0,0-10.35,30.51,140.37,140.37,0,0,1,10.28,10.13,164.45,164.45,0,0,1,26.6,39.77,163.22,163.22,0,0,1-2-47.68,138.31,138.31,0,0,1,2.34-14.18Zm135.66,477.6h0l.15-.27a95.39,95.39,0,0,0,10.36-30.53,138.52,138.52,0,0,1-10.3-10.12,164.56,164.56,0,0,1-26.6-39.79,163.72,163.72,0,0,1,2,47.7,138.34,138.34,0,0,1-2.35,14.18,96,96,0,0,0,26.45,18.69l.28.14Zm-244-419.87h0a97.43,97.43,0,0,0-32.34-3.08l-.31,0v.3a94.78,94.78,0,0,0,6.46,31.58,141.47,141.47,0,0,1,14,3.65,166.41,166.41,0,0,1,43.1,21.26,164.64,164.64,0,0,1-25.79-40.29,136.59,136.59,0,0,1-5.11-13.45ZM1741,1753.63h0a97.17,97.17,0,0,0,32.34,3.08l.31,0v-.3a95.1,95.1,0,0,0-6.47-31.59,140,140,0,0,1-14-3.64,167,167,0,0,1-43.11-21.27,164.9,164.9,0,0,1,25.8,40.31,137,137,0,0,1,5.11,13.44Zm-336.59-208.37h0a166.48,166.48,0,0,1-42.66-22.11,139.72,139.72,0,0,1-11.2-9.09,96.88,96.88,0,0,0-29.57,13.35l-.25.17.16.27A95.53,95.53,0,0,0,1342.4,1552a142.88,142.88,0,0,1,14-3.78,167.48,167.48,0,0,1,48-3Zm401.33,104.62h0a96.23,96.23,0,0,0,29.58-13.34l.26-.18-.16-.26A95.42,95.42,0,0,0,1814,1612a142.64,142.64,0,0,1-14,3.77,167.57,167.57,0,0,1-48.06,3,166.41,166.41,0,0,1,42.67,22.12,139.86,139.86,0,0,1,11.19,9.08Zm-459-13.91h0a95.54,95.54,0,0,0-18.85,26.23l-.13.27.27.15a97.23,97.23,0,0,0,30.79,10.26,136.47,136.47,0,0,1,10.21-10.2,166.29,166.29,0,0,1,40.12-26.38,167.52,167.52,0,0,1-48.1,2,138.88,138.88,0,0,1-14.31-2.32Zm450.7-144.9h0a142.25,142.25,0,0,1-10.2,10.2,166.86,166.86,0,0,1-40.14,26.37,167.58,167.58,0,0,1,48.11-2,138.47,138.47,0,0,1,14.31,2.33,95.53,95.53,0,0,0,18.85-26.22l.13-.28-.27-.14a96.67,96.67,0,0,0-30.79-10.27Zm-363.38,278.3h0a136.74,136.74,0,0,1,3.69-13.86,163.74,163.74,0,0,1,21.44-42.73,166.07,166.07,0,0,1-40.65,25.57,138.9,138.9,0,0,1-13.56,5.07,94.78,94.78,0,0,0-3.1,32.07l0,.3h.3a97.25,97.25,0,0,0,31.86-6.41Zm288.13-374.79h0a135.81,135.81,0,0,1-3.68,13.85,164,164,0,0,1-21.45,42.74,166.12,166.12,0,0,1,40.66-25.57,136.37,136.37,0,0,1,13.56-5.07,95,95,0,0,0,3.11-32.06l0-.32h-.31a97.1,97.1,0,0,0-31.86,6.42Zm-181.09,359.63h0a164.49,164.49,0,0,1-22.31,42.3,140.61,140.61,0,0,1-9.17,11.1,95.69,95.69,0,0,0,13.47,29.32l.18.24.26-.16a95.49,95.49,0,0,0,24.36-21.3,135.25,135.25,0,0,1-3.81-13.86,162.94,162.94,0,0,1-3-47.64ZM1633,1326.77h0l-.26.16a95.47,95.47,0,0,0-24.35,21.3,140.7,140.7,0,0,1,3.8,13.87,163.3,163.3,0,0,1,3,47.64,164.08,164.08,0,0,1,22.31-42.31,138.55,138.55,0,0,1,9.16-11.09,95.3,95.3,0,0,0-13.45-29.32Z"/><path class="cls-26" d="M1572.7,1477.19c58.37-3,108.14,41.48,111.17,99.35s-41.84,107.21-100.21,110.21-108.15-41.48-111.17-99.34,41.84-107.22,100.21-110.22Zm.68,13h0c-51.13,2.62-90.44,45.86-87.79,96.56s46.26,89.65,97.4,87,90.43-45.86,87.78-96.55S1624.51,1487.55,1573.38,1490.18Z"/><path class="cls-26" d="M1573.85,1499.14c46.14-2.37,85.48,32.79,87.88,78.53s-33.08,84.77-79.22,87.13-85.49-32.78-87.88-78.53S1527.71,1501.51,1573.85,1499.14Z"/><path class="cls-16" d="M2241.59,1039.5c28.79,24.45,47.09,58.22,55.09,94.71,11.26,51.31,2.18,105.37-15.08,154.42a173.3,173.3,0,0,0-68.57,3.52c-22.28-47-37-99.85-31.11-152,4.16-37.12,18.84-72.59,44.92-99.85l7-7.33,7.73,6.57Zm326.61,179.16q-11,63.58-28.13,124.95c-36.55,26.69-81.12,42.13-125.47,50.5a168.43,168.43,0,0,0-37.38-57.07h0c29.94-42.65,68.76-81.68,117.29-102.77a183.45,183.45,0,0,1,73.69-15.61Zm-39.37,163.24c-37.42,3.44-74.23,15.36-108,31.11h0a168.88,168.88,0,0,1,3.56,68,377.45,377.45,0,0,0,62.43,16q23.66-56.27,42.06-115.13ZM2481,1510.29q-21.18,48.84-46.16,95.55a373.87,373.87,0,0,1-46-44.83,168,168,0,0,0,31.23-60.59h0a380.07,380.07,0,0,1,60.88,9.87ZM2427.77,1619a371.57,371.57,0,0,0-52.26-43.18h0a170.41,170.41,0,0,1-57.56,37.06c7.62,39.77,21.09,79.7,43.51,113.78q35.68-52.06,66.31-107.66ZM2330,1770.59q-34.39,45.95-72.72,88.61c-21.37-22.89-35.36-51.63-42.08-82.29-11.27-51.31-2.18-105.37,15.08-154.42a173.42,173.42,0,0,0,68.55-3.53c22.23,46.9,36.88,99.58,31.17,151.63Zm-193.63-435.24h0a170.19,170.19,0,0,1,57.56-37.07c-9.79-51-29.19-102.35-64.82-141.21-25.33-27.64-58.21-47.81-95.48-54.71l-10-1.85-2.37,9.83c-8.81,36.38-3.61,74.66,11.46,108.73,21.27,48.1,60.64,86.6,103.66,116.28Zm-44.66,75.35h0c-52.21-4.37-105.7-18.2-148.38-49.3-30.34-22.13-54-52.47-64.76-88.49l-2.9-9.69,9.62-3.36c35.59-12.44,74.54-11.27,110.27.05,50.46,16,93.15,50.84,127.39,90.2a168.16,168.16,0,0,0-31.24,60.59Zm-.62,87.41h0a168.92,168.92,0,0,1-3.56-68c-49.47-17.11-104-26.1-155.76-15-36.81,7.94-70.87,26.08-95.53,54.62l-6.63,7.68,7.39,7c27.5,25.86,63.28,40.41,100.72,44.52,52.65,5.79,105.94-8.75,153.37-30.84Zm43.57,76h0c-29.94,42.66-68.77,81.69-117.29,102.78-34.37,14.93-73,20.08-109.68,11.36l-9.91-2.36,1.87-9.93c7-36.94,27.31-69.54,55.18-94.65,39.2-35.32,91-54.55,142.44-64.26a168.26,168.26,0,0,0,37.39,57.06Zm76,44.28h0a170.72,170.72,0,0,1-61.12-31c-39.71,33.93-74.85,76.27-91,126.29-11.42,35.43-12.6,74-.05,109.33l3.39,9.52,9.77-2.87c36.34-10.68,66.94-34.12,89.26-64.21,31.38-42.29,45.32-95.32,49.74-147.09Zm242.63-530.23h0l-3.38-9.53-9.77,2.87c-36.34,10.68-66.94,34.12-89.26,64.2-31.37,42.31-45.32,95.34-49.73,147.11a170.57,170.57,0,0,1,61.11,31c39.71-33.93,74.84-76.25,91-126.29C2464.73,1162,2465.91,1123.42,2453.35,1088.12Z"/><path class="cls-25" d="M2175.86,1118.21a141.84,141.84,0,0,0-38.9-27.49l-.42-.2-.22.4a139.94,139.94,0,0,0-15.22,44.88,204.54,204.54,0,0,1,15.14,14.89,242.26,242.26,0,0,1,39.13,58.49,240,240,0,0,1-3-70.12,198.3,198.3,0,0,1,3.45-20.85ZM2536,1358c-1.37,4.72-2.77,9.41-4.19,14.11a270.47,270.47,0,0,0-27.31,3.53A263,263,0,0,0,2536,1358Zm-180.34,377q-7.36,10.56-14.92,21a249.06,249.06,0,0,0-4.15-54.08,258.53,258.53,0,0,0,19.07,33.13Zm-339.17-531.93h0a143.34,143.34,0,0,0-47.56-4.53l-.46,0,0,.45a140.14,140.14,0,0,0,9.5,46.44,204.23,204.23,0,0,1,20.56,5.37,245.14,245.14,0,0,1,63.39,31.26c-15.32-17.91-28.36-37.64-37.93-59.27a203.81,203.81,0,0,1-7.52-19.76Zm-16,198.46h0c-22.31-7.92-43.55-18.54-62.73-32.53a203.35,203.35,0,0,1-16.47-13.35,142.27,142.27,0,0,0-43.5,19.63l-.38.25.25.39a140.31,140.31,0,0,0,31.6,35.5,208,208,0,0,1,20.57-5.55,246.25,246.25,0,0,1,70.66-4.34ZM1915.66,1535h0a140.7,140.7,0,0,0-27.72,38.57l-.19.41.4.21a142.45,142.45,0,0,0,45.27,15.09,202.44,202.44,0,0,1,15-15c17.63-15.87,37.65-28.61,59-38.78a246,246,0,0,1-70.75,2.92,205.28,205.28,0,0,1-21-3.41Zm128.43,196.2h0a197.47,197.47,0,0,1,5.41-20.39,241.37,241.37,0,0,1,31.53-62.85,243.94,243.94,0,0,1-59.78,37.61,205,205,0,0,1-19.94,7.46,139.42,139.42,0,0,0-4.56,47.15l0,.45h.46a143.44,143.44,0,0,0,46.85-9.42ZM2467.84,1180h0a202,202,0,0,1-5.42,20.39,241.21,241.21,0,0,1-31.55,62.84,244.21,244.21,0,0,1,59.8-37.6,204.86,204.86,0,0,1,19.93-7.46,139.2,139.2,0,0,0,4.57-47.15l0-.45h-.46a143,143,0,0,0-46.84,9.42ZM2201.5,1708.86h0a241.39,241.39,0,0,1-32.82,62.21,199.73,199.73,0,0,1-13.47,16.32,140.39,140.39,0,0,0,19.8,43.12l.27.37.38-.23a140.74,140.74,0,0,0,35.82-31.33,202.92,202.92,0,0,1-5.6-20.39c-5.06-23.07-6.18-46.63-4.38-70.07Zm135.15-628.62h0l-.39.23a141,141,0,0,0-35.82,31.33,202.87,202.87,0,0,1,5.59,20.39,240.11,240.11,0,0,1,4.39,70.07,241.42,241.42,0,0,1,32.81-62.22,205.84,205.84,0,0,1,13.48-16.32,140.44,140.44,0,0,0-19.8-43.11Z"/><path class="cls-26" d="M2247.9,1301.46c85.84-4.42,159,61,163.5,146.11s-61.53,157.68-147.38,162.09-159.05-61-163.5-146.11,61.53-157.68,147.38-162.09Zm1,19.09h0c-75.2,3.88-133,67.45-129.11,142s68,131.87,143.23,128,133-67.45,129.11-142S2324.1,1316.69,2248.9,1320.55Z"/><path class="cls-26" d="M2249.59,1333.74c67.86-3.49,125.73,48.22,129.24,115.5s-48.63,124.65-116.5,128.14-125.72-48.23-129.25-115.5S2181.73,1337.23,2249.59,1333.74Z"/><path class="cls-16" d="M1057.09,1463c17.07,14.49,27.92,34.52,32.66,56.16,6.67,30.42,1.29,62.47-9,91.56a102.68,102.68,0,0,0-40.65,2.09c-13.21-27.88-21.9-59.21-18.45-90.16,2.47-22,11.17-43,26.64-59.2l4.16-4.34,4.59,3.89Zm17,493.39h0c-17.07-14.49-27.91-34.52-32.67-56.16-6.66-30.41-1.29-62.47,9-91.56a101.72,101.72,0,0,0,20.43,1,103,103,0,0,0,20.22-3.07c13.22,27.87,21.91,59.21,18.45,90.15-2.46,22-11.16,43-26.64,59.2l-4.15,4.34-4.59-3.89Zm-79.4-318h0a100.94,100.94,0,0,1,34.13-22c-5.81-30.26-17.31-60.69-38.44-83.73-15-16.39-34.51-28.34-56.6-32.44l-5.95-1.09-1.4,5.82c-5.22,21.58-2.14,44.28,6.79,64.48,12.61,28.51,36,51.34,61.47,68.94ZM1136.49,1781h0a100.89,100.89,0,0,1-34.14,22c5.82,30.26,17.32,60.69,38.44,83.73,15,16.39,34.52,28.34,56.61,32.44l5.94,1.1,1.41-5.83c5.22-21.58,2.13-44.27-6.8-64.47-12.61-28.52-36-51.35-61.46-69Zm-168.25-97.87h0c-31-2.59-62.68-10.79-88-29.23-18-13.12-32-31.11-38.4-52.47l-1.71-5.74,5.69-2c21.11-7.37,44.2-6.68,65.39,0,29.92,9.49,55.23,30.15,75.53,53.49a99.54,99.54,0,0,0-18.52,35.92ZM1163,1736.28h0c31,2.6,62.67,10.8,88,29.24,18,13.12,32,31.11,38.41,52.47l1.72,5.74-5.71,2c-21.11,7.38-44.19,6.68-65.38,0-29.92-9.49-55.24-30.14-75.54-53.48a99.53,99.53,0,0,0,18.53-35.93Zm-195.1-1.36h0a100.45,100.45,0,0,1-2.11-40.3c-29.34-10.15-61.67-15.49-92.36-8.88-21.82,4.72-42,15.47-56.64,32.39l-3.93,4.55,4.39,4.12c16.3,15.34,37.51,24,59.71,26.4,31.22,3.43,62.82-5.19,90.94-18.28Zm195.46-50.46h0a100.66,100.66,0,0,1,3.11,20,99.25,99.25,0,0,1-1,20.25c29.34,10.15,61.67,15.48,92.36,8.87,21.82-4.71,42-15.47,56.65-32.39l3.92-4.55-4.38-4.12c-16.31-15.33-37.52-24-59.72-26.41-31.21-3.42-62.81,5.2-90.94,18.3ZM993.71,1780h0c-17.76,25.29-40.78,48.43-69.55,60.94-20.37,8.85-43.26,11.91-65,6.73l-5.87-1.4,1.12-5.88c4.12-21.91,16.18-41.24,32.71-56.13,23.24-20.94,53.93-32.34,84.45-38.1A100.08,100.08,0,0,0,993.71,1780Zm143.79-140.55h0c17.75-25.29,40.77-48.43,69.55-60.94,20.37-8.84,43.26-11.91,65-6.73l5.88,1.4-1.11,5.88c-4.13,21.91-16.19,41.23-32.72,56.13-23.25,20.94-53.93,32.35-84.46,38.1a99.91,99.91,0,0,0-22.17-33.84Zm-98.72,166.8h0a101.25,101.25,0,0,1-36.24-18.36c-23.54,20.12-44.38,45.22-54,74.88-6.76,21-7.46,43.89,0,64.82l2,5.65,5.79-1.7c21.55-6.33,39.69-20.23,52.92-38.07,18.61-25.08,26.88-56.53,29.5-87.22Zm143.87-314.39h0l-2-5.65-5.8,1.7c-21.54,6.34-39.69,20.24-52.92,38.08-18.61,25.07-26.87,56.52-29.48,87.21a101.37,101.37,0,0,1,36.23,18.36c23.54-20.12,44.38-45.21,53.95-74.87C1189.39,1535.64,1190.09,1512.75,1182.65,1491.82Z"/><path class="cls-25" d="M1018.1,1509.66A83.27,83.27,0,0,0,995,1493.37l-.24-.13-.13.25a82.51,82.51,0,0,0-9,26.61,122.37,122.37,0,0,1,9,8.82,143.78,143.78,0,0,1,23.2,34.68,142.07,142.07,0,0,1-1.75-41.58,120.12,120.12,0,0,1,2-12.36Zm118.31,416.47h0l.12-.23a83,83,0,0,0,9-26.62,120.72,120.72,0,0,1-9-8.82,144.09,144.09,0,0,1-23.2-34.7,142.5,142.5,0,0,1,1.77,41.59,122.69,122.69,0,0,1-2.05,12.37,84.24,84.24,0,0,0,23.06,16.3l.25.11ZM923.59,1560h0a84.58,84.58,0,0,0-28.2-2.69l-.27,0v.26a82.9,82.9,0,0,0,5.63,27.55,118.6,118.6,0,0,1,12.19,3.18,145.27,145.27,0,0,1,37.59,18.53,143.44,143.44,0,0,1-22.49-35.14,121,121,0,0,1-4.46-11.71Zm284,299.36h0a84.66,84.66,0,0,0,28.21,2.69l.27,0v-.28a82.85,82.85,0,0,0-5.64-27.53,119.32,119.32,0,0,1-12.19-3.19,145.27,145.27,0,0,1-37.59-18.53,143.59,143.59,0,0,1,22.5,35.14,120.09,120.09,0,0,1,4.45,11.72Zm-293.52-181.7h0a145.44,145.44,0,0,1-37.19-19.28,124,124,0,0,1-9.76-7.92,84.52,84.52,0,0,0-25.8,11.64l-.22.15.14.23A83.69,83.69,0,0,0,860,1683.55a122.72,122.72,0,0,1,12.2-3.3,146.28,146.28,0,0,1,41.89-2.58Zm350,91.24h0a84.7,84.7,0,0,0,25.79-11.64l.22-.15-.14-.23a83.3,83.3,0,0,0-18.74-21.06,122.48,122.48,0,0,1-12.19,3.29,145.68,145.68,0,0,1-41.91,2.57,145.46,145.46,0,0,1,37.21,19.3,121.79,121.79,0,0,1,9.76,7.92Zm-400.23-12.14h0a83.14,83.14,0,0,0-16.45,22.87l-.12.24.25.13a84.14,84.14,0,0,0,26.84,9,120.67,120.67,0,0,1,8.91-8.9,145,145,0,0,1,35-23,146,146,0,0,1-41.94,1.74,122.21,122.21,0,0,1-12.47-2Zm393-126.35h0a114.85,114.85,0,0,1-8.9,8.89,145,145,0,0,1-35,23,146.08,146.08,0,0,1,42-1.73,122.44,122.44,0,0,1,12.46,2,82.86,82.86,0,0,0,16.44-22.86l.12-.25-.24-.12a84.12,84.12,0,0,0-26.85-8.95ZM940,1873.1h0a121,121,0,0,1,3.22-12.09,143.24,143.24,0,0,1,18.69-37.26,145,145,0,0,1-35.44,22.3,125.36,125.36,0,0,1-11.82,4.42,82.44,82.44,0,0,0-2.71,28l0,.27h.26A84.64,84.64,0,0,0,940,1873.1Zm251.26-326.83h0a117.6,117.6,0,0,1-3.21,12.09,143.05,143.05,0,0,1-18.71,37.27,144.86,144.86,0,0,1,35.46-22.31,121.67,121.67,0,0,1,11.82-4.42,82.41,82.41,0,0,0,2.71-28l0-.27H1219a84.68,84.68,0,0,0-27.78,5.58Zm-157.91,313.61h0a143,143,0,0,1-19.46,36.88,121.58,121.58,0,0,1-8,9.69,83,83,0,0,0,11.74,25.55l.15.23.23-.14a83.7,83.7,0,0,0,21.24-18.57,118.86,118.86,0,0,1-3.32-12.09,142.18,142.18,0,0,1-2.59-41.55Zm80.12-372.73h0l-.22.13a83.55,83.55,0,0,0-21.24,18.58,120.77,120.77,0,0,1,3.32,12.09,142.81,142.81,0,0,1,2.6,41.54,143.33,143.33,0,0,1,19.45-36.88,119.31,119.31,0,0,1,8-9.68,83,83,0,0,0-11.74-25.56Z"/><path class="cls-26" d="M1060.82,1618.31c50.9-2.61,94.3,36.17,97,86.64s-36.49,93.49-87.38,96.11-94.31-36.18-97-86.63,36.49-93.5,87.38-96.12Zm.6,11.33h0c-44.59,2.29-78.87,40-76.55,84.2s40.33,78.18,84.93,75.9,78.86-40,76.54-84.2S1106,1627.35,1061.42,1629.64Z"/><path class="cls-26" d="M1061.83,1637.45c40.23-2.07,74.54,28.6,76.63,68.49s-28.84,73.91-69.08,76-74.54-28.6-76.63-68.49S1021.59,1639.52,1061.83,1637.45Z"/><path class="cls-16" d="M621.74,1578.71c13.31,11.31,21.78,26.93,25.48,43.81,5.21,23.73,1,48.74-7,71.43a80.25,80.25,0,0,0-31.72,1.63c-10.3-21.75-17.09-46.19-14.39-70.33,1.92-17.18,8.71-33.58,20.78-46.19l3.24-3.39,3.58,3ZM635,1963.62h0c-13.33-11.3-21.79-26.92-25.5-43.8-5.2-23.74-1-48.75,7-71.44a80.19,80.19,0,0,0,31.71-1.63c10.31,21.75,17.1,46.2,14.39,70.34-1.92,17.16-8.71,33.57-20.77,46.18l-3.25,3.39-3.57-3Zm-61.95-248.06h0a79,79,0,0,1,26.62-17.15c-4.52-23.6-13.5-47.34-30-65.31-11.72-12.79-26.93-22.12-44.17-25.31l-4.62-.86-1.11,4.55c-4.07,16.83-1.66,34.54,5.3,50.29,9.85,22.25,28.06,40.06,48,53.79Zm110.6,111.21h0a78.71,78.71,0,0,1-26.63,17.15c4.53,23.6,13.51,47.34,30,65.32,11.71,12.78,26.92,22.11,44.16,25.3l4.63.86,1.1-4.54c4.07-16.84,1.67-34.54-5.3-50.3-9.84-22.26-28-40-47.95-53.79Zm-131.26-76.35h0c-24.16-2-48.9-8.42-68.63-22.81-14.05-10.24-25-24.27-30-40.93l-1.34-4.48,4.45-1.56c16.47-5.75,34.49-5.21,51,0,23.34,7.4,43.1,23.52,58.93,41.72a77.65,77.65,0,0,0-14.45,28Zm151.91,41.49h0c24.16,2,48.9,8.42,68.64,22.82,14,10.23,25,24.26,30,40.92l1.35,4.48-4.46,1.55c-16.47,5.77-34.48,5.23-51,0-23.34-7.4-43.09-23.52-58.92-41.73a77.63,77.63,0,0,0,14.44-28Zm-152.19-1.06h0a78.14,78.14,0,0,1-1.66-31.44c-22.88-7.92-48.1-12.08-72.05-6.92-17,3.67-32.78,12.06-44.19,25.27l-3.06,3.54,3.42,3.22c12.72,12,29.26,18.69,46.59,20.6,24.35,2.68,49-4,70.95-14.27Zm152.48-39.37h0a78.14,78.14,0,0,1,1.64,31.44c22.89,7.92,48.12,12.08,72.06,6.93,17-3.68,32.78-12.07,44.19-25.27l3.07-3.55-3.42-3.22c-12.73-12-29.28-18.69-46.59-20.6-24.36-2.67-49,4.06-71,14.27ZM572.3,1826h0c-13.85,19.74-31.82,37.79-54.26,47.55-15.89,6.9-33.76,9.29-50.74,5.25l-4.58-1.08.87-4.6c3.22-17.09,12.63-32.16,25.52-43.78,18.13-16.33,42.08-25.24,65.89-29.73A77.64,77.64,0,0,0,572.3,1826Zm112.18-109.63h0c13.85-19.74,31.81-37.79,54.25-47.55,15.9-6.9,33.75-9.29,50.73-5.25l4.6,1.08-.87,4.6c-3.22,17.09-12.63,32.17-25.53,43.78-18.14,16.34-42.07,25.23-65.89,29.73a77.81,77.81,0,0,0-17.29-26.39Zm-77,130.12h0a78.93,78.93,0,0,1-28.27-14.33c-18.37,15.7-34.63,35.28-42.09,58.42-5.28,16.39-5.83,34.24,0,50.58l1.56,4.4,4.52-1.33c16.82-4.94,31-15.78,41.29-29.7,14.52-19.56,21-44.09,23-68ZM719.69,1601.2h0l-1.56-4.41-4.52,1.33c-16.81,4.94-31,15.78-41.28,29.7-14.53,19.57-21,44.09-23,68a78.67,78.67,0,0,1,28.27,14.32c18.36-15.7,34.61-35.27,42.09-58.42C725,1635.38,725.51,1617.53,719.69,1601.2Z"/><path class="cls-25" d="M591.34,1615.11a65.83,65.83,0,0,0-18-12.71l-.19-.09-.1.18a64.72,64.72,0,0,0-7,20.77,94.68,94.68,0,0,1,7,6.88,112.82,112.82,0,0,1,18.1,27.06,111,111,0,0,1-1.38-32.44,92.92,92.92,0,0,1,1.61-9.65ZM683.62,1940h0l.1-.19a64.42,64.42,0,0,0,7-20.77,90.86,90.86,0,0,1-7-6.88,111.85,111.85,0,0,1-18.1-27.06,111,111,0,0,1,1.36,32.44,92.42,92.42,0,0,1-1.59,9.65,65.57,65.57,0,0,0,18,12.71l.19.1Zm-166-285.64h0a66.33,66.33,0,0,0-22-2.09h-.22v.21a64.79,64.79,0,0,0,4.39,21.48q4.83,1,9.52,2.48A113.31,113.31,0,0,1,538.62,1691a111.92,111.92,0,0,1-17.54-27.41,91,91,0,0,1-3.48-9.15Zm221.57,233.55h0a66.09,66.09,0,0,0,22,2.1l.22,0v-.21a64.36,64.36,0,0,0-4.4-21.48q-4.82-1-9.51-2.48a113.78,113.78,0,0,1-29.32-14.47,112.12,112.12,0,0,1,17.55,27.42,90.81,90.81,0,0,1,3.47,9.14Zm-229-141.75h0a113.22,113.22,0,0,1-29-15c-2.64-1.94-5.19-4-7.62-6.18a65.57,65.57,0,0,0-20.11,9.08l-.17.11.1.19A65.07,65.07,0,0,0,468,1750.77a95.36,95.36,0,0,1,9.51-2.57,114.3,114.3,0,0,1,32.69-2Zm273,71.17h0a65.6,65.6,0,0,0,20.12-9.07l.18-.12-.12-.18a64.69,64.69,0,0,0-14.62-16.42,94.59,94.59,0,0,1-9.51,2.56,114,114,0,0,1-32.69,2,113.22,113.22,0,0,1,29,15,96.49,96.49,0,0,1,7.62,6.18ZM471,1807.9h0a65.37,65.37,0,0,0-12.82,17.84l-.09.18.19.11a66.05,66.05,0,0,0,20.94,7,96.82,96.82,0,0,1,6.94-7,113.45,113.45,0,0,1,27.3-17.93,114.29,114.29,0,0,1-32.72,1.35,94.51,94.51,0,0,1-9.74-1.58Zm306.62-98.58h0a97,97,0,0,1-7,7,113.78,113.78,0,0,1-27.3,17.94,114,114,0,0,1,32.73-1.36,93.73,93.73,0,0,1,9.72,1.59,64.78,64.78,0,0,0,12.83-17.84l.09-.19-.18-.1a65.91,65.91,0,0,0-20.94-7ZM530.38,1898.66h0a93,93,0,0,1,2.5-9.44,111.91,111.91,0,0,1,14.59-29.06,112.8,112.8,0,0,1-27.65,17.39,94.77,94.77,0,0,1-9.23,3.45,64.7,64.7,0,0,0-2.11,21.81l0,.21h.21a66.69,66.69,0,0,0,21.67-4.36Zm196-255h0a92.82,92.82,0,0,1-2.5,9.43,111.22,111.22,0,0,1-14.6,29.07,113.63,113.63,0,0,1,27.67-17.4,94.52,94.52,0,0,1,9.22-3.44,64.5,64.5,0,0,0,2.11-21.82l0-.2h-.21a66.42,66.42,0,0,0-21.67,4.36ZM603.2,1888.34h0A112,112,0,0,1,588,1917.11a89.9,89.9,0,0,1-6.24,7.55,64.93,64.93,0,0,0,9.17,19.95l.11.17.18-.1a65.36,65.36,0,0,0,16.58-14.5,91.45,91.45,0,0,1-2.6-9.43,111,111,0,0,1-2-32.41Zm62.51-290.79h0l-.18.11A65.06,65.06,0,0,0,649,1612.15a96.68,96.68,0,0,1,2.58,9.43,111,111,0,0,1,2,32.41,111.71,111.71,0,0,1,15.18-28.77,93.48,93.48,0,0,1,6.23-7.55,64.89,64.89,0,0,0-9.16-20Z"/><path class="cls-26" d="M624.66,1699.88c39.71-2,73.57,28.22,75.63,67.59s-28.47,72.93-68.17,75-73.57-28.22-75.63-67.59,28.46-72.93,68.17-75Zm.46,8.84h0c-34.79,1.79-61.52,31.19-59.73,65.68s31.48,61,66.26,59.22,61.53-31.2,59.72-65.69S659.91,1706.93,625.12,1708.72Z"/><path class="cls-26" d="M625.44,1714.82c31.39-1.62,58.16,22.3,59.79,53.42s-22.51,57.66-53.89,59.27-58.16-22.31-59.79-53.42S594.05,1716.43,625.44,1714.82Z"/><path class="cls-16" d="M253.43,1657.68c12.06,10.25,19.73,24.4,23.09,39.68,4.72,21.51.92,44.16-6.32,64.72a71.27,71.27,0,0,0-14.44-.7c-1.8.1-3.59.25-5.35.47q-9.84-13.38-19.33-27a100.44,100.44,0,0,1-2.65-35c1.74-15.55,7.9-30.41,18.83-41.84l2.93-3.07,3.24,2.75ZM385,1917.4q-30.18-29.76-58.37-61.45.92-2.52,1.64-5.12h0c21.89,1.82,44.3,7.62,62.18,20.65,12.71,9.27,22.62,22,27.14,37.08l1.22,4.07-4,1.4A69.47,69.47,0,0,1,385,1917.4Zm-56.46-103.2h0a71,71,0,0,1,1.49,28.48c20.73,7.17,43.58,10.94,65.26,6.26,15.43-3.32,29.71-10.93,40-22.88l2.78-3.21-3.1-2.91c-11.53-10.85-26.52-16.94-42.2-18.67-22.07-2.42-44.4,3.67-64.27,12.93Zm-18.26-31.84h0c12.54-17.87,28.81-34.22,49.14-43.06,14.41-6.26,30.58-8.42,46-4.76l4.15,1-.79,4.16c-2.91,15.48-11.44,29.13-23.12,39.66-16.42,14.8-38.11,22.86-59.68,26.92a70.86,70.86,0,0,0-15.67-23.91Zm31.9-104.3h0l-1.42-4-4.09,1.2c-15.23,4.49-28.05,14.3-37.4,26.91-13.15,17.73-19,39.95-20.85,61.64a71.49,71.49,0,0,1,25.61,13c16.64-14.22,31.36-32,38.14-52.92C346.93,1709,347.44,1692.84,342.17,1678.06Z"/><path class="cls-25" d="M225.89,1690.66a59.25,59.25,0,0,0-16.3-11.51l-.18-.09-.09.17a58,58,0,0,0-5.61,14.85c3.59,5.58,7.27,11.09,10.94,16.61a100.24,100.24,0,0,1,7.16,10.78c1.14,1.68,2.32,3.33,3.47,5a99.76,99.76,0,0,1-.84-27.07c.34-2.93.82-5.85,1.45-8.74Zm173.83,183.22h0a59.72,59.72,0,0,0,18.22-8.22l.16-.11-.1-.16a58.82,58.82,0,0,0-13.24-14.89,85.66,85.66,0,0,1-8.62,2.33,103.4,103.4,0,0,1-29.62,1.82,102.88,102.88,0,0,1,26.3,13.63,88.3,88.3,0,0,1,6.9,5.6ZM394.6,1776h0a84.56,84.56,0,0,1-6.28,6.28,102.51,102.51,0,0,1-24.73,16.25,103.74,103.74,0,0,1,29.65-1.22,87.37,87.37,0,0,1,8.81,1.43,58.74,58.74,0,0,0,11.62-16.16l.08-.17-.17-.09a59.5,59.5,0,0,0-19-6.32Zm-46.36-59.48h0a84.07,84.07,0,0,1-2.27,8.55,101.38,101.38,0,0,1-13.22,26.34,102.54,102.54,0,0,1,25.05-15.76,87.68,87.68,0,0,1,8.36-3.13,58.76,58.76,0,0,0,1.92-19.75l0-.2h-.18a59.87,59.87,0,0,0-19.63,3.94Zm-55-41.77h0l-.16.09a59.36,59.36,0,0,0-15,13.13,84.29,84.29,0,0,1,2.35,8.54,100.22,100.22,0,0,1,1.83,29.36A101.07,101.07,0,0,1,296,1699.82a83.92,83.92,0,0,1,5.64-6.84,58.51,58.51,0,0,0-8.3-18.07Z"/><path class="cls-26" d="M256.08,1767.46c36-1.85,66.64,25.56,68.51,61.22a64,64,0,0,1-2.66,22c-2.15-2.44-4.35-4.83-6.48-7.29a56.67,56.67,0,0,0,1.07-14.27c-1.57-29.92-26.28-53.2-56-53.7-2-2.61-4-5.22-5.91-7.84Z"/><path class="cls-26" d="M264.92,1781.19a51.34,51.34,0,0,1,46,48.19,53,53,0,0,1-.25,8.38Q287,1810.15,264.92,1781.19Z"/></g></g></svg>